<?xml version="1.0" encoding="utf-8"?>
<!-- Generator: Adobe Illustrator 16.0.0, SVG Export Plug-In . SVG Version: 6.00 Build 0)  -->
<!DOCTYPE svg PUBLIC "-//W3C//DTD SVG 1.1//EN" "http://www.w3.org/Graphics/SVG/1.1/DTD/svg11.dtd">
<svg version="1.1" xmlns="http://www.w3.org/2000/svg" xmlns:xlink="http://www.w3.org/1999/xlink" x="0px" y="0px" width="152px"
	 height="151px" viewBox="0 0 152 151" enable-background="new 0 0 152 151" xml:space="preserve">
<g id="Layer_27_xA0_Image_1_">
</g>
<g id="Shape_4_1_" enable-background="new    ">
	<g>
		<path fill="#F5EEE5" d="M76,149.044c-40.647,0-73.715-33.068-73.715-73.715C2.285,34.682,35.353,1.614,76,1.614
			c40.646,0,73.715,33.068,73.715,73.715C149.715,115.976,116.646,149.044,76,149.044z"/>
		<path fill="#FFFFFF" d="M76,3.114c39.819,0,72.215,32.396,72.215,72.215c0,39.819-32.396,72.215-72.215,72.215
			c-39.82,0-72.215-32.396-72.215-72.215C3.785,35.509,36.18,3.114,76,3.114 M76,0.114c-41.541,0-75.215,33.675-75.215,75.215
			c0,41.54,33.675,75.215,75.215,75.215c41.54,0,75.215-33.675,75.215-75.215C151.215,33.789,117.54,0.114,76,0.114L76,0.114z"/>
	</g>
	<g id="Shape_4">
		<g>
			<path fill="#452228" d="M98.27,29.804c0,0-6.49-16.017-26.722-13.856c-16.989,1.815-33.318,14.846-34.639,35.628
				c-1.319,20.783,0,71.256,0,71.256s41.402,17.485,78.185-1.979V46.628C115.094,46.628,114.599,25.846,98.27,29.804z"/>
		</g>
	</g>
	<g>
		<defs>
			<polygon id="SVGID_1_" points="92.438,16.825 92.084,16.73 100.249,9.556 53.239,3.989 7.961,10.153 2.766,36.4 -3.667,74.38 
				13.652,91.823 52.25,81.927 76.991,63.494 103.713,19.824 			"/>
		</defs>
		<clipPath id="SVGID_2_">
			<use xlink:href="#SVGID_1_"  overflow="visible"/>
		</clipPath>
		<g id="Shape_4_3_" clip-path="url(#SVGID_2_)">
			<g>
				<path fill="#6B363E" d="M97.866,29.652c0,0-6.49-16.017-26.721-13.855c-16.989,1.814-33.318,14.845-34.639,35.628
					c-1.32,20.783,0,71.259,0,71.259s41.402,17.483,78.184-1.979V46.477C114.69,46.477,114.196,25.694,97.866,29.652z"/>
			</g>
		</g>
	</g>
	<g>
		<path fill="#D4E6F0" d="M42.373,66.582c-0.007-0.305-1.012-0.608-1.012-0.915C41.361,45.36,56.869,28.9,76,28.9
			s34.639,16.46,34.639,36.767c0,0.307-1.005,0.609-1.011,0.915h3.958c0.006-0.305,0.021-0.608,0.021-0.915
			c0-22.627-16.291-40.969-37.607-40.969c-21.317,0-37.608,18.342-37.608,40.969c0,0.307,0.015,0.609,0.022,0.915H42.373z"/>
	</g>
</g>
<g id="Shape_5_1_" enable-background="new    ">
	<g id="Shape_5_3_">
		<g>
			<path fill="#E6C19C" d="M37.899,124.813c0,0,0.08-0.226,0.247-0.597C37.96,124.262,37.875,124.448,37.899,124.813z
				 M103.218,114.916c0,0-7.918-2.146-7.918-5.938c0-3.794-0.989-11.877-0.989-11.877s-28.536-23.587-38.597,0v10.887
				c0,0,0.232,4.781-7.286,7.19c-6.673,2.138-9.495,7.293-10.281,9.037c2.93-0.716,31.456,34.438,70.02-1.383L103.218,114.916z"/>
		</g>
	</g>
	<path fill="#E6C19C" d="M15.941,132.668"/>
</g>
<g id="Shape_5_copy_1_" enable-background="new    ">
	<g id="Shape_5_copy">
		<g>
			<path fill="#DCAD7F" d="M98.27,94.133c0,0-47.149-22.26-42.556,2.969c1.144,6.282,9.875,15.835,16.824,15.835
				C85.403,112.937,99.484,100.812,98.27,94.133z"/>
		</g>
	</g>
</g>
<g id="Shape_3_1_" enable-background="new    ">
	<g id="Shape_3_3_">
		<g>
			<path fill="#F2CEA5" d="M100.249,44.649c-5.443-3.133-10.805-0.742-10.805-0.742s-3.019-10.599-18.555-7.34
				c-11.795,2.474-11.662,9.156-19.497,16.412c-1.959,1.813-6.565,7.504-6.565,7.504s2.144,28.371,11.875,38.598
				c9.732,10.227,17.814,9.897,17.814,9.897s19.793-0.99,25.732-18.805c5.938-17.814,4.783-17.484,5.938-28.7
				C107.341,50.257,104.725,47.227,100.249,44.649z"/>
		</g>
	</g>
</g>
<g id="Group_6_1_">
	<g id="Rectangle_1_copy_2">
		<g>
			<path fill="#9099A6" d="M42.848,61.474c-8.577,1.813-10.061,9.731-7.917,18.804c2.144,9.072,12.866,8.907,12.866,8.907
				L42.848,61.474z"/>
		</g>
	</g>
	<g id="Rounded_Rectangle_8">
		<g>
			<path fill="#3B4052" d="M51.356,87.615l-5.217-26.333c-0.206-1.039-1.242-1.708-2.313-1.496c-1.073,0.211-1.775,1.227-1.57,2.265
				l5.217,26.333c0.206,1.039,1.242,1.708,2.313,1.495C50.86,89.67,51.563,88.654,51.356,87.615z"/>
		</g>
	</g>
</g>
<g id="Shape_7_1_" enable-background="new    ">
	<g id="Shape_7_3_">
		<g>
			<path fill="#B37C56" d="M61.651,55.535c-6.804-0.181-9.897,1.979-9.897,1.979l0.99,2.969c0,0,3.464-1.979,8.907-1.979
				c5.443,0,8.628,4.949,8.628,4.949l2.258-1.979C72.538,61.474,68.736,55.724,61.651,55.535z"/>
		</g>
	</g>
</g>
<g id="Rectangle_2_1_" enable-background="new    ">
	<g id="Rectangle_2">
		<g>
			<path fill="#D9F0FB" d="M105.237,86.874c0,0-1.783,4.224-4.615,6.731c-2.724,2.411-6.499,3.11-6.499,3.11l1.968,2.222
				c0,0,3.775-0.698,6.499-3.11c2.832-2.506,4.616-6.73,4.616-6.73L105.237,86.874z"/>
		</g>
	</g>
</g>
<g id="Rounded_Rectangle_9_1_" enable-background="new    ">
	<g id="Rounded_Rectangle_9_4_">
		<g>
			<path fill="#40424C" d="M97.27,98.084c-0.446-2.365-2.801-3.945-5.257-3.531l-8.901,1.496c-2.457,0.414-4.088,2.665-3.642,5.029
				c0.446,2.363,2.801,3.946,5.258,3.532l8.9-1.499C96.085,102.697,97.716,100.447,97.27,98.084z"/>
		</g>
	</g>
</g>
<g id="Shape_6_1_" enable-background="new    ">
	<g id="Shape_6">
		<g>
			<path fill="#DE1D23" d="M103.218,114.916c0,0-7.945,21.046-27.079,21.046c-19.133,0-27.711-20.783-27.711-20.783l-29.29,9.387
				c0,0,18.432,25.979,56.743,25.979c37.277,0,56.67-25.52,56.67-25.52L103.218,114.916z"/>
		</g>
	</g>
	<path fill="#DE1D23" d="M178.268,118.378"/>
</g>
<g id="Group_6_copy_1_">
	<g id="Rectangle_1_copy_2_3_">
		<g>
			<path fill="#9099A6" d="M108.527,61.254l-4.814,28.165c0,0,10.432,0.169,12.517-9.054
				C118.317,71.146,116.871,63.098,108.527,61.254z"/>
		</g>
	</g>
	<g id="Rounded_Rectangle_8_3_">
		<g>
			<path fill="#3B4052" d="M108.593,59.54c-1.043-0.215-2.052,0.465-2.251,1.521l-5.076,26.766
				c-0.201,1.055,0.483,2.086,1.525,2.303c1.043,0.216,2.052-0.465,2.251-1.521l5.076-26.765
				C110.319,60.788,109.635,59.756,108.593,59.54z"/>
		</g>
	</g>
</g>
<g id="Layer_14">
</g>
<g id="Shape_8_1_" enable-background="new    ">
	<g id="Shape_8">
		<g>
			<path fill="#B57F59" d="M83.115,59.489c-2.965,1.97-5.921,6.219-6.434,10.633c-0.631,5.441,1.738,11.135,3.773,13.124
				c1.085-1.266,1.668-2.413,1.668-2.413s-3.028-3.772-2.678-9.891c0.227-3.957,2.455-7.406,5.609-9.212
				c3.672-2.104,8.612-2.932,11.53-0.699l1.685-2.526C98.27,58.504,90.579,54.53,83.115,59.489z"/>
		</g>
	</g>
</g>
<g id="Shape_9_1_" enable-background="new    ">
	<path fill="#232324" d="M85.403,65.245c0,0,2.001-1.092,4.805-1.092s5.092,0.989,5.092,0.989l-0.766,2.137
		c0,0-1.646-0.698-4.182-0.698c-2.537,0-4.256,0.823-4.256,0.823L85.403,65.245z"/>
	<g id="Shape_9_4_">
		<g>
			<path fill="#A3705F" d="M67.589,91.164c0,0,2.281,5.938,8.907,5.938c5.909,0,8.907-5.938,8.907-5.938H67.589z"/>
		</g>
	</g>
	<path fill="#232324" d="M57.196,65.245c0,0,2-1.092,4.805-1.092c2.804,0,5.092,0.989,5.092,0.989l-0.767,2.137
		c0,0-1.646-0.698-4.182-0.698c-2.536,0-4.254,0.823-4.254,0.823L57.196,65.245z"/>
</g>
</svg>
