<?xml version="1.0" encoding="utf-8"?>
<!-- Generator: Adobe Illustrator 16.0.0, SVG Export Plug-In . SVG Version: 6.00 Build 0)  -->
<!DOCTYPE svg PUBLIC "-//W3C//DTD SVG 1.1//EN" "http://www.w3.org/Graphics/SVG/1.1/DTD/svg11.dtd">
<svg version="1.1" id="Layer_1" xmlns="http://www.w3.org/2000/svg" xmlns:xlink="http://www.w3.org/1999/xlink" x="0px" y="0px"
	 width="237.971px" height="94.988px" viewBox="0 0 237.971 94.988" enable-background="new 0 0 237.971 94.988"
	 xml:space="preserve">
<g id="Layer_0_xA0_Image_1_">
</g>
<g id="g">
</g>
<g id="n">
	<path fill="#D74E4F" d="M0.551,49.452h12.19c0,7.819,5.293,13.341,13.112,13.341c7.821,0,13.109-5.98,13.109-13.805v-4.137
		c-2.757,3.223-8.278,5.291-14.258,5.291c-14.492,0-24.61-10.122-24.61-25.074c0-13.798,11.958-25.067,25.76-25.067
		c14.949,0,25.762,10.115,25.762,25.067v23.92c0,14.952-11.958,25.074-25.762,25.074C10.673,74.063,0.551,64.635,0.551,49.452
		 M38.734,25.068c0-7.593-5.288-13.111-12.88-13.111c-7.358,0-12.879,5.519-12.879,13.111c0,7.358,5.521,13.114,12.879,13.114
		C33.447,38.183,38.734,32.427,38.734,25.068"/>
	<path fill="#D74E4F" d="M59.435,25.068c0-14.953,12.884-25.067,25.994-25.067c14.952,0,25.531,10.115,25.531,25.067v23.92H98.08
		v-23.92c0-7.593-5.291-13.111-12.879-13.111c-7.365,0-12.882,5.519-12.882,13.111v23.92H59.435V25.068z"/>
	<path fill="#D74E4F" d="M127.521,49.452h12.189c0,7.819,5.293,13.341,13.113,13.341s13.107-5.98,13.107-13.805v-4.137
		c-2.757,3.223-8.278,5.291-14.258,5.291c-14.492,0-24.61-10.122-24.61-25.074c0-13.798,11.961-25.067,25.761-25.067
		c14.951,0,25.765,10.115,25.765,25.067v23.92c0,14.952-11.962,25.074-25.765,25.074C137.642,74.063,127.521,64.635,127.521,49.452
		 M165.703,25.068c0-7.593-5.287-13.111-12.88-13.111c-7.359,0-12.881,5.519-12.881,13.111c0,7.358,5.521,13.114,12.881,13.114
		C160.416,38.183,165.703,32.427,165.703,25.068"/>
	<path fill="#D74E4F" d="M186.405,25.068c0-14.953,12.882-25.067,25.994-25.067c14.952,0,25.531,10.115,25.531,25.067v23.92h-12.88
		v-23.92c0-7.593-5.291-13.111-12.881-13.111c-7.363,0-12.883,5.519-12.883,13.111v23.92h-12.882V25.068L186.405,25.068z"/>
	<g enable-background="new    ">
		<path fill="#E34D50" d="M48.571,94.988h-2.229v-6.802c0-2.744,2.229-4.973,4.973-4.973c1.572,0,2.944,0.714,3.858,1.857
			c0.915-1.144,2.315-1.857,3.887-1.857c2.744,0,4.944,2.229,4.944,4.973v6.802h-2.201v-6.802c0-1.515-1.229-2.772-2.744-2.772
			c-1.543,0-2.772,1.258-2.772,2.772v6.802h-2.201v-6.802c0-1.515-1.257-2.772-2.772-2.772c-1.515,0-2.744,1.258-2.744,2.772V94.988
			z"/>
		<path fill="#E34D50" d="M91.471,89.1v5.888h-2.201v-1.286c-1.029,0.8-2.287,1.286-3.687,1.286c-3.258,0-5.887-2.629-5.887-5.888
			c0-3.258,2.629-5.887,5.887-5.887C88.842,83.214,91.471,85.843,91.471,89.1z M89.271,89.1c0-2.029-1.658-3.687-3.687-3.687
			c-2.029,0-3.687,1.657-3.687,3.687s1.658,3.688,3.687,3.688C87.613,92.788,89.271,91.13,89.271,89.1z"/>
		<path fill="#E34D50" d="M118.938,83.214v2.2h-8.288c-0.715,0-1.286,0.571-1.286,1.286s0.571,1.286,1.286,1.286h4.801
			c1.915,0,3.487,1.572,3.487,3.486c0,1.943-1.572,3.516-3.487,3.516h-8.288v-2.229h8.288c0.714,0,1.286-0.571,1.286-1.286
			c0-0.686-0.572-1.286-1.286-1.286h-4.801c-1.915,0-3.487-1.571-3.487-3.486c0-1.943,1.572-3.486,3.487-3.486H118.938z"/>
		<path fill="#E34D50" d="M146.405,89.1v5.888h-2.2v-1.286c-1.029,0.8-2.287,1.286-3.688,1.286c-3.258,0-5.887-2.629-5.887-5.888
			c0-3.258,2.629-5.887,5.887-5.887S146.405,85.843,146.405,89.1z M144.204,89.1c0-2.029-1.658-3.687-3.688-3.687
			s-3.687,1.657-3.687,3.687s1.657,3.688,3.687,3.688S144.204,91.13,144.204,89.1z"/>
		<path fill="#E34D50" d="M162.096,77.326h2.229v17.662h-2.229V77.326z"/>
		<path fill="#E34D50" d="M191.791,89.1v5.888h-2.2v-1.286c-1.029,0.8-2.287,1.286-3.688,1.286c-3.258,0-5.887-2.629-5.887-5.888
			c0-3.258,2.629-5.887,5.887-5.887S191.791,85.843,191.791,89.1z M189.591,89.1c0-2.029-1.658-3.687-3.688-3.687
			s-3.687,1.657-3.687,3.687s1.657,3.688,3.687,3.688S189.591,91.13,189.591,89.1z"/>
	</g>
</g>
</svg>
