<?xml version="1.0" standalone="no"?>
<!DOCTYPE svg PUBLIC "-//W3C//DTD SVG 1.1//EN" "http://www.w3.org/Graphics/SVG/1.1/DTD/svg11.dtd" >
<svg xmlns="http://www.w3.org/2000/svg" xmlns:xlink="http://www.w3.org/1999/xlink" version="1.1">
<metadata>
Created by FontForge 20160407 at Fri Jun 17 18:06:45 2016
 By Jimmy Wärting
2011 Martin Majoor, non-western version by Inka Strotmann published by FSI FontShop International GmbH
</metadata>
<defs>
<font id="NexusSansCompPro-Bold" horiz-adv-x="500" >
  <font-face 
    font-family="NexusSansCompPro-Bold"
    font-weight="700"
    font-stretch="normal"
    units-per-em="1000"
    panose-1="2 11 8 4 3 1 1 2 1 2"
    ascent="733"
    descent="-267"
    x-height="453"
    cap-height="659"
    bbox="-545 -328 1263 1079"
    underline-thickness="64"
    underline-position="-120"
    unicode-range="U+0020-1F4F1"
  />
<missing-glyph horiz-adv-x="552" 
d="M59 659h434v-659h-434v659zM399 94v471h-246v-471h246z" />
    <glyph glyph-name="uniFB00" unicode="ff" horiz-adv-x="607" 
d="M703 617q-13 7 -24 12t-22 7.5t-24 3.5t-29 1q-20 0 -37 -5t-20 -8q-3 -2 -9 -9t-12 -24.5t-10.5 -49.5t-4.5 -85v-7h97v-80h-97v-373h-121v373h-183v-373h-121v372h-77v80h77v14q0 63 11 109t37.5 76.5t69.5 45t106 14.5q31 0 67 -5.5t69 -14.5q28 29 69.5 39.5
t98.5 10.5q31 0 53.5 -5t47.5 -15zM401 599q-23 6 -44.5 9t-45.5 3q-10 0 -21 -1.5t-21 -3.5t-17 -4t-8 -3q-12 -9 -19.5 -27.5t-11 -39.5t-5 -40.5t-1.5 -31.5v-8h183v14q0 41 2.5 73.5t8.5 59.5z" />
    <glyph glyph-name="fi" unicode="fi" horiz-adv-x="544" 
d="M359 0v373h-152v-373h-121v372h-77v80h77v14q0 84 13 137.5t40.5 84t69.5 41.5t101 11q31 0 73 -8.5t76 -31.5l-12 -104q-23 22 -56.5 33t-65.5 11q-11 0 -24.5 -1.5t-25.5 -3.5t-21.5 -4.5t-10.5 -3.5q-3 -2 -9 -9t-12 -24.5t-10.5 -49.5t-4.5 -84v-7h274v-453h-122z
" />
    <glyph glyph-name="fl" unicode="fl" horiz-adv-x="544" 
d="M358 0v633q-13 3 -26 5t-31 2q-21 0 -38 -5t-20 -8q-3 -2 -9 -9t-12 -24.5t-10.5 -49.5t-4.5 -84v-7h97v-80h-97v-373h-121v372h-77v80h77v14q0 84 13 137.5t40.5 84t69.5 41.5t101 11q47 0 82 -13h87v-727h-121z" />
    <glyph glyph-name="uniFB03" unicode="ffi" horiz-adv-x="849" 
d="M663 0v373h-152v-373h-121v373h-183v-373h-121v372h-77v80h77v14q0 63 11 109t37.5 76.5t69.5 45t106 14.5q31 0 67 -5.5t69 -14.5q28 29 69.5 39.5t98.5 10.5q16 0 36.5 -3t41 -8.5t39 -13t32.5 -16.5l-12 -104q-23 22 -56.5 33t-66.5 11q-10 0 -23 -1.5t-25.5 -3.5
t-21.5 -4t-10 -3q-14 -11 -21.5 -31.5t-11 -45t-4 -49t-0.5 -42.5v-7h273v-453h-121zM401 599q-23 6 -44.5 9t-45.5 3q-10 0 -21 -1.5t-21 -3.5t-17 -4t-8 -3q-12 -9 -19.5 -27.5t-11 -39.5t-5 -40.5t-1.5 -31.5v-8h183v12q0 10 0.5 25.5t1.5 34.5t3 38.5t6 36.5z" />
    <glyph glyph-name="uniFB04" unicode="ffl" horiz-adv-x="847" 
d="M662 0v373h-151v-373h-121v373h-183v-373h-121v372h-77v80h77v14q0 63 11 109t37.5 76.5t69.5 45t106 14.5q31 0 67 -5.5t69 -14.5q28 29 69.5 39.5t98.5 10.5q8 0 19 -1t22.5 -3t22.5 -4.5t18 -5.5h86v-727h-120zM401 599q-23 6 -44.5 9t-45.5 3q-10 0 -21 -1.5
t-21 -3.5t-17 -4t-8 -3q-12 -9 -19.5 -27.5t-11 -39.5t-5 -40.5t-1.5 -31.5v-8h183v18q0 11 0.5 26.5t1.5 33t3.5 35.5t5.5 34zM662 633q-13 3 -26.5 5t-31.5 2q-20 0 -37 -5t-20 -8q-3 -2 -9 -9t-12 -24.5t-10.5 -49.5t-4.5 -84v-8h151v181z" />
    <glyph glyph-name=".notdef" horiz-adv-x="552" 
d="M59 659h434v-659h-434v659zM399 94v471h-246v-471h246z" />
    <glyph glyph-name=".null" horiz-adv-x="0" 
 />
    <glyph glyph-name="nonmarkingreturn" horiz-adv-x="250" 
 />
    <glyph glyph-name="space" unicode=" " horiz-adv-x="250" 
 />
    <glyph glyph-name="exclam" unicode="!" horiz-adv-x="250" 
d="M183 257h-110l-17 433h139zM216 79q0 -38 -26 -65t-64 -27q-19 0 -36 7.5t-29.5 20t-19.5 29t-7 35.5q0 38 26.5 64t64.5 26q19 0 35.5 -7t29 -19t19.5 -28.5t7 -35.5z" />
    <glyph glyph-name="quotedbl" unicode="&#x22;" horiz-adv-x="405" 
d="M235 474v249h116v-249h-116zM54 474v249h117v-249h-117z" />
    <glyph glyph-name="numbersign" unicode="#" 
d="M396 1h-88l4 192h-127l-4 -192h-87l3 192h-98v81h102l1 123h-102v81h104l3 182h89l-4 -182h125l4 182h88l-3 -181h95v-82h-98l-1 -122h99v-82h-101zM188 274h126l1 123h-125z" />
    <glyph glyph-name="dollar" unicode="$" 
d="M448 171q0 -36 -12 -64.5t-32 -50.5t-46 -37t-55 -22v-76h-96v66q-42 2 -78 11.5t-78 27.5l16 112q27 -15 48.5 -25.5t40.5 -17t37 -9t39 -2.5q39 0 67 22.5t28 56.5q0 19 -11 33t-27 25.5t-34 20.5t-33 18l-14 8q-29 16 -56.5 33.5t-49 38.5t-35 47t-13.5 61
q0 66 40.5 114t112.5 62v79h96v-75q20 -2 36.5 -4.5t32.5 -6.5t32.5 -10t35.5 -14l-8 -115q-29 17 -51.5 27.5t-42 16t-38 7.5t-39.5 2q-41 0 -62 -23.5t-21 -52.5q0 -20 11.5 -35t28 -27t36 -22t34.5 -19l14 -8q27 -15 53 -31.5t47 -37t33.5 -46t12.5 -58.5z" />
    <glyph glyph-name="percent" unicode="%" horiz-adv-x="840" 
d="M823 169q0 -38 -15.5 -71t-41.5 -58.5t-61.5 -40t-75.5 -14.5q-41 0 -76.5 14.5t-61.5 40t-41 58.5t-15 71t15 71.5t41 59t61.5 40.5t76.5 15q40 0 75.5 -15t61.5 -40.5t41.5 -59t15.5 -71.5zM183 -58l-88 59l554 692l87 -59zM404 480q0 -38 -15 -71.5t-41 -59t-61.5 -40
t-76.5 -14.5q-40 0 -75 14.5t-61.5 40t-41.5 59t-15 71.5t15 71.5t41 59t61 40t76 14.5t76.5 -14.5t61.5 -40t41 -59t15 -71.5zM709 169q0 35 -23.5 58t-56.5 23q-34 0 -58.5 -23t-24.5 -58q0 -34 24.5 -56.5t58.5 -22.5q32 0 56 22t24 57zM292 480q0 35 -24.5 57.5
t-57.5 22.5t-56.5 -22.5t-23.5 -57.5t23.5 -58t56.5 -23q34 0 58 23t24 58z" />
    <glyph glyph-name="ampersand" unicode="&#x26;" horiz-adv-x="668" 
d="M710 -169q-24 0 -42 1t-34 4t-30 8.5t-30 15.5t-34 27.5t-36.5 38.5t-36.5 44l-31 40l-15 20q-44 -29 -89 -38.5t-97 -9.5q-40 0 -78.5 13t-68.5 37t-48.5 59t-18.5 79q0 39 12 71.5t31.5 59.5t44 48.5t50.5 38.5q-18 22 -31.5 40.5t-21.5 35t-12 32.5t-4 34q0 37 15 66
t40.5 48.5t59.5 29.5t71 10q40 0 71.5 -11.5t53 -31.5t32.5 -46t11 -56q0 -31 -11 -57t-29 -48.5t-40 -40.5t-44 -32l124 -175q30 35 43.5 71t16.5 82h-77v77h264v-77h-70q-6 -35 -14.5 -66t-21 -60t-31.5 -56.5t-46 -54.5q18 -23 41 -51.5t45.5 -54t40.5 -44.5t24 -23
q5 -3 19 -5.5t46 -3.5zM220 302q-18 -13 -31.5 -25t-22.5 -25.5t-13.5 -31t-4.5 -42.5q0 -22 9 -39.5t23.5 -30t33 -19t37.5 -6.5q60 0 108 27zM324 535q0 26 -12 41t-42 15q-32 0 -46.5 -16.5t-14.5 -40.5q0 -14 16 -39t34 -49q25 14 45 37t20 52z" />
    <glyph glyph-name="quotesingle" unicode="'" horiz-adv-x="245" 
d="M61 474v249h118v-249h-118z" />
    <glyph glyph-name="parenleft" unicode="(" horiz-adv-x="250" 
d="M250 689q-30 -50 -56 -98.5t-45.5 -99t-31 -105.5t-11.5 -118q0 -75 12 -139.5t31.5 -122t45.5 -111t54 -106.5l-81 -49q-31 52 -59.5 111.5t-50 125t-34.5 135t-13 143.5q0 68 10 128.5t30 118.5t49 116t67 121z" />
    <glyph glyph-name="parenright" unicode=")" horiz-adv-x="250" 
d="M239 233q0 -68 -10 -130t-30 -121.5t-49 -119t-66 -122.5l-84 50q30 49 56.5 99t46 102.5t31 109t11.5 119.5q0 75 -12 138t-32 119t-46 108t-54 105l83 49q30 -53 58 -111t49.5 -121t34.5 -132t13 -142z" />
    <glyph glyph-name="asterisk" unicode="*" 
d="M334 480l99 -124l-92 -66l-88 129l-89 -130l-91 66l96 124l-151 42l35 109l148 -54l-7 157h114l-5 -157l147 54l36 -107z" />
    <glyph glyph-name="plus" unicode="+" 
d="M295 180v-183h-90v183h-183v90h183v183h90v-183h183v-90h-183z" />
    <glyph glyph-name="comma" unicode="," horiz-adv-x="250" 
d="M216 21q0 -39 -33 -95t-93 -114l-64 44q36 50 48 83t12 47v5q0 5 -1.5 11t-7.5 12t-18 11t-34 10l80 109q34 -3 55.5 -16.5t34 -31.5t17 -38t4.5 -37z" />
    <glyph glyph-name="hyphen" unicode="-" horiz-adv-x="375" 
d="M62 178v108h252v-108h-252z" />
    <glyph glyph-name="period" unicode="." horiz-adv-x="250" 
d="M216 79q0 -38 -26.5 -65t-64.5 -27t-64 27t-26 65t26 64t64 26t64.5 -26t26.5 -64z" />
    <glyph glyph-name="slash" unicode="/" horiz-adv-x="313" 
d="M81 -258h-96l247 999h97z" />
    <glyph glyph-name="zero" unicode="0" 
d="M476 329q0 -66 -13.5 -127.5t-41.5 -109t-70.5 -76t-100.5 -28.5q-59 0 -101.5 28.5t-70.5 76t-41 109t-13 127.5t13 127.5t40.5 109t70.5 76t102 28.5q58 0 100.5 -28.5t70.5 -76t41.5 -109t13.5 -127.5zM344 329q0 52 -6 96.5t-18 77t-29.5 51t-40.5 18.5t-40.5 -18.5
t-29.5 -51t-18 -77t-6 -96.5t6 -96t18 -76.5t29.5 -51t40.5 -18.5t40.5 18.5t29.5 51t18 76.5t6 96z" />
    <glyph glyph-name="one" unicode="1" 
d="M76 0v95h123v468h-123v96h250v-564h123v-95h-373z" />
    <glyph glyph-name="two" unicode="2" 
d="M16 0v54q57 63 112.5 117t100.5 107q45 52 71 101.5t26 102.5q0 52 -26 72t-72 20q-30 0 -73 -12.5t-100 -41.5l-11 107q46 20 91.5 31.5t105.5 11.5q30 0 67 -6.5t69.5 -25.5t54.5 -53.5t22 -90.5q0 -48 -12.5 -89t-34 -78.5t-50 -72t-61.5 -70.5q-19 -21 -39.5 -43.5
t-44.5 -46.5h269v-94h-465z" />
    <glyph glyph-name="three" unicode="3" 
d="M454 193q0 -57 -24 -95.5t-63.5 -62t-89 -33.5t-100.5 -10q-36 0 -70.5 4t-65.5 10l11 96q26 -5 56.5 -9t61.5 -4q29 0 56 4t47.5 15.5t32.5 31t12 49.5q0 25 -11.5 44t-31 32t-45.5 20t-54 7h-67v86q97 4 142 36t45 75q0 14 -4.5 29.5t-15.5 28t-30 20.5t-48 8
q-24 0 -59.5 -6t-84.5 -27l-12 97q29 9 48.5 15t38 10t39.5 6t52 2q97 0 150.5 -44t53.5 -117q0 -33 -7.5 -56.5t-21.5 -40.5t-33 -30t-41 -26q25 -5 49 -19t43 -36t30 -50t11 -60z" />
    <glyph glyph-name="four" unicode="4" 
d="M391 185v-185h-121v185h-261v76q60 112 135.5 214t161.5 196h85v-392h97v-94h-97zM270 468q-34 -46 -64.5 -92.5t-58.5 -96.5h123v189z" />
    <glyph glyph-name="five" unicode="5" 
d="M450 225q0 -63 -22.5 -107.5t-60.5 -72t-87 -40t-102 -12.5q-32 0 -70.5 3.5t-70.5 9.5l12 95q23 -5 55 -8.5t58 -3.5q29 0 56.5 5.5t48.5 19t33.5 37.5t12.5 62q0 40 -18 65.5t-51.5 40t-81 20t-107.5 5.5l44 315h334v-94h-212l-16 -130q45 0 89 -12t78.5 -37.5
t56 -65.5t21.5 -95z" />
    <glyph glyph-name="six" unicode="6" 
d="M484 206q0 -42 -13 -81t-40.5 -69.5t-70 -49t-100.5 -18.5q-55 0 -98.5 13.5t-73.5 44t-46 79.5t-16 121q0 64 21 128.5t62 124.5t101.5 113.5t139.5 94.5l71 -85q-37 -17 -72.5 -43t-66 -56.5t-55.5 -62t-40 -59.5q24 8 47 10.5t53 2.5q51 0 88 -18.5t61 -48.5t36 -67
t12 -74zM351 201q0 51 -23 79.5t-70 28.5q-29 0 -52.5 -5t-46.5 -13q-2 -11 -2 -22v-19q0 -47 6.5 -78t19.5 -49.5t33 -26t48 -7.5q25 0 42 10t27 26t14 36t4 40z" />
    <glyph glyph-name="seven" unicode="7" 
d="M353 329q-37 -95 -78.5 -176t-80.5 -153h-145q26 42 51 84.5t49.5 89t48.5 99t47 113.5l68 179h-177l-12 -60h-102v154h459z" />
    <glyph glyph-name="eight" unicode="8" 
d="M484 168q0 -37 -17 -69.5t-48 -57t-75 -39t-98 -14.5q-51 0 -93 14t-72 37.5t-46 54.5t-16 65q0 15 4 34.5t13.5 40t25.5 41t40 37.5l51 34q-49 35 -77.5 72.5t-28.5 93.5q0 32 16.5 60.5t45 50.5t66.5 34.5t81 12.5q38 0 73 -9.5t62 -29t43 -48t16 -66.5q0 -30 -6 -52.5
t-18.5 -41.5t-31.5 -36t-44 -35q26 -18 50 -37t43 -41t30 -48.5t11 -57.5zM356 167q0 18 -18 45.5t-50 48.5l-40 26q-18 -12 -36 -24.5t-32.5 -26.5t-24 -31t-9.5 -39q0 -40 27.5 -62t73.5 -22q28 0 48.5 7.5t34 19.5t20 27t6.5 31zM326 514q0 29 -20 46t-50 17
q-42 0 -63.5 -18t-21.5 -48q0 -34 24.5 -55.5t59.5 -43.5q38 26 54.5 47t16.5 55z" />
    <glyph glyph-name="nine" unicode="9" 
d="M480 413q0 -64 -21 -128.5t-61.5 -124.5t-101.5 -113.5t-140 -94.5l-71 85q37 17 72.5 43t66.5 56.5t55.5 62t39.5 59.5q-23 -8 -46.5 -10.5t-53.5 -2.5q-51 0 -88 18.5t-61 48.5t-36 67t-12 74q0 41 13 80t40.5 69.5t70 49t100.5 18.5q55 0 98.5 -13.5t73.5 -43.5
t46 -79t16 -121zM349 409q0 47 -6.5 78t-19.5 49.5t-33 26t-47 7.5q-24 0 -41 -10t-27.5 -26t-15 -36t-4.5 -40q0 -51 23 -79.5t71 -28.5q29 0 52 4.5t46 13.5q2 11 2 22v19z" />
    <glyph glyph-name="colon" unicode=":" horiz-adv-x="250" 
d="M216 375q0 -38 -26.5 -64.5t-64.5 -26.5t-64 26.5t-26 64.5t26 64t64 26t64.5 -26t26.5 -64zM216 79q0 -38 -26.5 -65t-64.5 -27t-64 27t-26 65t26 64t64 26t64.5 -26t26.5 -64z" />
    <glyph glyph-name="semicolon" unicode=";" horiz-adv-x="250" 
d="M215 21q0 -39 -33 -95t-93 -114l-64 44q35 50 47.5 83t12.5 47v6q0 5 -1.5 11t-7.5 11.5t-18 11t-33 9.5l79 109q34 -3 55.5 -16.5t34 -31.5t17 -38t4.5 -37zM213 375q0 -38 -27 -64.5t-65 -26.5t-64 26.5t-26 64.5t26 64t64 26t65 -26t27 -64z" />
    <glyph glyph-name="less" unicode="&#x3c;" 
d="M22 185v84l456 201v-111l-308 -133l308 -131v-111z" />
    <glyph glyph-name="equal" unicode="=" 
d="M22 280v90h456v-90h-456zM22 80v90h456v-90h-456z" />
    <glyph glyph-name="greater" unicode="&#x3e;" 
d="M22 -16v111l308 131l-308 133v111l456 -201v-84z" />
    <glyph glyph-name="question" unicode="?" horiz-adv-x="405" 
d="M381 435q0 -44 -10 -79t-23 -66h-135v-70h-117v167h151q7 18 9 29.5t2 34.5q0 33 -9.5 58.5t-33 43t-63.5 26.5t-101 10l38 114q79 -1 135 -18.5t90.5 -51.5t50.5 -83.5t16 -114.5zM247 79q0 -19 -7.5 -36t-20 -29.5t-29 -19.5t-34.5 -7q-38 0 -64 27t-26 65t26 64t64 26
t64.5 -26t26.5 -64z" />
    <glyph glyph-name="at" unicode="@" horiz-adv-x="1000" 
d="M954 223q0 -118 -53 -177t-172 -59q-42 0 -83.5 6t-82.5 19q-5 20 -6.5 32t-1.5 27v12q-24 -45 -64 -70.5t-91 -25.5q-39 0 -64 23t-38.5 57t-18.5 71.5t-5 67.5q0 47 13.5 93.5t40.5 83t67 59.5t92 23q20 0 41 -8t36 -21l8 30h103q-1 -85 -3 -167.5t-2 -167.5
q0 -14 1 -27.5t3 -27.5q16 -2 31.5 -4t31.5 -2q41 0 63.5 12.5t33.5 34t13.5 50.5t2.5 62q0 78 -25.5 142t-72 109.5t-111 70.5t-141.5 25q-72 0 -136 -27.5t-111.5 -75t-75.5 -111.5t-28 -136q0 -82 24.5 -146.5t70.5 -108.5t111 -67.5t146 -23.5q35 0 69 7t66 19l30 -95
q-38 -14 -79.5 -22t-82.5 -8q-101 0 -185.5 30.5t-145 88t-94 140t-33.5 185.5q0 95 35.5 177.5t97.5 143t144.5 95t177.5 34.5q101 0 184.5 -32.5t143 -92t92.5 -143t33 -184.5zM554 350q-7 7 -21 17.5t-25 10.5q-7 0 -23.5 -0.5t-21.5 -2.5q-13 -8 -24 -26t-19.5 -40
t-13 -45.5t-4.5 -42.5q0 -12 1.5 -35t7 -46.5t15 -41t25.5 -17.5q24 0 43 26t32 60.5t20 69.5t7 52q0 15 0.5 30.5t0.5 30.5z" />
    <glyph glyph-name="A" unicode="A" horiz-adv-x="549" 
d="M429 0l-53 152h-207l-55 -152h-114l250 681h64l236 -681h-121zM276 461l-70 -206h133z" />
    <glyph glyph-name="B" unicode="B" horiz-adv-x="607" 
d="M568 187q0 -42 -16.5 -76.5t-46 -59t-71 -38t-90.5 -13.5h-260v655q59 4 117 6.5t118 2.5q56 0 95.5 -14t65 -37.5t37 -54t11.5 -62.5q0 -43 -21.5 -84t-62.5 -57q28 -4 51 -18.5t39 -37t25 -51.5t9 -61zM439 200q0 51 -33.5 75.5t-92.5 24.5h-108v-202h102q72 0 102 24
t30 78zM399 482q0 35 -24.5 59.5t-73.5 24.5l-96 -1v-167h87q59 0 83 23t24 61z" />
    <glyph glyph-name="C" unicode="C" horiz-adv-x="623" 
d="M589 25q-49 -21 -97.5 -29t-108.5 -8q-64 0 -127 22.5t-113 65.5t-81 106t-31 145q0 71 27 133.5t74.5 109t112 73.5t140.5 27q39 0 66 -2t49.5 -6.5t43 -11t45.5 -16.5l-9 -117q-31 16 -56 25.5t-48 15t-46.5 7.5t-52.5 2q-42 0 -81 -15.5t-68.5 -45.5t-47 -73.5
t-17.5 -99.5q0 -53 18 -97t49 -76t72 -50t88 -18q22 0 42.5 1.5t42.5 7t47 15t58 25.5z" />
    <glyph glyph-name="D" unicode="D" horiz-adv-x="700" 
d="M668 333q0 -53 -17 -111.5t-57 -108t-104.5 -81.5t-160.5 -32h-244v655l64 5q51 3 92 3q22 0 45 -0.5t52 -0.5q93 0 156 -30.5t101.5 -78.5t55.5 -106.5t17 -113.5zM536 333q0 39 -11 79.5t-35.5 74t-64.5 54.5t-98 21h-7l-114 -2v-462h108q114 0 168 61t54 174z" />
    <glyph glyph-name="E" unicode="E" horiz-adv-x="547" 
d="M86 0v659h394v-104h-273v-169h236v-103h-236v-180h294v-103h-415z" />
    <glyph glyph-name="F" unicode="F" horiz-adv-x="517" 
d="M207 555v-179h235v-103h-235v-273h-121v659h392v-104h-271z" />
    <glyph glyph-name="G" unicode="G" horiz-adv-x="692" 
d="M622 24q-32 -8 -51.5 -13.5t-42.5 -10.5q-24 -5 -55.5 -8.5t-74.5 -3.5q-86 0 -154 26.5t-115 73t-72 109.5t-25 135q0 65 25.5 126t72 108t111.5 75.5t143 28.5q38 0 67 -2t54 -7.5t49 -13.5t53 -20l-9 -118q-62 34 -110.5 46t-102.5 12q-47 0 -87.5 -17t-70 -47.5
t-46.5 -74t-17 -96.5q0 -57 19 -102t51 -75.5t75.5 -46.5t92.5 -16q29 0 52.5 4t46.5 12v148h-118v105h239v-337z" />
    <glyph glyph-name="H" unicode="H" horiz-adv-x="767" 
d="M559 0v278h-352v-278h-121v659h121v-275h352v275h120v-659h-120z" />
    <glyph glyph-name="I" unicode="I" horiz-adv-x="283" 
d="M80 0v659h121v-659h-121z" />
    <glyph glyph-name="J" unicode="J" horiz-adv-x="294" 
d="M213 56q0 -136 -78 -214t-222 -80v105q56 1 91 19.5t54.5 48t26.5 67.5t7 80v577h121v-603z" />
    <glyph glyph-name="K" unicode="K" horiz-adv-x="561" 
d="M421 0q-15 24 -38.5 63.5t-52 83t-61 84t-64.5 67.5v-298h-121v659h121v-266q62 60 114.5 131t100.5 135h142q-24 -31 -53 -71.5t-61 -82.5t-65.5 -82t-66.5 -71q36 -34 71.5 -80.5t68.5 -95t61.5 -95.5t51.5 -81h-148z" />
    <glyph glyph-name="L" unicode="L" horiz-adv-x="494" 
d="M84 0v659h121v-556h283v-103h-404z" />
    <glyph glyph-name="M" unicode="M" horiz-adv-x="880" 
d="M700 0l-31 489l-242 -504l-209 506l-37 -491h-110l50 659h135q52 -113 96 -216t88 -212q51 111 100 214.5t103 213.5h122l50 -659h-115z" />
    <glyph glyph-name="N" unicode="N" horiz-adv-x="751" 
d="M543 0l-339 470v-470h-117v659h121l342 -473v474h116v-660h-123z" />
    <glyph glyph-name="O" unicode="O" horiz-adv-x="742" 
d="M710 330q0 -66 -24.5 -128t-68.5 -110t-106 -77t-138 -29t-139 28t-108 75.5t-69.5 109.5t-24.5 130q0 67 24.5 129.5t69.5 110t108 76t139 28.5q75 0 137.5 -28t106.5 -75.5t68.5 -109.5t24.5 -130zM577 330q0 49 -15 93t-42 76t-64.5 51t-82.5 19t-83.5 -18t-66.5 -50
t-43.5 -75.5t-15.5 -95.5t15.5 -96t43.5 -76t66.5 -50t83.5 -18t82.5 18.5t64.5 51t42 76t15 94.5z" />
    <glyph glyph-name="P" unicode="P" horiz-adv-x="539" 
d="M529 455q0 -49 -21.5 -88.5t-56 -68t-78.5 -44t-89 -15.5h-33q-23 0 -46 2v-241h-121v657q57 4 111.5 5.5t111.5 1.5q45 0 85.5 -11.5t70.5 -37t48 -65t18 -95.5zM397 455q0 54 -26.5 80.5t-85.5 26.5h-7l-73 -1v-221h50q30 0 56 5.5t45 19t30 35.5t11 55z" />
    <glyph glyph-name="Q" unicode="Q" horiz-adv-x="742" 
d="M710 330q0 -59 -19 -114t-53.5 -100.5t-84 -78t-110.5 -44.5q9 -15 27 -40t38.5 -48.5t39 -41t29.5 -17.5q10 0 20.5 1.5t23.5 5.5t30.5 11.5t40.5 18.5l9 -95q-36 -20 -68.5 -29.5t-65.5 -9.5q-25 0 -51 13t-51.5 34.5t-49.5 48t-45.5 53.5t-39 52t-29.5 43
q-61 12 -110.5 44t-85 77t-54.5 100t-19 115q0 67 24.5 129.5t69.5 110t108 76t139 28.5q75 0 137.5 -28t106.5 -75.5t68.5 -109.5t24.5 -130zM577 330q0 49 -15 93t-42 76t-64.5 51t-82.5 19t-83.5 -18t-66.5 -50t-43.5 -75.5t-15.5 -95.5t15.5 -96t43.5 -76t66.5 -50
t83.5 -18t82.5 18.5t64.5 51t42 76t15 94.5z" />
    <glyph glyph-name="R" unicode="R" horiz-adv-x="574" 
d="M424 0q-26 37 -47 68t-41 62t-39.5 64t-42.5 73h-49v-267h-121v655q49 4 98 7t99 3q52 0 97 -11t78.5 -35t53 -61.5t19.5 -90.5q0 -33 -10.5 -62.5t-29 -53.5t-44 -41.5t-55.5 -26.5q22 -38 42.5 -71t43 -66.5t48 -69t57.5 -76.5h-157zM398 470q0 43 -30 66t-96 23h-8
l-59 -1v-190h61q39 0 64.5 7t40.5 20t21 32t6 43z" />
    <glyph glyph-name="S" unicode="S" horiz-adv-x="507" 
d="M474 183q0 -49 -20 -86t-52.5 -61.5t-73 -37t-80.5 -12.5q-28 0 -52.5 2t-48 7t-47 13t-49.5 20l17 119q29 -17 51.5 -28t42.5 -17.5t39.5 -9t42.5 -2.5q21 0 39 6t32 17.5t22 27t8 33.5q0 20 -12 35.5t-29 27.5t-36.5 21.5t-35.5 18.5q-44 24 -77 45.5t-55.5 45t-34 50
t-11.5 60.5q0 40 15 75t43.5 61t68 41t89.5 15q33 0 58 -2t47 -6.5t43.5 -12t47.5 -17.5l-9 -121q-31 18 -55 29t-44.5 17t-40 8t-42.5 2q-44 0 -66.5 -25t-22.5 -57q0 -21 12 -37t30 -29t38.5 -23.5t37.5 -20.5q38 -23 69.5 -42.5t54 -41t34.5 -47.5t12 -61z" />
    <glyph glyph-name="T" unicode="T" horiz-adv-x="522" 
d="M321 557v-557h-121v557h-194v103h510v-103h-195z" />
    <glyph glyph-name="U" unicode="U" horiz-adv-x="682" 
d="M612 235q0 -65 -21 -111.5t-58.5 -76.5t-88.5 -44.5t-112 -14.5q-51 0 -98 14.5t-84 43t-59 69.5t-22 95v449h121v-421q0 -44 14 -72t35.5 -44.5t47 -23t49.5 -6.5q28 0 56 6.5t50 23t35.5 45t13.5 72.5v420h121v-424z" />
    <glyph glyph-name="V" unicode="V" horiz-adv-x="582" 
d="M332 -16h-71l-263 675h128l173 -462l161 462h122z" />
    <glyph glyph-name="W" unicode="W" horiz-adv-x="875" 
d="M621 -16h-69l-107 266l-102 -266h-69l-272 675h124l184 -462l75 201l-106 261h125l40 -102l39 102h117l-96 -253l84 -209l172 462h117z" />
    <glyph glyph-name="X" unicode="X" horiz-adv-x="573" 
d="M439 0l-157 239l-161 -239h-123l223 333l-210 326h130l149 -224l149 224h121l-212 -320l221 -339h-130z" />
    <glyph glyph-name="Y" unicode="Y" horiz-adv-x="542" 
d="M332 274v-274h-120v274l-213 385h124l153 -278l148 278h118z" />
    <glyph glyph-name="Z" unicode="Z" horiz-adv-x="598" 
d="M38 0v66l344 491h-333v103h493v-67l-335 -490h351v-103h-520z" />
    <glyph glyph-name="bracketleft" unicode="[" horiz-adv-x="250" 
d="M15 -258v991h235v-83h-143v-825h143v-83h-235z" />
    <glyph glyph-name="backslash" unicode="\" horiz-adv-x="313" 
d="M233 -258l-248 999h96l248 -999h-96z" />
    <glyph glyph-name="bracketright" unicode="]" horiz-adv-x="250" 
d="M0 -258v83h143v825h-143v83h235v-991h-235z" />
    <glyph glyph-name="asciicircum" unicode="^" 
d="M383 264l-133 307l-132 -307h-112l203 455h82l203 -455h-111z" />
    <glyph glyph-name="underscore" unicode="_" 
d="M0 -94v94h500v-94h-500z" />
    <glyph glyph-name="grave" unicode="`" horiz-adv-x="440" 
d="M195 521l-136 202h112l107 -202h-83z" />
    <glyph glyph-name="a" unicode="a" horiz-adv-x="456" 
d="M299 0q-5 14 -6.5 23.5t-5.5 29.5q-17 -24 -49.5 -45t-76.5 -21q-60 0 -96 32t-36 81q0 30 5.5 56t16.5 39q9 12 36 24.5t60 23.5t67 19.5t57 13.5v34q0 18 -2 30.5t-8 20t-17.5 11t-30.5 3.5q-8 0 -18 -0.5t-19.5 -1.5t-17 -3t-9.5 -6q-5 -8 -5 -15t-1 -20l-98 -9
q0 5 -0.5 9.5t-0.5 9.5q0 19 2.5 35t7.5 33q2 7 15.5 17t36 19t52.5 15.5t65 6.5q80 0 125 -34.5t45 -95.5v-201q0 -38 5.5 -73t10.5 -61h-110zM271 198q-36 -9 -60.5 -17t-57.5 -22q-4 -11 -5 -17t-1 -17q0 -20 6.5 -34t29.5 -14q17 0 39.5 12.5t48.5 41.5v67z" />
    <glyph glyph-name="b" unicode="b" horiz-adv-x="520" 
d="M486 235q0 -117 -67.5 -182.5t-188.5 -65.5q-32 0 -73.5 4t-101.5 15v724h121v-281q25 8 53 12t61 4q44 0 80.5 -12.5t62 -39.5t39.5 -71t14 -107zM357 229q0 70 -19 98.5t-61 28.5q-18 0 -30 -0.5t-22.5 -2t-21.5 -5t-27 -9.5v-243q12 -2 21 -2h30q61 0 95.5 30
t34.5 105z" />
    <glyph glyph-name="c" unicode="c" horiz-adv-x="442" 
d="M423 36q-47 -28 -85 -38.5t-80 -10.5q-50 0 -91 16.5t-70.5 47.5t-46 76t-16.5 103q0 61 19 105.5t49 73.5t68 42.5t76 13.5q35 0 66 -4.5t54.5 -15t37 -29t13.5 -45.5v-38q0 -6 -1 -14h-117q0 32 -9.5 41t-33.5 9q-16 0 -24.5 -1.5t-13.5 -3.5q-4 -2 -13 -8t-18.5 -20.5
t-17 -39.5t-7.5 -63q0 -44 11 -72t28.5 -43.5t38 -21.5t39.5 -6q12 0 25 1t28.5 7t35 17.5t44.5 32.5z" />
    <glyph glyph-name="d" unicode="d" horiz-adv-x="545" 
d="M375 0q-1 4 -2 11.5t-2 15.5t-2 15.5t-2 10.5q-23 -32 -55 -49t-78 -17q-39 0 -75.5 17t-64 48t-44 74.5t-16.5 97.5q0 117 67 178.5t181 61.5q20 0 36.5 -3.5t36.5 -10.5v280h122v-590q0 -35 3.5 -68.5t8.5 -71.5h-114zM355 287q0 20 -3 33.5t-12 21.5t-24.5 11.5
t-40.5 3.5q-19 0 -39 -1t-27 -8q-3 -3 -11 -12t-16 -23.5t-14 -35.5t-6 -49q0 -41 10.5 -67t25 -41t31 -20.5t28.5 -5.5q29 0 54.5 17.5t43.5 42.5v133z" />
    <glyph glyph-name="e" unicode="e" horiz-adv-x="488" 
d="M162 213q1 -23 10 -45.5t24 -39.5t36.5 -27.5t47.5 -10.5q36 0 75.5 15.5t81.5 50.5l11 -118q-20 -12 -40 -21.5t-42.5 -16t-49.5 -10t-60 -3.5q-48 0 -88.5 16.5t-70 47t-46.5 74.5t-17 100t16.5 100.5t45.5 75.5t70 47.5t89 16.5q58 0 96.5 -15.5t61.5 -47t32.5 -78.5
t9.5 -111h-293zM346 288q-2 19 -5 35.5t-12.5 27.5t-27 17.5t-46.5 6.5q-6 0 -14 -2t-15.5 -4t-14 -4.5t-7.5 -3.5q-2 -2 -17.5 -21.5t-20.5 -51.5h180z" />
    <glyph glyph-name="f" unicode="f" horiz-adv-x="303" 
d="M399 617q-13 7 -23.5 12t-22 7.5t-24 3.5t-28.5 1q-21 0 -38 -5t-20 -8q-3 -2 -9 -9t-12 -24.5t-10.5 -49.5t-4.5 -85v-7h97v-80h-97v-373h-121v372h-77v80h77v14q0 84 13 137.5t40.5 84t69.5 42t101 11.5q31 0 54 -5t47 -15z" />
    <glyph glyph-name="g" unicode="g" horiz-adv-x="527" 
d="M442 345q5 -14 7 -24.5t2 -27.5q0 -40 -15 -73t-42.5 -56.5t-66.5 -36.5t-87 -13q-14 0 -28 1.5t-32 6.5q-12 -12 -20.5 -21.5t-8.5 -24.5q0 -13 8.5 -17.5t16.5 -4.5q38 0 71.5 2.5t71.5 2.5q40 0 72.5 -4t55.5 -16.5t35 -36.5t12 -63q0 -49 -24 -86t-63 -61.5t-88 -37
t-98 -12.5q-40 0 -75.5 4.5t-62.5 16.5t-42.5 33t-15.5 55q0 25 8 42.5t20.5 30.5t26.5 21.5t26 15.5q-10 3 -22 8.5t-22.5 15t-17.5 23t-7 33.5q0 18 9 32.5t22.5 26.5t29.5 22.5t30 22.5q-22 12 -39.5 25.5t-30 31t-19 39.5t-6.5 52q0 37 15 68.5t42.5 54.5t66 36t84.5 13
q47 0 73.5 -10t47.5 -23h25q17 0 38.5 1.5t45 5t46.5 9.5v-103h-75zM371 -76q0 10 -1.5 16t-7.5 9.5t-19 4.5t-36 1q-18 0 -32.5 -0.5t-28 -1.5t-28 -2t-31.5 -1q-21 -15 -35 -30.5t-14 -35.5q0 -29 23 -39t72 -10q35 0 61 8.5t43 21.5t25.5 29t8.5 30zM323 292q0 36 -18 59
t-62 23q-24 0 -39.5 -6t-19.5 -10t-13.5 -22t-9.5 -44q0 -37 21.5 -60.5t60.5 -23.5q20 0 37 7t20 9q4 4 13.5 19.5t9.5 48.5z" />
    <glyph glyph-name="h" unicode="h" horiz-adv-x="545" 
d="M478 213q0 -24 -0.5 -44.5t-1 -43.5t-1 -52.5t-1.5 -72.5h-121q1 43 1.5 71t1 49t1 39t0.5 41q0 48 -1.5 79t-7 49t-16 25t-29.5 7q-14 0 -32.5 -2.5t-24.5 -7.5q-3 -2 -9.5 -7t-15 -12.5t-18 -16.5t-17.5 -18v-296h-121v730h121v-318q53 53 124 53q58 0 91.5 -16.5
t51 -44t22 -63t4.5 -73.5q0 -14 -0.5 -27.5t-0.5 -27.5z" />
    <glyph glyph-name="i" unicode="i" horiz-adv-x="251" 
d="M196 613q0 -30 -20.5 -52t-49.5 -22t-50 21.5t-21 51.5t21 51t50 21t49.5 -20.5t20.5 -50.5zM66 0v453h121v-453h-121z" />
    <glyph glyph-name="j" unicode="j" horiz-adv-x="251" 
d="M196 613q0 -30 -20.5 -52t-49.5 -22t-50 21.5t-21 51.5t21 51t50 21t49.5 -20.5t20.5 -50.5zM187 55q0 -102 -19 -162t-54.5 -92t-86 -42.5t-112.5 -12.5v109q45 1 74.5 8t46.5 29.5t23.5 65t6.5 114.5v381h121v-398z" />
    <glyph glyph-name="k" unicode="k" horiz-adv-x="470" 
d="M303 270l159 -270h-152l-123 218v-218h-122v730h122v-431l129 154h149z" />
    <glyph glyph-name="l" unicode="l" horiz-adv-x="251" 
d="M65 0v730h121v-730h-121z" />
    <glyph glyph-name="m" unicode="m" horiz-adv-x="848" 
d="M775 168q0 -20 -0.5 -43t-1 -52.5t-1.5 -72.5h-121q1 43 1.5 71t1 49t0.5 39v41q0 8 0.5 19.5t0.5 25.5q0 10 -0.5 20t-1.5 21q-4 44 -15 59t-38 15q-18 0 -34 -3t-21 -6q-2 -1 -9 -6t-16 -12.5t-18.5 -17t-17.5 -19.5v-296h-120v286q0 32 -10 53t-42 21q-18 0 -34 -3
t-21 -6q-2 -1 -9 -6t-16 -12.5t-18.5 -17t-17.5 -19.5v-296h-121v319q0 15 -1.5 35.5t-3 40t-4 35.5t-3.5 23h108l12 -53q29 34 63.5 49.5t72.5 15.5q63 0 97 -19.5t51 -50.5q35 39 68 54.5t72 15.5q58 0 91.5 -16.5t50.5 -43.5t22 -62.5t5 -72.5q0 -14 -0.5 -28.5
t-0.5 -28.5v-45z" />
    <glyph glyph-name="n" unicode="n" horiz-adv-x="552" 
d="M485 213q0 -24 -0.5 -44.5t-1 -43.5t-1.5 -52.5t-2 -72.5h-121q1 49 2 79.5t1.5 53t0.5 43.5v81q0 15 -2 29q-3 44 -14 59t-38 15q-7 0 -16 -0.5t-17.5 -2t-15 -3.5t-8.5 -4q-3 -2 -9.5 -7t-15.5 -12.5t-18.5 -16.5t-16.5 -18v-296h-121v319q0 15 -1 34.5t-3 38.5
t-4 35.5t-4 25.5h108l12 -53q30 34 64 49.5t73 15.5q58 0 91.5 -16.5t51 -44t22 -63t4.5 -73.5v-55z" />
    <glyph glyph-name="o" unicode="o" horiz-adv-x="536" 
d="M502 226q0 -51 -16.5 -95t-47.5 -76t-75.5 -50t-100.5 -18q-52 0 -94 17t-72 48.5t-46 75.5t-16 98q0 49 15.5 92.5t45.5 76t74.5 51.5t103.5 19q52 0 94.5 -17t72.5 -48.5t46 -75.5t16 -98zM375 234q-1 25 -7 48t-19 41t-34 29t-52 11q-24 0 -40 -7t-19 -10
q-20 -19 -31.5 -52.5t-11.5 -70.5v-4q1 -25 7 -48.5t19 -41.5t34 -28.5t51 -10.5q20 0 38 7t20 9q20 20 32.5 54t12.5 70v4z" />
    <glyph glyph-name="p" unicode="p" horiz-adv-x="531" 
d="M498 235q0 -59 -17 -105t-47.5 -77.5t-74 -48.5t-96.5 -17q-20 0 -38.5 2.5t-36.5 8.5v-247h-121v563q0 36 -3.5 73t-8.5 66h108l12 -54q28 35 62.5 50.5t76.5 15.5q40 0 74 -13.5t58.5 -42t38 -71.5t13.5 -103zM369 227q0 19 -1.5 42.5t-8 43.5t-21 33.5t-41.5 13.5
q-14 0 -30 -3.5t-18 -5.5q-1 -1 -7.5 -5.5t-15.5 -12t-19.5 -17.5t-18.5 -21v-186q10 -5 27 -11t37 -6q58 0 87.5 34.5t29.5 100.5z" />
    <glyph glyph-name="q" unicode="q" horiz-adv-x="540" 
d="M354 -250v251q-26 -8 -53.5 -11t-56.5 -3q-48 0 -86.5 19t-66 50.5t-42.5 73t-15 86.5q0 53 13.5 98.5t43 79t76 52.5t112.5 19q52 0 98.5 -6t98.5 -6v-703h-122zM354 354q-12 2 -18 3.5t-11 3t-11.5 2.5t-19.5 1q-8 0 -20 -1t-25 -2.5t-23.5 -4t-15.5 -6.5
q-4 -3 -12 -10.5t-16 -21t-14 -34t-6 -50.5q0 -39 10 -66t26 -44t36 -25t39 -8q25 0 43 5.5t38 13.5v244z" />
    <glyph glyph-name="r" unicode="r" horiz-adv-x="350" 
d="M257 317q-1 17 -2.5 32t-15.5 15q-12 0 -22.5 -14.5t-24.5 -40.5v-309h-121v320q0 33 -3.5 66.5t-8.5 66.5h108l12 -54q13 24 40.5 44.5t55.5 20.5q45 0 62.5 -25t17.5 -67q0 -22 -3 -43z" />
    <glyph glyph-name="s" unicode="s" horiz-adv-x="440" 
d="M401 129q0 -29 -12.5 -54.5t-36.5 -45t-59.5 -31t-82.5 -11.5q-43 0 -85.5 10t-80.5 34l13 100q20 -12 36.5 -20.5t33.5 -14t36 -8t44 -2.5q43 0 57 11t14 22q0 18 -17.5 29.5t-43.5 22t-56.5 22t-56.5 29.5t-43.5 44.5t-17.5 67.5q0 61 48.5 96t138.5 35q22 0 40 -2.5
t36 -7t37 -12.5t43 -18l-14 -106q-46 34 -84.5 41.5t-63.5 7.5q-8 0 -18 -1t-19.5 -4.5t-16 -9.5t-6.5 -15q0 -17 17.5 -28.5t44 -22t57 -22.5t57 -29.5t44 -43t17.5 -63.5z" />
    <glyph glyph-name="t" unicode="t" horiz-adv-x="323" 
d="M313 25q-29 -17 -60 -27.5t-60 -10.5q-51 0 -84.5 32t-33.5 95v258h-66v80h66v154h119v-153h99v-80h-99v-235q0 -33 7.5 -39.5t15.5 -6.5q20 0 43.5 11.5t40.5 21.5z" />
    <glyph glyph-name="u" unicode="u" horiz-adv-x="541" 
d="M370 0l-12 53q-27 -32 -61 -49t-76 -17q-90 0 -127 41.5t-37 127.5v297h121v-287q0 -15 1 -28.5t6.5 -23.5t15.5 -16t28 -6q10 0 28 2t27 7q12 9 31 25.5t30 29.5v297h121v-319q0 -34 3.5 -67.5t8.5 -66.5h-108z" />
    <glyph glyph-name="v" unicode="v" horiz-adv-x="428" 
d="M260 -13h-91l-169 466h130l87 -276l89 276h122z" />
    <glyph glyph-name="w" unicode="w" horiz-adv-x="661" 
d="M494 -13h-68l-92 213l-84 -213h-69l-181 466h128l96 -261l110 276l117 -281l93 266h117z" />
    <glyph glyph-name="x" unicode="x" horiz-adv-x="421" 
d="M295 0l-85 140l-91 -140h-119l152 231l-139 222h125l77 -126l83 126h118l-142 -220l147 -233h-126z" />
    <glyph glyph-name="y" unicode="y" horiz-adv-x="428" 
d="M269 -22q-19 -57 -40.5 -116t-44.5 -113h-124q29 59 55 119.5t52 130.5l-167 454h120l102 -284l94 284h112z" />
    <glyph glyph-name="z" unicode="z" horiz-adv-x="428" 
d="M18 0v72l215 283h-211v98h366v-70l-214 -285h221v-98h-377z" />
    <glyph glyph-name="braceleft" unicode="{" horiz-adv-x="313" 
d="M261 -258q-51 0 -80.5 15.5t-44.5 40.5t-19 56t-4 61v196q0 45 -19.5 68.5t-52.5 25.5l-35 2v78l35 2q71 5 71 93v181q0 31 4 62t19 55.5t45 39.5t81 15h52v-83h-42q-35 0 -50 -20t-15 -62v-194q0 -18 -3 -37.5t-11 -37t-21.5 -32t-33.5 -22.5q21 -7 34 -21t21 -31.5
t11 -36.5t3 -37v-35q0 -29 0.5 -54.5t0.5 -53.5q0 -12 -0.5 -24.5t-0.5 -26.5q0 -48 15 -74t50 -26h42v-83h-52z" />
    <glyph glyph-name="bar" unicode="|" horiz-adv-x="250" 
d="M77 -258v999h96v-999h-96z" />
    <glyph glyph-name="braceright" unicode="}" horiz-adv-x="313" 
d="M271 205q-33 -3 -52 -26t-19 -68v-196q0 -30 -4.5 -61t-19.5 -56t-44.5 -40.5t-80.5 -15.5h-51v83h41q34 0 49.5 24.5t15.5 70.5v35q0 29 0.5 54.5t0.5 53.5q0 12 -0.5 24.5t-0.5 26.5q0 18 3 38t10.5 38t21 33t34.5 22q-20 8 -33 22.5t-21 32t-11.5 37t-3.5 37.5t0.5 34
t0.5 32q0 31 -0.5 61.5t-0.5 65.5q0 42 -15 62.5t-50 20.5h-41v83h51q52 0 81.5 -15t44.5 -39.5t19 -55.5t4 -62v-181q0 -45 18 -67t53 -25l35 -3v-77z" />
    <glyph glyph-name="asciitilde" unicode="~" 
d="M493 214q-5 -3 -16.5 -11t-33 -20t-50 -22t-57.5 -10q-25 0 -48 9t-45.5 20t-44 20t-42.5 9q-20 0 -38.5 -7.5t-33 -16.5t-23.5 -16l-8 -7l-46 74l13 9q14 10 35.5 22t49 22t56.5 10q26 0 50 -9t46.5 -20t44 -20t43.5 -9q19 0 37.5 7.5t33 16.5t22.5 16l9 7z" />
    <glyph glyph-name="uni00A0" unicode="&#xa0;" horiz-adv-x="250" 
 />
    <glyph glyph-name="exclamdown" unicode="&#xa1;" horiz-adv-x="250" 
d="M214 373q0 -38 -26.5 -65t-64.5 -27t-64.5 26.5t-26.5 64.5t26 64.5t64 26.5t65 -26t27 -64zM54 -250l12 443h110l15 -443h-137z" />
    <glyph glyph-name="cent" unicode="&#xa2;" 
d="M468 26q-38 -16 -72 -23.5t-69 -9.5v-106h-92v109q-43 6 -83.5 24.5t-71.5 49t-49.5 72.5t-18.5 96q0 48 16.5 89.5t46 74t70.5 53.5t90 29v118h92v-115q40 -2 71 -9.5t70 -22.5l-11 -113q-41 19 -71 28t-59 13v-286q26 3 57 12t73 29zM235 380q-45 -11 -71.5 -47
t-26.5 -91q0 -50 26 -87t72 -52v277z" />
    <glyph glyph-name="sterling" unicode="&#xa3;" 
d="M508 535q0 -14 -1.5 -29t-3.5 -29h-110q0 34 -7 41.5t-29 7.5q-14 0 -30.5 -3t-27.5 -13q-6 -5 -11 -24.5t-8.5 -42.5t-6.5 -44t-4 -29l-13 -84h99l-14 -94h-101q-5 -22 -8.5 -43.5t-12.5 -41.5q29 -5 58.5 -13.5t59.5 -8.5q21 0 28.5 6.5t7.5 37.5v5h111
q2 -14 3.5 -28.5t1.5 -28.5q0 -24 -12 -42t-33 -30t-49 -18t-60 -6q-24 0 -48 4.5t-47 10t-47 10t-48 4.5q-17 0 -30 -1t-28.5 -3.5t-36.5 -7.5t-53 -14l18 117q21 3 35.5 5.5t24.5 5.5t15.5 6.5t10.5 9.5t7 14.5t4 16.5t3.5 16.5t3.5 16.5h-91l14 94h93l13 87
q11 72 25 121.5t37.5 79.5t58 43t85.5 13q22 0 49 -4t50.5 -14.5t39 -29t15.5 -47.5z" />
    <glyph glyph-name="currency" unicode="&#xa4;" 
d="M443 -26l-110 110q-18 -11 -39 -17t-44 -6q-22 0 -41.5 5.5t-37.5 14.5l-107 -107l-64 63l108 108q-11 18 -17 38t-6 43t6 44t17 39l-108 107l64 64l108 -109q35 20 78 20t82 -22l110 111l64 -64l-111 -111q9 -18 14.5 -37.5t5.5 -41.5q0 -43 -20 -77l111 -111zM341 226
q0 19 -7 36t-19.5 29.5t-29 19.5t-35.5 7q-38 0 -64 -26.5t-26 -65.5q0 -38 26 -64t64 -26q19 0 35.5 7t29 19t19.5 28.5t7 35.5z" />
    <glyph glyph-name="yen" unicode="&#xa5;" 
d="M356 354h131v-76h-175v-68h175v-75h-175v-135h-121v135h-176v75h176v68h-176v76h132l-148 305h124l133 -278l128 278h117z" />
    <glyph glyph-name="brokenbar" unicode="&#xa6;" horiz-adv-x="250" 
d="M64 324v415h119v-415h-119zM64 -260v416h119v-416h-119z" />
    <glyph glyph-name="section" unicode="&#xa7;" horiz-adv-x="441" 
d="M413 631q0 -10 -2 -21.5t-7 -32.5h-112q0 31 -6.5 40t-31.5 9q-58 0 -77.5 -39.5t-19.5 -117.5q0 -57 7 -116t18.5 -118.5t25 -119.5t26.5 -118h-108q-38 121 -64 250.5t-26 257.5q0 111 62.5 168t171.5 57q22 0 47 -5.5t46.5 -17t35.5 -30.5t14 -46zM426 -31
q0 -111 -61.5 -168t-171.5 -57q-22 0 -47 5.5t-46.5 17t-35.5 30t-14 45.5q0 14 2.5 27t6.5 27h111v-13q0 -25 10 -30.5t29 -5.5q56 0 76 38.5t20 119.5q0 60 -7 119t-18 118t-24.5 117.5t-26.5 116.5h107q39 -121 64.5 -250t25.5 -257z" />
    <glyph glyph-name="dieresis" unicode="&#xa8;" horiz-adv-x="440" 
d="M351 593q0 -28 -18 -47.5t-45 -19.5t-46 19.5t-19 46.5q0 28 19 48.5t46 20.5q28 0 45.5 -20.5t17.5 -47.5zM183 593q0 -28 -18.5 -47.5t-45.5 -19.5t-45.5 19.5t-18.5 46.5q0 28 17.5 48.5t46.5 20.5q27 0 45.5 -20.5t18.5 -47.5z" />
    <glyph glyph-name="copyright" unicode="&#xa9;" horiz-adv-x="1000" 
d="M954 228q0 -93 -35.5 -174t-96.5 -142t-144 -96t-177 -35t-177 35t-144.5 95.5t-97.5 142t-36 173.5q0 93 36 174.5t97.5 142.5t144.5 96t177 35t176.5 -35t144 -96t97 -142t35.5 -174zM851 229q0 72 -27.5 135t-75 110t-111.5 74t-137 27t-137 -27t-111.5 -74t-75 -110
t-27.5 -135t27.5 -135t75 -110.5t111.5 -75t137 -27.5t137 27.5t111.5 74.5t75 110.5t27.5 135.5zM522 82q16 0 32 2t35 7t41.5 14t51.5 23l9 -105q-46 -21 -86.5 -27.5t-85.5 -6.5q-47 0 -92.5 15t-81.5 45t-58 74t-22 102q0 51 19 94.5t52.5 76t80.5 51t104 18.5
q28 0 49.5 -1.5t40.5 -5t38 -10t42 -15.5l-8 -107q-28 14 -50.5 23t-42 14t-38 6.5t-38.5 1.5q-56 0 -92 -36.5t-36 -104.5q0 -65 37 -106.5t99 -41.5z" />
    <glyph glyph-name="ordfeminine" unicode="&#xaa;" horiz-adv-x="340" 
d="M218 344q-3 9 -5.5 18.5t-4.5 17.5l-4 -4q-16 -15 -33 -27.5t-40 -12.5q-19 0 -38 5.5t-34 16t-24 26.5t-9 37q0 16 3.5 36.5t14.5 33.5q8 10 28 19t44 16.5t46.5 12.5t35.5 8v20q0 17 -5 28t-25 11q-16 0 -24 -6.5t-8 -23.5l-95 -7v18q0 28 12.5 45.5t32 27t43 12.5
t46.5 3t46.5 -5t42 -16t30.5 -30t12 -46v-134q0 -23 4.5 -49.5t11.5 -50.5h-104zM198 485q-17 -4 -33 -8.5t-32 -11.5q-1 -5 -1 -10v-30q0 -9 1.5 -14.5t12.5 -5.5q10 0 26 6t26 19v55z" />
    <glyph glyph-name="guillemotleft" unicode="&#xab;" horiz-adv-x="593" 
d="M266 220l284 228v-134l-100 -94l100 -94v-134zM7 220l286 228v-134l-102 -94l102 -94v-134z" />
    <glyph glyph-name="logicalnot" unicode="&#xac;" 
d="M395 179v183h-380v91h470v-274h-90z" />
    <glyph glyph-name="uni00AD" unicode="&#xad;" horiz-adv-x="375" 
d="M62 178v108h252v-108h-252z" />
    <glyph glyph-name="registered" unicode="&#xae;" horiz-adv-x="625" 
d="M609 380q0 -61 -23 -114.5t-63 -93.5t-94 -63t-115 -23q-62 0 -116 23t-94.5 63t-64 93.5t-23.5 114.5t23.5 114.5t64 93.5t94.5 63t116 23q61 0 115 -23t94 -63t63 -93.5t23 -114.5zM529 381q0 45 -17 84t-46 68t-68.5 45.5t-84.5 16.5t-84.5 -16.5t-69 -45.5t-46.5 -68
t-17 -84q0 -44 17 -83.5t46 -69t68.5 -46.5t84.5 -17t84.5 17t69 46.5t46.5 68.5t17 84zM341 217q-20 39 -35 71.5t-26 55.5h-9v-127h-74v329l56 3q24 2 47 2q25 0 48 -5.5t41 -17.5t28.5 -31.5t10.5 -47.5q0 -32 -18 -57t-44 -36q10 -22 18.5 -37.5t16.5 -30.5t17.5 -31.5
t23.5 -39.5h-101zM348 450q0 15 -11.5 24t-43.5 9h-22v-73h21q36 0 46 11t10 29z" />
    <glyph glyph-name="macron" unicode="&#xaf;" horiz-adv-x="440" 
d="M44 556v65h352v-65h-352z" />
    <glyph glyph-name="degree" unicode="&#xb0;" horiz-adv-x="375" 
d="M341 575q0 -32 -12 -60t-32.5 -49t-48.5 -33t-60 -12t-60 12t-49 33t-33 49t-12 60t12 60t32.5 49t48.5 33t60 12q33 0 61 -12t48.5 -33t32.5 -49t12 -60zM247 575q0 26 -17.5 43t-41.5 17q-25 0 -42 -17t-17 -43q0 -24 17 -41.5t41 -17.5q26 0 43 17t17 42z" />
    <glyph glyph-name="plusminus" unicode="&#xb1;" 
d="M295 268v-146h-90v145h-183v90h183v146h90v-145h183v-90h-183zM22 0v90h456v-90h-456z" />
    <glyph glyph-name="twosuperior" unicode="&#xb2;" horiz-adv-x="360" 
d="M9 307q40 45 78 83t68 74t47 68.5t17 66.5q0 31 -14.5 42.5t-42.5 11.5q-19 0 -48.5 -9t-76.5 -34l-10 95q37 17 69.5 25.5t74.5 8.5q20 0 46.5 -4.5t50.5 -19t40.5 -40.5t16.5 -68q0 -35 -9 -64.5t-24 -56t-35 -51t-42 -49.5q-9 -11 -19.5 -22t-21.5 -23h169v-85h-334
v51z" />
    <glyph glyph-name="threesuperior" unicode="&#xb3;" horiz-adv-x="360" 
d="M128 250q-24 0 -48 3t-51 9l10 86q17 -4 42.5 -8t50.5 -4q33 0 58.5 12.5t25.5 47.5q0 29 -24.5 45.5t-61.5 16.5h-55v78q69 4 98 22.5t29 44.5q0 8 -2.5 17t-9 16.5t-18 12t-28.5 4.5q-14 0 -38.5 -4.5t-65.5 -22.5l-10 89l35 10q15 5 28.5 8.5t29 5t37.5 1.5
q68 0 107 -32.5t39 -88.5q0 -42 -15.5 -64.5t-39.5 -38.5q31 -14 53.5 -44.5t22.5 -72.5q0 -43 -18 -71.5t-46.5 -46t-64 -24.5t-70.5 -7z" />
    <glyph glyph-name="acute" unicode="&#xb4;" horiz-adv-x="440" 
d="M221 521h-84l106 202h113z" />
    <glyph glyph-name="mu" unicode="&#xb5;" horiz-adv-x="533" 
d="M378 0l-12 53q-27 -32 -61 -49t-76 -17q-14 0 -26.5 2t-25.5 4l7 -243h-123q3 88 4 175.5t1 175.5t-0.5 176t-0.5 176h121v-287q0 -15 1 -28.5t6.5 -23.5t15.5 -16t28 -6q5 0 12.5 0.5t15.5 1.5t15.5 2.5t11.5 4.5q7 4 15.5 11t17 14.5t16 15.5t12.5 14v297h121v-319
q0 -34 3.5 -67.5t8.5 -66.5h-108z" />
    <glyph glyph-name="paragraph" unicode="&#xb6;" horiz-adv-x="660" 
d="M490 -254v878h-77v-878h-109v414q-56 0 -103.5 20t-83 56t-55.5 86.5t-20 112.5t21 113.5t57.5 89t87 58t109.5 20.5h282v-970h-109z" />
    <glyph glyph-name="periodcentered" unicode="&#xb7;" 
d="M341 229q0 -38 -26.5 -64t-64.5 -26q-19 0 -35.5 7t-29 19t-19.5 28.5t-7 35.5q0 38 26 64.5t64 26.5q19 0 36 -7t29.5 -19.5t19.5 -29t7 -35.5z" />
    <glyph glyph-name="cedilla" unicode="&#xb8;" horiz-adv-x="650" 
d="M335 -133q0 -23 -11.5 -40t-29 -27.5t-39 -15.5t-41.5 -5q-15 0 -26 0.5t-21.5 2.5t-22.5 5.5t-28 9.5l34 61q14 -8 27.5 -10.5t26.5 -2.5q23 0 33.5 6t10.5 15q0 21 -24 25.5t-56 4.5h-24l62 104h75l-35 -57q37 -4 63 -23.5t26 -52.5z" />
    <glyph glyph-name="onesuperior" unicode="&#xb9;" horiz-adv-x="360" 
d="M55 341h82v304h-82v85h186v-389h82v-85h-268v85z" />
    <glyph glyph-name="ordmasculine" unicode="&#xba;" horiz-adv-x="386" 
d="M374 504q0 -37 -12.5 -68t-36 -53.5t-57 -35t-75.5 -12.5q-39 0 -71 12t-54.5 34t-35 53.5t-12.5 69.5q0 34 11.5 65t34.5 54t56.5 37t77.5 14q39 0 71.5 -12.5t55 -35t35 -54t12.5 -68.5zM234 432q14 12 21.5 33t7.5 43q0 29 -16 53t-54 24q-18 0 -29.5 -7t-18.5 -19
t-10 -27t-3 -31q0 -29 15.5 -53t51.5 -24q12 0 23 3.5t12 4.5z" />
    <glyph glyph-name="guillemotright" unicode="&#xbb;" horiz-adv-x="593" 
d="M300 -8v134l101 94l-101 94v134l285 -228zM42 -8v134l101 94l-101 94v134l284 -228z" />
    <glyph glyph-name="onequarter" unicode="&#xbc;" horiz-adv-x="920" 
d="M55 341h82v304h-82v85h186v-389h82v-85h-268v85zM276 -51l-72 40l420 755l72 -40zM846 0h-102v128h-178v65q44 79 96 151.5t112 139.5h72v-271h65v-85h-65v-128zM744 303q-32 -44 -57 -90h57v90z" />
    <glyph glyph-name="onehalf" unicode="&#xbd;" horiz-adv-x="920" 
d="M55 341h82v304h-82v85h186v-389h82v-85h-268v85zM276 -51l-72 40l420 755l72 -40zM569 51q40 45 78 83t68 74t47 68.5t17 66.5q0 31 -14.5 42.5t-42.5 11.5q-19 0 -48.5 -9t-76.5 -34l-10 95q37 17 69.5 25.5t74.5 8.5q20 0 46.5 -4.5t50.5 -19t40.5 -40.5t16.5 -68
q0 -35 -9 -64.5t-24 -56t-35 -51t-42 -49.5q-9 -11 -19.5 -22t-21.5 -23h169v-85h-334v51z" />
    <glyph glyph-name="threequarters" unicode="&#xbe;" horiz-adv-x="920" 
d="M128 250q-24 0 -48 3t-51 9l10 86q17 -4 42.5 -8t50.5 -4q33 0 58.5 12.5t25.5 47.5q0 29 -24.5 45.5t-61.5 16.5h-55v78q69 4 98 22.5t29 44.5q0 8 -2.5 17t-9 16.5t-18 12t-28.5 4.5q-14 0 -38.5 -4.5t-65.5 -22.5l-10 89l35 10q15 5 28.5 8.5t29 5t37.5 1.5
q68 0 107 -32.5t39 -88.5q0 -42 -15.5 -64.5t-39.5 -38.5q31 -14 53.5 -44.5t22.5 -72.5q0 -43 -18 -71.5t-46.5 -46t-64 -24.5t-70.5 -7zM276 -51l-72 40l420 755l72 -40zM846 0h-102v128h-178v65q44 79 96 151.5t112 139.5h72v-271h65v-85h-65v-128zM744 303
q-32 -44 -57 -90h57v90z" />
    <glyph glyph-name="questiondown" unicode="&#xbf;" horiz-adv-x="405" 
d="M379 380q0 -17 -7 -31.5t-18.5 -25t-27 -17t-33.5 -6.5q-36 0 -61.5 23.5t-25.5 56.5q0 16 7 31.5t18.5 26.5t27 18t33.5 7t34 -7t27.5 -18t18.5 -26.5t7 -31.5zM361 -253q-80 1 -135.5 18.5t-90 51t-50.5 83t-16 114.5q0 32 10 67.5t23 69.5h135v119h117v-229h-151
q-5 -14 -6.5 -20.5t-1.5 -22.5q0 -33 9 -58.5t32 -42.5t62.5 -26t100.5 -10z" />
    <glyph glyph-name="Agrave" unicode="&#xc0;" horiz-adv-x="549" 
d="M429 0l-53 152h-207l-55 -152h-114l250 681h64l236 -681h-121zM276 461l-70 -206h133zM237 707l-131 185h108l103 -185h-80z" />
    <glyph glyph-name="Aacute" unicode="&#xc1;" horiz-adv-x="549" 
d="M429 0l-53 152h-207l-55 -152h-114l250 681h64l236 -681h-121zM276 461l-70 -206h133zM317 707h-81l102 185h109z" />
    <glyph glyph-name="Acircumflex" unicode="&#xc2;" horiz-adv-x="549" 
d="M429 0l-53 152h-207l-55 -152h-114l250 681h64l236 -681h-121zM276 461l-70 -206h133zM357 683l-75 95l-77 -95h-79l120 185h71l125 -185h-85z" />
    <glyph glyph-name="Atilde" unicode="&#xc3;" horiz-adv-x="549" 
d="M429 0l-53 152h-207l-55 -152h-114l250 681h64l236 -681h-121zM276 461l-70 -206h133zM464 767q-40 -39 -69 -51t-56 -12q-23 0 -40 6t-36 20q-11 8 -17.5 12.5t-11.5 6.5t-10.5 2.5t-13.5 0.5t-18.5 -5t-21.5 -11.5t-20.5 -13t-13.5 -9.5l-35 49q42 41 72 54t58 13
q14 0 23 -2.5t16.5 -6.5t14.5 -9.5t18 -12.5q12 -8 24.5 -13.5t28.5 -5.5q22 0 74 40z" />
    <glyph glyph-name="Adieresis" unicode="&#xc4;" horiz-adv-x="549" 
d="M429 0l-53 152h-207l-55 -152h-114l250 681h64l236 -681h-121zM276 461l-70 -206h133zM267 756q0 -26 -18 -43.5t-44 -17.5t-43.5 17.5t-17.5 43.5q0 25 17.5 44t43.5 19t44 -19t18 -44zM428 756q0 -26 -18 -43.5t-44 -17.5t-43.5 17.5t-17.5 43.5q0 25 17.5 44t43.5 19
t44 -19t18 -44z" />
    <glyph glyph-name="Aring" unicode="&#xc5;" horiz-adv-x="549" 
d="M382 788q0 -41 -28.5 -68.5t-69.5 -27.5t-68 27.5t-27 68.5t27 68.5t68 27.5t69.5 -27.5t28.5 -68.5zM330 788q0 19 -13 32t-33 13q-19 0 -32 -13t-13 -32q0 -18 13.5 -31.5t31.5 -13.5q20 0 33 13.5t13 31.5zM429 0l-53 152h-207l-55 -152h-114l250 681h64l236 -681
h-121zM276 461l-70 -206h133z" />
    <glyph glyph-name="AE" unicode="&#xc6;" horiz-adv-x="858" 
d="M397 0v152h-210l-87 -152h-130l374 659h446v-104h-273v-169h236v-103h-236v-180h295v-103h-415zM397 550q-1 -1 -6 -13.5t-14 -33t-21 -45.5t-27 -52l-85 -152h153v296z" />
    <glyph glyph-name="Ccedilla" unicode="&#xc7;" horiz-adv-x="623" 
d="M589 25q-45 -20 -89.5 -27.5t-99.5 -8.5l-26 -42q35 -3 60 -21t25 -48q0 -21 -10.5 -36.5t-27.5 -25.5t-37.5 -15t-40.5 -5q-15 0 -25.5 0.5t-20.5 2.5t-21 5.5t-26 9.5l32 55q14 -7 26.5 -9.5t24.5 -2.5q43 0 43 20q0 10 -7 15.5t-18.5 8.5t-26.5 3.5t-31 0.5h-17l55 87
q-58 8 -112 34t-96 68.5t-67 100.5t-25 132q0 71 27 133.5t74.5 109t112 73.5t140.5 27q39 0 66 -2t49.5 -6.5t43 -11t45.5 -16.5l-9 -117q-31 16 -56 25.5t-48 15t-46.5 7.5t-52.5 2q-42 0 -81 -15.5t-68.5 -45.5t-47 -73.5t-17.5 -99.5q0 -53 18 -97t49 -76t72 -50t88 -18
q22 0 42.5 1.5t42.5 7t47 15t58 25.5z" />
    <glyph glyph-name="Egrave" unicode="&#xc8;" horiz-adv-x="547" 
d="M86 0v659h394v-104h-273v-169h236v-103h-236v-180h294v-103h-415zM271 696l-131 185h108l103 -185h-80z" />
    <glyph glyph-name="Eacute" unicode="&#xc9;" horiz-adv-x="547" 
d="M86 0v659h394v-104h-273v-169h236v-103h-236v-180h294v-103h-415zM311 697h-81l102 185h109z" />
    <glyph glyph-name="Ecircumflex" unicode="&#xca;" horiz-adv-x="547" 
d="M86 0v659h394v-104h-273v-169h236v-103h-236v-180h294v-103h-415zM371 692l-75 95l-77 -95h-79l120 185h71l125 -185h-85z" />
    <glyph glyph-name="Edieresis" unicode="&#xcb;" horiz-adv-x="547" 
d="M86 0v659h394v-104h-273v-169h236v-103h-236v-180h294v-103h-415zM270 756q0 -26 -18 -43.5t-44 -17.5t-43.5 17.5t-17.5 43.5q0 25 17.5 44t43.5 19t44 -19t18 -44zM454 756q0 -26 -18 -43.5t-44 -17.5t-43.5 17.5t-17.5 43.5q0 25 17.5 44t43.5 19t44 -19t18 -44z" />
    <glyph glyph-name="Igrave" unicode="&#xcc;" horiz-adv-x="283" 
d="M80 0v659h121v-659h-121zM111 696l-131 185h108l103 -185h-80z" />
    <glyph glyph-name="Iacute" unicode="&#xcd;" horiz-adv-x="283" 
d="M80 0v659h121v-659h-121zM168 696h-81l102 185h109z" />
    <glyph glyph-name="Icircumflex" unicode="&#xce;" horiz-adv-x="283" 
d="M80 0v659h121v-659h-121zM215 682l-75 95l-77 -95h-79l120 185h71l125 -185h-85z" />
    <glyph glyph-name="Idieresis" unicode="&#xcf;" horiz-adv-x="283" 
d="M80 0v659h121v-659h-121zM135 756q0 -26 -18 -43.5t-44 -17.5t-43.5 17.5t-17.5 43.5q0 25 17.5 44t43.5 19t44 -19t18 -44zM285 756q0 -26 -18 -43.5t-44 -17.5t-43.5 17.5t-17.5 43.5q0 25 17.5 44t43.5 19t44 -19t18 -44z" />
    <glyph glyph-name="Eth" unicode="&#xd0;" horiz-adv-x="700" 
d="M668 333q0 -53 -17 -111.5t-57 -108t-104.5 -81.5t-160.5 -32h-244v291h-118v95h118v269l64 5q51 3 92 3q22 0 45 -0.5t52 -0.5q93 0 156 -30.5t101.5 -78.5t55.5 -106.5t17 -113.5zM536 333q0 39 -11 79.5t-35.5 74t-64.5 54.5t-98 21h-7l-114 -2v-174h155v-95h-155
v-193h108q114 0 168 61t54 174z" />
    <glyph glyph-name="Ntilde" unicode="&#xd1;" horiz-adv-x="751" 
d="M543 0l-339 470v-470h-117v659h121l342 -473v474h116v-660h-123zM560 767q-40 -39 -69 -51t-56 -12q-23 0 -40 6t-36 20q-11 8 -17.5 12.5t-11.5 6.5t-10.5 2.5t-13.5 0.5t-18.5 -5t-21.5 -11.5t-20.5 -13t-13.5 -9.5l-35 49q42 41 72 54t58 13q14 0 23 -2.5t16.5 -6.5
t14.5 -9.5t18 -12.5q12 -8 24.5 -13.5t28.5 -5.5q22 0 74 40z" />
    <glyph glyph-name="Ograve" unicode="&#xd2;" horiz-adv-x="742" 
d="M710 330q0 -66 -24.5 -128t-68.5 -110t-106 -77t-138 -29t-139 28t-108 75.5t-69.5 109.5t-24.5 130q0 67 24.5 129.5t69.5 110t108 76t139 28.5q75 0 137.5 -28t106.5 -75.5t68.5 -109.5t24.5 -130zM577 330q0 49 -15 93t-42 76t-64.5 51t-82.5 19t-83.5 -18t-66.5 -50
t-43.5 -75.5t-15.5 -95.5t15.5 -96t43.5 -76t66.5 -50t83.5 -18t82.5 18.5t64.5 51t42 76t15 94.5zM331 696l-131 185h108l103 -185h-80z" />
    <glyph glyph-name="Oacute" unicode="&#xd3;" horiz-adv-x="742" 
d="M710 330q0 -66 -24.5 -128t-68.5 -110t-106 -77t-138 -29t-139 28t-108 75.5t-69.5 109.5t-24.5 130q0 67 24.5 129.5t69.5 110t108 76t139 28.5q75 0 137.5 -28t106.5 -75.5t68.5 -109.5t24.5 -130zM577 330q0 49 -15 93t-42 76t-64.5 51t-82.5 19t-83.5 -18t-66.5 -50
t-43.5 -75.5t-15.5 -95.5t15.5 -96t43.5 -76t66.5 -50t83.5 -18t82.5 18.5t64.5 51t42 76t15 94.5zM404 696h-81l102 185h109z" />
    <glyph glyph-name="Ocircumflex" unicode="&#xd4;" horiz-adv-x="742" 
d="M710 330q0 -66 -24.5 -128t-68.5 -110t-106 -77t-138 -29t-139 28t-108 75.5t-69.5 109.5t-24.5 130q0 67 24.5 129.5t69.5 110t108 76t139 28.5q75 0 137.5 -28t106.5 -75.5t68.5 -109.5t24.5 -130zM577 330q0 49 -15 93t-42 76t-64.5 51t-82.5 19t-83.5 -18t-66.5 -50
t-43.5 -75.5t-15.5 -95.5t15.5 -96t43.5 -76t66.5 -50t83.5 -18t82.5 18.5t64.5 51t42 76t15 94.5zM446 692l-75 95l-77 -95h-79l120 185h71l125 -185h-85z" />
    <glyph glyph-name="Otilde" unicode="&#xd5;" horiz-adv-x="742" 
d="M710 330q0 -66 -24.5 -128t-68.5 -110t-106 -77t-138 -29t-139 28t-108 75.5t-69.5 109.5t-24.5 130q0 67 24.5 129.5t69.5 110t108 76t139 28.5q75 0 137.5 -28t106.5 -75.5t68.5 -109.5t24.5 -130zM577 330q0 49 -15 93t-42 76t-64.5 51t-82.5 19t-83.5 -18t-66.5 -50
t-43.5 -75.5t-15.5 -95.5t15.5 -96t43.5 -76t66.5 -50t83.5 -18t82.5 18.5t64.5 51t42 76t15 94.5zM560 767q-40 -39 -69 -51t-56 -12q-23 0 -40 6t-36 20q-11 8 -17.5 12.5t-11.5 6.5t-10.5 2.5t-13.5 0.5t-18.5 -5t-21.5 -11.5t-20.5 -13t-13.5 -9.5l-35 49q42 41 72 54
t58 13q14 0 23 -2.5t16.5 -6.5t14.5 -9.5t18 -12.5q12 -8 24.5 -13.5t28.5 -5.5q22 0 74 40z" />
    <glyph glyph-name="Odieresis" unicode="&#xd6;" horiz-adv-x="742" 
d="M710 330q0 -66 -24.5 -128t-68.5 -110t-106 -77t-138 -29t-139 28t-108 75.5t-69.5 109.5t-24.5 130q0 67 24.5 129.5t69.5 110t108 76t139 28.5q75 0 137.5 -28t106.5 -75.5t68.5 -109.5t24.5 -130zM577 330q0 49 -15 93t-42 76t-64.5 51t-82.5 19t-83.5 -18t-66.5 -50
t-43.5 -75.5t-15.5 -95.5t15.5 -96t43.5 -76t66.5 -50t83.5 -18t82.5 18.5t64.5 51t42 76t15 94.5zM332 756q0 -26 -18 -43.5t-44 -17.5t-43.5 17.5t-17.5 43.5q0 25 17.5 44t43.5 19t44 -19t18 -44zM562 756q0 -26 -18 -43.5t-44 -17.5t-43.5 17.5t-17.5 43.5q0 25 17.5 44
t43.5 19t44 -19t18 -44z" />
    <glyph glyph-name="multiply" unicode="&#xd7;" 
d="M433 -21l-183 182l-182 -182l-64 63l182 183l-182 182l63 64l183 -182l182 194l64 -75l-182 -183l182 -182z" />
    <glyph glyph-name="Oslash" unicode="&#xd8;" horiz-adv-x="742" 
d="M710 330q0 -66 -24.5 -128t-68.5 -110t-106 -77t-138 -29q-45 0 -84 10t-74 27l-70 -108l-53 35l69 108q-61 48 -95 119t-34 152q0 67 24.5 129.5t69.5 110t108 76t139 28.5q44 0 83 -10t74 -28l65 103l55 -35l-66 -103q60 -48 93 -118.5t33 -151.5zM577 330q0 50 -15 94
t-42 76l-246 -384q44 -26 99 -26q45 0 82.5 18.5t64.5 51t42 76t15 94.5zM470 542q-42 27 -97 27q-45 0 -83.5 -18t-66.5 -50t-43.5 -75.5t-15.5 -95.5q0 -53 16 -97t44 -76z" />
    <glyph glyph-name="Ugrave" unicode="&#xd9;" horiz-adv-x="682" 
d="M612 235q0 -65 -21 -111.5t-58.5 -76.5t-88.5 -44.5t-112 -14.5q-51 0 -98 14.5t-84 43t-59 69.5t-22 95v449h121v-421q0 -44 14 -72t35.5 -44.5t47 -23t49.5 -6.5q28 0 56 6.5t50 23t35.5 45t13.5 72.5v420h121v-424zM322 696l-131 185h108l103 -185h-80z" />
    <glyph glyph-name="Uacute" unicode="&#xda;" horiz-adv-x="682" 
d="M612 235q0 -65 -21 -111.5t-58.5 -76.5t-88.5 -44.5t-112 -14.5q-51 0 -98 14.5t-84 43t-59 69.5t-22 95v449h121v-421q0 -44 14 -72t35.5 -44.5t47 -23t49.5 -6.5q28 0 56 6.5t50 23t35.5 45t13.5 72.5v420h121v-424zM367 696h-81l102 185h109z" />
    <glyph glyph-name="Ucircumflex" unicode="&#xdb;" horiz-adv-x="682" 
d="M612 235q0 -65 -21 -111.5t-58.5 -76.5t-88.5 -44.5t-112 -14.5q-51 0 -98 14.5t-84 43t-59 69.5t-22 95v449h121v-421q0 -44 14 -72t35.5 -44.5t47 -23t49.5 -6.5q28 0 56 6.5t50 23t35.5 45t13.5 72.5v420h121v-424zM416 692l-75 95l-77 -95h-79l120 185h71l125 -185
h-85z" />
    <glyph glyph-name="Udieresis" unicode="&#xdc;" horiz-adv-x="682" 
d="M612 235q0 -65 -21 -111.5t-58.5 -76.5t-88.5 -44.5t-112 -14.5q-51 0 -98 14.5t-84 43t-59 69.5t-22 95v449h121v-421q0 -44 14 -72t35.5 -44.5t47 -23t49.5 -6.5q28 0 56 6.5t50 23t35.5 45t13.5 72.5v420h121v-424zM287 756q0 -26 -18 -43.5t-44 -17.5t-43.5 17.5
t-17.5 43.5q0 25 17.5 44t43.5 19t44 -19t18 -44zM528 756q0 -26 -18 -43.5t-44 -17.5t-43.5 17.5t-17.5 43.5q0 25 17.5 44t43.5 19t44 -19t18 -44z" />
    <glyph glyph-name="Yacute" unicode="&#xdd;" horiz-adv-x="542" 
d="M332 274v-274h-120v274l-213 385h124l153 -278l148 278h118zM305 696h-81l102 185h109z" />
    <glyph glyph-name="Thorn" unicode="&#xde;" horiz-adv-x="539" 
d="M529 338q0 -49 -21.5 -88.5t-56 -68t-78.5 -44t-89 -15.5h-33q-23 0 -46 2v-124h-121v657h121v-112q26 1 51 1h51q45 0 85.5 -11.5t70.5 -37t48 -65t18 -94.5zM397 338q0 55 -27.5 81t-87.5 26h-4l-73 -1v-221h50q30 0 56 5.5t45 19t30 35.5t11 55z" />
    <glyph glyph-name="germandbls" unicode="&#xdf;" horiz-adv-x="566" 
d="M556 136q0 -69 -47 -109t-140 -40q-23 0 -59 12.5t-64 31.5l14 101q30 -23 58.5 -34.5t69.5 -11.5q33 0 48 11.5t15 29.5q0 19 -15 31.5t-38 23t-49 22.5t-49 30t-38 44.5t-15 66.5q0 24 8 41t22.5 32.5t35 31t45.5 36.5q23 19 34.5 39.5t11.5 50.5q0 24 -18.5 45.5
t-58.5 21.5q-27 0 -54 -6.5t-40 -16.5q-1 -1 -5.5 -8.5t-9 -23.5t-8 -41t-3.5 -62v-485h-121v371h-77v81h77l1 24q3 58 13 106.5t35.5 83.5t71.5 54.5t120 19.5q24 0 58 -7t64.5 -23t52.5 -42.5t22 -65.5q0 -36 -7.5 -59t-22.5 -41t-37.5 -35.5t-51.5 -41.5
q-18 -15 -32 -29.5t-14 -34.5q0 -21 14.5 -35t36.5 -25t47.5 -23t47.5 -30t36.5 -44.5t14.5 -67.5z" />
    <glyph glyph-name="agrave" unicode="&#xe0;" horiz-adv-x="456" 
d="M299 0q-5 14 -6.5 23.5t-5.5 29.5q-17 -24 -49.5 -45t-76.5 -21q-60 0 -96 32t-36 81q0 30 5.5 56t16.5 39q9 12 36 24.5t60 23.5t67 19.5t57 13.5v34q0 18 -2 30.5t-8 20t-17.5 11t-30.5 3.5q-8 0 -18 -0.5t-19.5 -1.5t-17 -3t-9.5 -6q-5 -8 -5 -15t-1 -20l-98 -9
q0 5 -0.5 9.5t-0.5 9.5q0 19 2.5 35t7.5 33q2 7 15.5 17t36 19t52.5 15.5t65 6.5q80 0 125 -34.5t45 -95.5v-201q0 -38 5.5 -73t10.5 -61h-110zM271 198q-36 -9 -60.5 -17t-57.5 -22q-4 -11 -5 -17t-1 -17q0 -20 6.5 -34t29.5 -14q17 0 39.5 12.5t48.5 41.5v67zM205 521
l-136 202h112l107 -202h-83z" />
    <glyph glyph-name="aacute" unicode="&#xe1;" horiz-adv-x="456" 
d="M299 0q-5 14 -6.5 23.5t-5.5 29.5q-17 -24 -49.5 -45t-76.5 -21q-60 0 -96 32t-36 81q0 30 5.5 56t16.5 39q9 12 36 24.5t60 23.5t67 19.5t57 13.5v34q0 18 -2 30.5t-8 20t-17.5 11t-30.5 3.5q-8 0 -18 -0.5t-19.5 -1.5t-17 -3t-9.5 -6q-5 -8 -5 -15t-1 -20l-98 -9
q0 5 -0.5 9.5t-0.5 9.5q0 19 2.5 35t7.5 33q2 7 15.5 17t36 19t52.5 15.5t65 6.5q80 0 125 -34.5t45 -95.5v-201q0 -38 5.5 -73t10.5 -61h-110zM271 198q-36 -9 -60.5 -17t-57.5 -22q-4 -11 -5 -17t-1 -17q0 -20 6.5 -34t29.5 -14q17 0 39.5 12.5t48.5 41.5v67zM255 521h-84
l106 202h113z" />
    <glyph glyph-name="acircumflex" unicode="&#xe2;" horiz-adv-x="456" 
d="M299 0q-5 14 -6.5 23.5t-5.5 29.5q-17 -24 -49.5 -45t-76.5 -21q-60 0 -96 32t-36 81q0 30 5.5 56t16.5 39q9 12 36 24.5t60 23.5t67 19.5t57 13.5v34q0 18 -2 30.5t-8 20t-17.5 11t-30.5 3.5q-8 0 -18 -0.5t-19.5 -1.5t-17 -3t-9.5 -6q-5 -8 -5 -15t-1 -20l-98 -9
q0 5 -0.5 9.5t-0.5 9.5q0 19 2.5 35t7.5 33q2 7 15.5 17t36 19t52.5 15.5t65 6.5q80 0 125 -34.5t45 -95.5v-201q0 -38 5.5 -73t10.5 -61h-110zM271 198q-36 -9 -60.5 -17t-57.5 -22q-4 -11 -5 -17t-1 -17q0 -20 6.5 -34t29.5 -14q17 0 39.5 12.5t48.5 41.5v67zM310 510
l-78 103l-81 -103h-82l124 201h75l131 -201h-89z" />
    <glyph glyph-name="atilde" unicode="&#xe3;" horiz-adv-x="456" 
d="M299 0q-5 14 -6.5 23.5t-5.5 29.5q-17 -24 -49.5 -45t-76.5 -21q-60 0 -96 32t-36 81q0 30 5.5 56t16.5 39q9 12 36 24.5t60 23.5t67 19.5t57 13.5v34q0 18 -2 30.5t-8 20t-17.5 11t-30.5 3.5q-8 0 -18 -0.5t-19.5 -1.5t-17 -3t-9.5 -6q-5 -8 -5 -15t-1 -20l-98 -9
q0 5 -0.5 9.5t-0.5 9.5q0 19 2.5 35t7.5 33q2 7 15.5 17t36 19t52.5 15.5t65 6.5q80 0 125 -34.5t45 -95.5v-201q0 -38 5.5 -73t10.5 -61h-110zM271 198q-36 -9 -60.5 -17t-57.5 -22q-4 -11 -5 -17t-1 -17q0 -20 6.5 -34t29.5 -14q17 0 39.5 12.5t48.5 41.5v67zM422 584
q-41 -42 -71.5 -55.5t-59.5 -13.5q-24 0 -41.5 7t-37.5 22q-11 8 -18 13t-12.5 7.5t-11 3t-13.5 0.5t-19 -5.5t-22.5 -12.5t-21.5 -15l-14 -10l-37 54q44 43 75.5 57.5t60.5 14.5q15 0 24.5 -2.5t17 -7t15 -10.5t18.5 -13q13 -9 26 -15.5t29 -6.5q13 0 33 12t44 32z" />
    <glyph glyph-name="adieresis" unicode="&#xe4;" horiz-adv-x="456" 
d="M299 0q-5 14 -6.5 23.5t-5.5 29.5q-17 -24 -49.5 -45t-76.5 -21q-60 0 -96 32t-36 81q0 30 5.5 56t16.5 39q9 12 36 24.5t60 23.5t67 19.5t57 13.5v34q0 18 -2 30.5t-8 20t-17.5 11t-30.5 3.5q-8 0 -18 -0.5t-19.5 -1.5t-17 -3t-9.5 -6q-5 -8 -5 -15t-1 -20l-98 -9
q0 5 -0.5 9.5t-0.5 9.5q0 19 2.5 35t7.5 33q2 7 15.5 17t36 19t52.5 15.5t65 6.5q80 0 125 -34.5t45 -95.5v-201q0 -38 5.5 -73t10.5 -61h-110zM271 198q-36 -9 -60.5 -17t-57.5 -22q-4 -11 -5 -17t-1 -17q0 -20 6.5 -34t29.5 -14q17 0 39.5 12.5t48.5 41.5v67zM205 593
q0 -28 -18.5 -47.5t-45.5 -19.5t-45.5 19.5t-18.5 46.5q0 28 17.5 48.5t46.5 20.5q27 0 45.5 -20.5t18.5 -47.5zM373 593q0 -28 -18.5 -47.5t-45.5 -19.5t-45.5 19.5t-18.5 46.5q0 28 17.5 48.5t46.5 20.5q27 0 45.5 -20.5t18.5 -47.5z" />
    <glyph glyph-name="aring" unicode="&#xe5;" horiz-adv-x="456" 
d="M299 0q-5 14 -6.5 23.5t-5.5 29.5q-17 -24 -49.5 -45t-76.5 -21q-60 0 -96 32t-36 81q0 30 5.5 56t16.5 39q9 12 36 24.5t60 23.5t67 19.5t57 13.5v34q0 18 -2 30.5t-8 20t-17.5 11t-30.5 3.5q-8 0 -18 -0.5t-19.5 -1.5t-17 -3t-9.5 -6q-5 -8 -5 -15t-1 -20l-98 -9
q0 5 -0.5 9.5t-0.5 9.5q0 19 2.5 35t7.5 33q2 7 15.5 17t36 19t52.5 15.5t65 6.5q80 0 125 -34.5t45 -95.5v-201q0 -38 5.5 -73t10.5 -61h-110zM271 198q-36 -9 -60.5 -17t-57.5 -22q-4 -11 -5 -17t-1 -17q0 -20 6.5 -34t29.5 -14q17 0 39.5 12.5t48.5 41.5v67zM339 621
q0 -22 -8 -41t-22 -33t-32.5 -22t-39.5 -8q-43 0 -71.5 29.5t-28.5 74.5q0 22 7.5 41t21 33.5t32 22.5t39.5 8t39.5 -8t32.5 -22.5t22 -33.5t8 -41zM285 621q0 21 -14 35t-34 14t-33.5 -14t-13.5 -35q0 -20 13.5 -34.5t33.5 -14.5t34 14.5t14 34.5z" />
    <glyph glyph-name="ae" unicode="&#xe6;" horiz-adv-x="717" 
d="M393 213q0 -25 9 -47.5t24.5 -39t37 -26.5t45.5 -10q36 0 75.5 15.5t81.5 50.5l11 -118q-20 -12 -40 -21.5t-42.5 -16t-49.5 -10t-60 -3.5q-54 0 -99 21t-75 61q-12 -16 -26 -30.5t-31 -26t-40 -18.5t-53 -7q-60 0 -96 32t-36 81q0 31 5.5 56t16.5 39q9 12 36 24.5
t60 23.5t67 19.5t57 13.5v34q0 18 -2 30.5t-8 20t-17.5 11t-30.5 3.5q-26 0 -40 -2t-21 -7t-8 -14t-1 -23l-98 -9q0 6 -0.5 11.5t-0.5 10.5q1 16 2.5 30t6.5 32q2 9 16.5 19.5t37 19.5t52.5 15.5t64 6.5q85 0 130 -39q56 39 131 39q58 0 96.5 -15.5t61.5 -47t32.5 -78.5
t9.5 -111h-291zM575 288q-2 19 -5 35.5t-12.5 27.5t-27 17.5t-46.5 6.5q-6 0 -14 -2t-15.5 -4t-14 -4.5t-7.5 -3.5q-2 -2 -17.5 -21.5t-20.5 -51.5h180zM271 198q-36 -9 -61.5 -16.5t-56.5 -22.5q-4 -11 -5 -17t-1 -17q0 -20 6.5 -34t29.5 -14q16 0 32 8t28.5 17.5t20 18
t7.5 10.5v67z" />
    <glyph glyph-name="ccedilla" unicode="&#xe7;" horiz-adv-x="442" 
d="M423 36q-41 -24 -75 -35t-69 -13l-28 -45q37 -4 63 -23.5t26 -51.5q0 -24 -11 -40.5t-28.5 -27.5t-39 -16t-42.5 -5q-15 0 -26 0.5t-21.5 2.5t-22.5 5.5t-28 9.5l34 61q14 -8 27.5 -10.5t26.5 -2.5q23 0 33.5 6t10.5 15q0 21 -24 25.5t-56 4.5h-24l58 96q-79 15 -126 76
t-47 162q0 61 19 105.5t49 73.5t68 42.5t76 13.5q35 0 66 -4.5t54.5 -15t37 -29t13.5 -45.5v-37q0 -7 -2 -15h-116q0 32 -9.5 41t-33.5 9q-22 0 -29.5 -2t-9.5 -3l-9 -5q-9 -5 -19 -19.5t-18.5 -40t-8.5 -66.5q0 -44 11 -72t28.5 -43.5t38 -21.5t39.5 -6q12 0 25 1t28.5 7
t35 17.5t44.5 32.5z" />
    <glyph glyph-name="egrave" unicode="&#xe8;" horiz-adv-x="488" 
d="M162 213q1 -23 10 -45.5t24 -39.5t36.5 -27.5t47.5 -10.5q36 0 75.5 15.5t81.5 50.5l11 -118q-20 -12 -40 -21.5t-42.5 -16t-49.5 -10t-60 -3.5q-48 0 -88.5 16.5t-70 47t-46.5 74.5t-17 100t16.5 100.5t45.5 75.5t70 47.5t89 16.5q58 0 96.5 -15.5t61.5 -47t32.5 -78.5
t9.5 -111h-293zM346 288q-2 19 -5 35.5t-12.5 27.5t-27 17.5t-46.5 6.5q-6 0 -14 -2t-15.5 -4t-14 -4.5t-7.5 -3.5q-2 -2 -17.5 -21.5t-20.5 -51.5h180zM235 521l-136 202h112l107 -202h-83z" />
    <glyph glyph-name="eacute" unicode="&#xe9;" horiz-adv-x="488" 
d="M162 213q1 -23 10 -45.5t24 -39.5t36.5 -27.5t47.5 -10.5q36 0 75.5 15.5t81.5 50.5l11 -118q-20 -12 -40 -21.5t-42.5 -16t-49.5 -10t-60 -3.5q-48 0 -88.5 16.5t-70 47t-46.5 74.5t-17 100t16.5 100.5t45.5 75.5t70 47.5t89 16.5q58 0 96.5 -15.5t61.5 -47t32.5 -78.5
t9.5 -111h-293zM346 288q-2 19 -5 35.5t-12.5 27.5t-27 17.5t-46.5 6.5q-6 0 -14 -2t-15.5 -4t-14 -4.5t-7.5 -3.5q-2 -2 -17.5 -21.5t-20.5 -51.5h180zM275 521h-84l106 202h113z" />
    <glyph glyph-name="ecircumflex" unicode="&#xea;" horiz-adv-x="488" 
d="M162 213q1 -23 10 -45.5t24 -39.5t36.5 -27.5t47.5 -10.5q36 0 75.5 15.5t81.5 50.5l11 -118q-20 -12 -40 -21.5t-42.5 -16t-49.5 -10t-60 -3.5q-48 0 -88.5 16.5t-70 47t-46.5 74.5t-17 100t16.5 100.5t45.5 75.5t70 47.5t89 16.5q58 0 96.5 -15.5t61.5 -47t32.5 -78.5
t9.5 -111h-293zM346 288q-2 19 -5 35.5t-12.5 27.5t-27 17.5t-46.5 6.5q-6 0 -14 -2t-15.5 -4t-14 -4.5t-7.5 -3.5q-2 -2 -17.5 -21.5t-20.5 -51.5h180zM330 510l-78 103l-81 -103h-82l124 201h75l131 -201h-89z" />
    <glyph glyph-name="edieresis" unicode="&#xeb;" horiz-adv-x="488" 
d="M162 213q1 -23 10 -45.5t24 -39.5t36.5 -27.5t47.5 -10.5q36 0 75.5 15.5t81.5 50.5l11 -118q-20 -12 -40 -21.5t-42.5 -16t-49.5 -10t-60 -3.5q-48 0 -88.5 16.5t-70 47t-46.5 74.5t-17 100t16.5 100.5t45.5 75.5t70 47.5t89 16.5q58 0 96.5 -15.5t61.5 -47t32.5 -78.5
t9.5 -111h-293zM346 288q-2 19 -5 35.5t-12.5 27.5t-27 17.5t-46.5 6.5q-6 0 -14 -2t-15.5 -4t-14 -4.5t-7.5 -3.5q-2 -2 -17.5 -21.5t-20.5 -51.5h180zM246 593q0 -28 -18.5 -47.5t-45.5 -19.5t-45.5 19.5t-18.5 46.5q0 28 17.5 48.5t46.5 20.5q27 0 45.5 -20.5t18.5 -47.5
zM414 593q0 -28 -18.5 -47.5t-45.5 -19.5t-45.5 19.5t-18.5 46.5q0 28 17.5 48.5t46.5 20.5q27 0 45.5 -20.5t18.5 -47.5z" />
    <glyph glyph-name="igrave" unicode="&#xec;" horiz-adv-x="251" 
d="M66 0v453h121v-453h-121zM109 521l-136 202h112l107 -202h-83z" />
    <glyph glyph-name="iacute" unicode="&#xed;" horiz-adv-x="251" 
d="M66 0v453h121v-453h-121zM150 521h-84l106 202h113z" />
    <glyph glyph-name="icircumflex" unicode="&#xee;" horiz-adv-x="251" 
d="M66 0v453h121v-453h-121zM208 510l-78 103l-81 -103h-82l124 201h75l131 -201h-89z" />
    <glyph glyph-name="idieresis" unicode="&#xef;" horiz-adv-x="251" 
d="M66 0v453h121v-453h-121zM119 583q0 -28 -18.5 -47.5t-45.5 -19.5t-45.5 19.5t-18.5 46.5q0 28 17.5 48.5t46.5 20.5q27 0 45.5 -20.5t18.5 -47.5zM274 583q0 -28 -18.5 -47.5t-45.5 -19.5t-45.5 19.5t-18.5 46.5q0 28 17.5 48.5t46.5 20.5q27 0 45.5 -20.5t18.5 -47.5z
" />
    <glyph glyph-name="eth" unicode="&#xf0;" horiz-adv-x="495" 
d="M454 291q0 -72 -16.5 -128.5t-46.5 -96t-71.5 -60t-92.5 -20.5q-54 0 -93 23.5t-64 60.5t-37 82t-12 89q0 41 14 84.5t39.5 79.5t62 59.5t82.5 23.5q28 0 50.5 -4t42.5 -14q-12 19 -17 27.5t-9.5 14t-10 12.5t-17.5 23l-46 -35l-51 67l45 34q-2 3 -8 11.5t-14 17.5
l-15 19q-7 10 -11 16l78 63q11 -11 23 -27.5t25 -32.5l54 43l49 -69l-49 -39q25 -36 46 -68t36.5 -69t24.5 -81.5t9 -105.5zM329 315q0 22 -1 39q-20 9 -38 14t-44 5q-42 0 -69.5 -36.5t-27.5 -98.5q0 -20 2 -45t9 -46.5t20.5 -36t36.5 -14.5q30 0 51 14t34.5 39t20 59.5
t6.5 76.5v30z" />
    <glyph glyph-name="ntilde" unicode="&#xf1;" horiz-adv-x="552" 
d="M485 213q0 -24 -0.5 -44.5t-1 -43.5t-1.5 -52.5t-2 -72.5h-121q1 49 2 79.5t1.5 53t0.5 43.5v81q0 15 -2 29q-3 44 -14 59t-38 15q-7 0 -16 -0.5t-17.5 -2t-15 -3.5t-8.5 -4q-3 -2 -9.5 -7t-15.5 -12.5t-18.5 -16.5t-16.5 -18v-296h-121v319q0 15 -1 34.5t-3 38.5
t-4 35.5t-4 25.5h108l12 -53q30 34 64 49.5t73 15.5q58 0 91.5 -16.5t51 -44t22 -63t4.5 -73.5v-55zM468 584q-41 -42 -71.5 -55.5t-59.5 -13.5q-24 0 -41.5 7t-37.5 22q-11 8 -18 13t-12.5 7.5t-11 3t-13.5 0.5t-19 -5.5t-22.5 -12.5t-21.5 -15l-14 -10l-37 54
q44 43 75.5 57.5t60.5 14.5q15 0 24.5 -2.5t17 -7t15 -10.5t18.5 -13q13 -9 26 -15.5t29 -6.5q13 0 33 12t44 32z" />
    <glyph glyph-name="ograve" unicode="&#xf2;" horiz-adv-x="536" 
d="M502 226q0 -51 -16.5 -95t-47.5 -76t-75.5 -50t-100.5 -18q-52 0 -94 17t-72 48.5t-46 75.5t-16 98q0 49 15.5 92.5t45.5 76t74.5 51.5t103.5 19q52 0 94.5 -17t72.5 -48.5t46 -75.5t16 -98zM375 234q-1 25 -7 48t-19 41t-34 29t-52 11q-24 0 -40 -7t-19 -10
q-20 -19 -31.5 -52.5t-11.5 -70.5v-4q1 -25 7 -48.5t19 -41.5t34 -28.5t51 -10.5q20 0 38 7t20 9q20 20 32.5 54t12.5 70v4zM241 521l-136 202h112l107 -202h-83z" />
    <glyph glyph-name="oacute" unicode="&#xf3;" horiz-adv-x="536" 
d="M502 226q0 -51 -16.5 -95t-47.5 -76t-75.5 -50t-100.5 -18q-52 0 -94 17t-72 48.5t-46 75.5t-16 98q0 49 15.5 92.5t45.5 76t74.5 51.5t103.5 19q52 0 94.5 -17t72.5 -48.5t46 -75.5t16 -98zM375 234q-1 25 -7 48t-19 41t-34 29t-52 11q-24 0 -40 -7t-19 -10
q-20 -19 -31.5 -52.5t-11.5 -70.5v-4q1 -25 7 -48.5t19 -41.5t34 -28.5t51 -10.5q20 0 38 7t20 9q20 20 32.5 54t12.5 70v4zM303 521h-84l106 202h113z" />
    <glyph glyph-name="ocircumflex" unicode="&#xf4;" horiz-adv-x="536" 
d="M502 226q0 -51 -16.5 -95t-47.5 -76t-75.5 -50t-100.5 -18q-52 0 -94 17t-72 48.5t-46 75.5t-16 98q0 49 15.5 92.5t45.5 76t74.5 51.5t103.5 19q52 0 94.5 -17t72.5 -48.5t46 -75.5t16 -98zM375 234q-1 25 -7 48t-19 41t-34 29t-52 11q-24 0 -40 -7t-19 -10
q-20 -19 -31.5 -52.5t-11.5 -70.5v-4q1 -25 7 -48.5t19 -41.5t34 -28.5t51 -10.5q20 0 38 7t20 9q20 20 32.5 54t12.5 70v4zM358 510l-78 103l-81 -103h-82l124 201h75l131 -201h-89z" />
    <glyph glyph-name="otilde" unicode="&#xf5;" horiz-adv-x="536" 
d="M502 226q0 -51 -16.5 -95t-47.5 -76t-75.5 -50t-100.5 -18q-52 0 -94 17t-72 48.5t-46 75.5t-16 98q0 49 15.5 92.5t45.5 76t74.5 51.5t103.5 19q52 0 94.5 -17t72.5 -48.5t46 -75.5t16 -98zM375 234q-1 25 -7 48t-19 41t-34 29t-52 11q-24 0 -40 -7t-19 -10
q-20 -19 -31.5 -52.5t-11.5 -70.5v-4q1 -25 7 -48.5t19 -41.5t34 -28.5t51 -10.5q20 0 38 7t20 9q20 20 32.5 54t12.5 70v4zM468 584q-41 -42 -71.5 -55.5t-59.5 -13.5q-24 0 -41.5 7t-37.5 22q-11 8 -18 13t-12.5 7.5t-11 3t-13.5 0.5t-19 -5.5t-22.5 -12.5t-21.5 -15
l-14 -10l-37 54q44 43 75.5 57.5t60.5 14.5q15 0 24.5 -2.5t17 -7t15 -10.5t18.5 -13q13 -9 26 -15.5t29 -6.5q13 0 33 12t44 32z" />
    <glyph glyph-name="odieresis" unicode="&#xf6;" horiz-adv-x="536" 
d="M502 226q0 -51 -16.5 -95t-47.5 -76t-75.5 -50t-100.5 -18q-52 0 -94 17t-72 48.5t-46 75.5t-16 98q0 49 15.5 92.5t45.5 76t74.5 51.5t103.5 19q52 0 94.5 -17t72.5 -48.5t46 -75.5t16 -98zM375 234q-1 25 -7 48t-19 41t-34 29t-52 11q-24 0 -40 -7t-19 -10
q-20 -19 -31.5 -52.5t-11.5 -70.5v-4q1 -25 7 -48.5t19 -41.5t34 -28.5t51 -10.5q20 0 38 7t20 9q20 20 32.5 54t12.5 70v4zM253 593q0 -28 -18.5 -47.5t-45.5 -19.5t-45.5 19.5t-18.5 46.5q0 28 17.5 48.5t46.5 20.5q27 0 45.5 -20.5t18.5 -47.5zM421 593
q0 -28 -18.5 -47.5t-45.5 -19.5t-45.5 19.5t-18.5 46.5q0 28 17.5 48.5t46.5 20.5q27 0 45.5 -20.5t18.5 -47.5z" />
    <glyph glyph-name="divide" unicode="&#xf7;" 
d="M22 180v90h456v-90h-456zM324 388q0 -32 -22 -54t-52 -22q-31 0 -53 22t-22 53q0 32 21.5 54t53.5 22q31 0 52.5 -22t21.5 -53zM250 138q30 0 52 -22t22 -53q0 -32 -22 -54t-52 -22q-31 0 -53 22t-22 53q0 32 21.5 54t53.5 22z" />
    <glyph glyph-name="oslash" unicode="&#xf8;" horiz-adv-x="536" 
d="M502 226q0 -51 -16.5 -95t-47.5 -76t-75.5 -50t-100.5 -18q-52 0 -94 18l-56 -87l-53 32l54 87q-38 32 -58.5 80t-20.5 109q0 49 15.5 92.5t45.5 76t74.5 51.5t103.5 19q53 0 99 -19l53 84l55 -32l-54 -86q36 -32 56 -79t20 -107zM375 234q0 41 -16 73l-132 -209
q10 -4 20.5 -6t24.5 -2q31 0 51 13t31.5 33.5t16 46t4.5 51.5zM313 353q-11 5 -23 7.5t-27 2.5q-30 0 -50 -12t-31.5 -31.5t-16 -44.5t-4.5 -51q0 -23 4.5 -44t13.5 -38z" />
    <glyph glyph-name="ugrave" unicode="&#xf9;" horiz-adv-x="541" 
d="M370 0l-12 53q-27 -32 -61 -49t-76 -17q-90 0 -127 41.5t-37 127.5v297h121v-287q0 -15 1 -28.5t6.5 -23.5t15.5 -16t28 -6q10 0 28 2t27 7q12 9 31 25.5t30 29.5v297h121v-319q0 -34 3.5 -67.5t8.5 -66.5h-108zM241 521l-136 202h112l107 -202h-83z" />
    <glyph glyph-name="uacute" unicode="&#xfa;" horiz-adv-x="541" 
d="M370 0l-12 53q-27 -32 -61 -49t-76 -17q-90 0 -127 41.5t-37 127.5v297h121v-287q0 -15 1 -28.5t6.5 -23.5t15.5 -16t28 -6q10 0 28 2t27 7q12 9 31 25.5t30 29.5v297h121v-319q0 -34 3.5 -67.5t8.5 -66.5h-108zM303 521h-84l106 202h113z" />
    <glyph glyph-name="ucircumflex" unicode="&#xfb;" horiz-adv-x="541" 
d="M370 0l-12 53q-27 -32 -61 -49t-76 -17q-90 0 -127 41.5t-37 127.5v297h121v-287q0 -15 1 -28.5t6.5 -23.5t15.5 -16t28 -6q10 0 28 2t27 7q12 9 31 25.5t30 29.5v297h121v-319q0 -34 3.5 -67.5t8.5 -66.5h-108zM349 510l-78 103l-81 -103h-82l124 201h75l131 -201h-89z
" />
    <glyph glyph-name="udieresis" unicode="&#xfc;" horiz-adv-x="541" 
d="M370 0l-12 53q-27 -32 -61 -49t-76 -17q-90 0 -127 41.5t-37 127.5v297h121v-287q0 -15 1 -28.5t6.5 -23.5t15.5 -16t28 -6q10 0 28 2t27 7q12 9 31 25.5t30 29.5v297h121v-319q0 -34 3.5 -67.5t8.5 -66.5h-108zM220 583q0 -28 -18.5 -47.5t-45.5 -19.5t-45.5 19.5
t-18.5 46.5q0 28 17.5 48.5t46.5 20.5q27 0 45.5 -20.5t18.5 -47.5zM435 583q0 -28 -18.5 -47.5t-45.5 -19.5t-45.5 19.5t-18.5 46.5q0 28 17.5 48.5t46.5 20.5q27 0 45.5 -20.5t18.5 -47.5z" />
    <glyph glyph-name="yacute" unicode="&#xfd;" horiz-adv-x="428" 
d="M269 -22q-19 -57 -40.5 -116t-44.5 -113h-124q29 59 55 119.5t52 130.5l-167 454h120l102 -284l94 284h112zM255 521h-84l106 202h113z" />
    <glyph glyph-name="thorn" unicode="&#xfe;" horiz-adv-x="532" 
d="M492 245q0 -120 -59 -188t-176 -68q-19 0 -37.5 1.5t-36.5 7.5v-247h-122v979h122v-319q29 32 58.5 43t67.5 11q37 0 70.5 -13.5t58.5 -40.5t39.5 -68.5t14.5 -97.5zM364 237q0 20 -2.5 41.5t-10 39.5t-21.5 30t-38 12q-14 0 -29.5 -3.5t-17.5 -5.5q-2 -1 -8.5 -6
t-16 -12.5t-19.5 -17.5t-18 -21v-185q10 -5 26.5 -11t36.5 -6q58 0 88 35t30 110z" />
    <glyph glyph-name="ydieresis" unicode="&#xff;" horiz-adv-x="428" 
d="M269 -22q-19 -57 -40.5 -116t-44.5 -113h-124q29 59 55 119.5t52 130.5l-167 454h120l102 -284l94 284h112zM195 593q0 -28 -18.5 -47.5t-45.5 -19.5t-45.5 19.5t-18.5 46.5q0 28 17.5 48.5t46.5 20.5q27 0 45.5 -20.5t18.5 -47.5zM383 593q0 -28 -18.5 -47.5
t-45.5 -19.5t-45.5 19.5t-18.5 46.5q0 28 17.5 48.5t46.5 20.5q27 0 45.5 -20.5t18.5 -47.5z" />
    <glyph glyph-name="Amacron" unicode="&#x100;" horiz-adv-x="549" 
d="M429 0l-53 152h-207l-55 -152h-114l250 681h64l236 -681h-121zM276 461l-70 -206h133zM101 695v65h352v-65h-352z" />
    <glyph glyph-name="amacron" unicode="&#x101;" horiz-adv-x="456" 
d="M299 0q-5 14 -6.5 23.5t-5.5 29.5q-17 -24 -49.5 -45t-76.5 -21q-60 0 -96 32t-36 81q0 30 5.5 56t16.5 39q9 12 36 24.5t60 23.5t67 19.5t57 13.5v34q0 18 -2 30.5t-8 20t-17.5 11t-30.5 3.5q-8 0 -18 -0.5t-19.5 -1.5t-17 -3t-9.5 -6q-5 -8 -5 -15t-1 -20l-98 -9
q0 5 -0.5 9.5t-0.5 9.5q0 19 2.5 35t7.5 33q2 7 15.5 17t36 19t52.5 15.5t65 6.5q80 0 125 -34.5t45 -95.5v-201q0 -38 5.5 -73t10.5 -61h-110zM271 198q-36 -9 -60.5 -17t-57.5 -22q-4 -11 -5 -17t-1 -17q0 -20 6.5 -34t29.5 -14q17 0 39.5 12.5t48.5 41.5v67zM47 526v65
h352v-65h-352z" />
    <glyph glyph-name="Abreve" unicode="&#x102;" horiz-adv-x="549" 
d="M429 0l-53 152h-207l-55 -152h-114l250 681h64l236 -681h-121zM276 461l-70 -206h133zM460 889q-6 -29 -22 -56t-39 -47.5t-53 -33t-66 -12.5q-33 0 -63 10t-53 29t-38 47t-19 63h78q6 -32 34 -49t61 -17q43 0 67.5 18.5t32.5 47.5h80z" />
    <glyph glyph-name="abreve" unicode="&#x103;" horiz-adv-x="456" 
d="M299 0q-5 14 -6.5 23.5t-5.5 29.5q-17 -24 -49.5 -45t-76.5 -21q-60 0 -96 32t-36 81q0 30 5.5 56t16.5 39q9 12 36 24.5t60 23.5t67 19.5t57 13.5v34q0 18 -2 30.5t-8 20t-17.5 11t-30.5 3.5q-8 0 -18 -0.5t-19.5 -1.5t-17 -3t-9.5 -6q-5 -8 -5 -15t-1 -20l-98 -9
q0 5 -0.5 9.5t-0.5 9.5q0 19 2.5 35t7.5 33q2 7 15.5 17t36 19t52.5 15.5t65 6.5q80 0 125 -34.5t45 -95.5v-201q0 -38 5.5 -73t10.5 -61h-110zM271 198q-36 -9 -60.5 -17t-57.5 -22q-4 -11 -5 -17t-1 -17q0 -20 6.5 -34t29.5 -14q17 0 39.5 12.5t48.5 41.5v67zM403 711
q-6 -29 -22 -56t-39 -47.5t-53 -33t-66 -12.5q-33 0 -63 10t-53 29t-38 47t-19 63h78q6 -32 34 -49t61 -17q43 0 67.5 18.5t32.5 47.5h80z" />
    <glyph glyph-name="Aogonek" unicode="&#x104;" horiz-adv-x="549" 
d="M534 -201q-16 -8 -26 -12.5t-20 -8.5q-11 -4 -22 -6t-25 -2q-23 0 -38.5 9.5t-25.5 23t-14.5 29t-4.5 28.5q0 38 20 73.5t51 66.5l-53 152h-207l-55 -152h-114l250 681h64l236 -681h-37q-34 -42 -47.5 -67.5t-13.5 -47.5q0 -26 6.5 -34.5t20.5 -8.5q9 0 21.5 4t41.5 15z
M276 461l-70 -206h133z" />
    <glyph glyph-name="aogonek" unicode="&#x105;" horiz-adv-x="456" 
d="M381 0q-34 -42 -47 -68t-13 -47q0 -26 6.5 -34.5t20.5 -8.5q9 0 21.5 4t41.5 15l-8 -62q-16 -8 -26 -12.5t-20 -8.5q-11 -4 -22 -6t-25 -2q-23 0 -38.5 9.5t-25.5 23t-14.5 29t-4.5 28.5q0 38 20 73.5t52 66.5q-5 14 -6.5 23.5t-5.5 29.5q-17 -24 -49.5 -45t-76.5 -21
q-60 0 -96 32t-36 81q0 30 5.5 56t16.5 39q9 12 36 24.5t60 23.5t67 19.5t57 13.5v34q0 18 -2 30.5t-8 20t-17.5 11t-30.5 3.5q-8 0 -18 -0.5t-19.5 -1.5t-17 -3t-9.5 -6q-5 -8 -5 -15t-1 -20l-98 -9q0 5 -0.5 9.5t-0.5 9.5q0 19 2.5 35t7.5 33q2 7 15.5 17t36 19t52.5 15.5
t65 6.5q80 0 125 -34.5t45 -95.5v-201q0 -43 6.5 -80t9.5 -54h-28zM271 198q-36 -9 -60.5 -17t-57.5 -22q-4 -11 -5 -17t-1 -17q0 -20 6.5 -34t29.5 -14q24 0 47.5 17t40.5 37v67z" />
    <glyph glyph-name="Cacute" unicode="&#x106;" horiz-adv-x="623" 
d="M589 25q-49 -21 -97.5 -29t-108.5 -8q-64 0 -127 22.5t-113 65.5t-81 106t-31 145q0 71 27 133.5t74.5 109t112 73.5t140.5 27q39 0 66 -2t49.5 -6.5t43 -11t45.5 -16.5l-9 -117q-31 16 -56 25.5t-48 15t-46.5 7.5t-52.5 2q-42 0 -81 -15.5t-68.5 -45.5t-47 -73.5
t-17.5 -99.5q0 -53 18 -97t49 -76t72 -50t88 -18q22 0 42.5 1.5t42.5 7t47 15t58 25.5zM416 696h-81l102 185h109z" />
    <glyph glyph-name="cacute" unicode="&#x107;" horiz-adv-x="442" 
d="M423 36q-47 -28 -85 -38.5t-80 -10.5q-50 0 -91 16.5t-70.5 47.5t-46 76t-16.5 103q0 61 19 105.5t49 73.5t68 42.5t76 13.5q35 0 66 -4.5t54.5 -15t37 -29t13.5 -45.5v-38q0 -6 -1 -14h-117q0 32 -9.5 41t-33.5 9q-16 0 -24.5 -1.5t-13.5 -3.5q-4 -2 -13 -8t-18.5 -20.5
t-17 -39.5t-7.5 -63q0 -44 11 -72t28.5 -43.5t38 -21.5t39.5 -6q12 0 25 1t28.5 7t35 17.5t44.5 32.5zM281 521h-84l106 202h113z" />
    <glyph glyph-name="Ccircumflex" unicode="&#x108;" horiz-adv-x="623" 
d="M589 25q-49 -21 -97.5 -29t-108.5 -8q-64 0 -127 22.5t-113 65.5t-81 106t-31 145q0 71 27 133.5t74.5 109t112 73.5t140.5 27q39 0 66 -2t49.5 -6.5t43 -11t45.5 -16.5l-9 -117q-31 16 -56 25.5t-48 15t-46.5 7.5t-52.5 2q-42 0 -81 -15.5t-68.5 -45.5t-47 -73.5
t-17.5 -99.5q0 -53 18 -97t49 -76t72 -50t88 -18q22 0 42.5 1.5t42.5 7t47 15t58 25.5zM461 692l-75 95l-77 -95h-79l120 185h71l125 -185h-85z" />
    <glyph glyph-name="ccircumflex" unicode="&#x109;" horiz-adv-x="442" 
d="M423 36q-47 -28 -85 -38.5t-80 -10.5q-50 0 -91 16.5t-70.5 47.5t-46 76t-16.5 103q0 61 19 105.5t49 73.5t68 42.5t76 13.5q35 0 66 -4.5t54.5 -15t37 -29t13.5 -45.5v-38q0 -6 -1 -14h-117q0 32 -9.5 41t-33.5 9q-16 0 -24.5 -1.5t-13.5 -3.5q-4 -2 -13 -8t-18.5 -20.5
t-17 -39.5t-7.5 -63q0 -44 11 -72t28.5 -43.5t38 -21.5t39.5 -6q12 0 25 1t28.5 7t35 17.5t44.5 32.5zM329 510l-78 103l-81 -103h-82l124 201h75l131 -201h-89z" />
    <glyph glyph-name="Cdotaccent" unicode="&#x10a;" horiz-adv-x="623" 
d="M589 25q-49 -21 -97.5 -29t-108.5 -8q-64 0 -127 22.5t-113 65.5t-81 106t-31 145q0 71 27 133.5t74.5 109t112 73.5t140.5 27q39 0 66 -2t49.5 -6.5t43 -11t45.5 -16.5l-9 -117q-31 16 -56 25.5t-48 15t-46.5 7.5t-52.5 2q-42 0 -81 -15.5t-68.5 -45.5t-47 -73.5
t-17.5 -99.5q0 -53 18 -97t49 -76t72 -50t88 -18q22 0 42.5 1.5t42.5 7t47 15t58 25.5zM454 771q0 -14 -6 -27.5t-15.5 -24.5t-22.5 -17.5t-27 -6.5t-26.5 7t-21.5 17.5t-14.5 24t-5.5 27.5q0 13 5.5 26.5t15 24t21.5 17t26 6.5q13 0 26 -6.5t23 -17t16 -23.5t6 -27z" />
    <glyph glyph-name="cdotaccent" unicode="&#x10b;" horiz-adv-x="442" 
d="M423 36q-47 -28 -85 -38.5t-80 -10.5q-50 0 -91 16.5t-70.5 47.5t-46 76t-16.5 103q0 61 19 105.5t49 73.5t68 42.5t76 13.5q35 0 66 -4.5t54.5 -15t37 -29t13.5 -45.5v-38q0 -6 -1 -14h-117q0 32 -9.5 41t-33.5 9q-16 0 -24.5 -1.5t-13.5 -3.5q-4 -2 -13 -8t-18.5 -20.5
t-17 -39.5t-7.5 -63q0 -44 11 -72t28.5 -43.5t38 -21.5t39.5 -6q12 0 25 1t28.5 7t35 17.5t44.5 32.5zM321 610q0 -14 -6 -27.5t-15.5 -24.5t-22.5 -17.5t-27 -6.5t-26.5 7t-21.5 17.5t-14.5 24t-5.5 27.5q0 13 5.5 26.5t15 24t21.5 17t26 6.5q13 0 26 -6.5t23 -17t16 -23.5
t6 -27z" />
    <glyph glyph-name="Ccaron" unicode="&#x10c;" horiz-adv-x="623" 
d="M589 25q-49 -21 -97.5 -29t-108.5 -8q-64 0 -127 22.5t-113 65.5t-81 106t-31 145q0 71 27 133.5t74.5 109t112 73.5t140.5 27q39 0 66 -2t49.5 -6.5t43 -11t45.5 -16.5l-9 -117q-31 16 -56 25.5t-48 15t-46.5 7.5t-52.5 2q-42 0 -81 -15.5t-68.5 -45.5t-47 -73.5
t-17.5 -99.5q0 -53 18 -97t49 -76t72 -50t88 -18q22 0 42.5 1.5t42.5 7t47 15t58 25.5zM427 704h-71l-125 185h85l75 -94l77 94h79z" />
    <glyph glyph-name="ccaron" unicode="&#x10d;" horiz-adv-x="442" 
d="M423 36q-47 -28 -85 -38.5t-80 -10.5q-50 0 -91 16.5t-70.5 47.5t-46 76t-16.5 103q0 61 19 105.5t49 73.5t68 42.5t76 13.5q35 0 66 -4.5t54.5 -15t37 -29t13.5 -45.5v-38q0 -6 -1 -14h-117q0 32 -9.5 41t-33.5 9q-16 0 -24.5 -1.5t-13.5 -3.5q-4 -2 -13 -8t-18.5 -20.5
t-17 -39.5t-7.5 -63q0 -44 11 -72t28.5 -43.5t38 -21.5t39.5 -6q12 0 25 1t28.5 7t35 17.5t44.5 32.5zM292 510h-74l-131 201h89l78 -102l80 102h83z" />
    <glyph glyph-name="Dcaron" unicode="&#x10e;" horiz-adv-x="700" 
d="M668 333q0 -53 -17 -111.5t-57 -108t-104.5 -81.5t-160.5 -32h-244v655l64 5q51 3 92 3q22 0 45 -0.5t52 -0.5q93 0 156 -30.5t101.5 -78.5t55.5 -106.5t17 -113.5zM536 333q0 39 -11 79.5t-35.5 74t-64.5 54.5t-98 21h-7l-114 -2v-462h108q114 0 168 61t54 174zM342 704
h-71l-125 185h85l75 -94l77 94h79z" />
    <glyph glyph-name="dcaron" unicode="&#x10f;" horiz-adv-x="545" 
d="M375 0q-1 4 -2 11.5t-2 15.5t-2 15.5t-2 10.5q-23 -32 -55 -49t-78 -17q-39 0 -75.5 17t-64 48t-44 74.5t-16.5 97.5q0 117 67 178.5t181 61.5q20 0 36.5 -3.5t36.5 -10.5v280h122v-590q0 -35 3.5 -68.5t8.5 -71.5h-114zM355 287q0 20 -3 33.5t-12 21.5t-24.5 11.5
t-40.5 3.5q-19 0 -39 -1t-27 -8q-3 -3 -11 -12t-16 -23.5t-14 -35.5t-6 -49q0 -41 10.5 -67t25 -41t31 -20.5t28.5 -5.5q29 0 54.5 17.5t43.5 42.5v133zM667 621q0 -32 -28.5 -78t-75.5 -96l-43 31q26 39 39 72t13 50q0 9 -13.5 18.5t-40.5 16.5l65 95q45 -8 64.5 -41
t19.5 -68z" />
    <glyph glyph-name="Dcroat" unicode="&#x110;" horiz-adv-x="700" 
d="M668 333q0 -53 -17 -111.5t-57 -108t-104.5 -81.5t-160.5 -32h-244v291h-118v95h118v269l64 5q51 3 92 3q22 0 45 -0.5t52 -0.5q93 0 156 -30.5t101.5 -78.5t55.5 -106.5t17 -113.5zM536 333q0 39 -11 79.5t-35.5 74t-64.5 54.5t-98 21h-7l-114 -2v-174h155v-95h-155
v-193h108q114 0 168 61t54 174z" />
    <glyph glyph-name="dcroat" unicode="&#x111;" horiz-adv-x="545" 
d="M375 0q-1 4 -2 11.5t-2 15.5t-2 15.5t-2 10.5q-23 -32 -55 -49t-78 -17q-39 0 -75.5 17t-64 48t-44 74.5t-16.5 97.5q0 117 67 178.5t181 61.5q20 0 36.5 -3.5t36.5 -10.5v109h-134v81h134v90h122v-90h56v-81h-56v-419q0 -20 1.5 -41.5t3 -41t3.5 -35t4 -22.5h-114z
M355 287q0 20 -3 33.5t-12 21.5t-24.5 11.5t-40.5 3.5q-19 0 -39 -1t-27 -8q-3 -3 -11 -12t-16 -23.5t-14 -35.5t-6 -49q0 -41 10.5 -67t25 -41t31 -20.5t28.5 -5.5q29 0 54.5 17.5t43.5 42.5v133z" />
    <glyph glyph-name="Emacron" unicode="&#x112;" horiz-adv-x="547" 
d="M86 0v659h394v-104h-273v-169h236v-103h-236v-180h294v-103h-415zM109 695v65h352v-65h-352z" />
    <glyph glyph-name="emacron" unicode="&#x113;" horiz-adv-x="488" 
d="M162 213q1 -23 10 -45.5t24 -39.5t36.5 -27.5t47.5 -10.5q36 0 75.5 15.5t81.5 50.5l11 -118q-20 -12 -40 -21.5t-42.5 -16t-49.5 -10t-60 -3.5q-48 0 -88.5 16.5t-70 47t-46.5 74.5t-17 100t16.5 100.5t45.5 75.5t70 47.5t89 16.5q58 0 96.5 -15.5t61.5 -47t32.5 -78.5
t9.5 -111h-293zM346 288q-2 19 -5 35.5t-12.5 27.5t-27 17.5t-46.5 6.5q-6 0 -14 -2t-15.5 -4t-14 -4.5t-7.5 -3.5q-2 -2 -17.5 -21.5t-20.5 -51.5h180zM79 526v65h352v-65h-352z" />
    <glyph glyph-name="Ebreve" unicode="&#x114;" horiz-adv-x="547" 
d="M86 0v659h394v-104h-273v-169h236v-103h-236v-180h294v-103h-415zM472 889q-6 -29 -22 -56t-39 -47.5t-53 -33t-66 -12.5q-33 0 -63 10t-53 29t-38 47t-19 63h78q6 -32 34 -49t61 -17q43 0 67.5 18.5t32.5 47.5h80z" />
    <glyph glyph-name="ebreve" unicode="&#x115;" horiz-adv-x="488" 
d="M162 213q1 -23 10 -45.5t24 -39.5t36.5 -27.5t47.5 -10.5q36 0 75.5 15.5t81.5 50.5l11 -118q-20 -12 -40 -21.5t-42.5 -16t-49.5 -10t-60 -3.5q-48 0 -88.5 16.5t-70 47t-46.5 74.5t-17 100t16.5 100.5t45.5 75.5t70 47.5t89 16.5q58 0 96.5 -15.5t61.5 -47t32.5 -78.5
t9.5 -111h-293zM346 288q-2 19 -5 35.5t-12.5 27.5t-27 17.5t-46.5 6.5q-6 0 -14 -2t-15.5 -4t-14 -4.5t-7.5 -3.5q-2 -2 -17.5 -21.5t-20.5 -51.5h180zM431 711q-6 -29 -22 -56t-39 -47.5t-53 -33t-66 -12.5q-33 0 -63 10t-53 29t-38 47t-19 63h78q6 -32 34 -49t61 -17
q43 0 67.5 18.5t32.5 47.5h80z" />
    <glyph glyph-name="Edotaccent" unicode="&#x116;" horiz-adv-x="547" 
d="M86 0v659h394v-104h-273v-169h236v-103h-236v-180h294v-103h-415zM364 771q0 -14 -6 -27.5t-15.5 -24.5t-22.5 -17.5t-27 -6.5t-26.5 7t-21.5 17.5t-14.5 24t-5.5 27.5q0 13 5.5 26.5t15 24t21.5 17t26 6.5q13 0 26 -6.5t23 -17t16 -23.5t6 -27z" />
    <glyph glyph-name="edotaccent" unicode="&#x117;" horiz-adv-x="488" 
d="M162 213q1 -23 10 -45.5t24 -39.5t36.5 -27.5t47.5 -10.5q36 0 75.5 15.5t81.5 50.5l11 -118q-20 -12 -40 -21.5t-42.5 -16t-49.5 -10t-60 -3.5q-48 0 -88.5 16.5t-70 47t-46.5 74.5t-17 100t16.5 100.5t45.5 75.5t70 47.5t89 16.5q58 0 96.5 -15.5t61.5 -47t32.5 -78.5
t9.5 -111h-293zM346 288q-2 19 -5 35.5t-12.5 27.5t-27 17.5t-46.5 6.5q-6 0 -14 -2t-15.5 -4t-14 -4.5t-7.5 -3.5q-2 -2 -17.5 -21.5t-20.5 -51.5h180zM325 610q0 -14 -6 -27.5t-15.5 -24.5t-22.5 -17.5t-27 -6.5t-26.5 7t-21.5 17.5t-14.5 24t-5.5 27.5q0 13 5.5 26.5
t15 24t21.5 17t26 6.5q13 0 26 -6.5t23 -17t16 -23.5t6 -27z" />
    <glyph glyph-name="Eogonek" unicode="&#x118;" horiz-adv-x="547" 
d="M493 -201q-16 -8 -26 -12.5t-20 -8.5q-11 -4 -22 -6t-25 -2q-23 0 -38.5 9.5t-25.5 23t-14.5 29t-4.5 28.5q0 38 20 73.5t52 66.5h-303v659h394v-104h-273v-169h236v-103h-236v-180h294v-103h-30q-34 -42 -47 -68t-13 -47q0 -26 6.5 -34.5t20.5 -8.5q9 0 21.5 4t41.5 15z
" />
    <glyph glyph-name="eogonek" unicode="&#x119;" horiz-adv-x="488" 
d="M433 -201q-16 -8 -26 -12.5t-20 -8.5q-11 -4 -22 -6t-25 -2q-23 0 -38.5 9.5t-25.5 23t-14.5 29t-4.5 28.5q0 36 17.5 69t45.5 62q-14 -2 -30 -3t-34 -1q-48 0 -88.5 16.5t-70 47t-46.5 74.5t-17 100t16.5 100.5t45.5 75.5t70 47.5t89 16.5q58 0 96.5 -15.5t61.5 -47
t32.5 -78.5t9.5 -111h-293q1 -23 10 -45.5t24 -39.5t36.5 -27.5t47.5 -10.5q36 0 75.5 15.5t81.5 50.5l11 -118q-17 -11 -28.5 -22t-20.5 -25q-26 -41 -37 -63.5t-11 -42.5q0 -26 6.5 -34.5t20.5 -8.5q9 0 21.5 4t41.5 15zM346 288q-2 19 -5 35.5t-12.5 27.5t-27 17.5
t-46.5 6.5q-6 0 -14 -2t-15.5 -4t-14 -4.5t-7.5 -3.5q-2 -2 -17.5 -21.5t-20.5 -51.5h180z" />
    <glyph glyph-name="Ecaron" unicode="&#x11a;" horiz-adv-x="547" 
d="M86 0v659h394v-104h-273v-169h236v-103h-236v-180h294v-103h-415zM336 704h-71l-125 185h85l75 -94l77 94h79z" />
    <glyph glyph-name="ecaron" unicode="&#x11b;" horiz-adv-x="488" 
d="M162 213q1 -23 10 -45.5t24 -39.5t36.5 -27.5t47.5 -10.5q36 0 75.5 15.5t81.5 50.5l11 -118q-20 -12 -40 -21.5t-42.5 -16t-49.5 -10t-60 -3.5q-48 0 -88.5 16.5t-70 47t-46.5 74.5t-17 100t16.5 100.5t45.5 75.5t70 47.5t89 16.5q58 0 96.5 -15.5t61.5 -47t32.5 -78.5
t9.5 -111h-293zM346 288q-2 19 -5 35.5t-12.5 27.5t-27 17.5t-46.5 6.5q-6 0 -14 -2t-15.5 -4t-14 -4.5t-7.5 -3.5q-2 -2 -17.5 -21.5t-20.5 -51.5h180zM294 510h-74l-131 201h89l78 -102l80 102h83z" />
    <glyph glyph-name="Gcircumflex" unicode="&#x11c;" horiz-adv-x="692" 
d="M622 24q-32 -8 -51.5 -13.5t-42.5 -10.5q-24 -5 -55.5 -8.5t-74.5 -3.5q-86 0 -154 26.5t-115 73t-72 109.5t-25 135q0 65 25.5 126t72 108t111.5 75.5t143 28.5q38 0 67 -2t54 -7.5t49 -13.5t53 -20l-9 -118q-62 34 -110.5 46t-102.5 12q-47 0 -87.5 -17t-70 -47.5
t-46.5 -74t-17 -96.5q0 -57 19 -102t51 -75.5t75.5 -46.5t92.5 -16q29 0 52.5 4t46.5 12v148h-118v105h239v-337zM466 692l-75 95l-77 -95h-79l120 185h71l125 -185h-85z" />
    <glyph glyph-name="gcircumflex" unicode="&#x11d;" horiz-adv-x="527" 
d="M442 345q5 -14 7 -24.5t2 -27.5q0 -40 -15 -73t-42.5 -56.5t-66.5 -36.5t-87 -13q-14 0 -28 1.5t-32 6.5q-12 -12 -20.5 -21.5t-8.5 -24.5q0 -13 8.5 -17.5t16.5 -4.5q38 0 71.5 2.5t71.5 2.5q40 0 72.5 -4t55.5 -16.5t35 -36.5t12 -63q0 -49 -24 -86t-63 -61.5t-88 -37
t-98 -12.5q-40 0 -75.5 4.5t-62.5 16.5t-42.5 33t-15.5 55q0 25 8 42.5t20.5 30.5t26.5 21.5t26 15.5q-10 3 -22 8.5t-22.5 15t-17.5 23t-7 33.5q0 18 9 32.5t22.5 26.5t29.5 22.5t30 22.5q-22 12 -39.5 25.5t-30 31t-19 39.5t-6.5 52q0 37 15 68.5t42.5 54.5t66 36t84.5 13
q47 0 73.5 -10t47.5 -23h25q17 0 38.5 1.5t45 5t46.5 9.5v-103h-75zM371 -76q0 10 -1.5 16t-7.5 9.5t-19 4.5t-36 1q-18 0 -32.5 -0.5t-28 -1.5t-28 -2t-31.5 -1q-21 -15 -35 -30.5t-14 -35.5q0 -29 23 -39t72 -10q35 0 61 8.5t43 21.5t25.5 29t8.5 30zM323 292q0 36 -18 59
t-62 23q-24 0 -39.5 -6t-19.5 -10t-13.5 -22t-9.5 -44q0 -37 21.5 -60.5t60.5 -23.5q20 0 37 7t20 9q4 4 13.5 19.5t9.5 48.5zM326 510l-78 103l-81 -103h-82l124 201h75l131 -201h-89z" />
    <glyph glyph-name="Gbreve" unicode="&#x11e;" horiz-adv-x="692" 
d="M622 24q-32 -8 -51.5 -13.5t-42.5 -10.5q-24 -5 -55.5 -8.5t-74.5 -3.5q-86 0 -154 26.5t-115 73t-72 109.5t-25 135q0 65 25.5 126t72 108t111.5 75.5t143 28.5q38 0 67 -2t54 -7.5t49 -13.5t53 -20l-9 -118q-62 34 -110.5 46t-102.5 12q-47 0 -87.5 -17t-70 -47.5
t-46.5 -74t-17 -96.5q0 -57 19 -102t51 -75.5t75.5 -46.5t92.5 -16q29 0 52.5 4t46.5 12v148h-118v105h239v-337zM569 889q-6 -29 -22 -56t-39 -47.5t-53 -33t-66 -12.5q-33 0 -63 10t-53 29t-38 47t-19 63h78q6 -32 34 -49t61 -17q43 0 67.5 18.5t32.5 47.5h80z" />
    <glyph glyph-name="gbreve" unicode="&#x11f;" horiz-adv-x="527" 
d="M442 345q5 -14 7 -24.5t2 -27.5q0 -40 -15 -73t-42.5 -56.5t-66.5 -36.5t-87 -13q-14 0 -28 1.5t-32 6.5q-12 -12 -20.5 -21.5t-8.5 -24.5q0 -13 8.5 -17.5t16.5 -4.5q38 0 71.5 2.5t71.5 2.5q40 0 72.5 -4t55.5 -16.5t35 -36.5t12 -63q0 -49 -24 -86t-63 -61.5t-88 -37
t-98 -12.5q-40 0 -75.5 4.5t-62.5 16.5t-42.5 33t-15.5 55q0 25 8 42.5t20.5 30.5t26.5 21.5t26 15.5q-10 3 -22 8.5t-22.5 15t-17.5 23t-7 33.5q0 18 9 32.5t22.5 26.5t29.5 22.5t30 22.5q-22 12 -39.5 25.5t-30 31t-19 39.5t-6.5 52q0 37 15 68.5t42.5 54.5t66 36t84.5 13
q47 0 73.5 -10t47.5 -23h25q17 0 38.5 1.5t45 5t46.5 9.5v-103h-75zM371 -76q0 10 -1.5 16t-7.5 9.5t-19 4.5t-36 1q-18 0 -32.5 -0.5t-28 -1.5t-28 -2t-31.5 -1q-21 -15 -35 -30.5t-14 -35.5q0 -29 23 -39t72 -10q35 0 61 8.5t43 21.5t25.5 29t8.5 30zM323 292q0 36 -18 59
t-62 23q-24 0 -39.5 -6t-19.5 -10t-13.5 -22t-9.5 -44q0 -37 21.5 -60.5t60.5 -23.5q20 0 37 7t20 9q4 4 13.5 19.5t9.5 48.5zM426 711q-6 -29 -22 -56t-39 -47.5t-53 -33t-66 -12.5q-33 0 -63 10t-53 29t-38 47t-19 63h78q6 -32 34 -49t61 -17q43 0 67.5 18.5t32.5 47.5h80
z" />
    <glyph glyph-name="Gdotaccent" unicode="&#x120;" horiz-adv-x="692" 
d="M622 24q-32 -8 -51.5 -13.5t-42.5 -10.5q-24 -5 -55.5 -8.5t-74.5 -3.5q-86 0 -154 26.5t-115 73t-72 109.5t-25 135q0 65 25.5 126t72 108t111.5 75.5t143 28.5q38 0 67 -2t54 -7.5t49 -13.5t53 -20l-9 -118q-62 34 -110.5 46t-102.5 12q-47 0 -87.5 -17t-70 -47.5
t-46.5 -74t-17 -96.5q0 -57 19 -102t51 -75.5t75.5 -46.5t92.5 -16q29 0 52.5 4t46.5 12v148h-118v105h239v-337zM463 771q0 -14 -6 -27.5t-15.5 -24.5t-22.5 -17.5t-27 -6.5t-26.5 7t-21.5 17.5t-14.5 24t-5.5 27.5q0 13 5.5 26.5t15 24t21.5 17t26 6.5q13 0 26 -6.5
t23 -17t16 -23.5t6 -27z" />
    <glyph glyph-name="gdotaccent" unicode="&#x121;" horiz-adv-x="527" 
d="M442 345q5 -14 7 -24.5t2 -27.5q0 -40 -15 -73t-42.5 -56.5t-66.5 -36.5t-87 -13q-14 0 -28 1.5t-32 6.5q-12 -12 -20.5 -21.5t-8.5 -24.5q0 -13 8.5 -17.5t16.5 -4.5q38 0 71.5 2.5t71.5 2.5q40 0 72.5 -4t55.5 -16.5t35 -36.5t12 -63q0 -49 -24 -86t-63 -61.5t-88 -37
t-98 -12.5q-40 0 -75.5 4.5t-62.5 16.5t-42.5 33t-15.5 55q0 25 8 42.5t20.5 30.5t26.5 21.5t26 15.5q-10 3 -22 8.5t-22.5 15t-17.5 23t-7 33.5q0 18 9 32.5t22.5 26.5t29.5 22.5t30 22.5q-22 12 -39.5 25.5t-30 31t-19 39.5t-6.5 52q0 37 15 68.5t42.5 54.5t66 36t84.5 13
q47 0 73.5 -10t47.5 -23h25q17 0 38.5 1.5t45 5t46.5 9.5v-103h-75zM371 -76q0 10 -1.5 16t-7.5 9.5t-19 4.5t-36 1q-18 0 -32.5 -0.5t-28 -1.5t-28 -2t-31.5 -1q-21 -15 -35 -30.5t-14 -35.5q0 -29 23 -39t72 -10q35 0 61 8.5t43 21.5t25.5 29t8.5 30zM323 292q0 36 -18 59
t-62 23q-24 0 -39.5 -6t-19.5 -10t-13.5 -22t-9.5 -44q0 -37 21.5 -60.5t60.5 -23.5q20 0 37 7t20 9q4 4 13.5 19.5t9.5 48.5zM320 610q0 -14 -6 -27.5t-15.5 -24.5t-22.5 -17.5t-27 -6.5t-26.5 7t-21.5 17.5t-14.5 24t-5.5 27.5q0 13 5.5 26.5t15 24t21.5 17t26 6.5
q13 0 26 -6.5t23 -17t16 -23.5t6 -27z" />
    <glyph glyph-name="Gcommaaccent" unicode="&#x122;" horiz-adv-x="692" 
d="M622 24q-32 -8 -51.5 -13.5t-42.5 -10.5q-24 -5 -55.5 -8.5t-74.5 -3.5q-86 0 -154 26.5t-115 73t-72 109.5t-25 135q0 65 25.5 126t72 108t111.5 75.5t143 28.5q38 0 67 -2t54 -7.5t49 -13.5t53 -20l-9 -118q-62 34 -110.5 46t-102.5 12q-47 0 -87.5 -17t-70 -47.5
t-46.5 -74t-17 -96.5q0 -57 19 -102t51 -75.5t75.5 -46.5t92.5 -16q29 0 52.5 4t46.5 12v148h-118v105h239v-337zM480 -154q0 -32 -28.5 -78t-75.5 -96l-43 31q26 39 39 72t13 50q0 9 -13.5 18.5t-40.5 16.5l65 95q45 -8 64.5 -41t19.5 -68z" />
    <glyph glyph-name="gcommaaccent" unicode="&#x123;" horiz-adv-x="527" 
d="M442 345q5 -14 7 -24.5t2 -27.5q0 -40 -15 -73t-42.5 -56.5t-66.5 -36.5t-87 -13q-14 0 -28 1.5t-32 6.5q-12 -12 -20.5 -21.5t-8.5 -24.5q0 -13 8.5 -17.5t16.5 -4.5q38 0 71.5 2.5t71.5 2.5q40 0 72.5 -4t55.5 -16.5t35 -36.5t12 -63q0 -49 -24 -86t-63 -61.5t-88 -37
t-98 -12.5q-40 0 -75.5 4.5t-62.5 16.5t-42.5 33t-15.5 55q0 25 8 42.5t20.5 30.5t26.5 21.5t26 15.5q-10 3 -22 8.5t-22.5 15t-17.5 23t-7 33.5q0 18 9 32.5t22.5 26.5t29.5 22.5t30 22.5q-22 12 -39.5 25.5t-30 31t-19 39.5t-6.5 52q0 37 15 68.5t42.5 54.5t66 36t84.5 13
q47 0 73.5 -10t47.5 -23h25q17 0 38.5 1.5t45 5t46.5 9.5v-103h-75zM371 -76q0 10 -1.5 16t-7.5 9.5t-19 4.5t-36 1q-18 0 -32.5 -0.5t-28 -1.5t-28 -2t-31.5 -1q-21 -15 -35 -30.5t-14 -35.5q0 -29 23 -39t72 -10q35 0 61 8.5t43 21.5t25.5 29t8.5 30zM323 292q0 36 -18 59
t-62 23q-24 0 -39.5 -6t-19.5 -10t-13.5 -22t-9.5 -44q0 -37 21.5 -60.5t60.5 -23.5q20 0 37 7t20 9q4 4 13.5 19.5t9.5 48.5zM169 635q0 32 28.5 78t75.5 96l43 -31q-26 -39 -39 -72t-13 -50q0 -9 13.5 -18.5t40.5 -16.5l-65 -95q-45 8 -64.5 41t-19.5 68z" />
    <glyph glyph-name="Hcircumflex" unicode="&#x124;" horiz-adv-x="767" 
d="M559 0v278h-352v-278h-121v659h121v-275h352v275h120v-659h-120zM456 692l-75 95l-77 -95h-79l120 185h71l125 -185h-85z" />
    <glyph glyph-name="hcircumflex" unicode="&#x125;" horiz-adv-x="545" 
d="M478 213q0 -24 -0.5 -44.5t-1 -43.5t-1 -52.5t-1.5 -72.5h-121q1 43 1.5 71t1 49t1 39t0.5 41q0 48 -1.5 79t-7 49t-16 25t-29.5 7q-14 0 -32.5 -2.5t-24.5 -7.5q-3 -2 -9.5 -7t-15 -12.5t-18 -16.5t-17.5 -18v-296h-121v730h121v-318q53 53 124 53q58 0 91.5 -16.5
t51 -44t22 -63t4.5 -73.5q0 -14 -0.5 -27.5t-0.5 -27.5zM341 751l-75 95l-77 -95h-79l120 185h71l125 -185h-85z" />
    <glyph glyph-name="Hbar" unicode="&#x126;" horiz-adv-x="763" 
d="M559 0v278h-352v-278h-121v461h-77v78h77v120h121v-120h352v120h120v-120h79v-78h-79v-461h-120zM559 384v77h-352v-77h352z" />
    <glyph glyph-name="hbar" unicode="&#x127;" horiz-adv-x="545" 
d="M478 213q0 -24 -0.5 -44.5t-1 -43.5t-1 -52.5t-1.5 -72.5h-121q1 43 1.5 71t1 49t1 39t0.5 41q0 48 -1.5 79t-7 49t-16 25t-29.5 7q-16 0 -34 -3t-22 -6q-15 -11 -31.5 -25.5t-29.5 -29.5v-296h-121v524h-54v82h54v124h121v-124h137v-82h-137v-112q53 53 124 53
q58 0 91.5 -16.5t51 -44t22 -63t4.5 -73.5q0 -14 -0.5 -27.5t-0.5 -27.5z" />
    <glyph glyph-name="Itilde" unicode="&#x128;" horiz-adv-x="283" 
d="M80 0v659h121v-659h-121zM322 767q-40 -39 -69 -51t-56 -12q-23 0 -40 6t-36 20q-11 8 -17.5 12.5t-11.5 6.5t-10.5 2.5t-13.5 0.5t-18.5 -5t-21.5 -11.5t-20.5 -13t-13.5 -9.5l-35 49q42 41 72 54t58 13q14 0 23 -2.5t16.5 -6.5t14.5 -9.5t18 -12.5q12 -8 24.5 -13.5
t28.5 -5.5q22 0 74 40z" />
    <glyph glyph-name="itilde" unicode="&#x129;" horiz-adv-x="251" 
d="M66 0v453h121v-453h-121zM316 584q-41 -42 -71.5 -55.5t-59.5 -13.5q-24 0 -41.5 7t-37.5 22q-11 8 -18 13t-12.5 7.5t-11 3t-13.5 0.5t-19 -5.5t-22.5 -12.5t-21.5 -15l-14 -10l-37 54q44 43 75.5 57.5t60.5 14.5q15 0 24.5 -2.5t17 -7t15 -10.5t18.5 -13
q13 -9 26 -15.5t29 -6.5q13 0 33 12t44 32z" />
    <glyph glyph-name="Imacron" unicode="&#x12a;" horiz-adv-x="283" 
d="M80 0v659h121v-659h-121zM-36 695v65h352v-65h-352z" />
    <glyph glyph-name="imacron" unicode="&#x12b;" horiz-adv-x="251" 
d="M66 0v453h121v-453h-121zM-50 526v65h352v-65h-352z" />
    <glyph glyph-name="Ibreve" unicode="&#x12c;" horiz-adv-x="283" 
d="M80 0v659h121v-659h-121zM317 889q-6 -29 -22 -56t-39 -47.5t-53 -33t-66 -12.5q-33 0 -63 10t-53 29t-38 47t-19 63h78q6 -32 34 -49t61 -17q43 0 67.5 18.5t32.5 47.5h80z" />
    <glyph glyph-name="ibreve" unicode="&#x12d;" horiz-adv-x="251" 
d="M66 0v453h121v-453h-121zM308 711q-6 -29 -22 -56t-39 -47.5t-53 -33t-66 -12.5q-33 0 -63 10t-53 29t-38 47t-19 63h78q6 -32 34 -49t61 -17q43 0 67.5 18.5t32.5 47.5h80z" />
    <glyph glyph-name="Iogonek" unicode="&#x12e;" horiz-adv-x="283" 
d="M184 -201q-16 -8 -26 -12.5t-20 -8.5q-11 -4 -22 -6t-25 -2q-23 0 -38.5 9.5t-25.5 23t-14.5 29t-4.5 28.5q0 38 20 73.5t52 66.5v659h121v-659h-39q-34 -42 -47 -68t-13 -47q0 -26 6.5 -34.5t20.5 -8.5q9 0 21.5 4t41.5 15z" />
    <glyph glyph-name="iogonek" unicode="&#x12f;" horiz-adv-x="251" 
d="M170 -201q-16 -8 -26 -12.5t-20 -8.5q-11 -4 -22 -6t-25 -2q-23 0 -38.5 9.5t-25.5 23t-14.5 29t-4.5 28.5q0 38 20 73.5t52 66.5v453h121v-453h-39q-34 -42 -47 -68t-13 -47q0 -26 6.5 -34.5t20.5 -8.5q9 0 21.5 4t41.5 15zM196 613q0 -30 -20.5 -52t-49.5 -22t-50 21.5
t-21 51.5t21 51t50 21t49.5 -20.5t20.5 -50.5z" />
    <glyph glyph-name="Idotaccent" unicode="&#x130;" horiz-adv-x="283" 
d="M80 0v659h121v-659h-121zM211 771q0 -14 -6 -27.5t-15.5 -24.5t-22.5 -17.5t-27 -6.5t-26.5 7t-21.5 17.5t-14.5 24t-5.5 27.5q0 13 5.5 26.5t15 24t21.5 17t26 6.5q13 0 26 -6.5t23 -17t16 -23.5t6 -27z" />
    <glyph glyph-name="dotlessi" unicode="&#x131;" horiz-adv-x="251" 
d="M66 0v453h121v-453h-121z" />
    <glyph glyph-name="IJ" unicode="&#x132;" horiz-adv-x="577" 
d="M80 0v659h121v-659h-121zM496 56q0 -136 -78 -214t-222 -80v105q56 1 91 19.5t54.5 48t26.5 67.5t7 80v577h121v-603z" />
    <glyph glyph-name="ij" unicode="&#x133;" horiz-adv-x="502" 
d="M196 613q0 -30 -20.5 -52t-49.5 -22t-50 21.5t-21 51.5t21 51t50 21t49.5 -20.5t20.5 -50.5zM66 0v453h121v-453h-121zM447 613q0 -30 -20.5 -52t-49.5 -22t-50 21.5t-21 51.5t21 51t50 21t49.5 -20.5t20.5 -50.5zM438 55q0 -102 -19 -162t-54.5 -92t-86 -42.5
t-112.5 -12.5v109q45 1 74.5 8t46.5 29.5t23.5 65t6.5 114.5v381h121v-398z" />
    <glyph glyph-name="Jcircumflex" unicode="&#x134;" horiz-adv-x="294" 
d="M213 56q0 -136 -78 -214t-222 -80v105q56 1 91 19.5t54.5 48t26.5 67.5t7 80v577h121v-603zM222 692l-75 95l-77 -95h-79l120 185h71l125 -185h-85z" />
    <glyph glyph-name="jcircumflex" unicode="&#x135;" horiz-adv-x="251" 
d="M187 55q0 -102 -19 -162t-54.5 -92t-86 -42.5t-112.5 -12.5v109q45 1 74.5 8t46.5 29.5t23.5 65t6.5 114.5v381h121v-398zM202 510l-78 103l-81 -103h-82l124 201h75l131 -201h-89z" />
    <glyph glyph-name="Kcommaaccent" unicode="&#x136;" horiz-adv-x="561" 
d="M421 0q-15 24 -38.5 63.5t-52 83t-61 84t-64.5 67.5v-298h-121v659h121v-266q62 60 114.5 131t100.5 135h142q-24 -31 -53 -71.5t-61 -82.5t-65.5 -82t-66.5 -71q36 -34 71.5 -80.5t68.5 -95t61.5 -95.5t51.5 -81h-148zM379 -154q0 -32 -28.5 -78t-75.5 -96l-43 31
q26 39 39 72t13 50q0 9 -13.5 18.5t-40.5 16.5l65 95q45 -8 64.5 -41t19.5 -68z" />
    <glyph glyph-name="kcommaaccent" unicode="&#x137;" horiz-adv-x="470" 
d="M303 270l159 -270h-152l-123 218v-218h-122v730h122v-431l129 154h149zM325 -154q0 -32 -28.5 -78t-75.5 -96l-43 31q26 39 39 72t13 50q0 9 -13.5 18.5t-40.5 16.5l65 95q45 -8 64.5 -41t19.5 -68z" />
    <glyph glyph-name="kgreenlandic" unicode="&#x138;" horiz-adv-x="470" 
d="M187 453v-154l129 154h149l-162 -183l159 -270h-152l-123 218v-218h-122v453h122z" />
    <glyph glyph-name="Lacute" unicode="&#x139;" horiz-adv-x="494" 
d="M84 0v659h121v-556h283v-103h-404zM175 696h-81l102 185h109z" />
    <glyph glyph-name="lacute" unicode="&#x13a;" horiz-adv-x="251" 
d="M65 0v730h121v-730h-121zM139 752h-81l102 185h109z" />
    <glyph glyph-name="Lcommaaccent" unicode="&#x13b;" horiz-adv-x="494" 
d="M84 0v659h121v-556h283v-103h-404zM366 -154q0 -32 -28.5 -78t-75.5 -96l-43 31q26 39 39 72t13 50q0 9 -13.5 18.5t-40.5 16.5l65 95q45 -8 64.5 -41t19.5 -68z" />
    <glyph glyph-name="lcommaaccent" unicode="&#x13c;" horiz-adv-x="251" 
d="M65 0v730h121v-730h-121zM204 -154q0 -32 -28.5 -78t-75.5 -96l-43 31q26 39 39 72t13 50q0 9 -13.5 18.5t-40.5 16.5l65 95q45 -8 64.5 -41t19.5 -68z" />
    <glyph glyph-name="Lcaron" unicode="&#x13d;" horiz-adv-x="494" 
d="M84 0v659h121v-556h283v-103h-404zM386 550q0 -32 -28.5 -78t-75.5 -96l-43 31q26 39 39 72t13 50q0 9 -13.5 18.5t-40.5 16.5l65 95q45 -8 64.5 -41t19.5 -68z" />
    <glyph glyph-name="lcaron" unicode="&#x13e;" horiz-adv-x="251" 
d="M65 0v730h121v-730h-121zM375 621q0 -32 -28.5 -78t-75.5 -96l-43 31q26 39 39 72t13 50q0 9 -13.5 18.5t-40.5 16.5l65 95q45 -8 64.5 -41t19.5 -68z" />
    <glyph glyph-name="Ldot" unicode="&#x13f;" horiz-adv-x="494" 
d="M84 0v659h121v-556h283v-103h-404zM453 362q0 -14 -6 -27.5t-15.5 -24.5t-22.5 -17.5t-27 -6.5t-26.5 7t-21.5 17.5t-14.5 24t-5.5 27.5q0 13 5.5 26.5t15 24t21.5 17t26 6.5q13 0 26 -6.5t23 -17t16 -23.5t6 -27z" />
    <glyph glyph-name="ldot" unicode="&#x140;" horiz-adv-x="366" 
d="M65 0v730h121v-730h-121zM376 403q0 -14 -6 -27.5t-15.5 -24.5t-22.5 -17.5t-27 -6.5t-26.5 7t-21.5 17.5t-14.5 24t-5.5 27.5q0 13 5.5 26.5t15 24t21.5 17t26 6.5q13 0 26 -6.5t23 -17t16 -23.5t6 -27z" />
    <glyph glyph-name="Lslash" unicode="&#x141;" horiz-adv-x="494" 
d="M78 0v240l-27 -18l-52 75l79 49v313h121v-240l118 69l50 -75l-168 -100v-210h289v-103h-410z" />
    <glyph glyph-name="lslash" unicode="&#x142;" horiz-adv-x="251" 
d="M183 426v-426h-122v350l-38 -25l-53 82l91 59v264h122v-188l60 39l51 -82z" />
    <glyph glyph-name="Nacute" unicode="&#x143;" horiz-adv-x="751" 
d="M543 0l-339 470v-470h-117v659h121l342 -473v474h116v-660h-123zM402 696h-81l102 185h109z" />
    <glyph glyph-name="nacute" unicode="&#x144;" horiz-adv-x="552" 
d="M485 213q0 -24 -0.5 -44.5t-1 -43.5t-1.5 -52.5t-2 -72.5h-121q1 49 2 79.5t1.5 53t0.5 43.5v81q0 15 -2 29q-3 44 -14 59t-38 15q-7 0 -16 -0.5t-17.5 -2t-15 -3.5t-8.5 -4q-3 -2 -9.5 -7t-15.5 -12.5t-18.5 -16.5t-16.5 -18v-296h-121v319q0 15 -1 34.5t-3 38.5
t-4 35.5t-4 25.5h108l12 -53q30 34 64 49.5t73 15.5q58 0 91.5 -16.5t51 -44t22 -63t4.5 -73.5v-55zM317 521h-84l106 202h113z" />
    <glyph glyph-name="Ncommaaccent" unicode="&#x145;" horiz-adv-x="751" 
d="M543 0l-339 470v-470h-117v659h121l342 -473v474h116v-660h-123zM446 -154q0 -32 -28.5 -78t-75.5 -96l-43 31q26 39 39 72t13 50q0 9 -13.5 18.5t-40.5 16.5l65 95q45 -8 64.5 -41t19.5 -68z" />
    <glyph glyph-name="ncommaaccent" unicode="&#x146;" horiz-adv-x="552" 
d="M485 213q0 -24 -0.5 -44.5t-1 -43.5t-1.5 -52.5t-2 -72.5h-121q1 49 2 79.5t1.5 53t0.5 43.5v81q0 15 -2 29q-3 44 -14 59t-38 15q-7 0 -16 -0.5t-17.5 -2t-15 -3.5t-8.5 -4q-3 -2 -9.5 -7t-15.5 -12.5t-18.5 -16.5t-16.5 -18v-296h-121v319q0 15 -1 34.5t-3 38.5
t-4 35.5t-4 25.5h108l12 -53q30 34 64 49.5t73 15.5q58 0 91.5 -16.5t51 -44t22 -63t4.5 -73.5v-55zM354 -154q0 -32 -28.5 -78t-75.5 -96l-43 31q26 39 39 72t13 50q0 9 -13.5 18.5t-40.5 16.5l65 95q45 -8 64.5 -41t19.5 -68z" />
    <glyph glyph-name="Ncaron" unicode="&#x147;" horiz-adv-x="751" 
d="M543 0l-339 470v-470h-117v659h121l342 -473v474h116v-660h-123zM415 704h-71l-125 185h85l75 -94l77 94h79z" />
    <glyph glyph-name="ncaron" unicode="&#x148;" horiz-adv-x="552" 
d="M485 213q0 -24 -0.5 -44.5t-1 -43.5t-1.5 -52.5t-2 -72.5h-121q1 49 2 79.5t1.5 53t0.5 43.5v81q0 15 -2 29q-3 44 -14 59t-38 15q-7 0 -16 -0.5t-17.5 -2t-15 -3.5t-8.5 -4q-3 -2 -9.5 -7t-15.5 -12.5t-18.5 -16.5t-16.5 -18v-296h-121v319q0 15 -1 34.5t-3 38.5
t-4 35.5t-4 25.5h108l12 -53q30 34 64 49.5t73 15.5q58 0 91.5 -16.5t51 -44t22 -63t4.5 -73.5v-55zM317 510h-74l-131 201h89l78 -102l80 102h83z" />
    <glyph glyph-name="napostrophe" unicode="&#x149;" horiz-adv-x="646" 
d="M579 213q0 -24 -0.5 -44.5t-1 -43.5t-1.5 -52.5t-2 -72.5h-121q1 49 2 79.5t1.5 53t0.5 43.5v81q0 15 -2 29q-3 44 -14 59t-38 15q-7 0 -16 -0.5t-17.5 -2t-15 -3.5t-8.5 -4q-3 -2 -9.5 -7t-15.5 -12.5t-18.5 -16.5t-16.5 -18v-296h-121v319q0 15 -1 34.5t-3 38.5
t-4 35.5t-4 25.5h108l12 -53q30 34 64 49.5t73 15.5q58 0 91.5 -16.5t51 -44t22 -63t4.5 -73.5v-55zM153 572q0 -32 -28.5 -78t-75.5 -96l-43 31q26 39 39 72t13 50q0 9 -13.5 18.5t-40.5 16.5l65 95q45 -8 64.5 -41t19.5 -68z" />
    <glyph glyph-name="Eng" unicode="&#x14a;" horiz-adv-x="751" 
d="M666 64q0 -140 -76 -216t-216 -78v105q68 2 112.5 33t58.5 99l-341 463v-470h-117v659h121l342 -473v474h116v-596z" />
    <glyph glyph-name="eng" unicode="&#x14b;" horiz-adv-x="552" 
d="M485 268q0 -66 -1 -132.5t-4 -132.5q-3 -74 -19.5 -122.5t-48.5 -77.5t-82 -42t-120 -15v109q42 0 69.5 7t45 24t25 45t9.5 69q2 58 3 115t1 115v28q0 14 -2 28q-1 14 -2.5 27.5t-7 24t-15 16.5t-27.5 6q-15 0 -29 -1.5t-25 -6.5q-17 -11 -33.5 -26t-29.5 -30v-296h-121
v319q0 34 -3.5 67.5t-8.5 66.5h108l12 -53q28 31 61.5 48t75.5 17q52 0 85 -13.5t51.5 -38.5t25.5 -62t7 -83z" />
    <glyph glyph-name="Omacron" unicode="&#x14c;" horiz-adv-x="742" 
d="M710 330q0 -66 -24.5 -128t-68.5 -110t-106 -77t-138 -29t-139 28t-108 75.5t-69.5 109.5t-24.5 130q0 67 24.5 129.5t69.5 110t108 76t139 28.5q75 0 137.5 -28t106.5 -75.5t68.5 -109.5t24.5 -130zM577 330q0 49 -15 93t-42 76t-64.5 51t-82.5 19t-83.5 -18t-66.5 -50
t-43.5 -75.5t-15.5 -95.5t15.5 -96t43.5 -76t66.5 -50t83.5 -18t82.5 18.5t64.5 51t42 76t15 94.5zM197 695v65h352v-65h-352z" />
    <glyph glyph-name="omacron" unicode="&#x14d;" horiz-adv-x="536" 
d="M502 226q0 -51 -16.5 -95t-47.5 -76t-75.5 -50t-100.5 -18q-52 0 -94 17t-72 48.5t-46 75.5t-16 98q0 49 15.5 92.5t45.5 76t74.5 51.5t103.5 19q52 0 94.5 -17t72.5 -48.5t46 -75.5t16 -98zM375 234q-1 25 -7 48t-19 41t-34 29t-52 11q-24 0 -40 -7t-19 -10
q-20 -19 -31.5 -52.5t-11.5 -70.5v-4q1 -25 7 -48.5t19 -41.5t34 -28.5t51 -10.5q20 0 38 7t20 9q20 20 32.5 54t12.5 70v4zM97 526v65h352v-65h-352z" />
    <glyph glyph-name="Obreve" unicode="&#x14e;" horiz-adv-x="742" 
d="M710 330q0 -66 -24.5 -128t-68.5 -110t-106 -77t-138 -29t-139 28t-108 75.5t-69.5 109.5t-24.5 130q0 67 24.5 129.5t69.5 110t108 76t139 28.5q75 0 137.5 -28t106.5 -75.5t68.5 -109.5t24.5 -130zM577 330q0 49 -15 93t-42 76t-64.5 51t-82.5 19t-83.5 -18t-66.5 -50
t-43.5 -75.5t-15.5 -95.5t15.5 -96t43.5 -76t66.5 -50t83.5 -18t82.5 18.5t64.5 51t42 76t15 94.5zM553 889q-6 -29 -22 -56t-39 -47.5t-53 -33t-66 -12.5q-33 0 -63 10t-53 29t-38 47t-19 63h78q6 -32 34 -49t61 -17q43 0 67.5 18.5t32.5 47.5h80z" />
    <glyph glyph-name="obreve" unicode="&#x14f;" horiz-adv-x="536" 
d="M502 226q0 -51 -16.5 -95t-47.5 -76t-75.5 -50t-100.5 -18q-52 0 -94 17t-72 48.5t-46 75.5t-16 98q0 49 15.5 92.5t45.5 76t74.5 51.5t103.5 19q52 0 94.5 -17t72.5 -48.5t46 -75.5t16 -98zM375 234q-1 25 -7 48t-19 41t-34 29t-52 11q-24 0 -40 -7t-19 -10
q-20 -19 -31.5 -52.5t-11.5 -70.5v-4q1 -25 7 -48.5t19 -41.5t34 -28.5t51 -10.5q20 0 38 7t20 9q20 20 32.5 54t12.5 70v4zM456 711q-6 -29 -22 -56t-39 -47.5t-53 -33t-66 -12.5q-33 0 -63 10t-53 29t-38 47t-19 63h78q6 -32 34 -49t61 -17q43 0 67.5 18.5t32.5 47.5h80z
" />
    <glyph glyph-name="Ohungarumlaut" unicode="&#x150;" horiz-adv-x="742" 
d="M710 330q0 -66 -24.5 -128t-68.5 -110t-106 -77t-138 -29t-139 28t-108 75.5t-69.5 109.5t-24.5 130q0 67 24.5 129.5t69.5 110t108 76t139 28.5q75 0 137.5 -28t106.5 -75.5t68.5 -109.5t24.5 -130zM577 330q0 49 -15 93t-42 76t-64.5 51t-82.5 19t-83.5 -18t-66.5 -50
t-43.5 -75.5t-15.5 -95.5t15.5 -96t43.5 -76t66.5 -50t83.5 -18t82.5 18.5t64.5 51t42 76t15 94.5zM456 696h-84l107 202h113zM316 696h-84l107 202h112z" />
    <glyph glyph-name="ohungarumlaut" unicode="&#x151;" horiz-adv-x="536" 
d="M502 226q0 -51 -16.5 -95t-47.5 -76t-75.5 -50t-100.5 -18q-52 0 -94 17t-72 48.5t-46 75.5t-16 98q0 49 15.5 92.5t45.5 76t74.5 51.5t103.5 19q52 0 94.5 -17t72.5 -48.5t46 -75.5t16 -98zM375 234q-1 25 -7 48t-19 41t-34 29t-52 11q-24 0 -40 -7t-19 -10
q-20 -19 -31.5 -52.5t-11.5 -70.5v-4q1 -25 7 -48.5t19 -41.5t34 -28.5t51 -10.5q20 0 38 7t20 9q20 20 32.5 54t12.5 70v4zM355 521h-84l107 202h113zM215 521h-84l107 202h112z" />
    <glyph glyph-name="OE" unicode="&#x152;" horiz-adv-x="969" 
d="M553 0q-16 0 -37.5 -2t-45.5 -5t-49 -5t-48 -2q-76 0 -139 28t-108 75.5t-69.5 109.5t-24.5 130q0 67 24.5 129.5t69.5 110t108 76t139 28.5q22 0 46 -2t48 -5t46 -5t40 -2h349v-104h-273v-169h236v-103h-236v-180h294v-103h-370zM508 561q-26 4 -60 6t-75 2
q-45 0 -83.5 -18t-66.5 -50t-43.5 -75.5t-15.5 -95.5t15.5 -96t43.5 -76t66.5 -50t83.5 -18q41 0 70.5 1.5t64.5 6.5v463z" />
    <glyph glyph-name="oe" unicode="&#x153;" horiz-adv-x="810" 
d="M484 213q1 -23 10 -45.5t24 -39.5t36.5 -27.5t47.5 -10.5q36 0 75.5 15.5t81.5 50.5l11 -118q-20 -12 -40 -21.5t-42.5 -16t-49.5 -10t-60 -3.5q-49 0 -90 17.5t-71 49.5q-32 -31 -71 -49t-94 -18q-52 0 -92.5 17t-68.5 48.5t-42.5 75.5t-14.5 98q0 49 14 92.5t42 76
t71 51.5t102 19q51 0 87.5 -16t66.5 -48q30 31 70.5 47.5t89.5 16.5q58 0 97 -15.5t61.5 -47t32 -78.5t9.5 -111h-293zM355 234q-1 25 -5 48t-15.5 41t-31 29t-50.5 11q-25 0 -42.5 -12t-28.5 -31.5t-16 -43.5t-5 -49q0 -26 4 -51t15 -44t30.5 -30.5t50.5 -11.5q27 0 45 13
t29 34t15.5 46.5t4.5 50.5zM668 288q-2 19 -5 35.5t-12.5 27.5t-27 17.5t-46.5 6.5q-6 0 -14 -2t-15.5 -4t-14 -4.5t-7.5 -3.5q-2 -2 -17.5 -21.5t-20.5 -51.5h180z" />
    <glyph glyph-name="Racute" unicode="&#x154;" horiz-adv-x="574" 
d="M424 0q-26 37 -47 68t-41 62t-39.5 64t-42.5 73h-49v-267h-121v655q49 4 98 7t99 3q52 0 97 -11t78.5 -35t53 -61.5t19.5 -90.5q0 -33 -10.5 -62.5t-29 -53.5t-44 -41.5t-55.5 -26.5q22 -38 42.5 -71t43 -66.5t48 -69t57.5 -76.5h-157zM398 470q0 43 -30 66t-96 23h-8
l-59 -1v-190h61q39 0 64.5 7t40.5 20t21 32t6 43zM309 696h-81l102 185h109z" />
    <glyph glyph-name="racute" unicode="&#x155;" horiz-adv-x="350" 
d="M257 317q-1 17 -2.5 32t-15.5 15q-12 0 -22.5 -14.5t-24.5 -40.5v-309h-121v320q0 33 -3.5 66.5t-8.5 66.5h108l12 -54q13 24 40.5 44.5t55.5 20.5q45 0 62.5 -25t17.5 -67q0 -22 -3 -43zM205 521h-84l106 202h113z" />
    <glyph glyph-name="Rcommaaccent" unicode="&#x156;" horiz-adv-x="574" 
d="M424 0q-26 37 -47 68t-41 62t-39.5 64t-42.5 73h-49v-267h-121v655q49 4 98 7t99 3q52 0 97 -11t78.5 -35t53 -61.5t19.5 -90.5q0 -33 -10.5 -62.5t-29 -53.5t-44 -41.5t-55.5 -26.5q22 -38 42.5 -71t43 -66.5t48 -69t57.5 -76.5h-157zM398 470q0 43 -30 66t-96 23h-8
l-59 -1v-190h61q39 0 64.5 7t40.5 20t21 32t6 43zM385 -154q0 -32 -28.5 -78t-75.5 -96l-43 31q26 39 39 72t13 50q0 9 -13.5 18.5t-40.5 16.5l65 95q45 -8 64.5 -41t19.5 -68z" />
    <glyph glyph-name="rcommaaccent" unicode="&#x157;" horiz-adv-x="350" 
d="M257 317q-1 17 -2.5 32t-15.5 15q-12 0 -22.5 -14.5t-24.5 -40.5v-309h-121v320q0 33 -3.5 66.5t-8.5 66.5h108l12 -54q13 24 40.5 44.5t55.5 20.5q45 0 62.5 -25t17.5 -67q0 -22 -3 -43zM205 -154q0 -32 -28.5 -78t-75.5 -96l-43 31q26 39 39 72t13 50q0 9 -13.5 18.5
t-40.5 16.5l65 95q45 -8 64.5 -41t19.5 -68z" />
    <glyph glyph-name="Rcaron" unicode="&#x158;" horiz-adv-x="574" 
d="M424 0q-26 37 -47 68t-41 62t-39.5 64t-42.5 73h-49v-267h-121v655q49 4 98 7t99 3q52 0 97 -11t78.5 -35t53 -61.5t19.5 -90.5q0 -33 -10.5 -62.5t-29 -53.5t-44 -41.5t-55.5 -26.5q22 -38 42.5 -71t43 -66.5t48 -69t57.5 -76.5h-157zM398 470q0 43 -30 66t-96 23h-8
l-59 -1v-190h61q39 0 64.5 7t40.5 20t21 32t6 43zM309 704h-71l-125 185h85l75 -94l77 94h79z" />
    <glyph glyph-name="rcaron" unicode="&#x159;" horiz-adv-x="350" 
d="M257 317q-1 17 -2.5 32t-15.5 15q-12 0 -22.5 -14.5t-24.5 -40.5v-309h-121v320q0 33 -3.5 66.5t-8.5 66.5h108l12 -54q13 24 40.5 44.5t55.5 20.5q45 0 62.5 -25t17.5 -67q0 -22 -3 -43zM237 510h-74l-131 201h89l78 -102l80 102h83z" />
    <glyph glyph-name="Sacute" unicode="&#x15a;" horiz-adv-x="507" 
d="M474 183q0 -49 -20 -86t-52.5 -61.5t-73 -37t-80.5 -12.5q-28 0 -52.5 2t-48 7t-47 13t-49.5 20l17 119q29 -17 51.5 -28t42.5 -17.5t39.5 -9t42.5 -2.5q21 0 39 6t32 17.5t22 27t8 33.5q0 20 -12 35.5t-29 27.5t-36.5 21.5t-35.5 18.5q-44 24 -77 45.5t-55.5 45t-34 50
t-11.5 60.5q0 40 15 75t43.5 61t68 41t89.5 15q33 0 58 -2t47 -6.5t43.5 -12t47.5 -17.5l-9 -121q-31 18 -55 29t-44.5 17t-40 8t-42.5 2q-44 0 -66.5 -25t-22.5 -57q0 -21 12 -37t30 -29t38.5 -23.5t37.5 -20.5q38 -23 69.5 -42.5t54 -41t34.5 -47.5t12 -61zM307 696h-81
l102 185h109z" />
    <glyph glyph-name="sacute" unicode="&#x15b;" horiz-adv-x="440" 
d="M401 129q0 -29 -12.5 -54.5t-36.5 -45t-59.5 -31t-82.5 -11.5q-43 0 -85.5 10t-80.5 34l13 100q20 -12 36.5 -20.5t33.5 -14t36 -8t44 -2.5q43 0 57 11t14 22q0 18 -17.5 29.5t-43.5 22t-56.5 22t-56.5 29.5t-43.5 44.5t-17.5 67.5q0 61 48.5 96t138.5 35q22 0 40 -2.5
t36 -7t37 -12.5t43 -18l-14 -106q-46 34 -84.5 41.5t-63.5 7.5q-8 0 -18 -1t-19.5 -4.5t-16 -9.5t-6.5 -15q0 -17 17.5 -28.5t44 -22t57 -22.5t57 -29.5t44 -43t17.5 -63.5zM260 521h-84l106 202h113z" />
    <glyph glyph-name="Scircumflex" unicode="&#x15c;" horiz-adv-x="507" 
d="M474 183q0 -49 -20 -86t-52.5 -61.5t-73 -37t-80.5 -12.5q-28 0 -52.5 2t-48 7t-47 13t-49.5 20l17 119q29 -17 51.5 -28t42.5 -17.5t39.5 -9t42.5 -2.5q21 0 39 6t32 17.5t22 27t8 33.5q0 20 -12 35.5t-29 27.5t-36.5 21.5t-35.5 18.5q-44 24 -77 45.5t-55.5 45t-34 50
t-11.5 60.5q0 40 15 75t43.5 61t68 41t89.5 15q33 0 58 -2t47 -6.5t43.5 -12t47.5 -17.5l-9 -121q-31 18 -55 29t-44.5 17t-40 8t-42.5 2q-44 0 -66.5 -25t-22.5 -57q0 -21 12 -37t30 -29t38.5 -23.5t37.5 -20.5q38 -23 69.5 -42.5t54 -41t34.5 -47.5t12 -61zM353 692
l-75 95l-77 -95h-79l120 185h71l125 -185h-85z" />
    <glyph glyph-name="scircumflex" unicode="&#x15d;" horiz-adv-x="440" 
d="M401 129q0 -29 -12.5 -54.5t-36.5 -45t-59.5 -31t-82.5 -11.5q-43 0 -85.5 10t-80.5 34l13 100q20 -12 36.5 -20.5t33.5 -14t36 -8t44 -2.5q43 0 57 11t14 22q0 18 -17.5 29.5t-43.5 22t-56.5 22t-56.5 29.5t-43.5 44.5t-17.5 67.5q0 61 48.5 96t138.5 35q22 0 40 -2.5
t36 -7t37 -12.5t43 -18l-14 -106q-46 34 -84.5 41.5t-63.5 7.5q-8 0 -18 -1t-19.5 -4.5t-16 -9.5t-6.5 -15q0 -17 17.5 -28.5t44 -22t57 -22.5t57 -29.5t44 -43t17.5 -63.5zM302 510l-78 103l-81 -103h-82l124 201h75l131 -201h-89z" />
    <glyph glyph-name="Scedilla" unicode="&#x15e;" horiz-adv-x="507" 
d="M341 -133q0 -23 -11.5 -40t-29 -27.5t-39 -15.5t-41.5 -5q-15 0 -26 0.5t-21.5 2.5t-22.5 5.5t-28 9.5l34 61q14 -8 27.5 -10.5t26.5 -2.5q23 0 33.5 6t10.5 15q0 21 -24 25.5t-56 4.5h-24l54 92q-40 3 -75.5 12t-77.5 28l17 119q29 -17 51.5 -28t42.5 -17.5t39.5 -9
t42.5 -2.5q21 0 39 6t32 17.5t22 27t8 33.5q0 20 -12 35t-29 27t-36.5 22t-35.5 19l-16 10q-30 17 -59 35.5t-52 40.5t-37 50t-14 65q0 40 15 75t43.5 61t68 41t89.5 15q33 0 58 -2t47 -6.5t43.5 -12t47.5 -17.5l-9 -121q-31 18 -55 29t-44.5 17t-40 8t-42.5 2
q-44 0 -66.5 -25t-22.5 -57q0 -21 12 -37t30 -29t38.5 -23.5t37.5 -20.5l18 -10q28 -16 55.5 -33.5t49 -39t34.5 -48t13 -61.5q0 -45 -16.5 -79t-44 -58.5t-62.5 -39t-72 -18.5l-27 -45q37 -4 63 -23.5t26 -52.5z" />
    <glyph glyph-name="scedilla" unicode="&#x15f;" horiz-adv-x="440" 
d="M401 129q0 -52 -40 -92t-118 -48l-28 -46q36 -4 62.5 -23.5t26.5 -51.5q0 -24 -11 -40.5t-28.5 -27.5t-39 -16t-42.5 -5q-15 0 -26 0.5t-21.5 2.5t-22.5 5.5t-28 9.5l34 61q14 -8 27.5 -10.5t26.5 -2.5q23 0 33.5 6t10.5 15q0 21 -24 25.5t-56 4.5h-24l55 94
q-32 3 -63.5 12.5t-60.5 28.5l13 100q20 -12 36.5 -20.5t33.5 -14t36 -8t44 -2.5q43 0 57 11t14 22q0 18 -17.5 29.5t-43.5 22t-56.5 22t-56.5 29.5t-43.5 44.5t-17.5 67.5q0 61 48.5 96t138.5 35q49 0 83.5 -12t72.5 -28l-14 -106q-46 34 -84.5 41.5t-63.5 7.5q-8 0 -18 -1
t-19.5 -4.5t-16 -9.5t-6.5 -15q0 -17 17.5 -28.5t44 -22t57 -22.5t57 -29.5t44 -43t17.5 -63.5z" />
    <glyph glyph-name="Scaron" unicode="&#x160;" horiz-adv-x="507" 
d="M474 183q0 -49 -20 -86t-52.5 -61.5t-73 -37t-80.5 -12.5q-28 0 -52.5 2t-48 7t-47 13t-49.5 20l17 119q29 -17 51.5 -28t42.5 -17.5t39.5 -9t42.5 -2.5q21 0 39 6t32 17.5t22 27t8 33.5q0 20 -12 35.5t-29 27.5t-36.5 21.5t-35.5 18.5q-44 24 -77 45.5t-55.5 45t-34 50
t-11.5 60.5q0 40 15 75t43.5 61t68 41t89.5 15q33 0 58 -2t47 -6.5t43.5 -12t47.5 -17.5l-9 -121q-31 18 -55 29t-44.5 17t-40 8t-42.5 2q-44 0 -66.5 -25t-22.5 -57q0 -21 12 -37t30 -29t38.5 -23.5t37.5 -20.5q38 -23 69.5 -42.5t54 -41t34.5 -47.5t12 -61zM317 704h-71
l-125 185h85l75 -94l77 94h79z" />
    <glyph glyph-name="scaron" unicode="&#x161;" horiz-adv-x="440" 
d="M401 129q0 -29 -12.5 -54.5t-36.5 -45t-59.5 -31t-82.5 -11.5q-43 0 -85.5 10t-80.5 34l13 100q20 -12 36.5 -20.5t33.5 -14t36 -8t44 -2.5q43 0 57 11t14 22q0 18 -17.5 29.5t-43.5 22t-56.5 22t-56.5 29.5t-43.5 44.5t-17.5 67.5q0 61 48.5 96t138.5 35q22 0 40 -2.5
t36 -7t37 -12.5t43 -18l-14 -106q-46 34 -84.5 41.5t-63.5 7.5q-8 0 -18 -1t-19.5 -4.5t-16 -9.5t-6.5 -15q0 -17 17.5 -28.5t44 -22t57 -22.5t57 -29.5t44 -43t17.5 -63.5zM264 510h-74l-131 201h89l78 -102l80 102h83z" />
    <glyph glyph-name="Tcommaaccent" unicode="&#x162;" horiz-adv-x="522" 
d="M360 -133q0 -23 -11.5 -40t-29 -27.5t-39 -15.5t-41.5 -5q-15 0 -26 0.5t-21.5 2.5t-22.5 5.5t-28 9.5l34 61q14 -8 27.5 -10.5t26.5 -2.5q23 0 33.5 6t10.5 15q0 21 -24 25.5t-56 4.5h-24l62 104h-31v557h-194v103h510v-103h-195v-557h-15l-35 -57q37 -4 63 -23.5
t26 -52.5z" />
    <glyph glyph-name="tcommaaccent" unicode="&#x163;" horiz-adv-x="323" 
d="M279 -133q0 -23 -11.5 -40t-29 -27.5t-39 -15.5t-41.5 -5q-15 0 -26 0.5t-21.5 2.5t-22.5 5.5t-28 9.5l34 61q14 -8 27.5 -10.5t26.5 -2.5q23 0 33.5 6t10.5 15q0 21 -24 25.5t-56 4.5h-24l59 99q-33 11 -52.5 41t-19.5 78v258h-66v80h66v154h119v-153h99v-80h-99v-235
q0 -33 7.5 -39.5t15.5 -6.5q20 0 43.5 11.5t40.5 21.5l12 -100q-23 -13 -47.5 -22t-47.5 -13l-28 -47q37 -4 63 -23.5t26 -52.5z" />
    <glyph glyph-name="Tcaron" unicode="&#x164;" horiz-adv-x="522" 
d="M321 557v-557h-121v557h-194v103h510v-103h-195zM300 704h-71l-125 185h85l75 -94l77 94h79z" />
    <glyph glyph-name="tcaron" unicode="&#x165;" horiz-adv-x="323" 
d="M313 25q-29 -17 -60 -27.5t-60 -10.5q-51 0 -84.5 32t-33.5 95v258h-66v80h66v154h119v-153h99v-80h-99v-235q0 -33 7.5 -39.5t15.5 -6.5q20 0 43.5 11.5t40.5 21.5zM433 633q0 -32 -28.5 -78t-75.5 -96l-43 31q26 39 39 72t13 50q0 9 -13.5 18.5t-40.5 16.5l65 95
q45 -8 64.5 -41t19.5 -68z" />
    <glyph glyph-name="Tbar" unicode="&#x166;" horiz-adv-x="522" 
d="M321 557v-154h119v-85h-119v-318h-121v318h-118v85h118v154h-194v103h510v-103h-195z" />
    <glyph glyph-name="tbar" unicode="&#x167;" horiz-adv-x="323" 
d="M313 25q-29 -17 -60 -27.5t-60 -10.5q-51 0 -84.5 32t-33.5 95v93h-66v69h66v96h-66v80h66v154h119v-153h99v-80h-99v-97h99v-69h-99v-69q0 -33 7.5 -39.5t15.5 -6.5q20 0 43.5 11.5t40.5 21.5z" />
    <glyph glyph-name="Utilde" unicode="&#x168;" horiz-adv-x="682" 
d="M612 235q0 -65 -21 -111.5t-58.5 -76.5t-88.5 -44.5t-112 -14.5q-51 0 -98 14.5t-84 43t-59 69.5t-22 95v449h121v-421q0 -44 14 -72t35.5 -44.5t47 -23t49.5 -6.5q28 0 56 6.5t50 23t35.5 45t13.5 72.5v420h121v-424zM523 767q-40 -39 -69 -51t-56 -12q-23 0 -40 6
t-36 20q-11 8 -17.5 12.5t-11.5 6.5t-10.5 2.5t-13.5 0.5t-18.5 -5t-21.5 -11.5t-20.5 -13t-13.5 -9.5l-35 49q42 41 72 54t58 13q14 0 23 -2.5t16.5 -6.5t14.5 -9.5t18 -12.5q12 -8 24.5 -13.5t28.5 -5.5q22 0 74 40z" />
    <glyph glyph-name="utilde" unicode="&#x169;" horiz-adv-x="541" 
d="M370 0l-12 53q-27 -32 -61 -49t-76 -17q-90 0 -127 41.5t-37 127.5v297h121v-287q0 -15 1 -28.5t6.5 -23.5t15.5 -16t28 -6q10 0 28 2t27 7q12 9 31 25.5t30 29.5v297h121v-319q0 -34 3.5 -67.5t8.5 -66.5h-108zM462 584q-41 -42 -71.5 -55.5t-59.5 -13.5q-24 0 -41.5 7
t-37.5 22q-11 8 -18 13t-12.5 7.5t-11 3t-13.5 0.5t-19 -5.5t-22.5 -12.5t-21.5 -15l-14 -10l-37 54q44 43 75.5 57.5t60.5 14.5q15 0 24.5 -2.5t17 -7t15 -10.5t18.5 -13q13 -9 26 -15.5t29 -6.5q13 0 33 12t44 32z" />
    <glyph glyph-name="Umacron" unicode="&#x16a;" horiz-adv-x="682" 
d="M612 235q0 -65 -21 -111.5t-58.5 -76.5t-88.5 -44.5t-112 -14.5q-51 0 -98 14.5t-84 43t-59 69.5t-22 95v449h121v-421q0 -44 14 -72t35.5 -44.5t47 -23t49.5 -6.5q28 0 56 6.5t50 23t35.5 45t13.5 72.5v420h121v-424zM166 695v65h352v-65h-352z" />
    <glyph glyph-name="umacron" unicode="&#x16b;" horiz-adv-x="541" 
d="M370 0l-12 53q-27 -32 -61 -49t-76 -17q-90 0 -127 41.5t-37 127.5v297h121v-287q0 -15 1 -28.5t6.5 -23.5t15.5 -16t28 -6q10 0 28 2t27 7q12 9 31 25.5t30 29.5v297h121v-319q0 -34 3.5 -67.5t8.5 -66.5h-108zM85 526v65h352v-65h-352z" />
    <glyph glyph-name="Ubreve" unicode="&#x16c;" horiz-adv-x="682" 
d="M612 235q0 -65 -21 -111.5t-58.5 -76.5t-88.5 -44.5t-112 -14.5q-51 0 -98 14.5t-84 43t-59 69.5t-22 95v449h121v-421q0 -44 14 -72t35.5 -44.5t47 -23t49.5 -6.5q28 0 56 6.5t50 23t35.5 45t13.5 72.5v420h121v-424zM519 889q-6 -29 -22 -56t-39 -47.5t-53 -33
t-66 -12.5q-33 0 -63 10t-53 29t-38 47t-19 63h78q6 -32 34 -49t61 -17q43 0 67.5 18.5t32.5 47.5h80z" />
    <glyph glyph-name="ubreve" unicode="&#x16d;" horiz-adv-x="541" 
d="M370 0l-12 53q-27 -32 -61 -49t-76 -17q-90 0 -127 41.5t-37 127.5v297h121v-287q0 -15 1 -28.5t6.5 -23.5t15.5 -16t28 -6q10 0 28 2t27 7q12 9 31 25.5t30 29.5v297h121v-319q0 -34 3.5 -67.5t8.5 -66.5h-108zM447 711q-6 -29 -22 -56t-39 -47.5t-53 -33t-66 -12.5
q-33 0 -63 10t-53 29t-38 47t-19 63h78q6 -32 34 -49t61 -17q43 0 67.5 18.5t32.5 47.5h80z" />
    <glyph glyph-name="Uring" unicode="&#x16e;" horiz-adv-x="682" 
d="M612 235q0 -65 -21 -111.5t-58.5 -76.5t-88.5 -44.5t-112 -14.5q-51 0 -98 14.5t-84 43t-59 69.5t-22 95v449h121v-421q0 -44 14 -72t35.5 -44.5t47 -23t49.5 -6.5q28 0 56 6.5t50 23t35.5 45t13.5 72.5v420h121v-424zM442 779q0 -22 -8 -41t-21.5 -33t-32.5 -22t-40 -8
t-39 8t-31.5 22t-21 33t-7.5 41t7.5 41t21 33.5t31.5 22.5t39 8t40 -8t32.5 -22.5t21.5 -33.5t8 -41zM388 779q0 21 -13.5 35t-34.5 14q-20 0 -33 -14t-13 -35q0 -20 13.5 -34.5t32.5 -14.5q21 0 34.5 14.5t13.5 34.5z" />
    <glyph glyph-name="uring" unicode="&#x16f;" horiz-adv-x="541" 
d="M370 0l-12 53q-27 -32 -61 -49t-76 -17q-90 0 -127 41.5t-37 127.5v297h121v-287q0 -15 1 -28.5t6.5 -23.5t15.5 -16t28 -6q10 0 28 2t27 7q12 9 31 25.5t30 29.5v297h121v-319q0 -34 3.5 -67.5t8.5 -66.5h-108zM377 621q0 -22 -8 -41t-22 -33t-32.5 -22t-39.5 -8
q-43 0 -71.5 29.5t-28.5 74.5q0 22 7.5 41t21 33.5t32 22.5t39.5 8t39.5 -8t32.5 -22.5t22 -33.5t8 -41zM323 621q0 21 -14 35t-34 14t-33.5 -14t-13.5 -35q0 -20 13.5 -34.5t33.5 -14.5t34 14.5t14 34.5z" />
    <glyph glyph-name="Uhungarumlaut" unicode="&#x170;" horiz-adv-x="682" 
d="M612 235q0 -65 -21 -111.5t-58.5 -76.5t-88.5 -44.5t-112 -14.5q-51 0 -98 14.5t-84 43t-59 69.5t-22 95v449h121v-421q0 -44 14 -72t35.5 -44.5t47 -23t49.5 -6.5q28 0 56 6.5t50 23t35.5 45t13.5 72.5v420h121v-424zM422 696h-84l107 202h113zM282 696h-84l107 202h112
z" />
    <glyph glyph-name="uhungarumlaut" unicode="&#x171;" horiz-adv-x="541" 
d="M370 0l-12 53q-27 -32 -61 -49t-76 -17q-90 0 -127 41.5t-37 127.5v297h121v-287q0 -15 1 -28.5t6.5 -23.5t15.5 -16t28 -6q10 0 28 2t27 7q12 9 31 25.5t30 29.5v297h121v-319q0 -34 3.5 -67.5t8.5 -66.5h-108zM355 521h-84l107 202h113zM215 521h-84l107 202h112z" />
    <glyph glyph-name="Uogonek" unicode="&#x172;" horiz-adv-x="682" 
d="M448 -201q-16 -8 -26 -12.5t-20 -8.5q-11 -4 -22 -6t-25 -2q-23 0 -38.5 9.5t-25.5 23t-14.5 29t-4.5 28.5q0 35 17 67t43 61q-51 0 -98 14.5t-84 43t-59 69.5t-22 95v449h121v-421q0 -44 14 -72t35.5 -44.5t47 -23t49.5 -6.5q28 0 56 6.5t50 23t35.5 45t13.5 72.5v420
h121v-424q0 -86 -36.5 -140.5t-98.5 -80.5q-22 -9 -38.5 -14t-22.5 -13q-28 -35 -39 -58.5t-11 -43.5q0 -26 6.5 -34.5t20.5 -8.5q9 0 21.5 4t41.5 15z" />
    <glyph glyph-name="uogonek" unicode="&#x173;" horiz-adv-x="541" 
d="M452 0q-9 -11 -19.5 -25t-19.5 -29t-15 -30.5t-6 -30.5t3.5 -29t23.5 -14q14 0 32.5 7t30.5 12l-8 -62q-25 -12 -44.5 -20.5t-48.5 -8.5q-18 0 -33.5 7.5t-26.5 20t-17 28.5t-6 34q0 42 21.5 77t50.5 63l-12 53q-27 -32 -61 -49t-76 -17q-90 0 -127 41.5t-37 127.5v297
h121v-287q0 -42 11 -58t40 -16q5 0 12.5 0.5t15.5 1.5t15.5 2.5t11.5 4.5q16 12 35 29.5t26 25.5v297h121v-319q0 -34 3.5 -67.5t8.5 -66.5h-26z" />
    <glyph glyph-name="Wcircumflex" unicode="&#x174;" horiz-adv-x="875" 
d="M621 -16h-69l-107 266l-102 -266h-69l-272 675h124l184 -462l75 201l-106 261h125l40 -102l39 102h117l-96 -253l84 -209l172 462h117zM514 692l-75 95l-77 -95h-79l120 185h71l125 -185h-85z" />
    <glyph glyph-name="wcircumflex" unicode="&#x175;" horiz-adv-x="661" 
d="M494 -13h-68l-92 213l-84 -213h-69l-181 466h128l96 -261l110 276l117 -281l93 266h117zM410 510l-78 103l-81 -103h-82l124 201h75l131 -201h-89z" />
    <glyph glyph-name="Ycircumflex" unicode="&#x176;" horiz-adv-x="542" 
d="M332 274v-274h-120v274l-213 385h124l153 -278l148 278h118zM350 692l-75 95l-77 -95h-79l120 185h71l125 -185h-85z" />
    <glyph glyph-name="ycircumflex" unicode="&#x177;" horiz-adv-x="428" 
d="M269 -22q-19 -57 -40.5 -116t-44.5 -113h-124q29 59 55 119.5t52 130.5l-167 454h120l102 -284l94 284h112zM299 510l-78 103l-81 -103h-82l124 201h75l131 -201h-89z" />
    <glyph glyph-name="Ydieresis" unicode="&#x178;" horiz-adv-x="542" 
d="M332 274v-274h-120v274l-213 385h124l153 -278l148 278h118zM232 756q0 -26 -18 -43.5t-44 -17.5t-43.5 17.5t-17.5 43.5q0 25 17.5 44t43.5 19t44 -19t18 -44zM439 756q0 -26 -18 -43.5t-44 -17.5t-43.5 17.5t-17.5 43.5q0 25 17.5 44t43.5 19t44 -19t18 -44z" />
    <glyph glyph-name="Zacute" unicode="&#x179;" horiz-adv-x="598" 
d="M38 0v66l344 491h-333v103h493v-67l-335 -490h351v-103h-520zM314 696h-81l102 185h109z" />
    <glyph glyph-name="zacute" unicode="&#x17a;" horiz-adv-x="428" 
d="M18 0v72l215 283h-211v98h366v-70l-214 -285h221v-98h-377zM235 521h-84l106 202h113z" />
    <glyph glyph-name="Zdotaccent" unicode="&#x17b;" horiz-adv-x="598" 
d="M38 0v66l344 491h-333v103h493v-67l-335 -490h351v-103h-520zM366 771q0 -14 -6 -27.5t-15.5 -24.5t-22.5 -17.5t-27 -6.5t-26.5 7t-21.5 17.5t-14.5 24t-5.5 27.5q0 13 5.5 26.5t15 24t21.5 17t26 6.5q13 0 26 -6.5t23 -17t16 -23.5t6 -27z" />
    <glyph glyph-name="zdotaccent" unicode="&#x17c;" horiz-adv-x="428" 
d="M18 0v72l215 283h-211v98h366v-70l-214 -285h221v-98h-377zM291 610q0 -14 -6 -27.5t-15.5 -24.5t-22.5 -17.5t-27 -6.5t-26.5 7t-21.5 17.5t-14.5 24t-5.5 27.5q0 13 5.5 26.5t15 24t21.5 17t26 6.5q13 0 26 -6.5t23 -17t16 -23.5t6 -27z" />
    <glyph glyph-name="Zcaron" unicode="&#x17d;" horiz-adv-x="598" 
d="M38 0v66l344 491h-333v103h493v-67l-335 -490h351v-103h-520zM348 704h-71l-125 185h85l75 -94l77 94h79z" />
    <glyph glyph-name="zcaron" unicode="&#x17e;" horiz-adv-x="428" 
d="M18 0v72l215 283h-211v98h366v-70l-214 -285h221v-98h-377zM246 510h-74l-131 201h89l78 -102l80 102h83z" />
    <glyph glyph-name="longs" unicode="&#x17f;" horiz-adv-x="303" 
d="M399 617q-13 7 -23.5 12t-22 7.5t-24 3.5t-28.5 1q-21 0 -38 -5t-20 -8q-3 -2 -9 -9t-12 -24.5t-10.5 -49.5t-4.5 -85v-460h-121v372h-77v80h77v14q0 84 13 137.5t40.5 84t69.5 42t101 11.5q31 0 54 -5t47 -15z" />
    <glyph glyph-name="uni018F" unicode="&#x18f;" horiz-adv-x="685" 
d="M95 633q49 21 97.5 29t108.5 8q64 0 127 -22.5t113 -65.5t81 -106t31 -145q0 -74 -25 -137t-69.5 -108.5t-105.5 -71.5t-132 -26q-63 0 -116.5 21t-93 66t-62 116t-22.5 170h491q-6 45 -26 83t-50 65t-68 42t-80 15q-23 0 -43 -2t-42 -7t-47 -14.5t-58 -25.5zM326 91
q32 0 62 11t54.5 32t43 51.5t27.5 70.5h-349q12 -89 55 -127t107 -38z" />
    <glyph glyph-name="florin" unicode="&#x192;" horiz-adv-x="432" 
d="M358 530q0 8 -2 17.5t-8 17.5t-15.5 13t-24.5 5q-26 0 -39.5 -4.5t-18.5 -8.5q-2 -2 -6 -10.5t-8 -27t-7 -48t-3 -71.5h108v-88h-108v-244q0 -49 -3.5 -101t-20 -95t-51.5 -70.5t-99 -27.5q-51 0 -84 10.5t-53 30.5t-28 49t-8 67h105q0 -20 13.5 -36t34.5 -16t36 3.5
t26 11.5q6 6 9 53.5t3 145.5v218h-70v88h70q0 51 3.5 100.5t21 88.5t54 63t104.5 24q43 0 73.5 -8.5t50.5 -22.5t31 -33.5t14 -40.5q2 -13 3 -25.5t2 -27.5h-105z" />
    <glyph glyph-name="uni01C4" unicode="&#x1c4;" horiz-adv-x="1298" 
d="M668 333q0 -53 -17 -111.5t-57 -108t-104.5 -81.5t-160.5 -32h-244v655l64 5q51 3 92 3q22 0 45 -0.5t52 -0.5q93 0 156 -30.5t101.5 -78.5t55.5 -106.5t17 -113.5zM536 333q0 39 -11 79.5t-35.5 74t-64.5 54.5t-98 21h-7l-114 -2v-462h108q114 0 168 61t54 174zM738 0
v66l344 491h-333v103h493v-67l-335 -490h351v-103h-520zM1048 704h-71l-125 185h85l75 -94l77 94h79z" />
    <glyph glyph-name="uni01C5" unicode="&#x1c5;" horiz-adv-x="1128" 
d="M668 333q0 -53 -17 -111.5t-57 -108t-104.5 -81.5t-160.5 -32h-244v655l64 5q51 3 92 3q22 0 45 -0.5t52 -0.5q93 0 156 -30.5t101.5 -78.5t55.5 -106.5t17 -113.5zM536 333q0 39 -11 79.5t-35.5 74t-64.5 54.5t-98 21h-7l-114 -2v-462h108q114 0 168 61t54 174zM718 0
v72l215 283h-211v98h366v-70l-214 -285h221v-98h-377zM946 510h-74l-131 201h89l78 -102l80 102h83z" />
    <glyph glyph-name="uni01C6" unicode="&#x1c6;" horiz-adv-x="973" 
d="M375 0q-1 4 -2 11.5t-2 15.5t-2 15.5t-2 10.5q-23 -32 -55 -49t-78 -17q-39 0 -75.5 17t-64 48t-44 74.5t-16.5 97.5q0 117 67 178.5t181 61.5q20 0 36.5 -3.5t36.5 -10.5v280h122v-590q0 -35 3.5 -68.5t8.5 -71.5h-114zM355 287q0 20 -3 33.5t-12 21.5t-24.5 11.5
t-40.5 3.5q-19 0 -39 -1t-27 -8q-3 -3 -11 -12t-16 -23.5t-14 -35.5t-6 -49q0 -41 10.5 -67t25 -41t31 -20.5t28.5 -5.5q29 0 54.5 17.5t43.5 42.5v133zM563 0v72l215 283h-211v98h366v-70l-214 -285h221v-98h-377zM791 510h-74l-131 201h89l78 -102l80 102h83z" />
    <glyph glyph-name="uni01C7" unicode="&#x1c7;" horiz-adv-x="788" 
d="M84 0v659h121v-556h283v-103h-404zM707 56q0 -136 -78 -214t-222 -80v105q56 1 91 19.5t54.5 48t26.5 67.5t7 80v577h121v-603z" />
    <glyph glyph-name="uni01C8" unicode="&#x1c8;" horiz-adv-x="745" 
d="M84 0v659h121v-556h283v-103h-404zM690 613q0 -30 -20.5 -52t-49.5 -22t-50 21.5t-21 51.5t21 51t50 21t49.5 -20.5t20.5 -50.5zM681 55q0 -102 -19 -162t-54.5 -92t-86 -42.5t-112.5 -12.5v109q45 1 74.5 8t46.5 29.5t23.5 65t6.5 114.5v381h121v-398z" />
    <glyph glyph-name="uni01C9" unicode="&#x1c9;" horiz-adv-x="502" 
d="M65 0v730h121v-730h-121zM447 613q0 -30 -20.5 -52t-49.5 -22t-50 21.5t-21 51.5t21 51t50 21t49.5 -20.5t20.5 -50.5zM438 55q0 -102 -19 -162t-54.5 -92t-86 -42.5t-112.5 -12.5v109q45 1 74.5 8t46.5 29.5t23.5 65t6.5 114.5v381h121v-398z" />
    <glyph glyph-name="uni01CA" unicode="&#x1ca;" horiz-adv-x="1045" 
d="M543 0l-339 470v-470h-117v659h121l342 -473v474h116v-660h-123zM964 56q0 -136 -78 -214t-222 -80v105q56 1 91 19.5t54.5 48t26.5 67.5t7 80v577h121v-603z" />
    <glyph glyph-name="uni01CB" unicode="&#x1cb;" horiz-adv-x="987" 
d="M543 0l-339 470v-470h-117v659h121l342 -473v474h116v-660h-123zM932 613q0 -30 -20.5 -52t-49.5 -22t-50 21.5t-21 51.5t21 51t50 21t49.5 -20.5t20.5 -50.5zM923 55q0 -102 -19 -162t-54.5 -92t-86 -42.5t-112.5 -12.5v109q45 1 74.5 8t46.5 29.5t23.5 65t6.5 114.5
v381h121v-398z" />
    <glyph glyph-name="uni01CC" unicode="&#x1cc;" horiz-adv-x="803" 
d="M485 213q0 -24 -0.5 -44.5t-1 -43.5t-1.5 -52.5t-2 -72.5h-121q1 49 2 79.5t1.5 53t0.5 43.5v81q0 15 -2 29q-3 44 -14 59t-38 15q-7 0 -16 -0.5t-17.5 -2t-15 -3.5t-8.5 -4q-3 -2 -9.5 -7t-15.5 -12.5t-18.5 -16.5t-16.5 -18v-296h-121v319q0 15 -1 34.5t-3 38.5
t-4 35.5t-4 25.5h108l12 -53q30 34 64 49.5t73 15.5q58 0 91.5 -16.5t51 -44t22 -63t4.5 -73.5v-55zM748 613q0 -30 -20.5 -52t-49.5 -22t-50 21.5t-21 51.5t21 51t50 21t49.5 -20.5t20.5 -50.5zM739 55q0 -102 -19 -162t-54.5 -92t-86 -42.5t-112.5 -12.5v109q45 1 74.5 8
t46.5 29.5t23.5 65t6.5 114.5v381h121v-398z" />
    <glyph glyph-name="uni01F1" unicode="&#x1f1;" horiz-adv-x="1298" 
d="M668 333q0 -53 -17 -111.5t-57 -108t-104.5 -81.5t-160.5 -32h-244v655l64 5q51 3 92 3q22 0 45 -0.5t52 -0.5q93 0 156 -30.5t101.5 -78.5t55.5 -106.5t17 -113.5zM536 333q0 39 -11 79.5t-35.5 74t-64.5 54.5t-98 21h-7l-114 -2v-462h108q114 0 168 61t54 174zM738 0
v66l344 491h-333v103h493v-67l-335 -490h351v-103h-520z" />
    <glyph glyph-name="uni01F2" unicode="&#x1f2;" horiz-adv-x="1128" 
d="M668 333q0 -53 -17 -111.5t-57 -108t-104.5 -81.5t-160.5 -32h-244v655l64 5q51 3 92 3q22 0 45 -0.5t52 -0.5q93 0 156 -30.5t101.5 -78.5t55.5 -106.5t17 -113.5zM536 333q0 39 -11 79.5t-35.5 74t-64.5 54.5t-98 21h-7l-114 -2v-462h108q114 0 168 61t54 174zM718 0
v72l215 283h-211v98h366v-70l-214 -285h221v-98h-377z" />
    <glyph glyph-name="uni01F3" unicode="&#x1f3;" horiz-adv-x="973" 
d="M375 0q-1 4 -2 11.5t-2 15.5t-2 15.5t-2 10.5q-23 -32 -55 -49t-78 -17q-39 0 -75.5 17t-64 48t-44 74.5t-16.5 97.5q0 117 67 178.5t181 61.5q20 0 36.5 -3.5t36.5 -10.5v280h122v-590q0 -35 3.5 -68.5t8.5 -71.5h-114zM355 287q0 20 -3 33.5t-12 21.5t-24.5 11.5
t-40.5 3.5q-19 0 -39 -1t-27 -8q-3 -3 -11 -12t-16 -23.5t-14 -35.5t-6 -49q0 -41 10.5 -67t25 -41t31 -20.5t28.5 -5.5q29 0 54.5 17.5t43.5 42.5v133zM563 0v72l215 283h-211v98h366v-70l-214 -285h221v-98h-377z" />
    <glyph glyph-name="Aringacute" unicode="&#x1fa;" horiz-adv-x="549" 
d="M382 788q0 -41 -28.5 -68.5t-69.5 -27.5t-68 27.5t-27 68.5t27 68.5t68 27.5t69.5 -27.5t28.5 -68.5zM330 788q0 19 -13 32t-33 13q-19 0 -32 -13t-13 -32q0 -18 13.5 -31.5t31.5 -13.5q20 0 33 13.5t13 31.5zM429 0l-53 152h-207l-55 -152h-114l250 681h64l236 -681
h-121zM276 461l-70 -206h133zM317 894h-81l102 185h109z" />
    <glyph glyph-name="aringacute" unicode="&#x1fb;" horiz-adv-x="456" 
d="M299 0q-5 14 -6.5 23.5t-5.5 29.5q-17 -24 -49.5 -45t-76.5 -21q-60 0 -96 32t-36 81q0 30 5.5 56t16.5 39q9 12 36 24.5t60 23.5t67 19.5t57 13.5v34q0 18 -2 30.5t-8 20t-17.5 11t-30.5 3.5q-8 0 -18 -0.5t-19.5 -1.5t-17 -3t-9.5 -6q-5 -8 -5 -15t-1 -20l-98 -9
q0 5 -0.5 9.5t-0.5 9.5q0 19 2.5 35t7.5 33q2 7 15.5 17t36 19t52.5 15.5t65 6.5q80 0 125 -34.5t45 -95.5v-201q0 -38 5.5 -73t10.5 -61h-110zM271 198q-36 -9 -60.5 -17t-57.5 -22q-4 -11 -5 -17t-1 -17q0 -20 6.5 -34t29.5 -14q17 0 39.5 12.5t48.5 41.5v67zM339 621
q0 -22 -8 -41t-22 -33t-32.5 -22t-39.5 -8q-43 0 -71.5 29.5t-28.5 74.5q0 22 7.5 41t21 33.5t32 22.5t39.5 8t39.5 -8t32.5 -22.5t22 -33.5t8 -41zM285 621q0 21 -14 35t-34 14t-33.5 -14t-13.5 -35q0 -20 13.5 -34.5t33.5 -14.5t34 14.5t14 34.5zM255 735h-84l106 202h113
z" />
    <glyph glyph-name="AEacute" unicode="&#x1fc;" horiz-adv-x="858" 
d="M397 0v152h-210l-87 -152h-130l374 659h446v-104h-273v-169h236v-103h-236v-180h295v-103h-415zM397 550q-1 -1 -6 -13.5t-14 -33t-21 -45.5t-27 -52l-85 -152h153v296zM505 696h-81l102 185h109z" />
    <glyph glyph-name="aeacute" unicode="&#x1fd;" horiz-adv-x="717" 
d="M393 213q0 -25 9 -47.5t24.5 -39t37 -26.5t45.5 -10q36 0 75.5 15.5t81.5 50.5l11 -118q-20 -12 -40 -21.5t-42.5 -16t-49.5 -10t-60 -3.5q-54 0 -99 21t-75 61q-12 -16 -26 -30.5t-31 -26t-40 -18.5t-53 -7q-60 0 -96 32t-36 81q0 31 5.5 56t16.5 39q9 12 36 24.5
t60 23.5t67 19.5t57 13.5v34q0 18 -2 30.5t-8 20t-17.5 11t-30.5 3.5q-26 0 -40 -2t-21 -7t-8 -14t-1 -23l-98 -9q0 6 -0.5 11.5t-0.5 10.5q1 16 2.5 30t6.5 32q2 9 16.5 19.5t37 19.5t52.5 15.5t64 6.5q85 0 130 -39q56 39 131 39q58 0 96.5 -15.5t61.5 -47t32.5 -78.5
t9.5 -111h-291zM575 288q-2 19 -5 35.5t-12.5 27.5t-27 17.5t-46.5 6.5q-6 0 -14 -2t-15.5 -4t-14 -4.5t-7.5 -3.5q-2 -2 -17.5 -21.5t-20.5 -51.5h180zM271 198q-36 -9 -61.5 -16.5t-56.5 -22.5q-4 -11 -5 -17t-1 -17q0 -20 6.5 -34t29.5 -14q16 0 32 8t28.5 17.5t20 18
t7.5 10.5v67zM371 521h-84l106 202h113z" />
    <glyph glyph-name="Oslashacute" unicode="&#x1fe;" horiz-adv-x="742" 
d="M710 330q0 -66 -24.5 -128t-68.5 -110t-106 -77t-138 -29q-45 0 -84 10t-74 27l-70 -108l-53 35l69 108q-61 48 -95 119t-34 152q0 67 24.5 129.5t69.5 110t108 76t139 28.5q44 0 83 -10t74 -28l65 103l55 -35l-66 -103q60 -48 93 -118.5t33 -151.5zM577 330q0 50 -15 94
t-42 76l-246 -384q44 -26 99 -26q45 0 82.5 18.5t64.5 51t42 76t15 94.5zM470 542q-42 27 -97 27q-45 0 -83.5 -18t-66.5 -50t-43.5 -75.5t-15.5 -95.5q0 -53 16 -97t44 -76zM405 696h-81l102 185h109z" />
    <glyph glyph-name="oslashacute" unicode="&#x1ff;" horiz-adv-x="536" 
d="M502 226q0 -51 -16.5 -95t-47.5 -76t-75.5 -50t-100.5 -18q-52 0 -94 18l-56 -87l-53 32l54 87q-38 32 -58.5 80t-20.5 109q0 49 15.5 92.5t45.5 76t74.5 51.5t103.5 19q53 0 99 -19l53 84l55 -32l-54 -86q36 -32 56 -79t20 -107zM375 234q0 41 -16 73l-132 -209
q10 -4 20.5 -6t24.5 -2q31 0 51 13t31.5 33.5t16 46t4.5 51.5zM313 353q-11 5 -23 7.5t-27 2.5q-30 0 -50 -12t-31.5 -31.5t-16 -44.5t-4.5 -51q0 -23 4.5 -44t13.5 -38zM303 521h-84l106 202h113z" />
    <glyph glyph-name="Scommaaccent" unicode="&#x218;" horiz-adv-x="507" 
d="M474 183q0 -49 -20 -86t-52.5 -61.5t-73 -37t-80.5 -12.5q-28 0 -52.5 2t-48 7t-47 13t-49.5 20l17 119q29 -17 51.5 -28t42.5 -17.5t39.5 -9t42.5 -2.5q21 0 39 6t32 17.5t22 27t8 33.5q0 20 -12 35.5t-29 27.5t-36.5 21.5t-35.5 18.5q-44 24 -77 45.5t-55.5 45t-34 50
t-11.5 60.5q0 40 15 75t43.5 61t68 41t89.5 15q33 0 58 -2t47 -6.5t43.5 -12t47.5 -17.5l-9 -121q-31 18 -55 29t-44.5 17t-40 8t-42.5 2q-44 0 -66.5 -25t-22.5 -57q0 -21 12 -37t30 -29t38.5 -23.5t37.5 -20.5q38 -23 69.5 -42.5t54 -41t34.5 -47.5t12 -61zM332 -154
q0 -32 -28.5 -78t-75.5 -96l-43 31q26 39 39 72t13 50q0 9 -13.5 18.5t-40.5 16.5l65 95q45 -8 64.5 -41t19.5 -68z" />
    <glyph glyph-name="scommaaccent" unicode="&#x219;" horiz-adv-x="440" 
d="M401 129q0 -29 -12.5 -54.5t-36.5 -45t-59.5 -31t-82.5 -11.5q-43 0 -85.5 10t-80.5 34l13 100q20 -12 36.5 -20.5t33.5 -14t36 -8t44 -2.5q43 0 57 11t14 22q0 18 -17.5 29.5t-43.5 22t-56.5 22t-56.5 29.5t-43.5 44.5t-17.5 67.5q0 61 48.5 96t138.5 35q22 0 40 -2.5
t36 -7t37 -12.5t43 -18l-14 -106q-46 34 -84.5 41.5t-63.5 7.5q-8 0 -18 -1t-19.5 -4.5t-16 -9.5t-6.5 -15q0 -17 17.5 -28.5t44 -22t57 -22.5t57 -29.5t44 -43t17.5 -63.5zM298 -154q0 -32 -28.5 -78t-75.5 -96l-43 31q26 39 39 72t13 50q0 9 -13.5 18.5t-40.5 16.5l65 95
q45 -8 64.5 -41t19.5 -68z" />
    <glyph glyph-name="uni021A" unicode="&#x21a;" horiz-adv-x="522" 
d="M321 557v-557h-121v557h-194v103h510v-103h-195zM339 -154q0 -32 -28.5 -78t-75.5 -96l-43 31q26 39 39 72t13 50q0 9 -13.5 18.5t-40.5 16.5l65 95q45 -8 64.5 -41t19.5 -68z" />
    <glyph glyph-name="uni021B" unicode="&#x21b;" horiz-adv-x="323" 
d="M313 25q-29 -17 -60 -27.5t-60 -10.5q-51 0 -84.5 32t-33.5 95v258h-66v80h66v154h119v-153h99v-80h-99v-235q0 -33 7.5 -39.5t15.5 -6.5q20 0 43.5 11.5t40.5 21.5zM275 -154q0 -32 -28.5 -78t-75.5 -96l-43 31q26 39 39 72t13 50q0 9 -13.5 18.5t-40.5 16.5l65 95
q45 -8 64.5 -41t19.5 -68z" />
    <glyph glyph-name="uni0237" unicode="&#x237;" horiz-adv-x="251" 
d="M187 55q0 -102 -19 -162t-54.5 -92t-86 -42.5t-112.5 -12.5v109q45 1 74.5 8t46.5 29.5t23.5 65t6.5 114.5v381h121v-398z" />
    <glyph glyph-name="uni0259" unicode="&#x259;" horiz-adv-x="488" 
d="M326 239q-1 23 -10 45t-24 39.5t-36.5 28t-47.5 10.5q-36 0 -75.5 -15.5t-81.5 -50.5l-11 118q20 12 40 21.5t42.5 16t49.5 10t60 3.5q48 0 88.5 -16.5t70 -47t46.5 -75t17 -99.5q0 -56 -16.5 -100.5t-45.5 -75.5t-70 -47.5t-89 -16.5q-58 0 -96.5 15.5t-61.5 47
t-32.5 78.5t-9.5 111h293zM142 164q1 -20 4.5 -36t13 -27t27 -17.5t46.5 -6.5q6 0 14 2t15.5 4t13.5 4.5t8 3.5q2 2 17.5 21.5t20.5 51.5h-180z" />
    <glyph glyph-name="uni02BB" unicode="&#x2bb;" horiz-adv-x="250" 
d="M146 415q-34 3 -55.5 16.5t-34 31t-17 37.5t-4.5 37q0 40 33 96t93 113l64 -43q-35 -51 -47.5 -83.5t-12.5 -46.5v-6q0 -5 1.5 -11t7.5 -12t18 -11t33 -9z" />
    <glyph glyph-name="afii57929" unicode="&#x2bc;" horiz-adv-x="250" 
d="M215 611q0 -39 -33 -95t-93 -114l-64 44q35 50 47.5 83t12.5 47v6q0 5 -1.5 11t-7.5 11.5t-18 11t-33 9.5l79 109q34 -3 55.5 -16.5t34 -31.5t17 -38t4.5 -37z" />
    <glyph glyph-name="circumflex" unicode="&#x2c6;" horiz-adv-x="424" 
d="M293 510l-78 103l-81 -103h-82l124 201h75l131 -201h-89z" />
    <glyph glyph-name="caron" unicode="&#x2c7;" horiz-adv-x="440" 
d="M257 523h-74l-131 201h89l78 -102l80 102h83z" />
    <glyph glyph-name="breve" unicode="&#x2d8;" horiz-adv-x="391" 
d="M373 688q-6 -29 -22 -56t-39 -47.5t-53 -33t-66 -12.5q-33 0 -63 10t-53 29t-38 47t-19 63h78q6 -32 34 -49t61 -17q43 0 67.5 18.5t32.5 47.5h80z" />
    <glyph glyph-name="dotaccent" unicode="&#x2d9;" horiz-adv-x="293" 
d="M215 656q0 -14 -6 -27.5t-15.5 -24.5t-22.5 -17.5t-27 -6.5t-26.5 7t-21.5 17.5t-14.5 24t-5.5 27.5q0 13 5.5 26.5t15 24t21.5 17t26 6.5q13 0 26 -6.5t23 -17t16 -23.5t6 -27z" />
    <glyph glyph-name="ring" unicode="&#x2da;" horiz-adv-x="572" 
d="M327 626q0 -22 -8 -41t-22 -33t-32.5 -22t-39.5 -8q-43 0 -71.5 29.5t-28.5 74.5q0 22 7.5 41t21 33.5t32 22.5t39.5 8t39.5 -8t32.5 -22.5t22 -33.5t8 -41zM273 626q0 21 -14 35t-34 14t-33.5 -14t-13.5 -35q0 -20 13.5 -34.5t33.5 -14.5t34 14.5t14 34.5z" />
    <glyph glyph-name="ogonek" unicode="&#x2db;" horiz-adv-x="419" 
d="M308 -201q-16 -8 -26 -12.5t-20 -8.5q-11 -4 -22 -6t-25 -2q-23 0 -38.5 9.5t-25.5 23t-14.5 29t-4.5 28.5q0 24 8.5 47.5t23.5 45t34.5 42t41.5 38.5h74q-25 -29 -41.5 -51t-27 -39.5t-15 -31.5t-4.5 -26q0 -26 6.5 -34.5t20.5 -8.5q9 0 21.5 4t41.5 15z" />
    <glyph glyph-name="tilde" unicode="&#x2dc;" horiz-adv-x="440" 
d="M398 584q-41 -42 -71.5 -55.5t-59.5 -13.5q-24 0 -41.5 7t-37.5 22q-11 8 -18 13t-12.5 7.5t-11 3t-13.5 0.5t-19 -5.5t-22.5 -12.5t-21.5 -15l-14 -10l-37 54q44 43 75.5 57.5t60.5 14.5q15 0 24.5 -2.5t17 -7t15 -10.5t18.5 -13q13 -9 26 -15.5t29 -6.5q13 0 33 12
t44 32z" />
    <glyph glyph-name="hungarumlaut" unicode="&#x2dd;" horiz-adv-x="440" 
d="M253 521h-84l107 202h113zM113 521h-84l107 202h112z" />
    <glyph glyph-name="gravecomb" unicode="&#x300;" horiz-adv-x="1" 
d="M-295 521l-136 202h112l107 -202h-83z" />
    <glyph glyph-name="acutecomb" unicode="&#x301;" horiz-adv-x="1" 
d="M-233 521h-84l106 202h113z" />
    <glyph glyph-name="uni0302" unicode="&#x302;" horiz-adv-x="1" 
d="M-178 510l-78 103l-81 -103h-82l124 201h75l131 -201h-89z" />
    <glyph glyph-name="tildecomb" unicode="&#x303;" horiz-adv-x="1" 
d="M-68 584q-41 -42 -71.5 -55.5t-59.5 -13.5q-24 0 -41.5 7t-37.5 22q-11 8 -18 13t-12.5 7.5t-11 3t-13.5 0.5t-19 -5.5t-22.5 -12.5t-21.5 -15l-14 -10l-37 54q44 43 75.5 57.5t60.5 14.5q15 0 24.5 -2.5t17 -7t15 -10.5t18.5 -13q13 -9 26 -15.5t29 -6.5q13 0 33 12
t44 32z" />
    <glyph glyph-name="uni0304" unicode="&#x304;" horiz-adv-x="1" 
d="M-396 526v65h352v-65h-352z" />
    <glyph glyph-name="uni0306" unicode="&#x306;" horiz-adv-x="1" 
d="M-18 711q-6 -29 -22 -56t-39 -47.5t-53 -33t-66 -12.5q-33 0 -63 10t-53 29t-38 47t-19 63h78q6 -32 34 -49t61 -17q43 0 67.5 18.5t32.5 47.5h80z" />
    <glyph glyph-name="uni0307" unicode="&#x307;" horiz-adv-x="1" 
d="M-78 610q0 -14 -6 -27.5t-15.5 -24.5t-22.5 -17.5t-27 -6.5t-26.5 7t-21.5 17.5t-14.5 24t-5.5 27.5q0 13 5.5 26.5t15 24t21.5 17t26 6.5q13 0 26 -6.5t23 -17t16 -23.5t6 -27z" />
    <glyph glyph-name="uni0308" unicode="&#x308;" horiz-adv-x="1" 
d="M-115 593q0 -28 -18 -47.5t-45 -19.5t-46 19.5t-19 46.5q0 28 19 48.5t46 20.5q28 0 45.5 -20.5t17.5 -47.5zM-283 593q0 -28 -18.5 -47.5t-45.5 -19.5t-45.5 19.5t-18.5 46.5q0 28 17.5 48.5t46.5 20.5q27 0 45.5 -20.5t18.5 -47.5z" />
    <glyph glyph-name="uni030A" unicode="&#x30a;" horiz-adv-x="1" 
d="M-117 621q0 -22 -8 -41t-22 -33t-32.5 -22t-39.5 -8q-43 0 -71.5 29.5t-28.5 74.5q0 22 7.5 41t21 33.5t32 22.5t39.5 8t39.5 -8t32.5 -22.5t22 -33.5t8 -41zM-171 621q0 21 -14 35t-34 14t-33.5 -14t-13.5 -35q0 -20 13.5 -34.5t33.5 -14.5t34 14.5t14 34.5z" />
    <glyph glyph-name="uni030B" unicode="&#x30b;" horiz-adv-x="1" 
d="M-187 521h-84l107 202h113zM-327 521h-84l107 202h112z" />
    <glyph glyph-name="uni030C" unicode="&#x30c;" horiz-adv-x="1" 
d="M-152 510h-74l-131 201h89l78 -102l80 102h83z" />
    <glyph glyph-name="uni0312" unicode="&#x312;" horiz-adv-x="1" 
d="M-201 635q0 32 28.5 78t75.5 96l43 -31q-26 -39 -39 -72t-13 -50q0 -9 13.5 -18.5t40.5 -16.5l-65 -95q-45 8 -64.5 41t-19.5 68z" />
    <glyph glyph-name="uni0326" unicode="&#x326;" horiz-adv-x="1" 
d="M-51 -154q0 -32 -28.5 -78t-75.5 -96l-43 31q26 39 39 72t13 50q0 9 -13.5 18.5t-40.5 16.5l65 95q45 -8 64.5 -41t19.5 -68z" />
    <glyph glyph-name="uni0327" unicode="&#x327;" horiz-adv-x="1" 
d="M-315 -133q0 -23 -11.5 -40t-29 -27.5t-39 -15.5t-41.5 -5q-15 0 -26 0.5t-21.5 2.5t-22.5 5.5t-28 9.5l34 61q14 -8 27.5 -10.5t26.5 -2.5q23 0 33.5 6t10.5 15q0 21 -24 25.5t-56 4.5h-24l62 104h75l-35 -57q37 -4 63 -23.5t26 -52.5z" />
    <glyph glyph-name="uni0328" unicode="&#x328;" horiz-adv-x="1" 
d="M-111 -201q-16 -8 -26 -12.5t-20 -8.5q-11 -4 -22 -6t-25 -2q-23 0 -38.5 9.5t-25.5 23t-14.5 29t-4.5 28.5q0 24 8.5 47.5t23.5 45t34.5 42t41.5 38.5h74q-25 -29 -41.5 -51t-27 -39.5t-15 -31.5t-4.5 -26q0 -26 6.5 -34.5t20.5 -8.5q9 0 21.5 4t41.5 15z" />
    <glyph glyph-name="uni0394" unicode="&#x394;" horiz-adv-x="736" 
d="M-8 0l370 685l371 -685h-741zM359 463l-191 -362h376z" />
    <glyph glyph-name="Pi" unicode="&#x3a0;" horiz-adv-x="767" 
d="M646 557v-557h-120v551h-286v-551h-119v557h-110v102h745v-102h-110z" />
    <glyph glyph-name="Sigma" unicode="&#x3a3;" horiz-adv-x="595" 
d="M212 555l157 -213l-186 -239h369v-103h-524v66l211 265l-199 269v59h514v-104h-342z" />
    <glyph glyph-name="uni03A9" unicode="&#x3a9;" horiz-adv-x="742" 
d="M419 0v75q77 35 117 102.5t40 152.5q0 55 -16.5 99t-44.5 75.5t-65.5 48.5t-78.5 17q-42 0 -79 -16t-65 -46.5t-44.5 -75.5t-16.5 -102q0 -87 38 -154t118 -101v-75h-306v91h133q-22 20 -43.5 45.5t-38 55.5t-26.5 64.5t-10 72.5q0 69 24.5 131t69.5 109.5t107.5 75.5
t138.5 28q75 0 137 -27.5t106.5 -74.5t69 -109.5t24.5 -131.5q0 -38 -9.5 -72.5t-26 -64.5t-38 -55.5t-45.5 -46.5h137v-91h-307z" />
    <glyph glyph-name="uni03BC" unicode="&#x3bc;" horiz-adv-x="533" 
d="M378 0l-12 53q-27 -32 -61 -49t-76 -17q-14 0 -26.5 2t-25.5 4l7 -243h-123q3 88 4 175.5t1 175.5t-0.5 176t-0.5 176h121v-287q0 -15 1 -28.5t6.5 -23.5t15.5 -16t28 -6q5 0 12.5 0.5t15.5 1.5t15.5 2.5t11.5 4.5q7 4 15.5 11t17 14.5t16 15.5t12.5 14v297h121v-319
q0 -34 3.5 -67.5t8.5 -66.5h-108z" />
    <glyph glyph-name="pi" unicode="&#x3c0;" horiz-adv-x="523" 
d="M527 398q-13 -8 -30.5 -14t-32.5 -9q2 -1 3 -14.5t1.5 -29t0.5 -29.5v-16q0 -72 -1.5 -143t-3.5 -143h-118q1 66 3.5 130.5t2.5 130.5v22q0 15 -0.5 32t-2 32.5t-3.5 21.5h-152l-4 -369h-119l5 369q-13 0 -27.5 -0.5t-41.5 -4.5l-1 76q27 2 51 7.5t56 5.5q52 0 103 -0.5
t103 -0.5h7q20 0 44.5 0.5t49.5 2t48.5 5.5t40.5 11z" />
    <glyph glyph-name="uni1D62" unicode="&#x1d62;" horiz-adv-x="203" 
d="M157 187q0 -23 -16.5 -40t-39.5 -17t-40 17t-17 40q0 24 17 39.5t40 15.5t39.5 -15.5t16.5 -39.5zM52 -250v329h99v-329h-99z" />
    <glyph glyph-name="uni1D63" unicode="&#x1d63;" horiz-adv-x="282" 
d="M202 -29v5q0 11 -1.5 19.5t-8.5 8.5q-5 0 -9.5 -4t-9 -10t-8 -12t-5.5 -9v-219h-103v229q0 24 -3 48.5t-7 48.5h93l7 -32q13 16 32.5 28t40.5 12q36 0 51.5 -18.5t15.5 -52.5q0 -8 -1 -16.5t-2 -16.5z" />
    <glyph glyph-name="uni1D64" unicode="&#x1d64;" horiz-adv-x="437" 
d="M294 -250l-8 32q-45 -41 -105 -41q-45 0 -71.5 11t-40.5 28.5t-18 39.5t-4 44v212h104v-205q0 -30 8 -38.5t27 -8.5q14 0 26.5 2t14.5 4q12 8 24 16.5t22 19.5v210h105v-228q0 -28 3 -50t7 -48h-94z" />
    <glyph glyph-name="uni1D65" unicode="&#x1d65;" horiz-adv-x="354" 
d="M209 -258h-64l-140 333h112l62 -167l63 167h107z" />
    <glyph glyph-name="Wgrave" unicode="&#x1e80;" horiz-adv-x="875" 
d="M621 -16h-69l-107 266l-102 -266h-69l-272 675h124l184 -462l75 201l-106 261h125l40 -102l39 102h117l-96 -253l84 -209l172 462h117zM397 696l-131 185h108l103 -185h-80z" />
    <glyph glyph-name="wgrave" unicode="&#x1e81;" horiz-adv-x="661" 
d="M494 -13h-68l-92 213l-84 -213h-69l-181 466h128l96 -261l110 276l117 -281l93 266h117zM302 521l-136 202h112l107 -202h-83z" />
    <glyph glyph-name="Wacute" unicode="&#x1e82;" horiz-adv-x="875" 
d="M621 -16h-69l-107 266l-102 -266h-69l-272 675h124l184 -462l75 201l-106 261h125l40 -102l39 102h117l-96 -253l84 -209l172 462h117zM470 696h-81l102 185h109z" />
    <glyph glyph-name="wacute" unicode="&#x1e83;" horiz-adv-x="661" 
d="M494 -13h-68l-92 213l-84 -213h-69l-181 466h128l96 -261l110 276l117 -281l93 266h117zM364 521h-84l106 202h113z" />
    <glyph glyph-name="Wdieresis" unicode="&#x1e84;" horiz-adv-x="875" 
d="M621 -16h-69l-107 266l-102 -266h-69l-272 675h124l184 -462l75 201l-106 261h125l40 -102l39 102h117l-96 -253l84 -209l172 462h117zM628 756q0 -26 -17.5 -43.5t-43.5 -17.5t-44 17.5t-18 43.5q0 25 18 44t44 19q27 0 44 -19t17 -44zM398 756q0 -26 -18 -43.5
t-44 -17.5t-43.5 17.5t-17.5 43.5q0 25 17.5 44t43.5 19t44 -19t18 -44z" />
    <glyph glyph-name="wdieresis" unicode="&#x1e85;" horiz-adv-x="661" 
d="M494 -13h-68l-92 213l-84 -213h-69l-181 466h128l96 -261l110 276l117 -281l93 266h117zM482 593q0 -28 -18 -47.5t-45 -19.5t-46 19.5t-19 46.5q0 28 19 48.5t46 20.5q28 0 45.5 -20.5t17.5 -47.5zM314 593q0 -28 -18.5 -47.5t-45.5 -19.5t-45.5 19.5t-18.5 46.5
q0 28 17.5 48.5t46.5 20.5q27 0 45.5 -20.5t18.5 -47.5z" />
    <glyph glyph-name="Ygrave" unicode="&#x1ef2;" horiz-adv-x="542" 
d="M332 274v-274h-120v274l-213 385h124l153 -278l148 278h118zM228 696l-131 185h108l103 -185h-80z" />
    <glyph glyph-name="ygrave" unicode="&#x1ef3;" horiz-adv-x="428" 
d="M269 -22q-19 -57 -40.5 -116t-44.5 -113h-124q29 59 55 119.5t52 130.5l-167 454h120l102 -284l94 284h112zM182 521l-136 202h112l107 -202h-83z" />
    <glyph glyph-name="uni2007" unicode="&#x2007;" 
 />
    <glyph glyph-name="uni2008" unicode="&#x2008;" horiz-adv-x="250" 
 />
    <glyph glyph-name="uni200B" unicode="&#x200b;" horiz-adv-x="0" 
 />
    <glyph glyph-name="endash" unicode="&#x2013;" 
d="M0 180v90h500v-90h-500z" />
    <glyph glyph-name="emdash" unicode="&#x2014;" horiz-adv-x="1000" 
d="M0 180v90h1000v-90h-1000z" />
    <glyph glyph-name="quoteleft" unicode="&#x2018;" horiz-adv-x="250" 
d="M146 415q-34 3 -55.5 16.5t-34 31t-17 37.5t-4.5 37q0 40 33 96t93 113l64 -43q-35 -51 -47.5 -83.5t-12.5 -46.5v-6q0 -5 1.5 -11t7.5 -12t18 -11t33 -9z" />
    <glyph glyph-name="quoteright" unicode="&#x2019;" horiz-adv-x="250" 
d="M215 611q0 -39 -33 -95t-93 -114l-64 44q35 50 47.5 83t12.5 47v6q0 5 -1.5 11t-7.5 11.5t-18 11t-33 9.5l79 109q34 -3 55.5 -16.5t34 -31.5t17 -38t4.5 -37z" />
    <glyph glyph-name="quotesinglbase" unicode="&#x201a;" horiz-adv-x="250" 
d="M216 21q0 -39 -33 -95t-93 -114l-64 44q36 50 48 83t12 47v5q0 5 -1.5 11t-7.5 12t-18 11t-34 10l80 109q34 -3 55.5 -16.5t34 -31.5t17 -38t4.5 -37z" />
    <glyph glyph-name="quotedblleft" unicode="&#x201c;" horiz-adv-x="461" 
d="M356 415q-34 3 -55.5 16.5t-34 31t-17 37.5t-4.5 37q0 40 33 96t93 113l64 -43q-35 -51 -47.5 -83.5t-12.5 -46.5v-5q0 -5 1.5 -11t7.5 -12t18 -11.5t34 -9.5zM146 415q-34 3 -55.5 16.5t-34 31t-17 37.5t-4.5 37q0 40 33 96t93 113l64 -43q-35 -51 -47.5 -83.5
t-12.5 -46.5v-5q0 -5 1.5 -11t7.5 -12t18 -11.5t34 -9.5z" />
    <glyph glyph-name="quotedblright" unicode="&#x201d;" horiz-adv-x="461" 
d="M426 611q0 -39 -33 -95t-93 -114l-64 44q36 50 48 83t12 47v5q0 5 -1.5 11t-7.5 12t-18 11t-34 10l80 109q34 -3 55.5 -16.5t34 -31.5t17 -38t4.5 -37zM216 611q0 -39 -33 -95t-93 -114l-64 44q36 50 48 83t12 47v5q0 5 -1.5 11t-7.5 12t-18 11t-34 10l80 109
q34 -3 55.5 -16.5t34 -31.5t17 -38t4.5 -37z" />
    <glyph glyph-name="quotedblbase" unicode="&#x201e;" horiz-adv-x="461" 
d="M426 21q0 -39 -33 -95t-93 -114l-64 44q36 50 48 83t12 47v5q0 5 -1.5 11t-7.5 12t-18 11t-34 10l80 109q34 -3 55.5 -16.5t34 -31.5t17 -38t4.5 -37zM216 21q0 -39 -33 -95t-93 -114l-64 44q36 50 48 83t12 47v5q0 5 -1.5 11t-7.5 12t-18 11t-34 10l80 109
q34 -3 55.5 -16.5t34 -31.5t17 -38t4.5 -37z" />
    <glyph glyph-name="dagger" unicode="&#x2020;" 
d="M297 459l12 -216l-8 -494h-101l-10 493l11 217l-179 -8v97l181 -8l-11 198h116l-11 -198l181 8v-97z" />
    <glyph glyph-name="daggerdbl" unicode="&#x2021;" 
d="M297 459l12 -216l-12 -217l179 8v-97l-180 8l10 -198h-115l10 198l-180 -8v97l180 -8l-11 216l11 217l-179 -8v97l181 -8l-11 198h116l-11 -198l181 8v-97z" />
    <glyph glyph-name="bullet" unicode="&#x2022;" horiz-adv-x="429" 
d="M395 221q0 -38 -14 -70.5t-38.5 -57t-57.5 -38.5t-70 -14q-38 0 -70.5 14t-57.5 38.5t-39 57t-14 70.5q0 37 14 70t38.5 57.5t57.5 38.5t70 14t70 -14t58 -38.5t39 -57.5t14 -70z" />
    <glyph glyph-name="ellipsis" unicode="&#x2026;" horiz-adv-x="938" 
d="M860 79q0 -38 -26.5 -65t-64.5 -27t-64 27t-26 65t26 64t64 26t64.5 -26t26.5 -64zM560 79q0 -38 -26.5 -65t-64.5 -27t-64 27t-26 65t26 64t64 26t64.5 -26t26.5 -64zM260 79q0 -38 -26.5 -65t-64.5 -27t-64 27t-26 65t26 64t64 26t64.5 -26t26.5 -64z" />
    <glyph glyph-name="perthousand" unicode="&#x2030;" horiz-adv-x="1244" 
d="M1234 169q0 -38 -15.5 -71t-42 -58.5t-62 -40t-75.5 -14.5q-41 0 -76 14.5t-61 40t-41 58.5t-15 71t15 71.5t41 59t61 40.5t76 15q40 0 75.5 -15t62 -40.5t42 -59t15.5 -71.5zM839 169q0 -38 -15 -71t-41.5 -58.5t-62 -40t-75.5 -14.5q-41 0 -76.5 14.5t-61.5 40
t-41 58.5t-15 71t15 71.5t41 59t61.5 40.5t76.5 15q40 0 75.5 -15t61.5 -40.5t41.5 -59t15.5 -71.5zM180 -58l-88 59l554 692l88 -59zM395 480q0 -38 -15 -71.5t-41 -59t-61.5 -40t-76.5 -14.5q-40 0 -75 14.5t-61 40t-41 59t-15 71.5t15 71.5t41 59t61 40t75 14.5
q41 0 76.5 -14.5t61.5 -40t41 -59t15 -71.5zM1120 169q0 35 -24 58t-57 23q-34 0 -58 -23t-24 -58q0 -34 24 -56.5t58 -22.5q32 0 56.5 22t24.5 57zM725 169q0 35 -23.5 58t-56.5 23q-34 0 -58.5 -23t-24.5 -58q0 -34 24.5 -56.5t58.5 -22.5q33 0 56.5 22t23.5 57zM284 480
q0 35 -24.5 57.5t-58.5 22.5q-32 0 -56 -22.5t-24 -57.5t23.5 -58t56.5 -23q34 0 58.5 23t24.5 58z" />
    <glyph glyph-name="guilsinglleft" unicode="&#x2039;" horiz-adv-x="335" 
d="M7 220l286 228v-134l-102 -94l102 -94v-134z" />
    <glyph glyph-name="guilsinglright" unicode="&#x203a;" horiz-adv-x="335" 
d="M42 -8v134l101 94l-101 94v134l284 -228z" />
    <glyph glyph-name="fraction" unicode="&#x2044;" horiz-adv-x="200" 
d="M-84 -51l-72 40l420 755l72 -40z" />
    <glyph glyph-name="uni2070" unicode="&#x2070;" horiz-adv-x="360" 
d="M180 248q-44 0 -74.5 21.5t-50.5 56t-29 78.5t-9 89q0 46 9 90t29 78.5t50.5 56t74.5 21.5q43 0 73.5 -21.5t50.5 -56t29.5 -78.5t9.5 -90q0 -45 -9.5 -89t-29.5 -78.5t-50.5 -56t-73.5 -21.5zM180 651q-23 0 -38.5 -41.5t-15.5 -116.5t15.5 -116t38.5 -41t38.5 41
t15.5 116t-15.5 116.5t-38.5 41.5z" />
    <glyph glyph-name="uni2071" unicode="&#x2071;" horiz-adv-x="203" 
d="M157 693q0 -23 -16.5 -40t-39.5 -17t-40 17t-17 40q0 24 17 39.5t40 15.5t39.5 -15.5t16.5 -39.5zM52 256v329h99v-329h-99z" />
    <glyph glyph-name="uni2074" unicode="&#x2074;" horiz-adv-x="360" 
d="M286 256h-102v128h-178v65q44 79 96 151.5t112 139.5h72v-271h65v-85h-65v-128zM184 559q-32 -44 -57 -90h57v90z" />
    <glyph glyph-name="uni2075" unicode="&#x2075;" horiz-adv-x="360" 
d="M131 251q-22 0 -49.5 2.5t-55.5 8.5l10 85q23 -5 45.5 -8t39.5 -3q19 0 35.5 3.5t29 12.5t19.5 23.5t7 36.5q0 48 -42 64.5t-133 16.5l32 237h243v-84h-143l-9 -71q30 -1 59.5 -10.5t52.5 -28.5t37.5 -47.5t14.5 -67.5q0 -47 -16.5 -79.5t-43.5 -52.5t-62 -29t-71 -9z
" />
    <glyph glyph-name="uni2076" unicode="&#x2076;" horiz-adv-x="360" 
d="M184 248q-39 0 -70.5 10t-53 32.5t-33 58t-11.5 87.5q0 46 14.5 92t44 89t72.5 81.5t100 69.5l62 -75q-50 -23 -90.5 -61.5t-63.5 -73.5q19 4 48 4q37 0 63.5 -14t44 -36t26 -49.5t8.5 -54.5q0 -30 -9.5 -59t-29.5 -51.5t-50 -36t-72 -13.5zM182 470q-17 0 -30.5 -2.5
t-27.5 -7.5v-22q0 -32 4 -52t12 -31t19.5 -15t27.5 -4q28 0 38.5 21t10.5 48q0 65 -54 65z" />
    <glyph glyph-name="uni2077" unicode="&#x2077;" horiz-adv-x="360" 
d="M265 489q-26 -66 -55 -123.5t-57 -109.5h-121q20 33 39 65t36.5 65.5t34 70.5t32.5 79l41 110h-98l-9 -41h-86v125h335z" />
    <glyph glyph-name="uni2078" unicode="&#x2078;" horiz-adv-x="360" 
d="M178 248q-36 0 -66.5 10t-52.5 27t-34 40.5t-12 49.5q0 23 13 56t48 58l23 16q-29 23 -46.5 49.5t-17.5 64.5q0 25 12.5 47t33 38t48 25.5t57.5 9.5q27 0 52 -7.5t45 -22t32 -36t12 -50.5q0 -41 -15.5 -65.5t-45.5 -48.5q16 -12 31 -25t27 -28.5t19 -34t7 -40.5
q0 -28 -12.5 -52t-35 -42t-54 -28.5t-68.5 -10.5zM179 452l-20 -13q-10 -7 -19 -16t-15 -19.5t-6 -23.5q0 -23 15 -35.5t44 -12.5q35 0 50 16t15 33q0 9 -11 26t-32 31zM184 655q-26 0 -37 -10.5t-11 -26.5q0 -17 12 -29.5t35 -26.5q16 12 27.5 24t11.5 35q0 15 -10.5 24.5
t-27.5 9.5z" />
    <glyph glyph-name="uni2079" unicode="&#x2079;" horiz-adv-x="360" 
d="M52 293q50 24 90.5 62t63.5 73q-20 -4 -48 -4q-37 0 -64 14t-44.5 36.5t-26 49.5t-8.5 54q0 30 9.5 59t29.5 51.5t50.5 36.5t72.5 14q79 0 123.5 -43t44.5 -146q0 -46 -14.5 -92t-44 -89t-73 -81.5t-100.5 -68.5zM174 650q-26 0 -38 -21t-12 -47q0 -66 54 -66
q17 0 31 2.5t27 7.5v22q0 32 -4 52t-11.5 31t-19 15t-27.5 4z" />
    <glyph glyph-name="uni207F" unicode="&#x207f;" horiz-adv-x="446" 
d="M388 256h-105l2 86q1 43 1 86v14q0 11 -0.5 23t-4.5 21.5t-11.5 15.5t-21.5 6q-32 0 -48.5 -10t-37.5 -32v-210h-105v228q0 23 -3 50t-7 48h94l8 -32q46 41 105 41q40 0 66.5 -9t42.5 -27t22 -46t6 -65v-35z" />
    <glyph glyph-name="uni2080" unicode="&#x2080;" horiz-adv-x="360" 
d="M180 -258q-44 0 -74.5 21.5t-50.5 56t-29 78.5t-9 89q0 46 9 90t29 78.5t50.5 56t74.5 21.5q43 0 73.5 -21.5t50.5 -56t29.5 -78.5t9.5 -90q0 -45 -9.5 -89t-29.5 -78.5t-50.5 -56t-73.5 -21.5zM180 145q-23 0 -38.5 -41.5t-15.5 -116.5t15.5 -116t38.5 -41t38.5 41
t15.5 116t-15.5 116.5t-38.5 41.5z" />
    <glyph glyph-name="uni2081" unicode="&#x2081;" horiz-adv-x="360" 
d="M55 -165h82v304h-82v85h186v-389h82v-85h-268v85z" />
    <glyph glyph-name="uni2082" unicode="&#x2082;" horiz-adv-x="360" 
d="M9 -199q40 45 78 83t68 74t47 68.5t17 66.5q0 31 -14.5 42.5t-42.5 11.5q-19 0 -48.5 -9t-76.5 -34l-10 95q37 17 69.5 25.5t74.5 8.5q20 0 46.5 -4.5t50.5 -19t40.5 -40.5t16.5 -68q0 -35 -9 -64.5t-24 -56t-35 -51t-42 -49.5q-9 -11 -19.5 -22t-21.5 -23h169v-85h-334
v51z" />
    <glyph glyph-name="uni2083" unicode="&#x2083;" horiz-adv-x="360" 
d="M128 -256q-24 0 -48 3t-51 9l10 86q17 -4 42.5 -8t50.5 -4q33 0 58.5 12.5t25.5 47.5q0 29 -24.5 45.5t-61.5 16.5h-55v78q69 4 98 22.5t29 44.5q0 8 -2.5 17t-9 16.5t-18 12t-28.5 4.5q-14 0 -38.5 -4.5t-65.5 -22.5l-10 89l35 10q15 5 28.5 8.5t29 5t37.5 1.5
q68 0 107 -32.5t39 -88.5q0 -42 -15.5 -64.5t-39.5 -38.5q31 -14 53.5 -44.5t22.5 -72.5q0 -43 -18 -71.5t-46.5 -46t-64 -24.5t-70.5 -7z" />
    <glyph glyph-name="uni2084" unicode="&#x2084;" horiz-adv-x="360" 
d="M286 -250h-102v128h-178v65q44 79 96 151.5t112 139.5h72v-271h65v-85h-65v-128zM184 53q-32 -44 -57 -90h57v90z" />
    <glyph glyph-name="uni2085" unicode="&#x2085;" horiz-adv-x="360" 
d="M131 -255q-22 0 -49.5 2.5t-55.5 8.5l10 85q23 -5 45.5 -8t39.5 -3q19 0 35.5 3.5t29 12.5t19.5 23.5t7 36.5q0 48 -42 64.5t-133 16.5l32 237h243v-84h-143l-9 -71q30 -1 59.5 -10.5t52.5 -28.5t37.5 -47.5t14.5 -67.5q0 -47 -16.5 -79.5t-43.5 -52.5t-62 -29t-71 -9z
" />
    <glyph glyph-name="uni2086" unicode="&#x2086;" horiz-adv-x="360" 
d="M184 -258q-39 0 -70.5 10t-53 32.5t-33 58t-11.5 87.5q0 46 14.5 92t44 89t72.5 81.5t100 69.5l62 -75q-50 -23 -90.5 -61.5t-63.5 -73.5q19 4 48 4q37 0 63.5 -14t44 -36t26 -49.5t8.5 -54.5q0 -30 -9.5 -59t-29.5 -51.5t-50 -36t-72 -13.5zM182 -36q-17 0 -30.5 -2.5
t-27.5 -7.5v-22q0 -32 4 -52t12 -31t19.5 -15t27.5 -4q28 0 38.5 21t10.5 48q0 65 -54 65z" />
    <glyph glyph-name="uni2087" unicode="&#x2087;" horiz-adv-x="360" 
d="M265 -17q-26 -66 -55 -123.5t-57 -109.5h-121q20 33 39 65t36.5 65.5t34 70.5t32.5 79l41 110h-98l-9 -41h-86v125h335z" />
    <glyph glyph-name="uni2088" unicode="&#x2088;" horiz-adv-x="360" 
d="M178 -258q-36 0 -66.5 10t-52.5 27t-34 40.5t-12 49.5q0 23 13 56t48 58l23 16q-29 23 -46.5 49.5t-17.5 64.5q0 25 12.5 47t33 38t48 25.5t57.5 9.5q27 0 52 -7.5t45 -22t32 -36t12 -50.5q0 -41 -15.5 -65.5t-45.5 -48.5q16 -12 31 -25t27 -28.5t19 -34t7 -40.5
q0 -28 -12.5 -52t-35 -42t-54 -28.5t-68.5 -10.5zM179 -54l-20 -13q-10 -7 -19 -16t-15 -19.5t-6 -23.5q0 -23 15 -35.5t44 -12.5q35 0 50 16t15 33q0 9 -11 26t-32 31zM184 149q-26 0 -37 -10.5t-11 -26.5q0 -17 12 -29.5t35 -26.5q16 12 27.5 24t11.5 35q0 15 -10.5 24.5
t-27.5 9.5z" />
    <glyph glyph-name="uni2089" unicode="&#x2089;" horiz-adv-x="360" 
d="M52 -213q50 24 90.5 62t63.5 73q-20 -4 -48 -4q-37 0 -64 14t-44.5 36.5t-26 49.5t-8.5 54q0 30 9.5 59t29.5 51.5t50.5 36.5t72.5 14q79 0 123.5 -43t44.5 -146q0 -46 -14.5 -92t-44 -89t-73 -81.5t-100.5 -68.5zM174 144q-26 0 -38 -21t-12 -47q0 -66 54 -66
q17 0 31 2.5t27 7.5v22q0 32 -4 52t-11.5 31t-19 15t-27.5 4z" />
    <glyph glyph-name="uni2090" unicode="&#x2090;" horiz-adv-x="368" 
d="M239 -250q-2 10 -4.5 16.5t-3.5 14.5q-15 -15 -40 -27.5t-57 -12.5q-48 0 -78 23t-30 61q0 21 5 40t14 29q7 9 28 17.5t46.5 16.5t52 14.5t44.5 9.5v19q0 24 -6.5 32.5t-34.5 8.5q-17 0 -27 -1.5t-15 -4t-6.5 -6.5t-1.5 -9v-11l-86 -7v13q0 31 7 55q2 6 13.5 13.5
t30 14.5t42.5 11.5t51 4.5q63 0 100 -25t37 -71v-141q0 -26 5.5 -54.5t9.5 -43.5h-96zM216 -113q-25 -5 -43 -10.5t-42 -14.5q-2 -6 -2.5 -9.5t-0.5 -10.5q0 -13 4.5 -20.5t18.5 -7.5q10 0 21 4.5t20 10.5t15.5 11.5t8.5 8.5v38z" />
    <glyph glyph-name="uni2091" unicode="&#x2091;" horiz-adv-x="394" 
d="M138 -102q3 -29 26 -52.5t61 -23.5q28 0 59 11.5t69 39.5l9 -95q-17 -9 -33.5 -16t-35 -11.5t-39.5 -7t-48 -2.5q-38 0 -70.5 12t-56.5 34t-38 53.5t-14 71.5t13.5 72.5t37.5 54.5t56.5 34t71.5 12q46 0 77.5 -11.5t50 -35t26.5 -58.5t8 -82h-230zM272 -39q-1 12 -3.5 21
t-9.5 16t-19.5 10.5t-33.5 3.5q-8 0 -21.5 -3.5t-15.5 -5.5q-20 -17 -28 -42h131z" />
    <glyph glyph-name="uni2092" unicode="&#x2092;" horiz-adv-x="432" 
d="M405 -87q0 -38 -13.5 -69.5t-38.5 -54t-60.5 -35.5t-80.5 -13q-42 0 -76 12t-58 34.5t-37.5 54.5t-13.5 71q0 35 12.5 66.5t37 55t60.5 37t83 13.5q42 0 76 -12.5t58.5 -35t37.5 -54t13 -70.5zM296 -82q-1 34 -19 59.5t-64 25.5q-23 0 -38 -7.5t-23.5 -20t-11.5 -29
t-3 -34.5q0 -17 4 -33.5t13.5 -29t25.5 -20t39 -7.5q22 0 37 8t24 21.5t12.5 31t3.5 35.5z" />
    <glyph glyph-name="colonmonetary" unicode="&#x20a1;" horiz-adv-x="623" 
d="M589 25q-47 -20 -93.5 -27.5t-103.5 -8.5l-13 -86h-58l14 89q-14 2 -28 4.5t-28 6.5l-15 -100h-58l18 121q-41 19 -76 47.5t-61 67t-41 85.5t-15 103q0 64 21.5 121t60.5 102t93 75t118 41l15 92h59l-13 -88h29q14 0 26 -1l14 89h53l-14 -94q26 -5 47.5 -12.5t48.5 -17.5
l-9 -117q-32 16 -56 26t-47 15l-70 -466q19 1 38 3.5t39 7.5t43.5 14.5t52.5 23.5zM308 555q-30 -10 -56.5 -29.5t-46 -47.5t-31 -64.5t-11.5 -80.5q0 -59 21.5 -106.5t59.5 -79.5zM424 566q-10 1 -19.5 1.5t-20.5 0.5q-4 0 -8 -0.5t-8 -0.5l-71 -455q13 -5 26.5 -9.5
t27.5 -7.5z" />
    <glyph glyph-name="Euro" unicode="&#x20ac;" 
d="M489 18q-28 -6 -63.5 -15t-93.5 -9q-49 0 -92.5 11.5t-78 39t-58.5 74t-34 115.5h-58v79h51v13q0 11 0.5 22t0.5 21v14h-52v79h66q9 52 31.5 96t56.5 76t79 49.5t100 17.5q21 0 38 -1t33.5 -3.5t34 -7t39.5 -11.5l-8 -108q-25 9 -42 14.5t-32 8t-31 3.5t-39 1
q-58 0 -87.5 -37.5t-40.5 -97.5h219v-79h-234v-70h234v-79h-225q14 -69 46 -102.5t97 -33.5q25 0 44 2.5t34 6t28.5 8t28.5 8.5z" />
    <glyph glyph-name="afii61289" unicode="&#x2113;" horiz-adv-x="404" 
d="M390 109q-29 -56 -70.5 -88t-98.5 -32q-36 0 -62 7.5t-43 27t-25 54.5t-8 89v68l-50 -35l-13 29l63 48v132q0 51 2.5 87.5t8 63t15 46.5t23.5 38q22 29 48 44t53 15q24 0 42 -10t30 -27.5t18 -41.5t6 -52q0 -41 -9 -76.5t-26.5 -68t-42 -63t-55.5 -61.5v-79
q0 -46 4 -77.5t12.5 -50.5t22.5 -27t34 -8q32 0 55.5 20.5t42.5 47.5zM196 357q31 36 50.5 92.5t19.5 119.5q0 47 -8 73.5t-27 26.5q-11 0 -18 -9t-10.5 -32.5t-5 -64t-1.5 -104.5v-102z" />
    <glyph glyph-name="uni2117" unicode="&#x2117;" horiz-adv-x="1000" 
d="M954 228q0 -93 -35.5 -174t-96.5 -142t-144 -96t-177 -35t-177 35t-144.5 95.5t-97.5 142t-36 173.5q0 93 36 174.5t97.5 142.5t144.5 96t177 35t176.5 -35t144 -96t97 -142t35.5 -174zM851 229q0 72 -27.5 135t-75 110t-111.5 74t-137 27t-137 -27t-111.5 -74t-75 -110
t-27.5 -135t27.5 -135t75 -110.5t111.5 -75t137 -27.5t137 27.5t111.5 74.5t75 110.5t27.5 135.5zM700 295q0 -37 -14.5 -67.5t-38.5 -52t-55 -33.5t-64 -12h-72v-130h-114v447q56 4 98 5.5t81 1.5q40 0 73 -11.5t56.5 -32t36.5 -50t13 -65.5zM577 295q0 34 -20.5 49.5
t-52.5 15.5l-48 -1v-135h38q26 0 42.5 5.5t25.5 15t12 22.5t3 28z" />
    <glyph glyph-name="trademark" unicode="&#x2122;" horiz-adv-x="953" 
d="M788 261l-14 219l-124 -225l-106 216l-16 -210h-113l34 397h102l108 -192l101 192h99l32 -397h-103zM278 563v-302h-115v301h-127v96h368v-95h-126z" />
    <glyph glyph-name="Omega" unicode="&#x2126;" horiz-adv-x="742" 
d="M419 0v75q77 35 117 102.5t40 152.5q0 55 -16.5 99t-44.5 75.5t-65.5 48.5t-78.5 17q-42 0 -79 -16t-65 -46.5t-44.5 -75.5t-16.5 -102q0 -87 38 -154t118 -101v-75h-306v91h133q-22 20 -43.5 45.5t-38 55.5t-26.5 64.5t-10 72.5q0 69 24.5 131t69.5 109.5t107.5 75.5
t138.5 28q75 0 137 -27.5t106.5 -74.5t69 -109.5t24.5 -131.5q0 -38 -9.5 -72.5t-26 -64.5t-38 -55.5t-45.5 -46.5h137v-91h-307z" />
    <glyph glyph-name="estimated" unicode="&#x212e;" horiz-adv-x="821" 
d="M176 319q-5 0 -5 -4v-185q0 -12 8 -22q45 -46 104 -73t128 -27q73 0 135.5 30.5t107.5 81.5h55q-51 -60 -129.5 -95.5t-169.5 -35.5q-78 0 -147 26.5t-120.5 72.5t-81 108t-29.5 132t29.5 132t81 108.5t120.5 73t147 26.5q81 0 150 -27.5t120 -75t79.5 -111t28.5 -135.5
h-612zM649 529q0 14 -9 23q-45 44 -103.5 70t-125.5 26q-68 0 -127 -27t-104 -72q-9 -9 -9 -24v-182q0 -2 1.5 -4t3.5 -2h469q2 0 3 2t1 4v186z" />
    <glyph glyph-name="uni2150" unicode="&#x2150;" horiz-adv-x="920" 
d="M55 341h82v304h-82v85h186v-389h82v-85h-268v85zM276 -51l-72 40l420 755l72 -40zM825 233q-26 -66 -55 -123.5t-57 -109.5h-121q20 33 39 65t36.5 65.5t34 70.5t32.5 79l41 110h-98l-9 -41h-86v125h335z" />
    <glyph glyph-name="uni2151" unicode="&#x2151;" horiz-adv-x="920" 
d="M55 341h82v304h-82v85h186v-389h82v-85h-268v85zM276 -51l-72 40l420 755l72 -40zM612 37q50 24 90.5 62t63.5 73q-20 -4 -48 -4q-37 0 -64 14t-44.5 36.5t-26 49.5t-8.5 54q0 30 9.5 59t29.5 51.5t50.5 36.5t72.5 14q79 0 123.5 -43t44.5 -146q0 -46 -14.5 -92t-44 -89
t-73 -81.5t-100.5 -68.5zM734 394q-26 0 -38 -21t-12 -47q0 -66 54 -66q17 0 31 2.5t27 7.5v22q0 32 -4 52t-11.5 31t-19 15t-27.5 4z" />
    <glyph glyph-name="uni2152" unicode="&#x2152;" horiz-adv-x="1280" 
d="M55 341h82v304h-82v85h186v-389h82v-85h-268v85zM276 -51l-72 40l420 755l72 -40zM615 85h82v304h-82v85h186v-389h82v-85h-268v85zM1100 -8q-44 0 -74.5 21.5t-50.5 56t-29 78.5t-9 89q0 46 9 90t29 78.5t50.5 56t74.5 21.5q43 0 73.5 -21.5t50.5 -56t29.5 -78.5
t9.5 -90q0 -45 -9.5 -89t-29.5 -78.5t-50.5 -56t-73.5 -21.5zM1100 395q-23 0 -38.5 -41.5t-15.5 -116.5t15.5 -116t38.5 -41t38.5 41t15.5 116t-15.5 116.5t-38.5 41.5z" />
    <glyph glyph-name="onethird" unicode="&#x2153;" horiz-adv-x="920" 
d="M55 341h82v304h-82v85h186v-389h82v-85h-268v85zM276 -51l-72 40l420 755l72 -40zM688 -6q-24 0 -48 3t-51 9l10 86q17 -4 42.5 -8t50.5 -4q33 0 58.5 12.5t25.5 47.5q0 29 -24.5 45.5t-61.5 16.5h-55v78q69 4 98 22.5t29 44.5q0 8 -2.5 17t-9 16.5t-18 12t-28.5 4.5
q-14 0 -38.5 -4.5t-65.5 -22.5l-10 89l35 10q15 5 28.5 8.5t29 5t37.5 1.5q68 0 107 -32.5t39 -88.5q0 -42 -15.5 -64.5t-39.5 -38.5q31 -14 53.5 -44.5t22.5 -72.5q0 -43 -18 -71.5t-46.5 -46t-64 -24.5t-70.5 -7z" />
    <glyph glyph-name="twothirds" unicode="&#x2154;" horiz-adv-x="920" 
d="M9 307q40 45 78 83t68 74t47 68.5t17 66.5q0 31 -14.5 42.5t-42.5 11.5q-19 0 -48.5 -9t-76.5 -34l-10 95q37 17 69.5 25.5t74.5 8.5q20 0 46.5 -4.5t50.5 -19t40.5 -40.5t16.5 -68q0 -35 -9 -64.5t-24 -56t-35 -51t-42 -49.5q-9 -11 -19.5 -22t-21.5 -23h169v-85h-334
v51zM276 -51l-72 40l420 755l72 -40zM688 -6q-24 0 -48 3t-51 9l10 86q17 -4 42.5 -8t50.5 -4q33 0 58.5 12.5t25.5 47.5q0 29 -24.5 45.5t-61.5 16.5h-55v78q69 4 98 22.5t29 44.5q0 8 -2.5 17t-9 16.5t-18 12t-28.5 4.5q-14 0 -38.5 -4.5t-65.5 -22.5l-10 89l35 10
q15 5 28.5 8.5t29 5t37.5 1.5q68 0 107 -32.5t39 -88.5q0 -42 -15.5 -64.5t-39.5 -38.5q31 -14 53.5 -44.5t22.5 -72.5q0 -43 -18 -71.5t-46.5 -46t-64 -24.5t-70.5 -7z" />
    <glyph glyph-name="uni2155" unicode="&#x2155;" horiz-adv-x="920" 
d="M55 341h82v304h-82v85h186v-389h82v-85h-268v85zM276 -51l-72 40l420 755l72 -40zM691 -5q-22 0 -49.5 2.5t-55.5 8.5l10 85q23 -5 45.5 -8t39.5 -3q19 0 35.5 3.5t29 12.5t19.5 23.5t7 36.5q0 48 -42 64.5t-133 16.5l32 237h243v-84h-143l-9 -71q30 -1 59.5 -10.5
t52.5 -28.5t37.5 -47.5t14.5 -67.5q0 -47 -16.5 -79.5t-43.5 -52.5t-62 -29t-71 -9z" />
    <glyph glyph-name="uni2156" unicode="&#x2156;" horiz-adv-x="920" 
d="M9 307q40 45 78 83t68 74t47 68.5t17 66.5q0 31 -14.5 42.5t-42.5 11.5q-19 0 -48.5 -9t-76.5 -34l-10 95q37 17 69.5 25.5t74.5 8.5q20 0 46.5 -4.5t50.5 -19t40.5 -40.5t16.5 -68q0 -35 -9 -64.5t-24 -56t-35 -51t-42 -49.5q-9 -11 -19.5 -22t-21.5 -23h169v-85h-334
v51zM276 -51l-72 40l420 755l72 -40zM691 -5q-22 0 -49.5 2.5t-55.5 8.5l10 85q23 -5 45.5 -8t39.5 -3q19 0 35.5 3.5t29 12.5t19.5 23.5t7 36.5q0 48 -42 64.5t-133 16.5l32 237h243v-84h-143l-9 -71q30 -1 59.5 -10.5t52.5 -28.5t37.5 -47.5t14.5 -67.5q0 -47 -16.5 -79.5
t-43.5 -52.5t-62 -29t-71 -9z" />
    <glyph glyph-name="uni2157" unicode="&#x2157;" horiz-adv-x="920" 
d="M128 250q-24 0 -48 3t-51 9l10 86q17 -4 42.5 -8t50.5 -4q33 0 58.5 12.5t25.5 47.5q0 29 -24.5 45.5t-61.5 16.5h-55v78q69 4 98 22.5t29 44.5q0 8 -2.5 17t-9 16.5t-18 12t-28.5 4.5q-14 0 -38.5 -4.5t-65.5 -22.5l-10 89l35 10q15 5 28.5 8.5t29 5t37.5 1.5
q68 0 107 -32.5t39 -88.5q0 -42 -15.5 -64.5t-39.5 -38.5q31 -14 53.5 -44.5t22.5 -72.5q0 -43 -18 -71.5t-46.5 -46t-64 -24.5t-70.5 -7zM276 -51l-72 40l420 755l72 -40zM691 -5q-22 0 -49.5 2.5t-55.5 8.5l10 85q23 -5 45.5 -8t39.5 -3q19 0 35.5 3.5t29 12.5t19.5 23.5
t7 36.5q0 48 -42 64.5t-133 16.5l32 237h243v-84h-143l-9 -71q30 -1 59.5 -10.5t52.5 -28.5t37.5 -47.5t14.5 -67.5q0 -47 -16.5 -79.5t-43.5 -52.5t-62 -29t-71 -9z" />
    <glyph glyph-name="uni2158" unicode="&#x2158;" horiz-adv-x="920" 
d="M286 256h-102v128h-178v65q44 79 96 151.5t112 139.5h72v-271h65v-85h-65v-128zM184 559q-32 -44 -57 -90h57v90zM276 -51l-72 40l420 755l72 -40zM691 -5q-22 0 -49.5 2.5t-55.5 8.5l10 85q23 -5 45.5 -8t39.5 -3q19 0 35.5 3.5t29 12.5t19.5 23.5t7 36.5q0 48 -42 64.5
t-133 16.5l32 237h243v-84h-143l-9 -71q30 -1 59.5 -10.5t52.5 -28.5t37.5 -47.5t14.5 -67.5q0 -47 -16.5 -79.5t-43.5 -52.5t-62 -29t-71 -9z" />
    <glyph glyph-name="uni2159" unicode="&#x2159;" horiz-adv-x="920" 
d="M55 341h82v304h-82v85h186v-389h82v-85h-268v85zM276 -51l-72 40l420 755l72 -40zM744 -8q-39 0 -70.5 10t-53 32.5t-33 58t-11.5 87.5q0 46 14.5 92t44 89t72.5 81.5t100 69.5l62 -75q-50 -23 -90.5 -61.5t-63.5 -73.5q19 4 48 4q37 0 63.5 -14t44 -36t26 -49.5
t8.5 -54.5q0 -30 -9.5 -59t-29.5 -51.5t-50 -36t-72 -13.5zM742 214q-17 0 -30.5 -2.5t-27.5 -7.5v-22q0 -32 4 -52t12 -31t19.5 -15t27.5 -4q28 0 38.5 21t10.5 48q0 65 -54 65z" />
    <glyph glyph-name="uni215A" unicode="&#x215a;" horiz-adv-x="920" 
d="M131 251q-22 0 -49.5 2.5t-55.5 8.5l10 85q23 -5 45.5 -8t39.5 -3q19 0 35.5 3.5t29 12.5t19.5 23.5t7 36.5q0 48 -42 64.5t-133 16.5l32 237h243v-84h-143l-9 -71q30 -1 59.5 -10.5t52.5 -28.5t37.5 -47.5t14.5 -67.5q0 -47 -16.5 -79.5t-43.5 -52.5t-62 -29t-71 -9z
M276 -51l-72 40l420 755l72 -40zM744 -8q-39 0 -70.5 10t-53 32.5t-33 58t-11.5 87.5q0 46 14.5 92t44 89t72.5 81.5t100 69.5l62 -75q-50 -23 -90.5 -61.5t-63.5 -73.5q19 4 48 4q37 0 63.5 -14t44 -36t26 -49.5t8.5 -54.5q0 -30 -9.5 -59t-29.5 -51.5t-50 -36t-72 -13.5z
M742 214q-17 0 -30.5 -2.5t-27.5 -7.5v-22q0 -32 4 -52t12 -31t19.5 -15t27.5 -4q28 0 38.5 21t10.5 48q0 65 -54 65z" />
    <glyph glyph-name="oneeighth" unicode="&#x215b;" horiz-adv-x="920" 
d="M55 341h82v304h-82v85h186v-389h82v-85h-268v85zM276 -51l-72 40l420 755l72 -40zM738 -8q-36 0 -66.5 10t-52.5 27t-34 40.5t-12 49.5q0 23 13 56t48 58l23 16q-29 23 -46.5 49.5t-17.5 64.5q0 25 12.5 47t33 38t48 25.5t57.5 9.5q27 0 52 -7.5t45 -22t32 -36t12 -50.5
q0 -41 -15.5 -65.5t-45.5 -48.5q16 -12 31 -25t27 -28.5t19 -34t7 -40.5q0 -28 -12.5 -52t-35 -42t-54 -28.5t-68.5 -10.5zM739 196l-20 -13q-10 -7 -19 -16t-15 -19.5t-6 -23.5q0 -23 15 -35.5t44 -12.5q35 0 50 16t15 33q0 9 -11 26t-32 31zM744 399q-26 0 -37 -10.5
t-11 -26.5q0 -17 12 -29.5t35 -26.5q16 12 27.5 24t11.5 35q0 15 -10.5 24.5t-27.5 9.5z" />
    <glyph glyph-name="threeeighths" unicode="&#x215c;" horiz-adv-x="920" 
d="M128 250q-24 0 -48 3t-51 9l10 86q17 -4 42.5 -8t50.5 -4q33 0 58.5 12.5t25.5 47.5q0 29 -24.5 45.5t-61.5 16.5h-55v78q69 4 98 22.5t29 44.5q0 8 -2.5 17t-9 16.5t-18 12t-28.5 4.5q-14 0 -38.5 -4.5t-65.5 -22.5l-10 89l35 10q15 5 28.5 8.5t29 5t37.5 1.5
q68 0 107 -32.5t39 -88.5q0 -42 -15.5 -64.5t-39.5 -38.5q31 -14 53.5 -44.5t22.5 -72.5q0 -43 -18 -71.5t-46.5 -46t-64 -24.5t-70.5 -7zM276 -51l-72 40l420 755l72 -40zM738 -8q-36 0 -66.5 10t-52.5 27t-34 40.5t-12 49.5q0 23 13 56t48 58l23 16q-29 23 -46.5 49.5
t-17.5 64.5q0 25 12.5 47t33 38t48 25.5t57.5 9.5q27 0 52 -7.5t45 -22t32 -36t12 -50.5q0 -41 -15.5 -65.5t-45.5 -48.5q16 -12 31 -25t27 -28.5t19 -34t7 -40.5q0 -28 -12.5 -52t-35 -42t-54 -28.5t-68.5 -10.5zM739 196l-20 -13q-10 -7 -19 -16t-15 -19.5t-6 -23.5
q0 -23 15 -35.5t44 -12.5q35 0 50 16t15 33q0 9 -11 26t-32 31zM744 399q-26 0 -37 -10.5t-11 -26.5q0 -17 12 -29.5t35 -26.5q16 12 27.5 24t11.5 35q0 15 -10.5 24.5t-27.5 9.5z" />
    <glyph glyph-name="fiveeighths" unicode="&#x215d;" horiz-adv-x="920" 
d="M131 251q-22 0 -49.5 2.5t-55.5 8.5l10 85q23 -5 45.5 -8t39.5 -3q19 0 35.5 3.5t29 12.5t19.5 23.5t7 36.5q0 48 -42 64.5t-133 16.5l32 237h243v-84h-143l-9 -71q30 -1 59.5 -10.5t52.5 -28.5t37.5 -47.5t14.5 -67.5q0 -47 -16.5 -79.5t-43.5 -52.5t-62 -29t-71 -9z
M276 -51l-72 40l420 755l72 -40zM738 -8q-36 0 -66.5 10t-52.5 27t-34 40.5t-12 49.5q0 23 13 56t48 58l23 16q-29 23 -46.5 49.5t-17.5 64.5q0 25 12.5 47t33 38t48 25.5t57.5 9.5q27 0 52 -7.5t45 -22t32 -36t12 -50.5q0 -41 -15.5 -65.5t-45.5 -48.5q16 -12 31 -25
t27 -28.5t19 -34t7 -40.5q0 -28 -12.5 -52t-35 -42t-54 -28.5t-68.5 -10.5zM739 196l-20 -13q-10 -7 -19 -16t-15 -19.5t-6 -23.5q0 -23 15 -35.5t44 -12.5q35 0 50 16t15 33q0 9 -11 26t-32 31zM744 399q-26 0 -37 -10.5t-11 -26.5q0 -17 12 -29.5t35 -26.5q16 12 27.5 24
t11.5 35q0 15 -10.5 24.5t-27.5 9.5z" />
    <glyph glyph-name="seveneighths" unicode="&#x215e;" horiz-adv-x="920" 
d="M265 489q-26 -66 -55 -123.5t-57 -109.5h-121q20 33 39 65t36.5 65.5t34 70.5t32.5 79l41 110h-98l-9 -41h-86v125h335zM276 -51l-72 40l420 755l72 -40zM738 -8q-36 0 -66.5 10t-52.5 27t-34 40.5t-12 49.5q0 23 13 56t48 58l23 16q-29 23 -46.5 49.5t-17.5 64.5
q0 25 12.5 47t33 38t48 25.5t57.5 9.5q27 0 52 -7.5t45 -22t32 -36t12 -50.5q0 -41 -15.5 -65.5t-45.5 -48.5q16 -12 31 -25t27 -28.5t19 -34t7 -40.5q0 -28 -12.5 -52t-35 -42t-54 -28.5t-68.5 -10.5zM739 196l-20 -13q-10 -7 -19 -16t-15 -19.5t-6 -23.5q0 -23 15 -35.5
t44 -12.5q35 0 50 16t15 33q0 9 -11 26t-32 31zM744 399q-26 0 -37 -10.5t-11 -26.5q0 -17 12 -29.5t35 -26.5q16 12 27.5 24t11.5 35q0 15 -10.5 24.5t-27.5 9.5z" />
    <glyph glyph-name="uni215F" unicode="&#x215f;" horiz-adv-x="560" 
d="M55 341h82v304h-82v85h186v-389h82v-85h-268v85zM276 -51l-72 40l420 755l72 -40z" />
    <glyph glyph-name="uni2189" unicode="&#x2189;" horiz-adv-x="920" 
d="M180 248q-44 0 -74.5 21.5t-50.5 56t-29 78.5t-9 89q0 46 9 90t29 78.5t50.5 56t74.5 21.5q43 0 73.5 -21.5t50.5 -56t29.5 -78.5t9.5 -90q0 -45 -9.5 -89t-29.5 -78.5t-50.5 -56t-73.5 -21.5zM180 651q-23 0 -38.5 -41.5t-15.5 -116.5t15.5 -116t38.5 -41t38.5 41
t15.5 116t-15.5 116.5t-38.5 41.5zM276 -51l-72 40l420 755l72 -40zM688 -6q-24 0 -48 3t-51 9l10 86q17 -4 42.5 -8t50.5 -4q33 0 58.5 12.5t25.5 47.5q0 29 -24.5 45.5t-61.5 16.5h-55v78q69 4 98 22.5t29 44.5q0 8 -2.5 17t-9 16.5t-18 12t-28.5 4.5q-14 0 -38.5 -4.5
t-65.5 -22.5l-10 89l35 10q15 5 28.5 8.5t29 5t37.5 1.5q68 0 107 -32.5t39 -88.5q0 -42 -15.5 -64.5t-39.5 -38.5q31 -14 53.5 -44.5t22.5 -72.5q0 -43 -18 -71.5t-46.5 -46t-64 -24.5t-70.5 -7z" />
    <glyph glyph-name="arrowleft" unicode="&#x2190;" horiz-adv-x="596" 
d="M169 183l146 -147l-62 -61l-253 252l251 252l63 -61l-145 -145h417v-90h-417z" />
    <glyph glyph-name="arrowup" unicode="&#x2191;" horiz-adv-x="596" 
d="M496 209l-143 145v-419h-90v419l-147 -147l-62 62l252 254l253 -252z" />
    <glyph glyph-name="arrowright" unicode="&#x2192;" horiz-adv-x="596" 
d="M345 -25l-63 61l146 145h-418v90h418l-147 146l63 62l252 -253z" />
    <glyph glyph-name="arrowdown" unicode="&#x2193;" horiz-adv-x="596" 
d="M306 -69l-252 251l62 63l144 -145v419h90v-419l146 146l63 -61z" />
    <glyph glyph-name="uni2196" unicode="&#x2196;" horiz-adv-x="596" 
d="M465 5l-296 295v-206h-88v357h357v-87h-206l297 -295z" />
    <glyph glyph-name="uni2197" unicode="&#x2197;" horiz-adv-x="596" 
d="M428 95v205l-295 -295l-64 64l296 295h-208v87h358v-356h-87z" />
    <glyph glyph-name="uni2198" unicode="&#x2198;" horiz-adv-x="596" 
d="M159 0v87h205l-297 295l64 64l296 -295v207h88v-358h-356z" />
    <glyph glyph-name="uni2199" unicode="&#x2199;" horiz-adv-x="596" 
d="M231 88h208v-88h-358v356h88v-205l295 295l64 -63z" />
    <glyph glyph-name="partialdiff" unicode="&#x2202;" horiz-adv-x="499" 
d="M479 294q0 -83 -18 -140.5t-49.5 -94.5t-75 -53.5t-94.5 -16.5q-53 0 -92.5 20.5t-66.5 54.5t-40.5 78t-13.5 92q0 44 14 86.5t40.5 75.5t63 53.5t81.5 20.5q52 0 94 -11q-11 20 -34.5 35.5t-47 32t-41 37t-17.5 50.5q0 45 22.5 70.5t55.5 38t71 15t70 2.5l6 -85
q-15 0 -31 -2t-29 -7.5t-21.5 -14.5t-8.5 -23t12 -27.5t30 -29.5t39 -37t39 -51t30 -71.5t12 -97.5zM352 287q0 13 -0.5 21t-2 15t-3 14.5t-3.5 18.5q-17 6 -35 9.5t-55 3.5q-22 0 -40 -10.5t-30.5 -28.5t-19 -41t-6.5 -48q0 -29 5.5 -55.5t17.5 -46t29.5 -31t41.5 -11.5
q30 0 49.5 9t31 30.5t16 58t4.5 92.5z" />
    <glyph glyph-name="Delta" unicode="&#x2206;" horiz-adv-x="736" 
d="M-8 0l370 685l371 -685h-741zM359 463l-191 -362h376z" />
    <glyph glyph-name="product" unicode="&#x220f;" horiz-adv-x="767" 
d="M646 557v-731h-120v725h-286v-725h-119v731h-110v102h745v-102h-110z" />
    <glyph glyph-name="summation" unicode="&#x2211;" horiz-adv-x="595" 
d="M212 555l157 -299l-186 -325h369v-103h-524v66l211 351l-199 355v59h514v-104h-342z" />
    <glyph glyph-name="minus" unicode="&#x2212;" 
d="M22 180v90h456v-90h-456z" />
    <glyph glyph-name="uni2219" unicode="&#x2219;" 
d="M430 221q0 -38 -14 -70.5t-38.5 -57t-57.5 -38.5t-70 -14q-38 0 -70.5 14t-57.5 38.5t-39 57t-14 70.5q0 37 14 70t38.5 57.5t57.5 38.5t70 14t70 -14t58 -38.5t39 -57.5t14 -70z" />
    <glyph glyph-name="radical" unicode="&#x221a;" horiz-adv-x="570" 
d="M299 -20h-34l-158 404l-64 -23l-23 68l158 57l106 -272l188 526h98z" />
    <glyph glyph-name="infinity" unicode="&#x221e;" horiz-adv-x="856" 
d="M812 219q0 -45 -13.5 -81t-37.5 -61t-56.5 -38.5t-70.5 -13.5q-39 0 -69 12t-54 31t-44.5 43t-41.5 47l-60 -65q-36 -40 -79 -54.5t-75 -14.5q-36 0 -66.5 12.5t-53 36.5t-35.5 58.5t-13 77.5q0 45 13.5 81t37.5 61t57 38.5t71 13.5q39 0 69 -12t54 -31.5t44.5 -43
t41.5 -46.5l60 66q35 39 78 53.5t75 14.5q36 0 66.5 -12.5t53 -36.5t35.5 -58.5t13 -77.5zM746 217q0 49 -25.5 80.5t-84.5 31.5q-39 0 -62 -14.5t-44 -35.5l-58 -61l44 -49q27 -29 58 -49t61 -20q47 0 79 29t32 88zM340 259q-28 30 -59 49.5t-60 19.5q-48 0 -80 -29
t-32 -89q0 -49 26 -80t85 -31q38 0 61.5 14t43.5 36l59 61z" />
    <glyph glyph-name="integral" unicode="&#x222b;" horiz-adv-x="251" 
d="M394 619q-20 10 -38.5 17t-47.5 7q-25 0 -42 -2.5t-21 -5.5q-3 -2 -10 -9t-14.5 -26.5t-13 -56t-5.5 -97.5q0 -64 -0.5 -112.5t-0.5 -94.5t-0.5 -96.5t-0.5 -117.5q0 -87 -14 -143t-42.5 -88.5t-71 -45.5t-98.5 -13q-29 0 -53.5 6t-44.5 14l12 104q10 -5 18.5 -9.5
t17.5 -7.5t21 -5t29 -2q34 0 49 4.5t19 6.5q3 2 9 11t12.5 30t11.5 56t5 88v421q0 87 15 143.5t43.5 89t69.5 45.5t94 13q29 0 56.5 -5.5t47.5 -13.5z" />
    <glyph glyph-name="approxequal" unicode="&#x2248;" 
d="M493 314q-36 -26 -76.5 -44.5t-80.5 -18.5q-25 0 -48 9t-45 20t-43.5 20t-43.5 9q-28 0 -56 -15t-47 -32l-46 74q15 12 34 23t39 20t41 14.5t40 5.5q26 0 49.5 -9t46 -20t44.5 -20t44 -9q26 0 53.5 14.5t48.5 32.5zM493 114q-15 -11 -33.5 -22t-39 -20t-42 -15t-42.5 -6
q-25 0 -48 9t-45 20t-43.5 20t-43.5 9q-26 0 -55 -15t-48 -32l-46 74q15 11 34 22.5t39 20.5t41 14.5t40 5.5q26 0 49.5 -9t46 -20t44.5 -20t44 -9q26 0 53 14t49 33z" />
    <glyph glyph-name="notequal" unicode="&#x2260;" 
d="M203 80l-64 -111l-54 31l46 80h-109v90h160l64 110h-224v90h275l65 111l54 -31l-46 -80h108v-90h-159l-64 -110h223v-90h-275z" />
    <glyph glyph-name="lessequal" unicode="&#x2264;" 
d="M22 262v82l456 160v-100l-308 -99l308 -99v-102zM22 0v90h456v-90h-456z" />
    <glyph glyph-name="greaterequal" unicode="&#x2265;" 
d="M22 104v102l308 99l-308 99v100l456 -160v-81zM22 0v90h456v-90h-456z" />
    <glyph glyph-name="dotmath" unicode="&#x22c5;" 
d="M341 229q0 -38 -26.5 -64t-64.5 -26q-19 0 -35.5 7t-29 19t-19.5 28.5t-7 35.5q0 38 26 64.5t64 26.5q19 0 36 -7t29.5 -19.5t19.5 -29t7 -35.5z" />
    <glyph glyph-name="uni2460" unicode="&#x2460;" horiz-adv-x="1000" 
d="M948 229q0 -92 -35 -173.5t-95.5 -142.5t-142 -96t-174.5 -35t-174.5 35t-142.5 96t-96.5 142t-35.5 174t35.5 174t96.5 142t142.5 96t174.5 35t174.5 -35t142 -96t95.5 -142t35 -174zM855 228q0 74 -28 139.5t-76 115t-113 78.5t-138 29q-74 0 -138.5 -29t-112.5 -78.5
t-76 -115t-28 -139.5t28 -139.5t76 -114t112.5 -77t138.5 -28.5q73 0 138 28.5t113 77t76 114t28 139.5zM491 -8q-44 0 -74.5 21.5t-50.5 56t-29 78.5t-9 89q0 46 9 90t29 78.5t50.5 56t74.5 21.5q43 0 73.5 -21.5t50.5 -56t29.5 -78.5t9.5 -90q0 -45 -9.5 -89t-29.5 -78.5
t-50.5 -56t-73.5 -21.5zM491 395q-23 0 -38.5 -41.5t-15.5 -116.5t15.5 -116t38.5 -41t38.5 41t15.5 116t-15.5 116.5t-38.5 41.5z" />
    <glyph glyph-name="uni2461" unicode="&#x2461;" horiz-adv-x="1000" 
d="M948 229q0 -92 -35 -173.5t-95.5 -142.5t-142 -96t-174.5 -35t-174.5 35t-142.5 96t-96.5 142t-35.5 174t35.5 174t96.5 142t142.5 96t174.5 35t174.5 -35t142 -96t95.5 -142t35 -174zM855 228q0 74 -28 139.5t-76 115t-113 78.5t-138 29q-74 0 -138.5 -29t-112.5 -78.5
t-76 -115t-28 -139.5t28 -139.5t76 -114t112.5 -77t138.5 -28.5q73 0 138 28.5t113 77t76 114t28 139.5zM366 85h82v304h-82v85h186v-389h82v-85h-268v85z" />
    <glyph glyph-name="uni2462" unicode="&#x2462;" horiz-adv-x="1000" 
d="M948 229q0 -92 -35 -173.5t-95.5 -142.5t-142 -96t-174.5 -35t-174.5 35t-142.5 96t-96.5 142t-35.5 174t35.5 174t96.5 142t142.5 96t174.5 35t174.5 -35t142 -96t95.5 -142t35 -174zM855 228q0 74 -28 139.5t-76 115t-113 78.5t-138 29q-74 0 -138.5 -29t-112.5 -78.5
t-76 -115t-28 -139.5t28 -139.5t76 -114t112.5 -77t138.5 -28.5q73 0 138 28.5t113 77t76 114t28 139.5zM320 51q40 45 78 83t68 74t47 68.5t17 66.5q0 31 -14.5 42.5t-42.5 11.5q-19 0 -48.5 -9t-76.5 -34l-10 95q37 17 69.5 25.5t74.5 8.5q20 0 46.5 -4.5t50.5 -19
t40.5 -40.5t16.5 -68q0 -35 -9 -64.5t-24 -56t-35 -51t-42 -49.5q-9 -11 -19.5 -22t-21.5 -23h169v-85h-334v51z" />
    <glyph glyph-name="uni2463" unicode="&#x2463;" horiz-adv-x="1000" 
d="M948 229q0 -92 -35 -173.5t-95.5 -142.5t-142 -96t-174.5 -35t-174.5 35t-142.5 96t-96.5 142t-35.5 174t35.5 174t96.5 142t142.5 96t174.5 35t174.5 -35t142 -96t95.5 -142t35 -174zM855 228q0 74 -28 139.5t-76 115t-113 78.5t-138 29q-74 0 -138.5 -29t-112.5 -78.5
t-76 -115t-28 -139.5t28 -139.5t76 -114t112.5 -77t138.5 -28.5q73 0 138 28.5t113 77t76 114t28 139.5zM439 -6q-24 0 -48 3t-51 9l10 86q17 -4 42.5 -8t50.5 -4q33 0 58.5 12.5t25.5 47.5q0 29 -24.5 45.5t-61.5 16.5h-55v78q69 4 98 22.5t29 44.5q0 8 -2.5 17t-9 16.5
t-18 12t-28.5 4.5q-14 0 -38.5 -4.5t-65.5 -22.5l-10 89l35 10q15 5 28.5 8.5t29 5t37.5 1.5q68 0 107 -32.5t39 -88.5q0 -42 -15.5 -64.5t-39.5 -38.5q31 -14 53.5 -44.5t22.5 -72.5q0 -43 -18 -71.5t-46.5 -46t-64 -24.5t-70.5 -7z" />
    <glyph glyph-name="uni2464" unicode="&#x2464;" horiz-adv-x="1000" 
d="M948 229q0 -92 -35 -173.5t-95.5 -142.5t-142 -96t-174.5 -35t-174.5 35t-142.5 96t-96.5 142t-35.5 174t35.5 174t96.5 142t142.5 96t174.5 35t174.5 -35t142 -96t95.5 -142t35 -174zM855 228q0 74 -28 139.5t-76 115t-113 78.5t-138 29q-74 0 -138.5 -29t-112.5 -78.5
t-76 -115t-28 -139.5t28 -139.5t76 -114t112.5 -77t138.5 -28.5q73 0 138 28.5t113 77t76 114t28 139.5zM597 0h-102v128h-178v65q44 79 96 151.5t112 139.5h72v-271h65v-85h-65v-128zM495 303q-32 -44 -57 -90h57v90z" />
    <glyph glyph-name="uni2465" unicode="&#x2465;" horiz-adv-x="1000" 
d="M948 229q0 -92 -35 -173.5t-95.5 -142.5t-142 -96t-174.5 -35t-174.5 35t-142.5 96t-96.5 142t-35.5 174t35.5 174t96.5 142t142.5 96t174.5 35t174.5 -35t142 -96t95.5 -142t35 -174zM855 228q0 74 -28 139.5t-76 115t-113 78.5t-138 29q-74 0 -138.5 -29t-112.5 -78.5
t-76 -115t-28 -139.5t28 -139.5t76 -114t112.5 -77t138.5 -28.5q73 0 138 28.5t113 77t76 114t28 139.5zM442 -5q-22 0 -49.5 2.5t-55.5 8.5l10 85q23 -5 45.5 -8t39.5 -3q19 0 35.5 3.5t29 12.5t19.5 23.5t7 36.5q0 48 -42 64.5t-133 16.5l32 237h243v-84h-143l-9 -71
q30 -1 59.5 -10.5t52.5 -28.5t37.5 -47.5t14.5 -67.5q0 -47 -16.5 -79.5t-43.5 -52.5t-62 -29t-71 -9z" />
    <glyph glyph-name="uni2466" unicode="&#x2466;" horiz-adv-x="1000" 
d="M948 229q0 -92 -35 -173.5t-95.5 -142.5t-142 -96t-174.5 -35t-174.5 35t-142.5 96t-96.5 142t-35.5 174t35.5 174t96.5 142t142.5 96t174.5 35t174.5 -35t142 -96t95.5 -142t35 -174zM855 228q0 74 -28 139.5t-76 115t-113 78.5t-138 29q-74 0 -138.5 -29t-112.5 -78.5
t-76 -115t-28 -139.5t28 -139.5t76 -114t112.5 -77t138.5 -28.5q73 0 138 28.5t113 77t76 114t28 139.5zM495 -8q-39 0 -70.5 10t-53 32.5t-33 58t-11.5 87.5q0 46 14.5 92t44 89t72.5 81.5t100 69.5l62 -75q-50 -23 -90.5 -61.5t-63.5 -73.5q19 4 48 4q37 0 63.5 -14
t44 -36t26 -49.5t8.5 -54.5q0 -30 -9.5 -59t-29.5 -51.5t-50 -36t-72 -13.5zM493 214q-17 0 -30.5 -2.5t-27.5 -7.5v-22q0 -32 4 -52t12 -31t19.5 -15t27.5 -4q28 0 38.5 21t10.5 48q0 65 -54 65z" />
    <glyph glyph-name="uni2467" unicode="&#x2467;" horiz-adv-x="1000" 
d="M948 229q0 -92 -35 -173.5t-95.5 -142.5t-142 -96t-174.5 -35t-174.5 35t-142.5 96t-96.5 142t-35.5 174t35.5 174t96.5 142t142.5 96t174.5 35t174.5 -35t142 -96t95.5 -142t35 -174zM855 228q0 74 -28 139.5t-76 115t-113 78.5t-138 29q-74 0 -138.5 -29t-112.5 -78.5
t-76 -115t-28 -139.5t28 -139.5t76 -114t112.5 -77t138.5 -28.5q73 0 138 28.5t113 77t76 114t28 139.5zM576 233q-26 -66 -55 -123.5t-57 -109.5h-121q20 33 39 65t36.5 65.5t34 70.5t32.5 79l41 110h-98l-9 -41h-86v125h335z" />
    <glyph glyph-name="uni2468" unicode="&#x2468;" horiz-adv-x="1000" 
d="M948 229q0 -92 -35 -173.5t-95.5 -142.5t-142 -96t-174.5 -35t-174.5 35t-142.5 96t-96.5 142t-35.5 174t35.5 174t96.5 142t142.5 96t174.5 35t174.5 -35t142 -96t95.5 -142t35 -174zM855 228q0 74 -28 139.5t-76 115t-113 78.5t-138 29q-74 0 -138.5 -29t-112.5 -78.5
t-76 -115t-28 -139.5t28 -139.5t76 -114t112.5 -77t138.5 -28.5q73 0 138 28.5t113 77t76 114t28 139.5zM489 -8q-36 0 -66.5 10t-52.5 27t-34 40.5t-12 49.5q0 23 13 56t48 58l23 16q-29 23 -46.5 49.5t-17.5 64.5q0 25 12.5 47t33 38t48 25.5t57.5 9.5q27 0 52 -7.5
t45 -22t32 -36t12 -50.5q0 -41 -15.5 -65.5t-45.5 -48.5q16 -12 31 -25t27 -28.5t19 -34t7 -40.5q0 -28 -12.5 -52t-35 -42t-54 -28.5t-68.5 -10.5zM490 196l-20 -13q-10 -7 -19 -16t-15 -19.5t-6 -23.5q0 -23 15 -35.5t44 -12.5q35 0 50 16t15 33q0 9 -11 26t-32 31z
M495 399q-26 0 -37 -10.5t-11 -26.5q0 -17 12 -29.5t35 -26.5q16 12 27.5 24t11.5 35q0 15 -10.5 24.5t-27.5 9.5z" />
    <glyph glyph-name="uni2469" unicode="&#x2469;" horiz-adv-x="1000" 
d="M948 229q0 -92 -35 -173.5t-95.5 -142.5t-142 -96t-174.5 -35t-174.5 35t-142.5 96t-96.5 142t-35.5 174t35.5 174t96.5 142t142.5 96t174.5 35t174.5 -35t142 -96t95.5 -142t35 -174zM855 228q0 74 -28 139.5t-76 115t-113 78.5t-138 29q-74 0 -138.5 -29t-112.5 -78.5
t-76 -115t-28 -139.5t28 -139.5t76 -114t112.5 -77t138.5 -28.5q73 0 138 28.5t113 77t76 114t28 139.5zM363 37q50 24 90.5 62t63.5 73q-20 -4 -48 -4q-37 0 -64 14t-44.5 36.5t-26 49.5t-8.5 54q0 30 9.5 59t29.5 51.5t50.5 36.5t72.5 14q79 0 123.5 -43t44.5 -146
q0 -46 -14.5 -92t-44 -89t-73 -81.5t-100.5 -68.5zM485 394q-26 0 -38 -21t-12 -47q0 -66 54 -66q17 0 31 2.5t27 7.5v22q0 32 -4 52t-11.5 31t-19 15t-27.5 4z" />
    <glyph glyph-name="uni246A" unicode="&#x246a;" horiz-adv-x="1200" 
d="M1148 229q0 -90 -34 -170t-92.5 -140t-137.5 -96.5t-169 -39.5q-9 0 -27.5 -1t-37.5 -1.5t-35 -1t-21 -0.5q-21 0 -45.5 1t-64.5 3q-90 4 -169 40.5t-137.5 96.5t-92 139.5t-33.5 169.5t33.5 170t92 140t137.5 96.5t169 40.5q47 2 72.5 3t45.5 1t45.5 -1t72.5 -3
q90 -5 168 -41.5t135.5 -96.5t91 -139.5t33.5 -169.5zM1055 228q0 72 -26.5 136.5t-73 113.5t-108.5 79t-133 33q-35 2 -59 2.5t-46 0.5q-26 0 -54 -1t-70 -3q-71 -3 -133 -33t-108 -79t-72.5 -113t-26.5 -136t26.5 -135.5t73 -112t108.5 -78.5t133 -33l70 -3q24 -1 44 -1
t43 1l71 3q71 3 133 33t108.5 78.5t73 112t26.5 135.5zM286 85h82v304h-82v85h186v-389h82v-85h-268v85zM771 -8q-44 0 -74.5 21.5t-50.5 56t-29 78.5t-9 89q0 46 9 90t29 78.5t50.5 56t74.5 21.5q43 0 73.5 -21.5t50.5 -56t29.5 -78.5t9.5 -90q0 -45 -9.5 -89t-29.5 -78.5
t-50.5 -56t-73.5 -21.5zM771 395q-23 0 -38.5 -41.5t-15.5 -116.5t15.5 -116t38.5 -41t38.5 41t15.5 116t-15.5 116.5t-38.5 41.5z" />
    <glyph glyph-name="uni246B" unicode="&#x246b;" horiz-adv-x="1200" 
d="M1148 229q0 -90 -34 -170t-92.5 -140t-137.5 -96.5t-169 -39.5q-9 0 -27.5 -1t-37.5 -1.5t-35 -1t-21 -0.5q-21 0 -45.5 1t-64.5 3q-90 4 -169 40.5t-137.5 96.5t-92 139.5t-33.5 169.5t33.5 170t92 140t137.5 96.5t169 40.5q47 2 72.5 3t45.5 1t45.5 -1t72.5 -3
q90 -5 168 -41.5t135.5 -96.5t91 -139.5t33.5 -169.5zM1055 228q0 72 -26.5 136.5t-73 113.5t-108.5 79t-133 33q-35 2 -59 2.5t-46 0.5q-26 0 -54 -1t-70 -3q-71 -3 -133 -33t-108 -79t-72.5 -113t-26.5 -136t26.5 -135.5t73 -112t108.5 -78.5t133 -33l70 -3q24 -1 44 -1
t43 1l71 3q71 3 133 33t108.5 78.5t73 112t26.5 135.5zM286 85h82v304h-82v85h186v-389h82v-85h-268v85zM646 85h82v304h-82v85h186v-389h82v-85h-268v85z" />
    <glyph glyph-name="uni246C" unicode="&#x246c;" horiz-adv-x="1200" 
d="M1148 229q0 -90 -34 -170t-92.5 -140t-137.5 -96.5t-169 -39.5q-9 0 -27.5 -1t-37.5 -1.5t-35 -1t-21 -0.5q-21 0 -45.5 1t-64.5 3q-90 4 -169 40.5t-137.5 96.5t-92 139.5t-33.5 169.5t33.5 170t92 140t137.5 96.5t169 40.5q47 2 72.5 3t45.5 1t45.5 -1t72.5 -3
q90 -5 168 -41.5t135.5 -96.5t91 -139.5t33.5 -169.5zM1055 228q0 72 -26.5 136.5t-73 113.5t-108.5 79t-133 33q-35 2 -59 2.5t-46 0.5q-26 0 -54 -1t-70 -3q-71 -3 -133 -33t-108 -79t-72.5 -113t-26.5 -136t26.5 -135.5t73 -112t108.5 -78.5t133 -33l70 -3q24 -1 44 -1
t43 1l71 3q71 3 133 33t108.5 78.5t73 112t26.5 135.5zM286 85h82v304h-82v85h186v-389h82v-85h-268v85zM600 51q40 45 78 83t68 74t47 68.5t17 66.5q0 31 -14.5 42.5t-42.5 11.5q-19 0 -48.5 -9t-76.5 -34l-10 95q37 17 69.5 25.5t74.5 8.5q20 0 46.5 -4.5t50.5 -19
t40.5 -40.5t16.5 -68q0 -35 -9 -64.5t-24 -56t-35 -51t-42 -49.5q-9 -11 -19.5 -22t-21.5 -23h169v-85h-334v51z" />
    <glyph glyph-name="uni246D" unicode="&#x246d;" horiz-adv-x="1200" 
d="M1148 229q0 -90 -34 -170t-92.5 -140t-137.5 -96.5t-169 -39.5q-9 0 -27.5 -1t-37.5 -1.5t-35 -1t-21 -0.5q-21 0 -45.5 1t-64.5 3q-90 4 -169 40.5t-137.5 96.5t-92 139.5t-33.5 169.5t33.5 170t92 140t137.5 96.5t169 40.5q47 2 72.5 3t45.5 1t45.5 -1t72.5 -3
q90 -5 168 -41.5t135.5 -96.5t91 -139.5t33.5 -169.5zM1055 228q0 72 -26.5 136.5t-73 113.5t-108.5 79t-133 33q-35 2 -59 2.5t-46 0.5q-26 0 -54 -1t-70 -3q-71 -3 -133 -33t-108 -79t-72.5 -113t-26.5 -136t26.5 -135.5t73 -112t108.5 -78.5t133 -33l70 -3q24 -1 44 -1
t43 1l71 3q71 3 133 33t108.5 78.5t73 112t26.5 135.5zM286 85h82v304h-82v85h186v-389h82v-85h-268v85zM719 -6q-24 0 -48 3t-51 9l10 86q17 -4 42.5 -8t50.5 -4q33 0 58.5 12.5t25.5 47.5q0 29 -24.5 45.5t-61.5 16.5h-55v78q69 4 98 22.5t29 44.5q0 8 -2.5 17t-9 16.5
t-18 12t-28.5 4.5q-14 0 -38.5 -4.5t-65.5 -22.5l-10 89l35 10q15 5 28.5 8.5t29 5t37.5 1.5q68 0 107 -32.5t39 -88.5q0 -42 -15.5 -64.5t-39.5 -38.5q31 -14 53.5 -44.5t22.5 -72.5q0 -43 -18 -71.5t-46.5 -46t-64 -24.5t-70.5 -7z" />
    <glyph glyph-name="uni246E" unicode="&#x246e;" horiz-adv-x="1200" 
d="M1148 229q0 -90 -34 -170t-92.5 -140t-137.5 -96.5t-169 -39.5q-9 0 -27.5 -1t-37.5 -1.5t-35 -1t-21 -0.5q-21 0 -45.5 1t-64.5 3q-90 4 -169 40.5t-137.5 96.5t-92 139.5t-33.5 169.5t33.5 170t92 140t137.5 96.5t169 40.5q47 2 72.5 3t45.5 1t45.5 -1t72.5 -3
q90 -5 168 -41.5t135.5 -96.5t91 -139.5t33.5 -169.5zM1055 228q0 72 -26.5 136.5t-73 113.5t-108.5 79t-133 33q-35 2 -59 2.5t-46 0.5q-26 0 -54 -1t-70 -3q-71 -3 -133 -33t-108 -79t-72.5 -113t-26.5 -136t26.5 -135.5t73 -112t108.5 -78.5t133 -33l70 -3q24 -1 44 -1
t43 1l71 3q71 3 133 33t108.5 78.5t73 112t26.5 135.5zM286 85h82v304h-82v85h186v-389h82v-85h-268v85zM877 0h-102v128h-178v65q44 79 96 151.5t112 139.5h72v-271h65v-85h-65v-128zM775 303q-32 -44 -57 -90h57v90z" />
    <glyph glyph-name="uni246F" unicode="&#x246f;" horiz-adv-x="1200" 
d="M1148 229q0 -90 -34 -170t-92.5 -140t-137.5 -96.5t-169 -39.5q-9 0 -27.5 -1t-37.5 -1.5t-35 -1t-21 -0.5q-21 0 -45.5 1t-64.5 3q-90 4 -169 40.5t-137.5 96.5t-92 139.5t-33.5 169.5t33.5 170t92 140t137.5 96.5t169 40.5q47 2 72.5 3t45.5 1t45.5 -1t72.5 -3
q90 -5 168 -41.5t135.5 -96.5t91 -139.5t33.5 -169.5zM1055 228q0 72 -26.5 136.5t-73 113.5t-108.5 79t-133 33q-35 2 -59 2.5t-46 0.5q-26 0 -54 -1t-70 -3q-71 -3 -133 -33t-108 -79t-72.5 -113t-26.5 -136t26.5 -135.5t73 -112t108.5 -78.5t133 -33l70 -3q24 -1 44 -1
t43 1l71 3q71 3 133 33t108.5 78.5t73 112t26.5 135.5zM286 85h82v304h-82v85h186v-389h82v-85h-268v85zM722 -5q-22 0 -49.5 2.5t-55.5 8.5l10 85q23 -5 45.5 -8t39.5 -3q19 0 35.5 3.5t29 12.5t19.5 23.5t7 36.5q0 48 -42 64.5t-133 16.5l32 237h243v-84h-143l-9 -71
q30 -1 59.5 -10.5t52.5 -28.5t37.5 -47.5t14.5 -67.5q0 -47 -16.5 -79.5t-43.5 -52.5t-62 -29t-71 -9z" />
    <glyph glyph-name="uni2470" unicode="&#x2470;" horiz-adv-x="1200" 
d="M1148 229q0 -90 -34 -170t-92.5 -140t-137.5 -96.5t-169 -39.5q-9 0 -27.5 -1t-37.5 -1.5t-35 -1t-21 -0.5q-21 0 -45.5 1t-64.5 3q-90 4 -169 40.5t-137.5 96.5t-92 139.5t-33.5 169.5t33.5 170t92 140t137.5 96.5t169 40.5q47 2 72.5 3t45.5 1t45.5 -1t72.5 -3
q90 -5 168 -41.5t135.5 -96.5t91 -139.5t33.5 -169.5zM1055 228q0 72 -26.5 136.5t-73 113.5t-108.5 79t-133 33q-35 2 -59 2.5t-46 0.5q-26 0 -54 -1t-70 -3q-71 -3 -133 -33t-108 -79t-72.5 -113t-26.5 -136t26.5 -135.5t73 -112t108.5 -78.5t133 -33l70 -3q24 -1 44 -1
t43 1l71 3q71 3 133 33t108.5 78.5t73 112t26.5 135.5zM286 85h82v304h-82v85h186v-389h82v-85h-268v85zM775 -8q-39 0 -70.5 10t-53 32.5t-33 58t-11.5 87.5q0 46 14.5 92t44 89t72.5 81.5t100 69.5l62 -75q-50 -23 -90.5 -61.5t-63.5 -73.5q19 4 48 4q37 0 63.5 -14
t44 -36t26 -49.5t8.5 -54.5q0 -30 -9.5 -59t-29.5 -51.5t-50 -36t-72 -13.5zM773 214q-17 0 -30.5 -2.5t-27.5 -7.5v-22q0 -32 4 -52t12 -31t19.5 -15t27.5 -4q28 0 38.5 21t10.5 48q0 65 -54 65z" />
    <glyph glyph-name="uni2471" unicode="&#x2471;" horiz-adv-x="1200" 
d="M1148 229q0 -90 -34 -170t-92.5 -140t-137.5 -96.5t-169 -39.5q-9 0 -27.5 -1t-37.5 -1.5t-35 -1t-21 -0.5q-21 0 -45.5 1t-64.5 3q-90 4 -169 40.5t-137.5 96.5t-92 139.5t-33.5 169.5t33.5 170t92 140t137.5 96.5t169 40.5q47 2 72.5 3t45.5 1t45.5 -1t72.5 -3
q90 -5 168 -41.5t135.5 -96.5t91 -139.5t33.5 -169.5zM1055 228q0 72 -26.5 136.5t-73 113.5t-108.5 79t-133 33q-35 2 -59 2.5t-46 0.5q-26 0 -54 -1t-70 -3q-71 -3 -133 -33t-108 -79t-72.5 -113t-26.5 -136t26.5 -135.5t73 -112t108.5 -78.5t133 -33l70 -3q24 -1 44 -1
t43 1l71 3q71 3 133 33t108.5 78.5t73 112t26.5 135.5zM286 85h82v304h-82v85h186v-389h82v-85h-268v85zM856 233q-26 -66 -55 -123.5t-57 -109.5h-121q20 33 39 65t36.5 65.5t34 70.5t32.5 79l41 110h-98l-9 -41h-86v125h335z" />
    <glyph glyph-name="uni2472" unicode="&#x2472;" horiz-adv-x="1200" 
d="M1148 229q0 -90 -34 -170t-92.5 -140t-137.5 -96.5t-169 -39.5q-9 0 -27.5 -1t-37.5 -1.5t-35 -1t-21 -0.5q-21 0 -45.5 1t-64.5 3q-90 4 -169 40.5t-137.5 96.5t-92 139.5t-33.5 169.5t33.5 170t92 140t137.5 96.5t169 40.5q47 2 72.5 3t45.5 1t45.5 -1t72.5 -3
q90 -5 168 -41.5t135.5 -96.5t91 -139.5t33.5 -169.5zM1055 228q0 72 -26.5 136.5t-73 113.5t-108.5 79t-133 33q-35 2 -59 2.5t-46 0.5q-26 0 -54 -1t-70 -3q-71 -3 -133 -33t-108 -79t-72.5 -113t-26.5 -136t26.5 -135.5t73 -112t108.5 -78.5t133 -33l70 -3q24 -1 44 -1
t43 1l71 3q71 3 133 33t108.5 78.5t73 112t26.5 135.5zM286 85h82v304h-82v85h186v-389h82v-85h-268v85zM769 -8q-36 0 -66.5 10t-52.5 27t-34 40.5t-12 49.5q0 23 13 56t48 58l23 16q-29 23 -46.5 49.5t-17.5 64.5q0 25 12.5 47t33 38t48 25.5t57.5 9.5q27 0 52 -7.5
t45 -22t32 -36t12 -50.5q0 -41 -15.5 -65.5t-45.5 -48.5q16 -12 31 -25t27 -28.5t19 -34t7 -40.5q0 -28 -12.5 -52t-35 -42t-54 -28.5t-68.5 -10.5zM770 196l-20 -13q-10 -7 -19 -16t-15 -19.5t-6 -23.5q0 -23 15 -35.5t44 -12.5q35 0 50 16t15 33q0 9 -11 26t-32 31z
M775 399q-26 0 -37 -10.5t-11 -26.5q0 -17 12 -29.5t35 -26.5q16 12 27.5 24t11.5 35q0 15 -10.5 24.5t-27.5 9.5z" />
    <glyph glyph-name="uni2473" unicode="&#x2473;" horiz-adv-x="1200" 
d="M1148 229q0 -90 -34 -170t-92.5 -140t-137.5 -96.5t-169 -39.5q-9 0 -27.5 -1t-37.5 -1.5t-35 -1t-21 -0.5q-21 0 -45.5 1t-64.5 3q-90 4 -169 40.5t-137.5 96.5t-92 139.5t-33.5 169.5t33.5 170t92 140t137.5 96.5t169 40.5q47 2 72.5 3t45.5 1t45.5 -1t72.5 -3
q90 -5 168 -41.5t135.5 -96.5t91 -139.5t33.5 -169.5zM1055 228q0 72 -26.5 136.5t-73 113.5t-108.5 79t-133 33q-35 2 -59 2.5t-46 0.5q-26 0 -54 -1t-70 -3q-71 -3 -133 -33t-108 -79t-72.5 -113t-26.5 -136t26.5 -135.5t73 -112t108.5 -78.5t133 -33l70 -3q24 -1 44 -1
t43 1l71 3q71 3 133 33t108.5 78.5t73 112t26.5 135.5zM286 85h82v304h-82v85h186v-389h82v-85h-268v85zM643 37q50 24 90.5 62t63.5 73q-20 -4 -48 -4q-37 0 -64 14t-44.5 36.5t-26 49.5t-8.5 54q0 30 9.5 59t29.5 51.5t50.5 36.5t72.5 14q79 0 123.5 -43t44.5 -146
q0 -46 -14.5 -92t-44 -89t-73 -81.5t-100.5 -68.5zM765 394q-26 0 -38 -21t-12 -47q0 -66 54 -66q17 0 31 2.5t27 7.5v22q0 32 -4 52t-11.5 31t-19 15t-27.5 4z" />
    <glyph glyph-name="uni24EA" unicode="&#x24ea;" horiz-adv-x="1200" 
d="M1148 229q0 -90 -34 -170t-92.5 -140t-137.5 -96.5t-169 -39.5q-9 0 -27.5 -1t-37.5 -1.5t-35 -1t-21 -0.5q-21 0 -45.5 1t-64.5 3q-90 4 -169 40.5t-137.5 96.5t-92 139.5t-33.5 169.5t33.5 170t92 140t137.5 96.5t169 40.5q47 2 72.5 3t45.5 1t45.5 -1t72.5 -3
q90 -5 168 -41.5t135.5 -96.5t91 -139.5t33.5 -169.5zM1055 228q0 72 -26.5 136.5t-73 113.5t-108.5 79t-133 33q-35 2 -59 2.5t-46 0.5q-26 0 -54 -1t-70 -3q-71 -3 -133 -33t-108 -79t-72.5 -113t-26.5 -136t26.5 -135.5t73 -112t108.5 -78.5t133 -33l70 -3q24 -1 44 -1
t43 1l71 3q71 3 133 33t108.5 78.5t73 112t26.5 135.5zM240 51q40 45 78 83t68 74t47 68.5t17 66.5q0 31 -14.5 42.5t-42.5 11.5q-19 0 -48.5 -9t-76.5 -34l-10 95q37 17 69.5 25.5t74.5 8.5q20 0 46.5 -4.5t50.5 -19t40.5 -40.5t16.5 -68q0 -35 -9 -64.5t-24 -56t-35 -51
t-42 -49.5q-9 -11 -19.5 -22t-21.5 -23h169v-85h-334v51zM771 -8q-44 0 -74.5 21.5t-50.5 56t-29 78.5t-9 89q0 46 9 90t29 78.5t50.5 56t74.5 21.5q43 0 73.5 -21.5t50.5 -56t29.5 -78.5t9.5 -90q0 -45 -9.5 -89t-29.5 -78.5t-50.5 -56t-73.5 -21.5zM771 395
q-23 0 -38.5 -41.5t-15.5 -116.5t15.5 -116t38.5 -41t38.5 41t15.5 116t-15.5 116.5t-38.5 41.5z" />
    <glyph glyph-name="H18543" unicode="&#x25aa;" horiz-adv-x="884" 
d="M60 0v660h660v-660h-660z" />
    <glyph glyph-name="H18551" unicode="&#x25ab;" horiz-adv-x="884" 
d="M60 0v660h660v-660h-660zM637 577h-494v-494h494v494z" />
    <glyph glyph-name="triagrt" unicode="&#x25ba;" horiz-adv-x="747" 
d="M47 -17v694l663 -348z" />
    <glyph glyph-name="uni25BB" unicode="&#x25bb;" horiz-adv-x="747" 
d="M45 -17v693l666 -347zM128 538v-416l402 206z" />
    <glyph glyph-name="triaglf" unicode="&#x25c4;" horiz-adv-x="747" 
d="M47 329l663 348v-694z" />
    <glyph glyph-name="uni25C5" unicode="&#x25c5;" horiz-adv-x="747" 
d="M45 329l666 347v-693zM629 538l-404 -210l404 -206v416z" />
    <glyph glyph-name="uni25C6" unicode="&#x25c6;" horiz-adv-x="856" 
d="M426 -61l-395 395l395 395l395 -395z" />
    <glyph glyph-name="uni25C7" unicode="&#x25c7;" horiz-adv-x="856" 
d="M426 -61l-395 395l395 395l395 -395zM426 613l-278 -279l278 -278l279 278z" />
    <glyph glyph-name="lozenge" unicode="&#x25ca;" 
d="M250 -33l-243 403l243 391l243 -391zM250 603l-145 -233l145 -241l145 241z" />
    <glyph glyph-name="circle" unicode="&#x25cb;" horiz-adv-x="884" 
d="M743 330q0 -73 -27.5 -137t-75.5 -112t-112 -75.5t-137 -27.5t-137 27.5t-112 75.5t-75.5 112t-27.5 137t27.5 137t75.5 112t112 76t137 28t137 -28t112 -76t75.5 -112t27.5 -137zM660 330q0 56 -21 105t-58 85.5t-86 57.5t-104 21q-56 0 -104.5 -21t-85.5 -57.5
t-58 -85.5t-21 -105t21 -104.5t58 -85.5t85.5 -58t104.5 -21q55 0 104 21t86 58t58 85.5t21 104.5z" />
    <glyph glyph-name="H18533" unicode="&#x25cf;" horiz-adv-x="884" 
d="M743 330q0 -73 -27.5 -137t-75.5 -112t-112 -75.5t-137 -27.5t-137 27.5t-112 75.5t-75.5 112t-27.5 137t27.5 137t75.5 112t112 76t137 28t137 -28t112 -76t75.5 -112t27.5 -137z" />
    <glyph glyph-name="uni2605" unicode="&#x2605;" horiz-adv-x="829" 
d="M570 252l96 -296l-251 183l-252 -183l96 296l-252 183h312l96 296l96 -296h311z" />
    <glyph glyph-name="uni2606" unicode="&#x2606;" horiz-adv-x="829" 
d="M570 250l96 -296l-251 183l-252 -183l96 296l-251 182h311l96 296l96 -296h310zM458 362l-43 168l-44 -168l-172 11l146 -92l-64 -163l134 112l134 -112l-65 163l146 92z" />
    <glyph glyph-name="uni2706" unicode="&#x2706;" horiz-adv-x="1000" 
d="M955 239q0 -68 -18 -134q-9 -33 -26 -69t-41 -66t-55.5 -50t-70.5 -20t-64.5 19.5t-41.5 53.5q-56 12 -115.5 52t-112 94t-93.5 114t-62 112q-3 9 -3 19q0 14 9 37.5t23 46t31 39t32 16.5q12 0 30 -11.5t34.5 -27.5t28 -34t11.5 -30q0 -11 -7 -22.5t-15.5 -23
t-15.5 -23.5t-7 -25q0 -9 9.5 -25t24.5 -35t33.5 -38.5t37 -35.5t34.5 -26t27 -10q15 0 29.5 7.5t27 16t23 16t18.5 7.5t23.5 -13t30.5 -30t26.5 -34t11.5 -25q0 -12 -8.5 -22.5t-19 -19.5t-20.5 -16.5t-13 -13.5q4 -8 14 -20.5t21 -12.5t22 5t19 12q23 19 37.5 49t23 64
t11.5 68t3 62q0 71 -29 133t-77.5 108t-112 72.5t-133.5 26.5q-73 0 -137 -27.5t-111.5 -75t-75 -111.5t-27.5 -137q0 -72 28 -134.5t76 -109t111.5 -73t134.5 -26.5q37 0 63.5 4t60.5 18l38 -93q-41 -14 -79.5 -21.5t-82.5 -7.5q-92 0 -174.5 34.5t-144 95t-97.5 141.5
t-36 174q0 94 36 175.5t97.5 142.5t144 96t175.5 35q89 0 171 -34.5t145 -93.5t101 -138.5t38 -170.5z" />
    <glyph glyph-name="uni2709" unicode="&#x2709;" horiz-adv-x="1000" 
d="M65 -44v541h870v-541h-870zM663 236l200 -156v297zM188 429l312 -220l311 220h-623zM602 192l-102 -71l-101 70l-216 -166h634zM137 377v-297l200 156z" />
    <glyph glyph-name="uniFB06" unicode="&#xfb06;" horiz-adv-x="743" 
d="M737 25q-29 -17 -60 -27.5t-60 -10.5q-51 0 -84.5 32t-33.5 95v258h-66v80h66q17 28 26 50.5t9 54.5q0 57 -26.5 87t-80.5 30q-27 0 -51 -7.5t-41.5 -22.5t-28 -36.5t-10.5 -49.5q0 -20 7 -40.5t18.5 -38.5t27 -32t33.5 -22l-15 -106q-42 32 -70.5 39.5t-51.5 7.5h-34
q-7 0 -16 -0.5t-16.5 -3.5t-13 -8.5t-5.5 -15.5q0 -17 17.5 -28.5t43.5 -22t57 -22.5t57 -29.5t43.5 -43t17.5 -63.5q0 -29 -12.5 -54.5t-36.5 -45t-59.5 -31t-82.5 -11.5q-42 0 -84.5 10t-80.5 34l13 100q20 -12 36.5 -20.5t33.5 -14t36 -8t44 -2.5q43 0 57 11t14 22
q0 18 -17.5 29.5t-43.5 22t-57 22t-57 29.5t-43.5 44.5t-17.5 67.5q0 61 49 96t139 35q24 0 42 -3q-16 25 -24 44t-8 51q0 41 15 74t41 56.5t61 36t74 12.5q40 0 74.5 -12.5t60.5 -35.5t41 -56t15 -74v-105h100v-80h-100v-235q0 -33 7.5 -39.5t15.5 -6.5q20 0 43.5 11.5
t40.5 21.5z" />
    <glyph glyph-name="uniFEFF" unicode="&#xfeff;" horiz-adv-x="0" 
 />
    <glyph glyph-name="u1F310" unicode="&#x1f310;" horiz-adv-x="1000" 
d="M948 229q0 -92 -35 -173.5t-95.5 -142.5t-142 -96t-174.5 -35t-174.5 35t-142.5 96t-96.5 142t-35.5 174t35.5 174t96.5 142t142.5 96t174.5 35t174.5 -35t142 -96t95.5 -142t35 -174zM742 192q-3 -40 -12.5 -78.5t-23.5 -72.5q24 -8 46 -16t42 -18q29 40 47.5 87
t23.5 98h-123zM865 266q-5 52 -24 98.5t-48 86.5q-38 -18 -84 -32q13 -35 21.5 -73.5t11.5 -79.5h123zM292 44q-13 34 -22 71.5t-12 76.5h-123q5 -50 22 -95t45 -84q20 9 42.5 17t47.5 14zM289 415q-23 6 -44.5 14t-41.5 16q-28 -38 -45.5 -83.5t-22.5 -95.5h123
q6 79 31 149zM462 192h-124q3 -35 11 -68.5t19 -64.5q45 7 94 9v124zM462 391q-25 1 -48 3t-46 5q-11 -30 -18.5 -64t-10.5 -68h123v124zM661 267q-3 35 -10.5 69t-18.5 65q-23 -4 -46 -6t-47 -4v-124h122zM539 192v-124q24 -2 47 -4t45 -6q11 31 19 65t11 69h-122z
M397 -128q-18 20 -36 45t-34 54q-20 -4 -37.5 -8.5t-33.5 -10.5q30 -27 65.5 -47.5t75.5 -32.5zM743 -50q-17 6 -34 11t-37 9q-16 -29 -33.5 -53.5t-35.5 -44.5q78 24 140 78zM383 582q-35 -13 -67 -31.5t-59 -44.5q15 -5 31 -9t33 -8q28 51 62 93zM742 508q-56 50 -125 74
q16 -20 31.5 -43t29.5 -49q33 7 64 18zM466 579q-17 -20 -33.5 -45.5t-32.5 -57.5q15 -2 30.5 -3t32.5 -1zM600 476q-16 31 -32.5 56.5t-32.5 44.5l3 -105q16 1 31.5 1.5t30.5 2.5zM463 -13q-16 -1 -31.5 -1.5t-30.5 -2.5q16 -31 32.5 -56t32.5 -45zM599 -18q-15 2 -30 3
l-30 2l-4 -102q33 39 64 97z" />
    <glyph glyph-name="u1F4E0" unicode="&#x1f4e0;" horiz-adv-x="1000" 
d="M947 303q2 -16 4.5 -32t2.5 -32q0 -64 -17 -129q-9 -33 -25 -70t-40 -68t-56 -51.5t-72 -20.5q-39 0 -64.5 19.5t-41.5 53.5q-56 12 -115 52.5t-111.5 94.5t-94 114t-62.5 111q-3 9 -3 19q0 14 9 37.5t23 46.5t30.5 39.5t32.5 16.5q11 0 22.5 -7t19.5 -13l91 91
q-72 -5 -133 -33t-105 -74t-68.5 -108t-24.5 -135q0 -72 28 -135t76 -109.5t111.5 -73t134.5 -26.5q32 0 63.5 4.5t60.5 16.5l38 -91q-41 -14 -80 -21t-82 -7q-92 0 -174.5 34.5t-144.5 94.5t-98 141t-36 174q0 94 36 175.5t98 142t144.5 95t175.5 34.5q19 0 37 -0.5
t37 -3.5l153 154l259 -259v-217zM859 456l86 88l-219 219l-306 -308q8 -9 19.5 -25.5t11.5 -29.5q0 -12 -7 -23t-15.5 -22.5t-15.5 -23.5t-7 -25q0 -9 9.5 -25t24.5 -35t33.5 -38.5t37 -35.5t34.5 -26t27 -10q15 0 29.5 7.5t27 16t23 16t18.5 7.5q4 0 11.5 -5t15 -11.5
t13.5 -13.5l10 -9l226 225zM747 110q5 -6 10 -14.5t5 -14.5q0 -11 -8.5 -22t-19 -20.5t-20 -17.5t-13.5 -12q5 -8 14.5 -20.5t20.5 -12.5q12 0 23.5 5.5t20.5 13.5q21 18 35 45t22.5 57.5t12.5 61.5t5 57zM821 337l-217 218l31 31l218 -217zM760 276l-218 218l32 31
l217 -218zM698 214l-218 217l31 32l218 -218z" />
    <glyph glyph-name="u1F4E7" unicode="&#x1f4e7;" horiz-adv-x="1000" 
d="M954 235q0 -59 -22.5 -106t-63 -79t-97 -49t-124.5 -17q-43 0 -87 1.5t-85 8.5t-76.5 21.5t-62 41.5t-41.5 67.5t-15 100.5q0 56 17 100.5t47.5 75.5t73 47.5t92.5 16.5q61 0 101.5 -15.5t64.5 -47t34 -78.5t10 -111h-306q2 -47 21.5 -73.5t48.5 -39.5t64.5 -15.5
t69.5 -2.5q39 0 80.5 6.5t75 24t55 48.5t21.5 80q0 86 -29 149t-77.5 104.5t-111.5 61.5t-132 20q-72 0 -135.5 -27.5t-111.5 -75t-76 -111t-28 -136.5q0 -90 27.5 -155.5t75.5 -107.5t112 -62.5t137 -20.5q42 0 76.5 8.5t58.5 17.5l30 -95q-26 -10 -68.5 -20t-93.5 -10
q-103 0 -187.5 31.5t-144.5 89t-93 139.5t-33 184q0 99 37 181.5t99.5 142.5t145 93t173.5 33q100 0 183.5 -30.5t143.5 -87.5t93 -138.5t33 -183.5zM605 288q-2 19 -5 35.5t-13 27.5t-28 17.5t-48 6.5q-6 0 -14.5 -2t-16 -4t-14 -4.5t-7.5 -3.5q-2 -1 -7.5 -6.5t-12.5 -15
t-13 -22.5t-9 -29h188z" />
    <glyph glyph-name="u1F4F1" unicode="&#x1f4f1;" horiz-adv-x="1000" 
d="M615 189q0 -32 -1.5 -73.5t-7.5 -79t-18 -63.5t-33 -26h-122q-21 0 -33.5 27.5t-18.5 67t-7.5 82.5t-1.5 73q0 31 -1 60.5t-1 55.5q0 30 2 55.5t9 43.5t19 28.5t32 10.5h77v89q0 11 7 18t18 7h18q11 0 18 -7t7 -18v-94q14 -6 22 -17t11.5 -26t4.5 -33t1 -37v-22
q0 -20 -0.5 -41t-0.5 -44v-37zM936 104q-16 -56 -46 -105t-70.5 -88.5t-90 -68.5t-106.5 -45l-37 95q46 12 87 35t74 55t56.5 72t35.5 86zM376 -202q-57 16 -107 45.5t-90.5 69.5t-70 89t-45.5 105l97 36q12 -46 35 -86t56 -72.5t73.5 -56t86.5 -35.5zM839 319
q-12 45 -35 84t-55.5 70.5t-72 54.5t-84.5 35l32 96q56 -16 105.5 -44.5t90 -68t70 -88t45.5 -103.5zM414 564q-93 -23 -160.5 -88t-92.5 -156l-94 40q17 54 47 102t70.5 86.5t90 67t105.5 43.5zM568 370q0 11 -7.5 18t-17.5 7h-92q-9 0 -17 -7t-8 -18l4 -95q1 -11 5.5 -18
t15.5 -7h91q11 0 16.5 7t5.5 18z" />
    <glyph glyph-name="nine.osf" horiz-adv-x="475" 
d="M449 196q0 -139 -76.5 -240.5t-229.5 -180.5l-67 91q36 14 70 33.5t64 43.5t53.5 52t37.5 60q-23 -8 -47.5 -13t-51.5 -5q-48 0 -83 17.5t-58 46.5t-34 66.5t-11 78.5q0 46 15 86t43 69t67 46t87 17q107 0 164 -68.5t57 -199.5zM324 204q0 69 -20.5 110t-69.5 41
q-38 0 -64 -28.5t-26 -75.5q0 -27 7.5 -46t20 -31t28 -17.5t30.5 -5.5q27 0 49.5 5.5t43.5 14.5q1 8 1 16v17z" />
    <glyph glyph-name="eight.osf" horiz-adv-x="482" 
d="M456 170q0 -40 -16 -73.5t-45.5 -58t-71 -38t-91.5 -13.5q-49 0 -88.5 13t-68 36t-44 54.5t-15.5 69.5q0 24 5.5 43t17.5 35.5t30.5 33.5t45.5 38l31 25l-31 29q-34 31 -53 64.5t-19 83.5q0 35 15.5 66.5t42.5 55t63 37.5t76 14q36 0 69 -10.5t59 -31.5t41.5 -52
t15.5 -72q0 -27 -5.5 -47.5t-15 -37t-24 -31t-32.5 -30.5l-23 -20l28 -20q22 -16 41 -32.5t32.5 -35.5t21.5 -42t8 -53zM305 515q0 29 -17.5 51.5t-47.5 22.5q-40 0 -58.5 -23.5t-18.5 -55.5q0 -28 16 -45.5t36 -33.5l30 -24l23 20q18 17 27.5 38t9.5 50zM332 159
q0 12 -3 21.5t-10.5 19t-19.5 21t-31 28.5l-41 35l-43 -38q-21 -18 -33 -39t-12 -49q0 -33 24.5 -53.5t69.5 -20.5q54 0 76.5 22.5t22.5 52.5z" />
    <glyph glyph-name="five.osf" horiz-adv-x="397" 
d="M389 39q0 -68 -24.5 -114.5t-65 -75.5t-92.5 -42t-106 -13q-9 0 -29 1t-50 5l10 105q32 -4 54.5 -4.5t31.5 -0.5q64 0 101 32.5t37 92.5q0 39 -13.5 61t-40.5 32.5t-68.5 13t-98.5 2.5l62 319h276v-103h-176l-25 -116q40 -3 79 -12t70 -30t49.5 -57.5t18.5 -95.5z" />
    <glyph glyph-name="four.osf" horiz-adv-x="464" 
d="M364 -1v-193h-118v193h-242v71q9 18 24 44t33.5 55t38 58.5t36.5 53.5q34 48 69.5 95.5t75.5 91.5h83v-374h90v-95h-90zM246 260q-29 -39 -55.5 -81.5t-48.5 -84.5h104v166z" />
    <glyph glyph-name="three.osf" horiz-adv-x="418" 
d="M389 16q0 -56 -22 -97.5t-60.5 -69t-89.5 -41.5t-109 -14q-16 0 -34 2l-52 4l10 105q33 -4 45.5 -4.5t23.5 -0.5q29 0 57 5t50 17.5t35.5 33.5t13.5 54q0 28 -7.5 46t-21.5 28t-33.5 13.5t-44.5 3.5h-65v79q33 5 61 15t48.5 24t32 33t11.5 42q0 29 -16.5 47.5t-51.5 18.5
q-21 0 -53 -8.5t-83 -42.5l-11 108q28 15 49 24.5t39.5 15t37 7t42.5 1.5q77 0 123.5 -41t46.5 -119q0 -46 -26 -83t-69 -51q56 -5 89.5 -47t33.5 -108z" />
    <glyph glyph-name="two.osf" horiz-adv-x="452" 
d="M13 0v60l154 125q30 24 49 43.5t30 36t15 30t4 26.5q0 26 -14.5 39t-48.5 13q-14 0 -28.5 -1t-33 -6t-41 -14.5t-50.5 -25.5l-9 103q23 12 42 20.5t38 14t39 8.5t44 3q43 0 77.5 -8t58.5 -26t37 -47t13 -70q0 -40 -13.5 -70.5t-36 -56.5t-52 -51t-61.5 -53h204v-93h-417z
" />
    <glyph glyph-name="one.osf" horiz-adv-x="390" 
d="M47 0v86h95v280h-95v87h216v-367h103v-86h-319z" />
    <glyph glyph-name="zero.osf" horiz-adv-x="530" 
d="M506 228q0 -50 -18 -94.5t-49.5 -77.5t-73 -52t-89.5 -19t-89.5 19t-73 52t-49.5 77t-18 94t18 94.5t49.5 77.5t73 52t89.5 19t89.5 -19t73 -52t49.5 -77t18 -94zM276 89q22 0 43 11.5t37 30.5t26 44t10 52t-9.5 52t-25.5 44.5t-37 31t-44 11.5t-44 -11.5t-37 -31
t-25.5 -44t-9.5 -51.5t9.5 -52t25.5 -44.5t37 -31t44 -11.5z" />
    <glyph glyph-name="six.osf" horiz-adv-x="475" 
d="M452 204q0 -46 -15 -86t-43 -69t-67 -46t-87 -17q-107 0 -164 68.5t-57 199.5q0 69 18.5 128.5t55 111.5t92 99t130.5 92l67 -91q-39 -24 -72 -46t-60 -45.5t-47.5 -49.5t-34.5 -58q23 8 47 13t51 5q48 0 83 -17.5t58 -46.5t34 -66.5t11 -78.5zM324 199q0 51 -20.5 75.5
t-65.5 24.5q-27 0 -49.5 -5.5t-43.5 -14.5q-1 -8 -1 -16v-17q0 -69 24.5 -110t75.5 -41q38 0 59 28.5t21 75.5z" />
    <glyph glyph-name="seven.osf" horiz-adv-x="401" 
d="M332 193q-15 -46 -35 -98t-41.5 -104.5t-43 -101.5t-39.5 -89h-140q43 84 95.5 200t98.5 254l32 96h-138l-12 -65h-98v168h386v-64z" />
    <glyph glyph-name="gravecomb.case" horiz-adv-x="1" 
d="M-411 696l-131 185h108l103 -185h-80z" />
    <glyph glyph-name="acutecomb.case" horiz-adv-x="1" 
d="M-338 696h-81l102 185h109z" />
    <glyph glyph-name="uni0302.case" horiz-adv-x="1" 
d="M-281 692l-75 95l-77 -95h-79l120 185h71l125 -185h-85z" />
    <glyph glyph-name="tildecomb.case" horiz-adv-x="1" 
d="M-182 767q-40 -39 -69 -51t-56 -12q-23 0 -40 6t-36 20q-11 8 -17.5 12.5t-11.5 6.5t-10.5 2.5t-13.5 0.5t-18.5 -5t-21.5 -11.5t-20.5 -13t-13.5 -9.5l-35 49q42 41 72 54t58 13q14 0 23 -2.5t16.5 -6.5t14.5 -9.5t18 -12.5q12 -8 24.5 -13.5t28.5 -5.5q22 0 74 40z" />
    <glyph glyph-name="uni0304.case" horiz-adv-x="1" 
d="M-396 695v65h352v-65h-352z" />
    <glyph glyph-name="uni0306.case" horiz-adv-x="1" 
d="M-18 889q-6 -29 -22 -56t-39 -47.5t-53 -33t-66 -12.5q-33 0 -63 10t-53 29t-38 47t-19 63h78q6 -32 34 -49t61 -17q43 0 67.5 18.5t32.5 47.5h80z" />
    <glyph glyph-name="uni0307.case" horiz-adv-x="1" 
d="M-78 771q0 -14 -6 -27.5t-15.5 -24.5t-22.5 -17.5t-27 -6.5t-26.5 7t-21.5 17.5t-14.5 24t-5.5 27.5q0 13 5.5 26.5t15 24t21.5 17t26 6.5q13 0 26 -6.5t23 -17t16 -23.5t6 -27z" />
    <glyph glyph-name="uni0308.case" horiz-adv-x="1" 
d="M-180 756q0 -26 -17.5 -43.5t-43.5 -17.5t-44 17.5t-18 43.5q0 25 18 44t44 19q27 0 44 -19t17 -44zM-410 756q0 -26 -18 -43.5t-44 -17.5t-43.5 17.5t-17.5 43.5q0 25 17.5 44t43.5 19t44 -19t18 -44z" />
    <glyph glyph-name="uni030A.case" horiz-adv-x="1" 
d="M-246 779q0 -22 -8 -41t-21.5 -33t-32.5 -22t-40 -8t-39 8t-31.5 22t-21 33t-7.5 41t7.5 41t21 33.5t31.5 22.5t39 8t40 -8t32.5 -22.5t21.5 -33.5t8 -41zM-300 779q0 21 -13.5 35t-34.5 14q-20 0 -33 -14t-13 -35q0 -20 13.5 -34.5t32.5 -14.5q21 0 34.5 14.5t13.5 34.5
z" />
    <glyph glyph-name="uni030B.case" horiz-adv-x="1" 
d="M-187 696h-84l107 202h113zM-327 696h-84l107 202h112z" />
    <glyph glyph-name="uni030C.case" horiz-adv-x="1" 
d="M-250 704h-71l-125 185h85l75 -94l77 94h79z" />
    <glyph glyph-name="diedot.case.comp" horiz-adv-x="742" 
d="M332 756q0 -26 -18 -43.5t-44 -17.5t-43.5 17.5t-17.5 43.5q0 25 17.5 44t43.5 19t44 -19t18 -44z" />
    <glyph glyph-name="diedot.comp" horiz-adv-x="536" 
d="M253 593q0 -28 -18.5 -47.5t-45.5 -19.5t-45.5 19.5t-18.5 46.5q0 28 17.5 48.5t46.5 20.5q27 0 45.5 -20.5t18.5 -47.5z" />
    </font>
</defs>
</svg>
