<?xml version="1.0" standalone="no"?>
<!DOCTYPE svg PUBLIC "-//W3C//DTD SVG 1.1//EN" "http://www.w3.org/Graphics/SVG/1.1/DTD/svg11.dtd" >
<svg xmlns="http://www.w3.org/2000/svg" xmlns:xlink="http://www.w3.org/1999/xlink" version="1.1">
<metadata>
Created by FontForge 20160407 at Thu Jun 16 19:36:07 2016
 By Jimmy Wärting
2011 Martin Majoor, non-western version by Inka Strotmann published by FSI FontShop International GmbH
</metadata>
<defs>
<font id="NexusSansCompPro" horiz-adv-x="500" >
  <font-face 
    font-family="NexusSansCompPro"
    font-weight="400"
    font-stretch="normal"
    units-per-em="1000"
    panose-1="2 11 5 4 3 1 1 2 1 2"
    ascent="733"
    descent="-267"
    x-height="453"
    cap-height="659"
    bbox="-543 -313 1260 1079"
    underline-thickness="64"
    underline-position="-120"
    unicode-range="U+0020-1F4F1"
  />
<missing-glyph horiz-adv-x="551" 
d="M86 659h379v-659h-379v659zM402 63v533h-253v-533h253z" />
    <glyph glyph-name="uniFB00" unicode="ff" horiz-adv-x="565" 
d="M670 647q-22 14 -42 21.5t-54 7.5q-26 0 -48 -6.5t-26 -9.5q-3 -2 -10.5 -10.5t-15.5 -29.5t-14 -58t-6 -96v-13h116v-60h-116v-393h-77v393h-201v-393h-77v392h-83v60h83v10q0 87 19.5 137t51.5 75.5t73 32t85 6.5q29 0 57 -5.5t47 -13.5q26 28 63 38.5t88 10.5
q29 0 52.5 -5.5t42.5 -13.5zM397 633q-19 7 -39 10t-39 3q-23 0 -44.5 -3.5t-31.5 -7.5q-11 -4 -23 -15t-22 -31t-16 -50t-6 -73v-14h201v10q0 56 5 98t15 73z" />
    <glyph glyph-name="fi" unicode="fi" horiz-adv-x="547" 
d="M369 604q0 45 -13.5 58.5t-52.5 13.5q-32 0 -55 -7t-29 -11q-3 -2 -10 -11.5t-14.5 -31t-13 -57t-5.5 -87.5v-18h278v-453h-77v393h-201v-393h-77v392h-83v60h83v13q0 82 11.5 136t36.5 85.5t63 44t91 12.5q43 0 70 -7.5t42.5 -20t21 -28.5t5.5 -33v-50h-71z" />
    <glyph glyph-name="fl" unicode="fl" horiz-adv-x="527" 
d="M368 0v661q-22 11 -44.5 13t-37.5 2q-20 0 -38.5 -6.5t-25.5 -10.5q-3 -2 -10.5 -10.5t-15.5 -29.5t-14 -57t-6 -91v-18h114v-60h-114v-393h-77v392h-83v60h83v25q0 73 11.5 123.5t34.5 82t59 46t86 14.5q45 0 74.5 -6.5t55.5 -6.5h25v-730h-77z" />
    <glyph glyph-name="uniFB03" unicode="ffi" horiz-adv-x="824" 
d="M646 604q0 30 -5.5 45.5t-20.5 21.5q-20 5 -43 5q-16 0 -29.5 -2t-24.5 -5q-19 -6 -23 -9q-3 -2 -10.5 -10.5t-15.5 -29.5t-14 -58t-6 -96v-13h277v-453h-77v393h-200v-393h-78v393h-200v-393h-77v392h-83v60h83v10q0 87 18 137t48 75.5t69 32t81 6.5q28 0 62.5 -5.5
t53.5 -13.5q24 26 58.5 37t81.5 11q30 0 56.5 -3.5t46.5 -13t31.5 -26.5t11.5 -45v-50h-71zM396 633q-18 7 -38.5 10t-40.5 3q-17 0 -36 -2t-33 -7q-5 -2 -17 -7t-24 -22.5t-21.5 -51t-9.5 -90.5v-14h200v13q0 54 5 95.5t15 72.5z" />
    <glyph glyph-name="uniFB04" unicode="ffl" horiz-adv-x="814" 
d="M656 0v661q-19 10 -39 12.5t-36 2.5q-36 0 -59 -10.5t-35.5 -35.5t-17.5 -65t-5 -99v-13h116v-60h-116v-393h-77v393h-211v-393h-77v392h-83v60h83v10q0 87 19.5 137t52 75.5t73.5 32t84 6.5q29 0 62 -5.5t52 -13.5q28 31 65.5 39.5t77.5 8.5q31 0 61 -6t61 -6h25v-730
h-76zM407 633q-16 6 -41 9.5t-49 3.5q-17 0 -36.5 -2t-33.5 -6q-4 -1 -15.5 -6.5t-24 -23t-22 -51.5t-9.5 -91v-14h211v25q0 100 20 156z" />
    <glyph glyph-name=".notdef" horiz-adv-x="551" 
d="M86 659h379v-659h-379v659zM402 63v533h-253v-533h253z" />
    <glyph glyph-name=".null" horiz-adv-x="0" 
 />
    <glyph glyph-name="nonmarkingreturn" horiz-adv-x="250" 
 />
    <glyph glyph-name="space" unicode=" " horiz-adv-x="250" 
 />
    <glyph glyph-name="exclam" unicode="!" horiz-adv-x="250" 
d="M165 204h-70l-14 486l95 1zM189 51q0 -26 -19 -45t-45 -19t-45 19t-19 45t19 44.5t45 18.5t45 -18.5t19 -44.5z" />
    <glyph glyph-name="quotedbl" unicode="&#x22;" horiz-adv-x="335" 
d="M213 474v249h70v-249h-70zM53 474v249h71v-249h-71z" />
    <glyph glyph-name="numbersign" unicode="#" 
d="M390 199l-4 -198h-67l4 198h-148l-4 -198h-66l3 198h-98v63h101l2 147h-102v63h103l3 188h68l-4 -188h146l4 188h67l-3 -187h95v-64h-97l-2 -146h99v-64h-100zM180 409l-3 -147h147l2 147h-146z" />
    <glyph glyph-name="dollar" unicode="$" 
d="M448 164q0 -37 -13.5 -66t-37 -50.5t-53.5 -35t-63 -19.5v-49h-57v44q-52 2 -92.5 9t-79.5 24l13 74q38 -21 74 -31.5t85 -11.5v226l-16 9q-29 16 -56 33t-49 37t-35 45t-13 57q0 33 11.5 61.5t33.5 51t53.5 37t70.5 19.5v52h57v-50q27 -1 48 -3t39 -5.5t35 -9t35 -12.5
l-7 -74q-38 21 -72.5 30t-77.5 10v-228l18 -10q28 -15 55 -31t48 -35.5t33.5 -43t12.5 -54.5zM224 562q-38 -11 -58 -39t-20 -57q0 -35 23 -57.5t55 -40.5v194zM358 155q0 34 -22.5 54.5t-54.5 38.5v-187q34 11 55.5 36.5t21.5 57.5z" />
    <glyph glyph-name="percent" unicode="%" horiz-adv-x="840" 
d="M807 160q0 -36 -14 -67.5t-37.5 -55t-55 -37t-67.5 -13.5t-67.5 13.5t-55 37t-37 55t-13.5 67.5t13.5 67.5t37 55.5t55 37.5t67.5 13.5t67.5 -13.5t55 -37.5t37.5 -55.5t14 -67.5zM178 -49l-50 35l537 698l50 -35zM379 490q0 -36 -13.5 -67.5t-37 -55.5t-55.5 -37.5
t-68 -13.5t-67 13.5t-54.5 37.5t-37 55.5t-13.5 67.5t13.5 67.5t37 55.5t54.5 37.5t67 13.5t68 -13.5t55.5 -37.5t37 -55.5t13.5 -67.5zM740 160q0 23 -8.5 43t-22.5 34.5t-34 23t-42 8.5q-23 0 -43 -8.5t-34.5 -23t-23 -34.5t-8.5 -43t8.5 -42.5t23 -34t34.5 -23t43 -8.5
q22 0 42 8.5t34 23t22.5 34t8.5 42.5zM314 490q0 22 -8.5 42t-23 35t-34.5 23.5t-43 8.5t-42.5 -8.5t-33.5 -23.5t-22.5 -35t-8.5 -42q0 -23 8.5 -43t22.5 -34.5t33.5 -23t42.5 -8.5t43 8.5t34.5 23t23 34.5t8.5 43z" />
    <glyph glyph-name="ampersand" unicode="&#x26;" horiz-adv-x="668" 
d="M706 -169q-32 1 -55 4.5t-52 21.5q-17 11 -39 34t-44 50t-42 54.5t-34 46.5l-5 7q-45 -36 -91.5 -47.5t-103.5 -11.5q-38 0 -75 12.5t-66.5 35.5t-48 55.5t-18.5 73.5q0 40 15 73.5t38.5 61t52.5 49t56 38.5q-21 26 -36 46t-24.5 37.5t-14.5 34t-5 36.5q0 33 13.5 59.5
t36.5 44.5t53.5 27.5t65.5 9.5q36 0 63.5 -10.5t46.5 -28.5t28.5 -41.5t9.5 -50.5q0 -31 -12 -57.5t-31.5 -49t-43.5 -41t-48 -32.5l157 -228q16 20 26 32t17.5 22.5t12.5 22t11 29.5q11 38 14.5 62t3.5 50h-91v52h244v-52h-76q-5 -37 -11.5 -64t-15.5 -54q-10 -29 -20 -50
t-21.5 -37.5t-25 -31t-30.5 -31.5q11 -14 26.5 -33.5t32.5 -40.5l34 -42q17 -21 32.5 -38.5t27.5 -30t18 -15.5q8 -4 22 -8t31 -5zM229 336q-22 -18 -42.5 -33t-36 -32.5t-24.5 -40t-9 -55.5q0 -29 13.5 -51.5t34 -38.5t45 -24t46.5 -8q79 0 142 45zM354 536
q0 44 -15.5 65.5t-62.5 21.5q-44 0 -64.5 -20.5t-20.5 -55.5q0 -11 7 -27t17 -32q10 -17 21.5 -33t21.5 -30q47 27 71.5 57.5t24.5 53.5z" />
    <glyph glyph-name="quotesingle" unicode="'" horiz-adv-x="175" 
d="M51 474v249h73v-249h-73z" />
    <glyph glyph-name="parenleft" unicode="(" horiz-adv-x="250" 
d="M197 -258q-34 46 -67 103.5t-59.5 122.5t-42.5 136.5t-16 146.5q0 69 12.5 131.5t36.5 122t58.5 116.5t77.5 115l53 -25q-32 -42 -63.5 -91t-56 -104.5t-40 -118t-15.5 -133.5q0 -83 16 -153.5t41 -131.5t56 -113.5t62 -98.5z" />
    <glyph glyph-name="parenright" unicode=")" horiz-adv-x="250" 
d="M238 226q0 -69 -12.5 -131.5t-36.5 -121.5t-58 -116t-77 -115l-54 25q32 43 63.5 91.5t56 104t40 118t15.5 133.5q0 82 -16 153t-41 132.5t-56.5 114t-61.5 97.5l54 25q34 -46 67 -103.5t59 -122.5t42 -137t16 -147z" />
    <glyph glyph-name="asterisk" unicode="*" 
d="M299 500l115 -147l-59 -44l-104 155l-105 -155l-58 42l115 148l-181 51l23 70l175 -65l-7 188h73l-7 -187l175 65l24 -71z" />
    <glyph glyph-name="plus" unicode="+" 
d="M285 190v-194h-69v194h-194v69h194v194h69v-194h194v-69h-194z" />
    <glyph glyph-name="comma" unicode="," horiz-adv-x="250" 
d="M196 11q0 -35 -28 -81.5t-79 -97.5l-30 22q27 40 40.5 76.5t13.5 56.5q0 15 -13 28t-41 19l60 85q21 -2 36 -12.5t24 -26t13 -33.5t4 -36z" />
    <glyph glyph-name="hyphen" unicode="-" horiz-adv-x="375" 
d="M62 194v75h252v-75h-252z" />
    <glyph glyph-name="period" unicode="." horiz-adv-x="250" 
d="M191 54q0 -27 -20 -47t-46 -20t-46 19.5t-20 47.5q0 26 20 45t46 19t46 -19t20 -45z" />
    <glyph glyph-name="slash" unicode="/" horiz-adv-x="313" 
d="M65 -258h-65l248 999h65z" />
    <glyph glyph-name="zero" unicode="0" 
d="M456 330q0 -72 -13.5 -134t-39.5 -108.5t-64.5 -73t-88.5 -26.5q-51 0 -89.5 26.5t-64.5 72.5t-39 108.5t-13 133.5q0 72 13 134t39 108t64.5 72.5t89.5 26.5q49 0 87.5 -26.5t65 -72.5t40 -108t13.5 -133zM371 329q0 61 -9 112t-25.5 88t-38.5 58t-48 21t-48 -21
t-38.5 -58t-25.5 -88t-9 -112q0 -60 9 -111t25.5 -88t38.5 -58t48 -21t48 21t38.5 58t25.5 88t9 111z" />
    <glyph glyph-name="one" unicode="1" 
d="M95 0v59h126v541h-126v59h206v-600h127v-59h-333z" />
    <glyph glyph-name="two" unicode="2" 
d="M39 0v30q53 63 108 120t100 112.5t73.5 111.5t28.5 117q0 64 -33 91t-88 27q-34 0 -76.5 -11.5t-77.5 -31.5l-7 66q35 17 76 27.5t98 10.5q28 0 61.5 -6t62 -24t47.5 -50.5t19 -84.5q0 -61 -18 -111t-51.5 -100.5t-83 -106t-112.5 -128.5h293v-59h-420z" />
    <glyph glyph-name="three" unicode="3" 
d="M432 185q0 -48 -24 -84t-62.5 -60.5t-87 -36.5t-97.5 -12q-24 0 -48 2.5t-46 10.5l6 61q38 -13 87 -13h10q32 1 62.5 8t54.5 22t39 39t15 57t-14 57.5t-37 41t-52.5 24.5t-60.5 8h-45v55q39 0 73 10.5t59.5 31t40.5 49.5t15 67q0 20 -10.5 36t-27.5 27.5t-39 18t-44 6.5
q-29 0 -62.5 -13t-62.5 -31l-7 67q23 12 41.5 19.5t36 11.5t35.5 5.5t41 1.5q36 0 69 -9.5t58 -27t39.5 -43t14.5 -58.5q0 -77 -38 -124.5t-98 -62.5q30 -3 60 -14t53.5 -31t38 -49t14.5 -68z" />
    <glyph glyph-name="four" unicode="4" 
d="M369 196v-196h-76v196h-262v56q22 44 55 98t71 110t79 110.5t81 100.5h52v-416h96v-59h-96zM293 546q-24 -32 -48.5 -68t-48.5 -74t-45.5 -76t-38.5 -73h180z" />
    <glyph glyph-name="five" unicode="5" 
d="M428 197q0 -50 -22.5 -88t-59 -64.5t-84 -40t-97.5 -13.5q-25 0 -48.5 3t-50.5 11l6 61q21 -5 46.5 -9.5t48.5 -4.5q34 0 64.5 8t53.5 25t36.5 44t13.5 65q0 51 -21.5 80.5t-56.5 44.5t-81 19.5t-94 4.5l54 316h274v-59h-201l-37 -201q44 0 89.5 -10.5t82.5 -34.5
t60.5 -62.5t23.5 -94.5z" />
    <glyph glyph-name="six" unicode="6" 
d="M458 198q0 -42 -12 -80t-37 -67t-63 -46t-90 -17q-49 0 -88 12t-66.5 41.5t-42 78t-14.5 120.5q0 131 76.5 245t218.5 192l44 -55q-37 -17 -75.5 -45.5t-71.5 -63t-57.5 -72t-33.5 -73.5q20 9 36 15t32 9t32.5 4.5t37.5 1.5q43 0 76 -17t54.5 -45t32.5 -64t11 -74z
M370 193q0 29 -6.5 54t-21 43t-36.5 28.5t-52 10.5q-37 0 -65 -7t-55 -21q-1 -14 -2 -30.5t-1 -25.5q0 -100 29 -146t100 -46q38 0 60 13t33 33.5t14 45.5t3 48z" />
    <glyph glyph-name="seven" unicode="7" 
d="M325 336q-16 -44 -35.5 -91t-39.5 -91.5t-40 -84t-36 -69.5h-93q40 66 86 159t93 224l78 217h-227l-12 -63h-60v122h405z" />
    <glyph glyph-name="eight" unicode="8" 
d="M460 158q0 -34 -15 -64.5t-42.5 -54t-67.5 -37.5t-90 -14q-48 0 -86 13t-64.5 35.5t-40.5 51t-14 60.5q0 14 3.5 33t12.5 39t23.5 39.5t35.5 34.5l73 53l-34 26q-50 37 -67.5 75t-17.5 75q0 28 14.5 55t39.5 47t59 32.5t73 12.5q35 0 66 -9t54.5 -27t37.5 -44.5t14 -60.5
q0 -89 -65 -139l-48 -37l8 -6q24 -18 49 -37.5t44.5 -42t32 -49.5t12.5 -60zM378 156q0 27 -22 59.5t-56 57.5l-53 39l-68 -52q-24 -19 -40 -45t-16 -60q0 -52 34.5 -80.5t88.5 -28.5q33 0 57.5 9.5t41 25t25 35.5t8.5 40zM348 526q0 38 -26.5 62.5t-66.5 24.5
q-50 0 -78.5 -25t-28.5 -67q0 -32 17 -55.5t59 -53.5l30 -22l46 37q16 12 25.5 26t14.5 27.5t6.5 25t1.5 20.5z" />
    <glyph glyph-name="nine" unicode="9" 
d="M458 419q0 -131 -77 -245t-218 -192l-44 55q36 17 74.5 45.5t72 63t58 72t32.5 73.5q-20 -9 -36 -15t-31.5 -9t-32 -4.5t-37.5 -1.5q-44 0 -76.5 17t-54 45t-32.5 64t-11 74q0 42 12 79.5t37 66.5t63 46t89 17q49 0 88.5 -12t67 -41t42 -77.5t14.5 -120.5zM371 414
q0 100 -28.5 146t-99.5 46q-38 0 -60.5 -13t-33.5 -33.5t-14 -45.5t-3 -48q0 -29 6.5 -54t21 -43t36.5 -28.5t53 -10.5q36 0 64 7t56 21q1 10 1.5 27t0.5 29z" />
    <glyph glyph-name="colon" unicode=":" horiz-adv-x="250" 
d="M191 398q0 -28 -20 -47t-46 -19t-46 19t-20 46q0 26 20 46t46 20t46 -19.5t20 -45.5zM191 54q0 -27 -20 -47t-46 -20t-46 19.5t-20 47.5q0 26 20 45t46 19t46 -19t20 -45z" />
    <glyph glyph-name="semicolon" unicode=";" horiz-adv-x="250" 
d="M195 398q0 -28 -20 -47t-46 -19t-46.5 19t-20.5 46q0 26 20.5 46t46.5 20t46 -19.5t20 -45.5zM193 11q0 -35 -28.5 -81.5t-79.5 -97.5l-30 22q27 40 40.5 76.5t13.5 56.5q0 15 -12.5 28t-41.5 19l60 85q22 -2 37 -12.5t24 -26t13 -33.5t4 -36z" />
    <glyph glyph-name="less" unicode="&#x3c;" 
d="M22 195v64l456 200v-75l-368 -158l368 -156v-75z" />
    <glyph glyph-name="equal" unicode="=" 
d="M22 279v69h456v-69h-456zM22 102v69h456v-69h-456z" />
    <glyph glyph-name="greater" unicode="&#x3e;" 
d="M22 -5v75l368 156l-368 158v75l456 -200v-64z" />
    <glyph glyph-name="question" unicode="?" horiz-adv-x="405" 
d="M365 441q0 -43 -9.5 -78.5t-19.5 -64.5h-144v-107h-70v176h149q7 18 10.5 39t3.5 53q0 37 -10 68t-33.5 53.5t-61.5 35t-94 13.5l24 74q134 -2 194.5 -65.5t60.5 -196.5zM225 51q0 -26 -19 -45t-45 -19t-45 19t-19 45t19 44.5t45 18.5t45 -18.5t19 -44.5z" />
    <glyph glyph-name="at" unicode="@" horiz-adv-x="1000" 
d="M948 243q0 -53 -17.5 -102t-49 -86.5t-75.5 -60t-96 -22.5q-23 0 -45.5 3.5t-40.5 8t-30.5 9t-15.5 6.5q-5 31 -7.5 59t-2.5 65q-26 -60 -71 -98.5t-109 -38.5q-32 0 -52 25.5t-31.5 61t-16 72t-4.5 59.5q0 45 11 91t34.5 83.5t60 61.5t88.5 24q23 0 48 -9t45 -24l10 34
h64q-1 -86 -3 -170.5t-2 -170.5q0 -15 0.5 -26.5t2 -21.5t2.5 -19.5t3 -20.5q25 -6 57 -6q45 0 76.5 16t52 44.5t30 67t9.5 83.5q0 90 -33 158.5t-86 115t-120 70t-135 23.5q-75 0 -142 -28.5t-118 -79.5t-81 -122t-30 -155q0 -80 27 -148.5t76 -118t117.5 -77.5t151.5 -28
q64 0 109 15t76 32l33 -60q-38 -21 -95.5 -38.5t-121.5 -17.5q-100 0 -182.5 34.5t-142 94.5t-92 140t-32.5 170q0 97 35.5 180.5t96.5 144.5t142.5 95.5t173.5 34.5q91 0 172.5 -31t143 -88t97 -137t35.5 -177zM570 359q-15 21 -38 29t-47 8q-14 0 -30.5 -0.5t-21.5 -4.5
q-17 -12 -29.5 -33t-20.5 -45t-12.5 -49t-4.5 -44q0 -13 1.5 -40t7.5 -54.5t18.5 -48t34.5 -20.5q20 0 38 13t33.5 33.5t28 46.5t21.5 52t14 49.5t6 39.5q1 20 1 34v34z" />
    <glyph glyph-name="A" unicode="A" horiz-adv-x="549" 
d="M458 0l-66 189h-239l-70 -189h-76l255 681h38l242 -681h-84zM276 523l-100 -268h192z" />
    <glyph glyph-name="B" unicode="B" horiz-adv-x="607" 
d="M552 178q0 -40 -14.5 -73t-41.5 -56t-65 -36t-85 -13h-244v657q8 1 23.5 1.5t22.5 0.5q25 1 45 2t39 1.5t40 1t48 0.5q52 0 89 -13.5t59.5 -35.5t33 -50.5t10.5 -58.5q0 -62 -29.5 -105.5t-82.5 -48.5q34 -2 62 -13.5t48 -33.5t31 -53.5t11 -73.5zM466 190q0 64 -42 95.5
t-110 31.5h-133v-253h127q80 0 119 28.5t39 97.5zM425 491q0 46 -31.5 77t-89.5 31h-2l-121 -1v-215h112q69 0 100.5 28.5t31.5 79.5z" />
    <glyph glyph-name="C" unicode="C" horiz-adv-x="623" 
d="M589 26q-41 -20 -91.5 -29t-112.5 -9q-61 0 -121.5 22t-108.5 65t-78 106.5t-30 145.5q0 72 26 134.5t71.5 109t108 73t135.5 26.5q38 0 66.5 -2.5t51.5 -7t42.5 -11.5t40.5 -17l-6 -75q-45 25 -94 35.5t-111 10.5q-49 0 -92.5 -18.5t-76.5 -53.5t-52.5 -85t-19.5 -113
q0 -59 20 -110t54.5 -88t81 -58t99.5 -21q49 0 97 10.5t94 35.5z" />
    <glyph glyph-name="D" unicode="D" horiz-adv-x="700" 
d="M653 333q0 -54 -16.5 -113t-55 -107.5t-100.5 -80.5t-152 -32h-227v657l45 3q46 3 85 3q24 0 49.5 -0.5t57.5 -0.5q88 0 148 -30t97 -77.5t53 -106t16 -115.5zM563 333q0 43 -11.5 90t-39.5 86t-73.5 64t-113.5 25h-5l-139 -2v-534h133q64 0 110.5 19t77.5 54t46 85
t15 113z" />
    <glyph glyph-name="E" unicode="E" horiz-adv-x="547" 
d="M102 0v659h376v-68h-297v-222h259v-68h-259v-233h319v-68h-398z" />
    <glyph glyph-name="F" unicode="F" horiz-adv-x="485" 
d="M181 591v-233h259v-68h-259v-290h-79v659h376v-68h-297z" />
    <glyph glyph-name="G" unicode="G" horiz-adv-x="692" 
d="M606 21q-20 -5 -38 -10.5t-41 -10.5t-53.5 -8.5t-74.5 -3.5q-83 0 -148.5 26.5t-110.5 72.5t-69 109t-24 136q0 66 24.5 127t69 108t106.5 75t137 28q38 0 66.5 -2t51.5 -6.5t43.5 -12t43.5 -17.5l-6 -75q-43 24 -91.5 35t-105.5 11q-54 0 -99.5 -20t-78.5 -55.5
t-52 -85.5t-19 -110q0 -65 21 -116t57 -86.5t84.5 -54.5t104.5 -19q36 0 65.5 6.5t58.5 17.5v194h-134v68h212v-321z" />
    <glyph glyph-name="H" unicode="H" horiz-adv-x="767" 
d="M586 0v297h-406v-297h-78v659h78v-292h406v292h78v-659h-78z" />
    <glyph glyph-name="I" unicode="I" horiz-adv-x="283" 
d="M102 0v659h78v-659h-78z" />
    <glyph glyph-name="J" unicode="J" horiz-adv-x="294" 
d="M192 49q0 -67 -18.5 -120t-52.5 -90t-82.5 -56.5t-107.5 -20.5v68q57 1 93 23.5t56 57.5t27 78.5t7 86.5v583h78v-610z" />
    <glyph glyph-name="K" unicode="K" horiz-adv-x="561" 
d="M460 0l-158 221q-29 40 -60.5 70.5t-60.5 50.5v-342h-79v659h79v-313q12 10 28 25.5t31.5 32t30 33t25.5 30.5l150 192h91l-146 -190q-10 -13 -23.5 -29t-27.5 -32t-28.5 -30.5t-25.5 -24.5q32 -31 62.5 -67t56.5 -72l153 -214h-98z" />
    <glyph glyph-name="L" unicode="L" horiz-adv-x="494" 
d="M102 0v659h79v-591h307v-68h-386z" />
    <glyph glyph-name="M" unicode="M" horiz-adv-x="880" 
d="M715 0l-34 567l-254 -581l-227 580l-41 -566h-73l49 659h101l91 -223q21 -53 40.5 -103t34.5 -90t24 -65.5t10 -28.5q1 3 11 29t26 66.5t36.5 89.5t41.5 98l99 227h95l48 -659h-78z" />
    <glyph glyph-name="N" unicode="N" horiz-adv-x="751" 
d="M558 0l-382 551v-551h-74v659h89l384 -553v554h74v-660h-91z" />
    <glyph glyph-name="O" unicode="O" horiz-adv-x="742" 
d="M695 330q0 -68 -23.5 -130t-66 -109.5t-102 -76t-130.5 -28.5q-72 0 -132 27.5t-103 75t-67 109.5t-24 131t24 131t67 109.5t103 75.5t132 28q71 0 130.5 -27.5t102 -74.5t66 -109.5t23.5 -131.5zM605 330q0 55 -16.5 104.5t-46.5 87.5t-73 60.5t-96 22.5t-96.5 -21.5
t-74.5 -58.5t-48 -87.5t-17 -107.5t17 -107.5t48 -88t74.5 -59t96.5 -21.5t96 22.5t73 60t46.5 87.5t16.5 106z" />
    <glyph glyph-name="P" unicode="P" horiz-adv-x="539" 
d="M513 463q0 -47 -19.5 -85t-52 -66t-73.5 -43t-83 -15h-19q-12 0 -27 0.5t-30.5 1.5t-27.5 3v-259h-79v658l37 2q19 1 45 2t50.5 1.5t44.5 0.5h29q42 0 79 -13.5t65 -39.5t44.5 -63.5t16.5 -84.5zM423 463q0 70 -36.5 102.5t-105.5 32.5l-100 -1v-277h74q33 0 63.5 6.5
t54 23t37 44t13.5 69.5z" />
    <glyph glyph-name="Q" unicode="Q" horiz-adv-x="742" 
d="M695 332q0 -61 -20 -118t-57 -103t-89.5 -77.5t-117.5 -41.5q24 -43 50.5 -76.5t50 -56t41 -34t23.5 -11.5q25 0 50 9t54 23l5 -66q-26 -14 -54.5 -22.5t-58.5 -8.5q-23 0 -48.5 14t-50.5 36t-48.5 49t-44 53.5t-36 49t-24.5 36.5l-5 8q-61 11 -110.5 42t-84.5 76
t-54 101t-19 117q0 69 24 131t67 109t103 74.5t132 27.5q71 0 130.5 -27.5t102 -74t66 -108.5t23.5 -131zM605 332q0 54 -16.5 103.5t-46.5 87t-73 60t-96 22.5t-96.5 -21.5t-74.5 -58t-48 -86.5t-17 -107t17 -107t48 -87.5t74.5 -59t96.5 -21.5t96 22.5t73 60t46.5 87.5
t16.5 105z" />
    <glyph glyph-name="R" unicode="R" horiz-adv-x="574" 
d="M468 0q-19 22 -36 45l-34 46q-35 48 -70 95.5t-67 97.5h-80v-284h-79v657q45 2 89.5 5t89.5 3q46 0 88.5 -10t74 -32t50.5 -58.5t19 -88.5q0 -35 -11.5 -66t-32.5 -55.5t-50 -40.5t-63 -21l120 -171q23 -32 47 -62.5t51 -59.5h-106zM424 480q0 34 -13.5 56.5t-35.5 35.5
t-50 18t-57 5q-22 0 -43.5 -0.5t-43.5 -1.5v-243h85q34 0 63 6t50 21t33 40t12 63z" />
    <glyph glyph-name="S" unicode="S" horiz-adv-x="507" 
d="M457 174q0 -47 -18.5 -82t-48 -58.5t-67 -35.5t-75.5 -12q-55 0 -97 8.5t-81 26.5l12 79q38 -23 75 -34.5t87 -11.5q25 0 48 8t40 23t27 35t10 44q0 25 -11 43t-28.5 32t-40 26.5t-45.5 26.5l-22 13q-28 17 -55 34.5t-48 39t-34 48t-13 61.5q0 38 13.5 71.5t39 58
t62.5 38.5t83 14q32 0 56.5 -2t44.5 -6t38 -10t38 -14l-5 -79q-43 26 -80.5 35t-86.5 9q-28 0 -49 -9.5t-35.5 -25.5t-21.5 -35.5t-7 -38.5q0 -26 11.5 -45t30 -34t41.5 -28t47 -27l15 -9q28 -17 55 -34t48 -38t34 -46.5t13 -58.5z" />
    <glyph glyph-name="T" unicode="T" horiz-adv-x="522" 
d="M300 592v-592h-78v592h-215v68h508v-68h-215z" />
    <glyph glyph-name="U" unicode="U" horiz-adv-x="682" 
d="M596 229q0 -63 -19 -109t-54 -75t-83.5 -43t-107.5 -14q-49 0 -93.5 14.5t-78.5 42t-54 67.5t-20 92v455h78v-427q0 -53 16.5 -87t42 -53.5t56 -27.5t58.5 -8q32 0 64.5 8t58 28.5t41.5 54.5t16 86v426h79v-430z" />
    <glyph glyph-name="V" unicode="V" horiz-adv-x="582" 
d="M319 -16h-42l-270 675h83l210 -533l198 533h77z" />
    <glyph glyph-name="W" unicode="W" horiz-adv-x="875" 
d="M612 -16h-42l-128 323l-123 -323h-42l-270 675h83l210 -533l103 276l-103 257h83l60 -150l55 150h77l-94 -247l112 -286l198 533h77z" />
    <glyph glyph-name="X" unicode="X" horiz-adv-x="573" 
d="M474 0l-189 273l-194 -273h-84l236 333l-221 326h93l177 -257l182 257h81l-223 -319l234 -340h-92z" />
    <glyph glyph-name="Y" unicode="Y" horiz-adv-x="542" 
d="M312 276v-276h-79v276l-226 383h87l183 -307l178 307h80z" />
    <glyph glyph-name="Z" unicode="Z" horiz-adv-x="598" 
d="M39 0v43l395 549h-382v68h490v-44l-383 -548h401v-68h-521z" />
    <glyph glyph-name="bracketleft" unicode="[" horiz-adv-x="250" 
d="M66 -258v1001h184v-54h-121v-893h121v-54h-184z" />
    <glyph glyph-name="backslash" unicode="\" horiz-adv-x="313" 
d="M248 -258l-248 999h65l248 -999h-65z" />
    <glyph glyph-name="bracketright" unicode="]" horiz-adv-x="250" 
d="M0 -258v54h121v893h-121v54h184v-1001h-184z" />
    <glyph glyph-name="asciicircum" unicode="^" 
d="M408 262l-159 368l-156 -368h-76l202 456h62l202 -455z" />
    <glyph glyph-name="underscore" unicode="_" 
d="M0 -63v63h500v-63h-500z" />
    <glyph glyph-name="grave" unicode="`" horiz-adv-x="440" 
d="M212 521l-133 202h82l109 -202h-58z" />
    <glyph glyph-name="a" unicode="a" horiz-adv-x="448" 
d="M320 0q-5 18 -10 31.5t-9 33.5q-11 -16 -24.5 -30.5t-30.5 -25t-38.5 -16.5t-48.5 -6q-52 0 -82 29.5t-30 72.5q0 32 5 52.5t13 30.5q10 14 40.5 27.5t67 24.5t71 19t51.5 11v63q0 25 -4 41t-13.5 25t-26 12.5t-40.5 3.5q-32 0 -52.5 -6.5t-20.5 -32.5l-72 -6q0 39 9 68
q1 3 10.5 10t27.5 14.5t45.5 13t63.5 5.5q75 0 112.5 -32.5t37.5 -87.5v-210q0 -35 6 -72.5t14 -62.5h-72zM295 194q-18 -3 -40 -9t-44 -13.5t-43.5 -16t-37.5 -16.5q-4 -14 -4.5 -22t-0.5 -15q0 -21 10 -34.5t45 -13.5q22 0 43 10.5t37 23.5t25.5 25t9.5 15v66z" />
    <glyph glyph-name="b" unicode="b" horiz-adv-x="518" 
d="M476 236q0 -57 -16.5 -103t-47 -78.5t-75 -50t-100.5 -17.5q-31 0 -70 4t-85 13v726h77v-293q28 11 62.5 19.5t77.5 8.5q39 0 71.5 -12t56 -39.5t36.5 -71t13 -106.5zM392 230q0 36 -5.5 66.5t-18 52.5t-33 34.5t-50.5 12.5q-57 0 -64 -3q-11 -3 -28.5 -9.5t-33.5 -14.5
v-309q23 -5 40.5 -5.5t33.5 -0.5q75 0 117 44.5t42 131.5z" />
    <glyph glyph-name="c" unicode="c" horiz-adv-x="416" 
d="M403 30q-35 -23 -75 -33t-80 -10q-45 0 -83 15.5t-65 46.5t-42.5 76t-15.5 105q0 62 19 106.5t49 73t66.5 42t71.5 13.5q63 0 104.5 -18t46.5 -63q1 -7 1 -16v-17h-72q0 29 -17.5 38.5t-58.5 9.5q-23 0 -36.5 -2.5t-18.5 -5.5q-3 -2 -14.5 -9.5t-24 -25.5t-22.5 -48
t-10 -75q0 -48 13 -81.5t33.5 -55.5t46 -32t50.5 -10q14 0 31.5 3.5t35 10t33.5 15t28 17.5z" />
    <glyph glyph-name="d" unicode="d" horiz-adv-x="536" 
d="M385 0q-3 13 -5 27t-4 27q-34 -36 -65 -51.5t-76 -15.5q-41 0 -76 17t-61 48t-41 74.5t-15 97.5q0 115 62 178t168 63q31 0 51.5 -4t47.5 -11v280h77v-605q0 -34 2 -62.5t6 -62.5h-71zM371 315q0 28 -5 44.5t-17 25.5t-32.5 11.5t-51.5 2.5q-11 0 -24 -1t-24.5 -3
t-21 -4.5t-13.5 -6.5q-5 -4 -14 -16t-18.5 -31.5t-16.5 -46t-7 -59.5q0 -45 12 -78.5t30 -55.5t39 -32.5t40 -10.5q20 0 38 7t34 18t29 25t23 29v182z" />
    <glyph glyph-name="e" unicode="e" horiz-adv-x="460" 
d="M124 251q-2 -8 -2 -12v-13q0 -83 38.5 -127.5t109.5 -44.5q20 0 41 4t40 10.5t35 15t26 17.5l6 -70q-30 -19 -69 -31.5t-103 -12.5q-43 0 -80 16t-64.5 46.5t-43.5 74.5t-16 101q0 58 15 103t42 75.5t64 46t81 15.5q101 0 141.5 -53.5t40.5 -160.5h-302zM356 311
q-2 30 -12 47.5t-26 27t-36.5 12t-42.5 2.5q-16 0 -36 -5t-24 -9q-2 -2 -8 -7.5t-12.5 -15t-13.5 -22.5t-11 -30h222z" />
    <glyph glyph-name="f" unicode="f" horiz-adv-x="287" 
d="M392 647q-22 14 -41.5 21.5t-54.5 7.5q-26 0 -47.5 -6.5t-25.5 -9.5q-3 -2 -10.5 -10t-15.5 -30t-14.5 -61.5t-6.5 -105.5h116v-60h-116v-393h-77v392h-83v60h83v10q0 87 12.5 142t38 85.5t64.5 42t92 11.5q29 0 52 -5.5t42 -13.5z" />
    <glyph glyph-name="g" unicode="g" horiz-adv-x="534" 
d="M428 371q19 -31 19 -78q0 -86 -51 -131.5t-141 -45.5q-19 0 -28.5 1.5t-26.5 6.5q-17 -11 -33 -27.5t-16 -36.5q0 -9 7 -17.5t30 -8.5q39 0 74 4.5t73 4.5q40 0 69.5 -4.5t48.5 -16.5t28.5 -33.5t9.5 -55.5q0 -47 -21.5 -83t-57 -60t-81.5 -36.5t-96 -12.5
q-38 0 -70.5 4.5t-56 17t-37 33.5t-13.5 54q0 42 17.5 69.5t51.5 49.5q-9 2 -19 5.5t-18.5 11t-14 19.5t-5.5 32q0 13 7 28t18.5 29t25 26.5t27.5 21.5q-17 11 -32 23t-26 29t-17.5 40.5t-6.5 57.5q0 37 12 69t36 55t59.5 36t82.5 13q48 0 77.5 -10.5t45.5 -23.5h20
q11 0 26.5 0.5t31.5 1t31 2t26 4.5v-68h-86zM363 291q0 61 -24 85.5t-81 24.5q-26 0 -47.5 -7.5t-30.5 -17.5q-8 -8 -19 -30.5t-11 -54.5q0 -36 8 -58t22 -34t34 -15.5t44 -3.5q23 0 45 8.5t30 16.5q7 8 18.5 28t11.5 58zM413 -84q0 18 -2 30t-11 18.5t-27 9t-50 2.5
q-19 0 -33 -1t-26.5 -2.5t-26.5 -2.5t-34 -1q-30 -22 -48 -46t-18 -59q0 -19 6.5 -30.5t20 -17.5t34.5 -8t50 -2q36 0 66.5 8.5t52.5 23.5t34 35t12 43z" />
    <glyph glyph-name="h" unicode="h" horiz-adv-x="538" 
d="M456 117q0 -23 -0.5 -50.5t-1.5 -66.5h-77q1 38 1.5 64t1 47t0.5 40v87q0 27 -2 54q-2 26 -4.5 45.5t-10 32.5t-22 19.5t-39.5 6.5q-20 0 -42 -4.5t-27 -7.5q-4 -2 -13 -10.5t-20 -20.5t-22 -25t-19 -24v-304h-77v730h77v-341q29 34 63 55t87 21q30 0 55.5 -5.5t44 -19
t30 -36.5t14.5 -58q2 -34 2.5 -67.5t0.5 -67.5v-94z" />
    <glyph glyph-name="i" unicode="i" horiz-adv-x="251" 
d="M176 619q0 -21 -15.5 -39t-36.5 -18q-20 0 -34.5 17.5t-14.5 39.5q0 21 14.5 37.5t34.5 16.5q21 0 36.5 -16.5t15.5 -37.5zM87 0v453h77v-453h-77z" />
    <glyph glyph-name="j" unicode="j" horiz-adv-x="240" 
d="M165 619q0 -21 -15.5 -39t-36.5 -18q-20 0 -34.5 17.5t-14.5 39.5q0 21 14.5 37.5t34.5 16.5q21 0 36.5 -16.5t15.5 -37.5zM153 40q0 -103 -17.5 -162.5t-49 -90.5t-74 -40t-91.5 -10v69q46 1 76 12t47.5 39t24.5 76.5t7 125.5v394h77v-413z" />
    <glyph glyph-name="k" unicode="k" horiz-adv-x="457" 
d="M357 0l-167 205h-31v-205h-77v730h77v-469l180 192h103l-194 -202l204 -251h-95z" />
    <glyph glyph-name="l" unicode="l" horiz-adv-x="241" 
d="M82 0v730h77v-730h-77z" />
    <glyph glyph-name="m" unicode="m" horiz-adv-x="846" 
d="M764 117q0 -23 -0.5 -50.5t-1.5 -66.5h-77q1 38 1.5 64t0.5 47v153q0 14 -1 28q-2 26 -4.5 45.5t-10.5 32.5t-22.5 19.5t-39.5 6.5q-10 0 -20.5 -1.5t-20.5 -3t-17 -4t-10 -3.5q-4 -2 -13 -10.5t-20 -20.5t-22.5 -25t-19.5 -24v-304h-76v304q0 46 -15.5 69t-60.5 23
q-10 0 -20.5 -1.5t-20.5 -3t-17 -4t-10 -3.5q-4 -2 -13 -10.5t-20 -20.5t-22.5 -25t-19.5 -24v-304h-77v327q0 36 -2.5 67.5t-5.5 58.5h71l12 -67q29 34 64.5 56.5t87.5 22.5q53 0 89 -17.5t49 -67.5q32 39 68.5 62t88.5 23q30 0 55.5 -5.5t44 -19t30 -36.5t14.5 -58
q3 -34 3.5 -67.5t0.5 -67.5v-94z" />
    <glyph glyph-name="n" unicode="n" horiz-adv-x="551" 
d="M469 162q0 -22 -0.5 -45t-1 -50.5t-1.5 -66.5h-76q1 38 1.5 64t0.5 47v153q0 14 -1 28q-2 26 -4.5 45.5t-10.5 32.5t-22.5 19.5t-39.5 6.5q-10 0 -20.5 -1.5t-20.5 -3t-17 -4t-10 -3.5q-4 -2 -13 -10.5t-20 -20.5t-22.5 -25t-19.5 -24v-304h-77v327q0 39 -2.5 69t-5.5 57
h71l12 -67q29 34 64.5 56.5t87.5 22.5q30 0 55.5 -5.5t44 -19t30 -36.5t14.5 -58q3 -34 3.5 -67.5t0.5 -67.5v-49z" />
    <glyph glyph-name="o" unicode="o" horiz-adv-x="516" 
d="M474 226q0 -53 -15.5 -96.5t-44 -75.5t-70 -49.5t-92.5 -17.5q-47 0 -86 17t-66.5 48t-42.5 75t-15 99q0 50 14.5 93.5t42 76t69 51t95.5 18.5q48 0 86.5 -16.5t66.5 -47.5t43 -75.5t15 -99.5zM390 240q-4 47 -16 77.5t-30.5 48.5t-41.5 25.5t-49 7.5q-27 0 -48.5 -9
t-28.5 -16q-4 -4 -12.5 -15.5t-17 -30.5t-15 -43.5t-6.5 -53.5q0 -54 13 -88.5t33 -54t44 -27t47 -7.5q12 0 24 2.5t23 6t19 8t12 8.5t12.5 15.5t17 29.5t15 42t6.5 53v10q0 6 -1 11z" />
    <glyph glyph-name="p" unicode="p" horiz-adv-x="526" 
d="M484 245q0 -59 -16 -106.5t-44.5 -81t-68.5 -52t-88 -18.5q-57 0 -100 23v-259h-77v576q0 17 -0.5 32t-1.5 29.5t-2.5 30t-3.5 34.5h71l12 -67q36 42 71.5 60.5t83.5 18.5q34 0 64 -12t52.5 -38t35 -68t12.5 -102zM400 236q0 24 -3 52t-13.5 52t-30 40t-51.5 16
q-17 0 -36 -4.5t-24 -7.5q-3 -2 -12 -10.5t-20.5 -20t-23 -25t-19.5 -25.5v-223q16 -10 41 -18t48 -8q74 0 109 50t35 132z" />
    <glyph glyph-name="q" unicode="q" horiz-adv-x="522" 
d="M370 -249v260q-62 -24 -137 -24q-42 0 -77 18.5t-60.5 50t-39.5 73t-14 86.5q0 53 12.5 99t40 79.5t70.5 52.5t104 19q18 0 41.5 -2t48 -4t47.5 -4t40 -2v-702h-76zM370 390q-35 7 -59.5 8t-46.5 1q-29 0 -50.5 -4t-28.5 -10q-3 -2 -12.5 -11.5t-20 -27.5t-18.5 -45.5
t-8 -66.5q0 -44 11.5 -78t31 -56.5t44 -34t50.5 -11.5q34 0 57.5 7.5t49.5 19.5v309z" />
    <glyph glyph-name="r" unicode="r" horiz-adv-x="347" 
d="M294 363q0 2 -1 7.5t-4 11t-9.5 9.5t-17.5 4q-16 0 -30 -11.5t-25.5 -28t-20.5 -35t-15 -32.5v-288h-77v329q0 36 -2 63t-6 61h71l13 -72q6 15 15.5 29.5t23 26.5t30 19.5t34.5 7.5q63 0 71 -66q1 -7 2 -13.5t1 -13.5z" />
    <glyph glyph-name="s" unicode="s" horiz-adv-x="400" 
d="M359 122q0 -26 -10.5 -50.5t-31.5 -43t-53.5 -30t-76.5 -11.5q-42 0 -80 9.5t-64 27.5l9 72q18 -11 32 -19.5t29 -14.5t32 -9t40 -3q45 0 71 19t26 48q0 21 -18 36.5t-44.5 29t-58 27t-58 31t-44.5 41t-18 57.5q0 53 41.5 89.5t126.5 36.5q48 0 83.5 -10.5t60.5 -23.5
l-8 -72q-33 27 -70 35.5t-72 8.5q-15 0 -30.5 -3t-27.5 -10t-19.5 -18.5t-7.5 -27.5q0 -21 18 -36t44.5 -28t58 -26.5t58 -31t44.5 -42t18 -58.5z" />
    <glyph glyph-name="t" unicode="t" horiz-adv-x="309" 
d="M287 16q-18 -11 -44.5 -20t-52.5 -9q-41 0 -69.5 27t-28.5 86v292h-82v60h82v154h75v-153h119v-60h-119v-268q0 -37 10.5 -54t36.5 -17q17 0 33.5 9t33.5 17z" />
    <glyph glyph-name="u" unicode="u" horiz-adv-x="544" 
d="M392 0l-12 66q-16 -22 -31.5 -37t-33.5 -24.5t-39.5 -13.5t-48.5 -4q-30 0 -56.5 6t-46 19.5t-31 36.5t-11.5 57v347h77v-293q0 -21 2 -40t9.5 -34t22.5 -23.5t41 -8.5q42 0 80 18q10 8 20 19t18.5 22t15 21.5t9.5 17.5v301h77v-328q0 -31 1.5 -62.5t6.5 -62.5h-70z" />
    <glyph glyph-name="v" unicode="v" horiz-adv-x="418" 
d="M245 -13h-60l-180 466h82l132 -349l118 349h76z" />
    <glyph glyph-name="w" unicode="w" horiz-adv-x="658" 
d="M497 -13h-60l-106 297l-97 -297h-60l-169 466h82l120 -351l124 371l140 -371l106 351h76z" />
    <glyph glyph-name="x" unicode="x" horiz-adv-x="410" 
d="M316 0l-112 174l-119 -174h-80l160 231l-146 222h89l101 -158l108 158h80l-148 -219l156 -234h-89z" />
    <glyph glyph-name="y" unicode="y" horiz-adv-x="418" 
d="M245 -21q-20 -57 -42.5 -114.5t-45.5 -113.5h-84q30 65 59 126.5t49 117.5l-176 458h82l132 -348l118 348h76z" />
    <glyph glyph-name="z" unicode="z" horiz-adv-x="407" 
d="M32 0v49l242 340h-238v64h332v-47l-242 -343h249v-63h-343z" />
    <glyph glyph-name="braceleft" unicode="{" horiz-adv-x="313" 
d="M251 -255q-44 0 -70.5 12.5t-41.5 34t-20 49.5t-5 59v206q0 23 -3.5 43.5t-13 36.5t-26 25t-42.5 9h-29v52h29q27 0 43.5 9.5t26 25t12.5 36t3 43.5v190q0 31 5 60t19.5 51t41.5 35t71 13h54v-56h-44q-27 0 -42.5 -6.5t-23.5 -19t-10 -30t-2 -39.5v-204q0 -23 -3.5 -44
t-13 -39t-26.5 -31t-45 -20q28 -7 45.5 -20.5t27.5 -31.5t13.5 -40t3.5 -45q0 -59 -1 -108t-1 -107q0 -21 3 -38t11.5 -29.5t23.5 -19t40 -6.5h44v-56h-54z" />
    <glyph glyph-name="bar" unicode="|" horiz-adv-x="250" 
d="M94 -258v999h62v-999h-62z" />
    <glyph glyph-name="braceright" unicode="}" horiz-adv-x="313" 
d="M276 220q-26 0 -42.5 -9t-26 -24.5t-13 -36.5t-3.5 -44v-216q0 -31 -5 -59t-20 -49.5t-42 -34t-70 -12.5h-54v56h44q26 0 41.5 7t24 20.5t11 31.5t2.5 41v228q0 22 3.5 42t13.5 36.5t27 29t43 19.5q-26 6 -43 18.5t-27 28.5t-13.5 36t-3.5 41v214q0 22 -2.5 39.5
t-10.5 30t-23.5 19t-42.5 6.5h-44v56h54q44 0 71 -13t41.5 -35t19.5 -51t5 -60v-190q0 -23 3 -43t12.5 -36t26 -25t43.5 -9h29v-53h-29z" />
    <glyph glyph-name="asciitilde" unicode="~" 
d="M493 224q-35 -23 -74 -43t-83 -20q-25 0 -48 9t-45 20t-43.5 20t-43.5 9q-14 0 -29.5 -5t-30.5 -13t-28.5 -17.5t-23.5 -17.5l-37 60q15 12 34 23.5t39.5 20t41.5 14t40 5.5q25 0 48.5 -9t46 -20t44.5 -20t44 -9q13 0 28.5 5t30.5 12.5t28.5 17t23.5 18.5z" />
    <glyph glyph-name="uni00A0" unicode="&#xa0;" horiz-adv-x="250" 
 />
    <glyph glyph-name="exclamdown" unicode="&#xa1;" horiz-adv-x="250" 
d="M189 399q0 -26 -19 -44.5t-45 -18.5t-45 18.5t-19 44.5t19 45t45 19t45 -19t19 -45zM74 -211l11 457h70l14 -456z" />
    <glyph glyph-name="cent" unicode="&#xa2;" 
d="M466 22q-32 -15 -67 -21.5t-73 -8.5v-105h-62v108q-42 6 -80 24t-67.5 48.5t-47 73.5t-17.5 97q0 48 15.5 90t43 74.5t66.5 54t86 28.5v117h63v-114q47 -2 77 -8.5t63 -19.5l-7 -76q-34 17 -65.5 25t-67.5 10v-359q32 2 64.5 9.5t68.5 26.5zM264 417q-59 -11 -93.5 -57
t-34.5 -118q0 -33 8.5 -62t25 -52t40 -39.5t53.5 -23.5z" />
    <glyph glyph-name="sterling" unicode="&#xa3;" 
d="M483 554q0 -10 -1 -19t-2 -19h-68q0 32 -15.5 42t-44.5 10q-20 0 -40 -5t-36 -19q-7 -6 -13 -28.5t-11 -48.5t-8.5 -50t-4.5 -33l-19 -124h102l-9 -60h-102q-2 -8 -5.5 -27t-9.5 -39.5t-13.5 -38t-17.5 -22.5q18 0 39 -4t42.5 -9.5t42.5 -9.5t38 -4q29 0 44.5 9.5
t15.5 42.5h69q1 -12 1.5 -21t0.5 -17q0 -12 -5.5 -25.5t-20.5 -24.5t-41 -18.5t-66 -7.5q-24 0 -49 4.5t-50.5 10.5t-49.5 10.5t-45 4.5q-22 0 -37.5 -1t-29 -3.5t-26.5 -6t-31 -9.5l11 72q33 6 56.5 11.5t34.5 25.5q5 9 7.5 18.5t4.5 19.5q4 15 7 29.5t6 29.5h-94l10 60h93
l16 105q5 31 10 64t13 64q9 34 21.5 59.5t31.5 43t47 26t67 8.5q18 0 41 -2.5t44 -11t35 -23.5t14 -39z" />
    <glyph glyph-name="currency" unicode="&#xa4;" 
d="M443 -11l-109 109q-37 -26 -84 -26q-22 0 -42 6t-38 17l-106 -106l-49 48l106 105q-25 39 -25 84q0 46 25 84l-106 106l49 49l106 -108q37 23 80 23q46 0 84 -24l109 109l48 -49l-110 -110q23 -35 23 -80q0 -43 -23 -80l110 -108zM341 226q0 19 -7 36t-19.5 29.5
t-29 19.5t-35.5 7q-38 0 -64 -26.5t-26 -65.5q0 -38 26 -64t64 -26q19 0 35.5 7t29 19t19.5 28.5t7 35.5z" />
    <glyph glyph-name="yen" unicode="&#xa5;" 
d="M329 331h137v-55h-172v-68h172v-55h-171v-153h-85v153h-176v55h176v68h-176v55h140l-167 328h95l154 -307l149 307h88z" />
    <glyph glyph-name="brokenbar" unicode="&#xa6;" horiz-adv-x="250" 
d="M95 325v406h56v-406h-56zM95 -258v407h56v-407h-56z" />
    <glyph glyph-name="section" unicode="&#xa7;" horiz-adv-x="438" 
d="M398 650q0 -9 -1 -18t-3 -16h-70q0 34 -19 43t-45 9q-36 0 -59 -13t-36 -37.5t-17.5 -59.5t-4.5 -78q0 -143 30 -284t72 -277h-60q-57 145 -90.5 293.5t-33.5 304.5q0 42 11 81t36 68t66.5 46.5t101.5 17.5q15 0 36 -3t40 -12t32.5 -24.5t13.5 -40.5zM387 -44
q0 -42 -11 -80.5t-36 -67.5t-66.5 -46.5t-101.5 -17.5q-15 0 -36 3t-40 12t-32.5 24.5t-13.5 40.5q0 9 1 18t3 16h70q0 -34 19 -43t45 -9q36 0 59 13t36 37t17.5 59t4.5 79q0 143 -30 284t-72 277h60q57 -145 90.5 -293.5t33.5 -305.5z" />
    <glyph glyph-name="dieresis" unicode="&#xa8;" horiz-adv-x="440" 
d="M343 581q0 -23 -15 -39t-38 -16t-38.5 16t-15.5 39t15.5 40.5t38.5 17.5t38 -17t15 -41zM175 581q0 -23 -15.5 -39t-38.5 -16t-38 16t-15 39t15 40.5t38 17.5t38.5 -17t15.5 -41z" />
    <glyph glyph-name="copyright" unicode="&#xa9;" horiz-adv-x="1000" 
d="M948 229q0 -92 -35 -173.5t-95.5 -142.5t-142 -96t-174.5 -35t-174.5 35t-142.5 96t-96.5 142t-35.5 174t35.5 174t96.5 142t142.5 96t174.5 35t174.5 -35t142 -96t95.5 -142t35 -174zM874 227q0 78 -29.5 147.5t-80.5 121t-119 82t-145 30.5t-145 -30.5t-119 -82
t-80.5 -120.5t-29.5 -147t29.5 -146.5t80.5 -119.5t119 -81t145 -30t145 30t119 81t80.5 119.5t29.5 145.5zM670 21q-33 -17 -69.5 -23t-79.5 -6q-44 0 -87 15.5t-77.5 45t-56 73t-21.5 100.5q0 50 18.5 93.5t51.5 76t77.5 51t96.5 18.5q27 0 47 -1.5t36.5 -5.5t31.5 -9.5
t32 -12.5l-5 -67q-38 20 -72.5 27.5t-76.5 7.5q-32 0 -61 -11.5t-51 -34t-35 -54.5t-13 -73q0 -38 13 -70.5t36 -56t54 -37t66 -13.5q33 0 67.5 7t72.5 28z" />
    <glyph glyph-name="ordfeminine" unicode="&#xaa;" horiz-adv-x="326" 
d="M229 344l-14 34q-17 -17 -40.5 -30t-60.5 -13q-38 0 -61 21t-23 53q0 23 4.5 33.5t9.5 18.5t30 18.5t51 17.5q12 3 21 5l18 5q9 3 19 4.5t23 3.5v52q0 32 -10.5 42.5t-43.5 10.5h-17q-8 0 -17 -2q-8 -3 -13 -8t-5 -17l-56 -6q0 16 0.5 27t5.5 27q2 7 30 20t80 13
q54 0 82.5 -23.5t28.5 -64.5v-167q0 -11 5 -30t16 -45h-63zM206 473q-32 -8 -55.5 -16t-52.5 -19q-3 -11 -3 -19q0 -14 6 -24t29 -10q11 0 24.5 4t25 10.5t19 14t7.5 15.5v44z" />
    <glyph glyph-name="guillemotleft" unicode="&#xab;" horiz-adv-x="546" 
d="M263 220l227 203v-89l-109 -114l109 -114v-88zM42 220l228 203v-89l-109 -114l109 -114v-89z" />
    <glyph glyph-name="logicalnot" unicode="&#xac;" 
d="M419 174v211h-405v68h472v-279h-67z" />
    <glyph glyph-name="uni00AD" unicode="&#xad;" horiz-adv-x="375" 
d="M62 194v75h252v-75h-252z" />
    <glyph glyph-name="registered" unicode="&#xae;" horiz-adv-x="625" 
d="M598 390q0 -59 -22.5 -110.5t-61 -90t-90.5 -60.5t-110 -22q-59 0 -111 22t-91 60t-62 90t-23 111t23 110.5t62 90t91 60.5t111 22q58 0 110 -22t90.5 -60.5t61 -90t22.5 -110.5zM540 391q0 47 -18 88t-48.5 71.5t-72 48t-88.5 17.5t-88.5 -17.5t-72.5 -48t-49 -71.5
t-18 -88t18 -88.5t49 -72.5t72.5 -48.5t88.5 -17.5t88.5 18t72 48.5t48.5 72t18 88.5zM384 239q-10 10 -18.5 21t-16.5 22l-63 83h-26v-126h-51v306q23 2 45.5 3.5t45.5 1.5q22 0 43 -4.5t37 -15.5t26 -28.5t10 -42.5q0 -32 -19 -56t-49 -32q25 -35 51 -68t55 -64h-70z
M359 460q0 14 -6 22.5t-15.5 13.5t-21.5 6.5t-23 1.5h-33v-95h33q28 0 47 9.5t19 41.5z" />
    <glyph glyph-name="macron" unicode="&#xaf;" horiz-adv-x="440" 
d="M44 556v65h352v-65h-352z" />
    <glyph glyph-name="degree" unicode="&#xb0;" horiz-adv-x="375" 
d="M341 575q0 -32 -12 -60t-32.5 -49t-48.5 -33t-60 -12t-60 12t-49 33t-33 49t-12 60t12 60t33 49t49 33t60 12t60 -12t48.5 -33t32.5 -49t12 -60zM279 575q0 38 -26.5 64.5t-64.5 26.5q-19 0 -35.5 -7t-28.5 -19.5t-19 -29t-7 -35.5q0 -38 26 -64t64 -26q19 0 35.5 7
t29 19t19.5 28.5t7 35.5z" />
    <glyph glyph-name="plusminus" unicode="&#xb1;" 
d="M284 268v-166h-69v165h-193v69h193v165h69v-165h194v-68h-194zM22 1v69h456v-69h-456z" />
    <glyph glyph-name="twosuperior" unicode="&#xb2;" horiz-adv-x="360" 
d="M21 290q38 45 75 85t67 78t48.5 75t18.5 77t-19 56t-53 16q-22 0 -50.5 -8.5t-61.5 -27.5l-6 68q29 14 58 22t69 8q19 0 43 -4.5t45 -18t35.5 -37.5t14.5 -64q0 -36 -8.5 -66.5t-23.5 -57.5t-34 -52t-40 -50q-14 -17 -29.5 -35t-32.5 -38h186v-60h-302v34z" />
    <glyph glyph-name="threesuperior" unicode="&#xb3;" horiz-adv-x="360" 
d="M120 250q-17 0 -34.5 2.5t-38.5 9.5l6 62q20 -7 35.5 -9.5t29.5 -2.5q22 0 42.5 4t36.5 13.5t25 24.5t9 36q0 39 -30.5 59.5t-69.5 20.5h-40v57q57 0 91 26.5t34 73.5q0 21 -21 36t-50 15q-34 0 -92 -37l-6 68q17 8 29.5 14t24.5 9.5t26 5.5t33 2q25 0 48.5 -7
t41.5 -20.5t29 -33t11 -45.5q0 -45 -18 -76.5t-48 -48.5q34 -11 60.5 -39.5t26.5 -76.5q0 -37 -17.5 -64t-45.5 -44.5t-61.5 -26t-66.5 -8.5z" />
    <glyph glyph-name="acute" unicode="&#xb4;" horiz-adv-x="440" 
d="M212 521h-57l109 202h81z" />
    <glyph glyph-name="mu" unicode="&#xb5;" horiz-adv-x="523" 
d="M392 0l-13 64l-35 -35q-14 -14 -29.5 -23.5t-35.5 -14t-52 -4.5q-20 0 -41.5 2.5t-40.5 11.5l7 -251h-76l5 183q1 27 1.5 46t0.5 46q0 108 -0.5 214t-0.5 214h76v-295q0 -21 2.5 -39.5t10.5 -33t23 -23t40 -8.5t42 5t40 16q6 3 15 13t18 22.5t17 24t11 17.5v301h77v-332
q0 -30 2 -60.5t6 -60.5h-70z" />
    <glyph glyph-name="paragraph" unicode="&#xb6;" horiz-adv-x="660" 
d="M475 -254v919h-65v-919h-75v434h-24q-51 0 -95 19t-77 53.5t-52 83.5t-19 109q0 61 20 111t54.5 85.5t81.5 55t101 19.5h224v-970h-74z" />
    <glyph glyph-name="periodcentered" unicode="&#xb7;" 
d="M316 229q0 -27 -20 -47t-46 -20t-46 19.5t-20 47.5q0 26 20 45t46 19t46 -19t20 -45z" />
    <glyph glyph-name="cedilla" unicode="&#xb8;" horiz-adv-x="431" 
d="M326 -134q0 -23 -10 -39t-26 -27t-36 -16t-40 -5q-15 0 -25.5 0.5t-19.5 2t-18.5 5t-22.5 8.5l26 49q10 -6 23 -9t27 -3q22 0 37.5 7.5t15.5 24.5q0 14 -9.5 22.5t-24.5 12.5t-32.5 5t-32.5 1l53 95h55l-34 -61q41 0 67.5 -20t26.5 -53z" />
    <glyph glyph-name="onesuperior" unicode="&#xb9;" horiz-adv-x="360" 
d="M73 256v61h78v350h-78v61h150v-411h77v-61h-227z" />
    <glyph glyph-name="ordmasculine" unicode="&#xba;" horiz-adv-x="386" 
d="M355 505q0 -38 -12 -69t-33.5 -53.5t-52.5 -35t-69 -12.5q-35 0 -63.5 12t-49.5 34t-32.5 53.5t-11.5 70.5q0 35 11 66t32 54t52 36.5t71 13.5q34 0 63 -12t50 -34.5t33 -53.5t12 -70zM251 406q17 17 26.5 44t9.5 56q0 22 -5.5 42.5t-17 36.5t-29.5 26t-43 10
q-17 0 -34.5 -6t-23.5 -12q-2 -3 -8 -10.5t-12 -19.5t-10.5 -28t-4.5 -35q0 -35 8.5 -58t22 -36.5t30.5 -19.5t34 -6q20 0 36 5.5t21 10.5z" />
    <glyph glyph-name="guillemotright" unicode="&#xbb;" horiz-adv-x="546" 
d="M276 17v89l109 114l-109 114v89l228 -203zM56 17v89l109 114l-109 114v89l228 -203z" />
    <glyph glyph-name="onequarter" unicode="&#xbc;" horiz-adv-x="920" 
d="M73 256v61h78v350h-78v61h150v-411h77v-61h-227zM281 -48l-48 29l396 779l49 -30zM832 0h-71v136h-177v50q40 81 91 155t108 143h49v-288h65v-60h-65v-136zM761 357q-26 -39 -51 -79t-46 -82h97v161z" />
    <glyph glyph-name="onehalf" unicode="&#xbd;" horiz-adv-x="920" 
d="M73 256v61h78v350h-78v61h150v-411h77v-61h-227zM281 -48l-48 29l396 779l49 -30zM581 34q38 45 75 85t67 78t48.5 75t18.5 77t-19 56t-53 16q-22 0 -50.5 -8.5t-61.5 -27.5l-6 68q29 14 58 22t69 8q19 0 43 -4.5t45 -18t35.5 -37.5t14.5 -64q0 -36 -8.5 -66.5
t-23.5 -57.5t-34 -52t-40 -50q-14 -17 -29.5 -35t-32.5 -38h186v-60h-302v34z" />
    <glyph glyph-name="threequarters" unicode="&#xbe;" horiz-adv-x="920" 
d="M120 250q-17 0 -34.5 2.5t-38.5 9.5l6 62q20 -7 35.5 -9.5t29.5 -2.5q22 0 42.5 4t36.5 13.5t25 24.5t9 36q0 39 -30.5 59.5t-69.5 20.5h-40v57q57 0 91 26.5t34 73.5q0 21 -21 36t-50 15q-34 0 -92 -37l-6 68q17 8 29.5 14t24.5 9.5t26 5.5t33 2q25 0 48.5 -7
t41.5 -20.5t29 -33t11 -45.5q0 -45 -18 -76.5t-48 -48.5q34 -11 60.5 -39.5t26.5 -76.5q0 -37 -17.5 -64t-45.5 -44.5t-61.5 -26t-66.5 -8.5zM281 -48l-48 29l396 779l49 -30zM832 0h-71v136h-177v50q40 81 91 155t108 143h49v-288h65v-60h-65v-136zM761 357
q-26 -39 -51 -79t-46 -82h97v161z" />
    <glyph glyph-name="questiondown" unicode="&#xbf;" horiz-adv-x="405" 
d="M363 399q0 -26 -19 -44.5t-45 -18.5t-45 18.5t-19 44.5t19 45t45 19t45 -19t19 -45zM350 -233q-67 1 -115.5 20.5t-79.5 53.5t-45.5 79.5t-14.5 98.5q0 18 3 35.5t7.5 32.5t9.5 27t9 18h144v127h70v-196h-149q-9 -17 -11.5 -33t-2.5 -29q0 -27 10 -55t33 -51t61.5 -38
t94.5 -16z" />
    <glyph glyph-name="Agrave" unicode="&#xc0;" horiz-adv-x="549" 
d="M458 0l-66 189h-239l-70 -189h-76l255 681h38l242 -681h-84zM276 523l-100 -268h192zM252 707l-127 185h78l104 -185h-55z" />
    <glyph glyph-name="Aacute" unicode="&#xc1;" horiz-adv-x="549" 
d="M458 0l-66 189h-239l-70 -189h-76l255 681h38l242 -681h-84zM276 523l-100 -268h192zM309 696h-56l105 185h78z" />
    <glyph glyph-name="Acircumflex" unicode="&#xc2;" horiz-adv-x="549" 
d="M458 0l-66 189h-239l-70 -189h-76l255 681h38l242 -681h-84zM276 523l-100 -268h192zM367 693l-80 107l-84 -107h-57l113 178h52l117 -178h-61z" />
    <glyph glyph-name="Atilde" unicode="&#xc3;" horiz-adv-x="549" 
d="M458 0l-66 189h-239l-70 -189h-76l255 681h38l242 -681h-84zM276 523l-100 -268h192zM466 768q-27 -24 -55.5 -40t-65.5 -16q-27 0 -44 7.5t-30 16.5t-25.5 16.5t-29.5 7.5q-11 0 -22.5 -4t-22.5 -10t-20 -12.5t-15 -10.5l-29 38q32 27 61 43.5t71 16.5q17 0 31 -8
t27.5 -17.5t29 -17.5t36.5 -8q17 0 36 12t39 25z" />
    <glyph glyph-name="Adieresis" unicode="&#xc4;" horiz-adv-x="549" 
d="M458 0l-66 189h-239l-70 -189h-76l255 681h38l242 -681h-84zM276 523l-100 -268h192zM256 756q0 -21 -15 -36t-37 -15t-36 15t-14 36t14 36.5t36 15.5t37 -15.5t15 -36.5zM417 756q0 -21 -15 -36t-37 -15t-36 15t-14 36t14 36.5t36 15.5t37 -15.5t15 -36.5z" />
    <glyph glyph-name="Aring" unicode="&#xc5;" horiz-adv-x="549" 
d="M376 788q0 -20 -8 -37.5t-21.5 -30.5t-31 -20.5t-37.5 -7.5q-41 0 -68.5 27.5t-27.5 68.5t27.5 68.5t67.5 27.5q41 0 70 -27.5t29 -68.5zM333 788q0 24 -16 39.5t-39 15.5t-39.5 -16t-16.5 -39t16 -39t39 -16q24 0 40 16t16 39zM458 0l-66 189h-239l-70 -189h-76l255 681
h38l242 -681h-84zM276 523l-100 -268h192z" />
    <glyph glyph-name="AE" unicode="&#xc6;" horiz-adv-x="854" 
d="M409 0v189h-216l-104 -189h-82l359 659h419v-68h-297v-222h259v-68h-259v-233h319v-68h-398zM409 589l-182 -334h182v334z" />
    <glyph glyph-name="Ccedilla" unicode="&#xc7;" horiz-adv-x="623" 
d="M589 26q-38 -20 -84.5 -28t-102.5 -9l-26 -45q39 0 65 -18.5t26 -48.5q0 -21 -9.5 -36t-25 -25t-35 -15t-38.5 -5q-14 0 -24 0.5t-19 2.5t-18 4.5t-21 7.5l24 45q10 -5 22.5 -7.5t26.5 -2.5q20 0 35 6.5t15 22.5q0 13 -9 20.5t-23 11.5t-30.5 5t-31.5 1l45 78
q-57 6 -111.5 30.5t-97.5 67t-69 102.5t-26 136q0 72 26 134.5t71.5 109t108 73t135.5 26.5q38 0 66.5 -2.5t51.5 -7t42.5 -11.5t40.5 -17l-6 -75q-45 25 -94 35.5t-111 10.5q-49 0 -92.5 -18.5t-76.5 -53.5t-52.5 -85t-19.5 -113q0 -59 20 -110t54.5 -88t81 -58t99.5 -21
q49 0 97 10.5t94 35.5z" />
    <glyph glyph-name="Egrave" unicode="&#xc8;" horiz-adv-x="547" 
d="M102 0v659h376v-68h-297v-222h259v-68h-259v-233h319v-68h-398zM279 696l-127 185h78l104 -185h-55z" />
    <glyph glyph-name="Eacute" unicode="&#xc9;" horiz-adv-x="547" 
d="M102 0v659h376v-68h-297v-222h259v-68h-259v-233h319v-68h-398zM309 696h-56l105 185h78z" />
    <glyph glyph-name="Ecircumflex" unicode="&#xca;" horiz-adv-x="547" 
d="M102 0v659h376v-68h-297v-222h259v-68h-259v-233h319v-68h-398zM375 693l-80 107l-84 -107h-57l113 178h52l117 -178h-61z" />
    <glyph glyph-name="Edieresis" unicode="&#xcb;" horiz-adv-x="547" 
d="M102 0v659h376v-68h-297v-222h259v-68h-259v-233h319v-68h-398zM261 756q0 -21 -15 -36t-37 -15t-36 15t-14 36t14 36.5t36 15.5t37 -15.5t15 -36.5zM444 756q0 -21 -15 -36t-37 -15t-36 15t-14 36t14 36.5t36 15.5t37 -15.5t15 -36.5z" />
    <glyph glyph-name="Igrave" unicode="&#xcc;" horiz-adv-x="283" 
d="M102 0v659h78v-659h-78zM137 696l-127 185h78l104 -185h-55z" />
    <glyph glyph-name="Iacute" unicode="&#xcd;" horiz-adv-x="283" 
d="M102 0v659h78v-659h-78zM151 696h-56l105 185h78z" />
    <glyph glyph-name="Icircumflex" unicode="&#xce;" horiz-adv-x="283" 
d="M102 0v659h78v-659h-78zM222 683l-80 107l-84 -107h-57l113 178h52l117 -178h-61z" />
    <glyph glyph-name="Idieresis" unicode="&#xcf;" horiz-adv-x="283" 
d="M102 0v659h78v-659h-78zM125 756q0 -21 -15 -36t-37 -15t-36 15t-14 36t14 36.5t36 15.5t37 -15.5t15 -36.5zM274 756q0 -21 -15 -36t-37 -15t-36 15t-14 36t14 36.5t36 15.5t37 -15.5t15 -36.5z" />
    <glyph glyph-name="Eth" unicode="&#xd0;" horiz-adv-x="700" 
d="M653 333q0 -73 -23 -134t-65 -105.5t-102 -69t-134 -24.5h-227v312h-111v49h111v296q32 2 65 4t65 2q27 0 53.5 -0.5t53.5 -0.5q75 0 133 -24.5t98.5 -68t61.5 -104t21 -132.5zM563 333q0 55 -15 103.5t-45 84.5t-74.5 56.5t-103.5 20.5q-36 0 -72 -0.5t-72 -1.5v-235
h143v-49h-143v-250h133q64 0 111 19.5t78 54.5t45.5 85t14.5 112z" />
    <glyph glyph-name="Ntilde" unicode="&#xd1;" horiz-adv-x="751" 
d="M558 0l-382 551v-551h-74v659h89l384 -553v554h74v-660h-91zM558 768q-27 -24 -55.5 -40t-65.5 -16q-27 0 -44 7.5t-30 16.5t-25.5 16.5t-29.5 7.5q-11 0 -22.5 -4t-22.5 -10t-20 -12.5t-15 -10.5l-29 38q32 27 61 43.5t71 16.5q17 0 31 -8t27.5 -17.5t29 -17.5t36.5 -8
q17 0 36 12t39 25z" />
    <glyph glyph-name="Ograve" unicode="&#xd2;" horiz-adv-x="742" 
d="M695 330q0 -68 -23.5 -130t-66 -109.5t-102 -76t-130.5 -28.5q-72 0 -132 27.5t-103 75t-67 109.5t-24 131t24 131t67 109.5t103 75.5t132 28q71 0 130.5 -27.5t102 -74.5t66 -109.5t23.5 -131.5zM605 330q0 55 -16.5 104.5t-46.5 87.5t-73 60.5t-96 22.5t-96.5 -21.5
t-74.5 -58.5t-48 -87.5t-17 -107.5t17 -107.5t48 -88t74.5 -59t96.5 -21.5t96 22.5t73 60t46.5 87.5t16.5 106zM347 696l-127 185h78l104 -185h-55z" />
    <glyph glyph-name="Oacute" unicode="&#xd3;" horiz-adv-x="742" 
d="M695 330q0 -68 -23.5 -130t-66 -109.5t-102 -76t-130.5 -28.5q-72 0 -132 27.5t-103 75t-67 109.5t-24 131t24 131t67 109.5t103 75.5t132 28q71 0 130.5 -27.5t102 -74.5t66 -109.5t23.5 -131.5zM605 330q0 55 -16.5 104.5t-46.5 87.5t-73 60.5t-96 22.5t-96.5 -21.5
t-74.5 -58.5t-48 -87.5t-17 -107.5t17 -107.5t48 -88t74.5 -59t96.5 -21.5t96 22.5t73 60t46.5 87.5t16.5 106zM396 696h-56l105 185h78z" />
    <glyph glyph-name="Ocircumflex" unicode="&#xd4;" horiz-adv-x="742" 
d="M695 330q0 -68 -23.5 -130t-66 -109.5t-102 -76t-130.5 -28.5q-72 0 -132 27.5t-103 75t-67 109.5t-24 131t24 131t67 109.5t103 75.5t132 28q71 0 130.5 -27.5t102 -74.5t66 -109.5t23.5 -131.5zM605 330q0 55 -16.5 104.5t-46.5 87.5t-73 60.5t-96 22.5t-96.5 -21.5
t-74.5 -58.5t-48 -87.5t-17 -107.5t17 -107.5t48 -88t74.5 -59t96.5 -21.5t96 22.5t73 60t46.5 87.5t16.5 106zM453 693l-80 107l-84 -107h-57l113 178h52l117 -178h-61z" />
    <glyph glyph-name="Otilde" unicode="&#xd5;" horiz-adv-x="742" 
d="M695 330q0 -68 -23.5 -130t-66 -109.5t-102 -76t-130.5 -28.5q-72 0 -132 27.5t-103 75t-67 109.5t-24 131t24 131t67 109.5t103 75.5t132 28q71 0 130.5 -27.5t102 -74.5t66 -109.5t23.5 -131.5zM605 330q0 55 -16.5 104.5t-46.5 87.5t-73 60.5t-96 22.5t-96.5 -21.5
t-74.5 -58.5t-48 -87.5t-17 -107.5t17 -107.5t48 -88t74.5 -59t96.5 -21.5t96 22.5t73 60t46.5 87.5t16.5 106zM558 768q-27 -24 -55.5 -40t-65.5 -16q-27 0 -44 7.5t-30 16.5t-25.5 16.5t-29.5 7.5q-11 0 -22.5 -4t-22.5 -10t-20 -12.5t-15 -10.5l-29 38q32 27 61 43.5
t71 16.5q17 0 31 -8t27.5 -17.5t29 -17.5t36.5 -8q17 0 36 12t39 25z" />
    <glyph glyph-name="Odieresis" unicode="&#xd6;" horiz-adv-x="742" 
d="M695 330q0 -68 -23.5 -130t-66 -109.5t-102 -76t-130.5 -28.5q-72 0 -132 27.5t-103 75t-67 109.5t-24 131t24 131t67 109.5t103 75.5t132 28q71 0 130.5 -27.5t102 -74.5t66 -109.5t23.5 -131.5zM605 330q0 55 -16.5 104.5t-46.5 87.5t-73 60.5t-96 22.5t-96.5 -21.5
t-74.5 -58.5t-48 -87.5t-17 -107.5t17 -107.5t48 -88t74.5 -59t96.5 -21.5t96 22.5t73 60t46.5 87.5t16.5 106zM322 756q0 -21 -15 -36t-37 -15t-36 15t-14 36t14 36.5t36 15.5t37 -15.5t15 -36.5zM552 756q0 -21 -15 -36t-37 -15t-36 15t-14 36t14 36.5t36 15.5t37 -15.5
t15 -36.5z" />
    <glyph glyph-name="multiply" unicode="&#xd7;" 
d="M444 -11l-190 190l-190 -190l-49 48l190 190l-189 189l49 49l189 -189l189 189l48 -49l-188 -188l190 -190z" />
    <glyph glyph-name="Oslash" unicode="&#xd8;" horiz-adv-x="742" 
d="M615 559q38 -46 59 -105t21 -124q0 -68 -23.5 -130t-66 -109.5t-102 -76t-130.5 -28.5q-60 0 -111.5 19.5t-92.5 53.5l-80 -90l-45 39l82 93q-38 47 -58.5 105.5t-20.5 122.5q0 69 24 131t67 109.5t103 75.5t132 28q59 0 109.5 -19t90.5 -53l80 90l45 -39zM522 544
q-29 29 -66.5 45t-82.5 16q-53 0 -96.5 -21.5t-74.5 -58.5t-48 -87.5t-17 -107.5q0 -96 45 -167zM605 330q0 46 -11.5 89t-33.5 78l-340 -381q29 -29 68 -45.5t85 -16.5q53 0 96 22.5t73 60t46.5 87.5t16.5 106z" />
    <glyph glyph-name="Ugrave" unicode="&#xd9;" horiz-adv-x="682" 
d="M596 229q0 -63 -19 -109t-54 -75t-83.5 -43t-107.5 -14q-49 0 -93.5 14.5t-78.5 42t-54 67.5t-20 92v455h78v-427q0 -53 16.5 -87t42 -53.5t56 -27.5t58.5 -8q32 0 64.5 8t58 28.5t41.5 54.5t16 86v426h79v-430zM337 696l-127 185h78l104 -185h-55z" />
    <glyph glyph-name="Uacute" unicode="&#xda;" horiz-adv-x="682" 
d="M596 229q0 -63 -19 -109t-54 -75t-83.5 -43t-107.5 -14q-49 0 -93.5 14.5t-78.5 42t-54 67.5t-20 92v455h78v-427q0 -53 16.5 -87t42 -53.5t56 -27.5t58.5 -8q32 0 64.5 8t58 28.5t41.5 54.5t16 86v426h79v-430zM360 696h-56l105 185h78z" />
    <glyph glyph-name="Ucircumflex" unicode="&#xdb;" horiz-adv-x="682" 
d="M596 229q0 -63 -19 -109t-54 -75t-83.5 -43t-107.5 -14q-49 0 -93.5 14.5t-78.5 42t-54 67.5t-20 92v455h78v-427q0 -53 16.5 -87t42 -53.5t56 -27.5t58.5 -8q32 0 64.5 8t58 28.5t41.5 54.5t16 86v426h79v-430zM421 683l-80 107l-84 -107h-57l113 178h52l117 -178h-61z
" />
    <glyph glyph-name="Udieresis" unicode="&#xdc;" horiz-adv-x="682" 
d="M596 229q0 -63 -19 -109t-54 -75t-83.5 -43t-107.5 -14q-49 0 -93.5 14.5t-78.5 42t-54 67.5t-20 92v455h78v-427q0 -53 16.5 -87t42 -53.5t56 -27.5t58.5 -8q32 0 64.5 8t58 28.5t41.5 54.5t16 86v426h79v-430zM277 756q0 -21 -15 -36t-37 -15t-36 15t-14 36t14 36.5
t36 15.5t37 -15.5t15 -36.5zM517 756q0 -21 -15 -36t-37 -15t-36 15t-14 36t14 36.5t36 15.5t37 -15.5t15 -36.5z" />
    <glyph glyph-name="Yacute" unicode="&#xdd;" horiz-adv-x="542" 
d="M312 276v-276h-79v276l-226 383h87l183 -307l178 307h80zM309 696h-56l105 185h78z" />
    <glyph glyph-name="Thorn" unicode="&#xde;" horiz-adv-x="539" 
d="M513 343q0 -46 -19 -84.5t-51 -66.5t-73 -43.5t-85 -15.5q-26 0 -52 0.5t-52 4.5v-138h-79v658h79v-116q32 1 63 1h64q44 0 81.5 -14.5t65 -41t43 -63t15.5 -81.5zM423 343q0 70 -37 102t-105 32q-25 0 -50 -0.5t-50 -0.5v-277h74q36 0 67 7.5t53.5 24.5t35 44.5
t12.5 67.5z" />
    <glyph glyph-name="germandbls" unicode="&#xdf;" horiz-adv-x="524" 
d="M507 119q0 -26 -10.5 -50t-31.5 -42t-53.5 -29t-76.5 -11q-25 0 -53.5 6.5t-60.5 20.5l8 72q35 -20 56.5 -28t47.5 -8q45 0 71 17.5t26 46.5q0 21 -14 38t-35.5 32.5t-46 31.5t-46 36t-35.5 45t-14 59q0 35 12 57.5t30.5 39.5t40 31t40 30t30.5 37t12 53q0 42 -25 57
t-67 15q-32 0 -59 -3t-42 -17q-5 -4 -11 -14.5t-11 -30t-9 -48t-4 -67.5v-496h-77v392h-83v60h83v25q0 72 10.5 122.5t35 82.5t65.5 46.5t102 14.5q21 0 51 -4.5t57 -16.5t46 -34.5t19 -58.5q0 -40 -12.5 -68t-31.5 -48.5t-41 -37t-41 -33t-31.5 -35.5t-12.5 -46
q0 -21 14 -37.5t35.5 -31.5t46.5 -31t46.5 -36t35.5 -46t14 -60z" />
    <glyph glyph-name="agrave" unicode="&#xe0;" horiz-adv-x="448" 
d="M320 0q-5 18 -10 31.5t-9 33.5q-11 -16 -24.5 -30.5t-30.5 -25t-38.5 -16.5t-48.5 -6q-52 0 -82 29.5t-30 72.5q0 32 5 52.5t13 30.5q10 14 40.5 27.5t67 24.5t71 19t51.5 11v63q0 25 -4 41t-13.5 25t-26 12.5t-40.5 3.5q-32 0 -52.5 -6.5t-20.5 -32.5l-72 -6q0 39 9 68
q1 3 10.5 10t27.5 14.5t45.5 13t63.5 5.5q75 0 112.5 -32.5t37.5 -87.5v-210q0 -35 6 -72.5t14 -62.5h-72zM295 194q-18 -3 -40 -9t-44 -13.5t-43.5 -16t-37.5 -16.5q-4 -14 -4.5 -22t-0.5 -15q0 -21 10 -34.5t45 -13.5q22 0 43 10.5t37 23.5t25.5 25t9.5 15v66zM205 521
l-133 202h82l109 -202h-58z" />
    <glyph glyph-name="aacute" unicode="&#xe1;" horiz-adv-x="448" 
d="M320 0q-5 18 -10 31.5t-9 33.5q-11 -16 -24.5 -30.5t-30.5 -25t-38.5 -16.5t-48.5 -6q-52 0 -82 29.5t-30 72.5q0 32 5 52.5t13 30.5q10 14 40.5 27.5t67 24.5t71 19t51.5 11v63q0 25 -4 41t-13.5 25t-26 12.5t-40.5 3.5q-32 0 -52.5 -6.5t-20.5 -32.5l-72 -6q0 39 9 68
q1 3 10.5 10t27.5 14.5t45.5 13t63.5 5.5q75 0 112.5 -32.5t37.5 -87.5v-210q0 -35 6 -72.5t14 -62.5h-72zM295 194q-18 -3 -40 -9t-44 -13.5t-43.5 -16t-37.5 -16.5q-4 -14 -4.5 -22t-0.5 -15q0 -21 10 -34.5t45 -13.5q22 0 43 10.5t37 23.5t25.5 25t9.5 15v66zM241 521
h-57l109 202h81z" />
    <glyph glyph-name="acircumflex" unicode="&#xe2;" horiz-adv-x="448" 
d="M320 0q-5 18 -10 31.5t-9 33.5q-11 -16 -24.5 -30.5t-30.5 -25t-38.5 -16.5t-48.5 -6q-52 0 -82 29.5t-30 72.5q0 32 5 52.5t13 30.5q10 14 40.5 27.5t67 24.5t71 19t51.5 11v63q0 25 -4 41t-13.5 25t-26 12.5t-40.5 3.5q-32 0 -52.5 -6.5t-20.5 -32.5l-72 -6q0 39 9 68
q1 3 10.5 10t27.5 14.5t45.5 13t63.5 5.5q75 0 112.5 -32.5t37.5 -87.5v-210q0 -35 6 -72.5t14 -62.5h-72zM295 194q-18 -3 -40 -9t-44 -13.5t-43.5 -16t-37.5 -16.5q-4 -14 -4.5 -22t-0.5 -15q0 -21 10 -34.5t45 -13.5q22 0 43 10.5t37 23.5t25.5 25t9.5 15v66zM309 524
l-84 116l-88 -116h-59l118 192h54l122 -192h-63z" />
    <glyph glyph-name="atilde" unicode="&#xe3;" horiz-adv-x="448" 
d="M320 0q-5 18 -10 31.5t-9 33.5q-11 -16 -24.5 -30.5t-30.5 -25t-38.5 -16.5t-48.5 -6q-52 0 -82 29.5t-30 72.5q0 32 5 52.5t13 30.5q10 14 40.5 27.5t67 24.5t71 19t51.5 11v63q0 25 -4 41t-13.5 25t-26 12.5t-40.5 3.5q-32 0 -52.5 -6.5t-20.5 -32.5l-72 -6q0 39 9 68
q1 3 10.5 10t27.5 14.5t45.5 13t63.5 5.5q75 0 112.5 -32.5t37.5 -87.5v-210q0 -35 6 -72.5t14 -62.5h-72zM295 194q-18 -3 -40 -9t-44 -13.5t-43.5 -16t-37.5 -16.5q-4 -14 -4.5 -22t-0.5 -15q0 -21 10 -34.5t45 -13.5q22 0 43 10.5t37 23.5t25.5 25t9.5 15v66zM427 585
q-27 -26 -57.5 -43.5t-68.5 -17.5q-29 0 -46 8t-30 18t-27 18t-38 8q-8 0 -18.5 -4.5t-21.5 -11t-21 -13.5l-17 -11l-30 41q28 26 60 46t71 20q23 0 39 -9t30 -19.5t29.5 -19t38.5 -8.5q20 0 41 15t37 26z" />
    <glyph glyph-name="adieresis" unicode="&#xe4;" horiz-adv-x="448" 
d="M320 0q-5 18 -10 31.5t-9 33.5q-11 -16 -24.5 -30.5t-30.5 -25t-38.5 -16.5t-48.5 -6q-52 0 -82 29.5t-30 72.5q0 32 5 52.5t13 30.5q10 14 40.5 27.5t67 24.5t71 19t51.5 11v63q0 25 -4 41t-13.5 25t-26 12.5t-40.5 3.5q-32 0 -52.5 -6.5t-20.5 -32.5l-72 -6q0 39 9 68
q1 3 10.5 10t27.5 14.5t45.5 13t63.5 5.5q75 0 112.5 -32.5t37.5 -87.5v-210q0 -35 6 -72.5t14 -62.5h-72zM295 194q-18 -3 -40 -9t-44 -13.5t-43.5 -16t-37.5 -16.5q-4 -14 -4.5 -22t-0.5 -15q0 -21 10 -34.5t45 -13.5q22 0 43 10.5t37 23.5t25.5 25t9.5 15v66zM192 581
q0 -23 -15.5 -39t-38.5 -16t-38 16t-15 39t15 40.5t38 17.5t38.5 -17t15.5 -41zM360 581q0 -23 -15.5 -39t-38.5 -16t-38 16t-15 39t15 40.5t38 17.5t38.5 -17t15.5 -41z" />
    <glyph glyph-name="aring" unicode="&#xe5;" horiz-adv-x="448" 
d="M320 0q-5 18 -10 31.5t-9 33.5q-11 -16 -24.5 -30.5t-30.5 -25t-38.5 -16.5t-48.5 -6q-52 0 -82 29.5t-30 72.5q0 32 5 52.5t13 30.5q10 14 40.5 27.5t67 24.5t71 19t51.5 11v63q0 25 -4 41t-13.5 25t-26 12.5t-40.5 3.5q-32 0 -52.5 -6.5t-20.5 -32.5l-72 -6q0 39 9 68
q1 3 10.5 10t27.5 14.5t45.5 13t63.5 5.5q75 0 112.5 -32.5t37.5 -87.5v-210q0 -35 6 -72.5t14 -62.5h-72zM295 194q-18 -3 -40 -9t-44 -13.5t-43.5 -16t-37.5 -16.5q-4 -14 -4.5 -22t-0.5 -15q0 -21 10 -34.5t45 -13.5q22 0 43 10.5t37 23.5t25.5 25t9.5 15v66zM318 615
q0 -22 -8 -41t-22.5 -33t-33 -22t-39.5 -8q-43 0 -71.5 29.5t-28.5 74.5q0 22 7.5 41t21 33.5t32 22.5t39.5 8t39.5 -8t33 -22.5t22.5 -33.5t8 -41zM275 615q0 26 -18 43t-42 17q-23 0 -40.5 -17t-17.5 -43q0 -24 17.5 -42t40.5 -18q24 0 42 17.5t18 42.5z" />
    <glyph glyph-name="ae" unicode="&#xe6;" horiz-adv-x="662" 
d="M355 208q0 -17 2.5 -43t15.5 -50.5t40.5 -42.5t77.5 -18q16 0 33.5 4t34 10.5t30.5 15t24 17.5l6 -71q-27 -18 -66.5 -30.5t-95.5 -12.5q-48 0 -84 25t-62 67q-26 -38 -66 -65t-93 -27q-51 0 -81 28.5t-30 71.5q0 32 5 53.5t13 31.5q8 12 39 25.5t67.5 25t71.5 20
t52 11.5v63q0 25 -4 41t-13.5 25t-26 12.5t-40.5 3.5h-13q-10 0 -20.5 -1t-19.5 -5t-15 -12t-6 -21l-71 -6q0 25 2 39.5t6 28.5q1 3 10.5 10t28 14.5t46 13t63.5 5.5q90 0 127 -49q16 19 45 34t65 15q54 0 88 -14t53.5 -40t26.5 -62.5t7 -80.5zM557 310q0 43 -25 67t-92 24
q-15 0 -30 -5.5t-19 -9.5q-2 -2 -8 -10.5t-12 -23.5t-10.5 -37t-4.5 -50zM289 194q-17 -3 -39 -9t-44.5 -13.5t-44.5 -16.5t-38 -16q-3 -14 -3.5 -22.5t-0.5 -15.5q0 -21 10 -34t45 -13q18 0 38.5 10t37.5 22.5t28 25t11 18.5v64z" />
    <glyph glyph-name="ccedilla" unicode="&#xe7;" horiz-adv-x="416" 
d="M403 30q-31 -20 -66 -30t-70 -12l-27 -49q41 0 68 -20t27 -53q0 -23 -10 -39t-26 -27t-36.5 -16t-40.5 -5q-15 0 -25.5 0.5t-19.5 2t-18.5 5t-21.5 8.5l25 49q10 -6 23 -9t27 -3q22 0 37.5 7.5t15.5 24.5q0 14 -9.5 22.5t-24.5 12.5t-32 5t-32 1l46 85q-75 11 -123 71.5
t-48 168.5q0 62 19 106.5t49 73t66.5 42t71.5 13.5q31 0 58.5 -5t48.5 -15.5t33 -25.5t12 -36v-15q0 -8 -1 -17h-72v6q0 26 -19 34t-56 8q-23 0 -36.5 -2.5t-18.5 -5.5q-3 -2 -14.5 -9.5t-24 -25.5t-22.5 -48t-10 -75q0 -48 13 -81.5t33 -55.5t45.5 -32t51.5 -10
q14 0 31.5 3.5t35 10t33.5 15t28 17.5z" />
    <glyph glyph-name="egrave" unicode="&#xe8;" horiz-adv-x="460" 
d="M124 251q-2 -8 -2 -12v-13q0 -83 38.5 -127.5t109.5 -44.5q20 0 41 4t40 10.5t35 15t26 17.5l6 -70q-30 -19 -69 -31.5t-103 -12.5q-43 0 -80 16t-64.5 46.5t-43.5 74.5t-16 101q0 58 15 103t42 75.5t64 46t81 15.5q101 0 141.5 -53.5t40.5 -160.5h-302zM356 311
q-2 30 -12 47.5t-26 27t-36.5 12t-42.5 2.5q-16 0 -36 -5t-24 -9q-2 -2 -8 -7.5t-12.5 -15t-13.5 -22.5t-11 -30h222zM223 521l-133 202h82l109 -202h-58z" />
    <glyph glyph-name="eacute" unicode="&#xe9;" horiz-adv-x="460" 
d="M124 251q-2 -8 -2 -12v-13q0 -83 38.5 -127.5t109.5 -44.5q20 0 41 4t40 10.5t35 15t26 17.5l6 -70q-30 -19 -69 -31.5t-103 -12.5q-43 0 -80 16t-64.5 46.5t-43.5 74.5t-16 101q0 58 15 103t42 75.5t64 46t81 15.5q101 0 141.5 -53.5t40.5 -160.5h-302zM356 311
q-2 30 -12 47.5t-26 27t-36.5 12t-42.5 2.5q-16 0 -36 -5t-24 -9q-2 -2 -8 -7.5t-12.5 -15t-13.5 -22.5t-11 -30h222zM265 521h-57l109 202h81z" />
    <glyph glyph-name="ecircumflex" unicode="&#xea;" horiz-adv-x="460" 
d="M124 251q-2 -8 -2 -12v-13q0 -83 38.5 -127.5t109.5 -44.5q20 0 41 4t40 10.5t35 15t26 17.5l6 -70q-30 -19 -69 -31.5t-103 -12.5q-43 0 -80 16t-64.5 46.5t-43.5 74.5t-16 101q0 58 15 103t42 75.5t64 46t81 15.5q101 0 141.5 -53.5t40.5 -160.5h-302zM356 311
q-2 30 -12 47.5t-26 27t-36.5 12t-42.5 2.5q-16 0 -36 -5t-24 -9q-2 -2 -8 -7.5t-12.5 -15t-13.5 -22.5t-11 -30h222zM334 524l-84 116l-88 -116h-59l118 192h54l122 -192h-63z" />
    <glyph glyph-name="edieresis" unicode="&#xeb;" horiz-adv-x="460" 
d="M124 251q-2 -8 -2 -12v-13q0 -83 38.5 -127.5t109.5 -44.5q20 0 41 4t40 10.5t35 15t26 17.5l6 -70q-30 -19 -69 -31.5t-103 -12.5q-43 0 -80 16t-64.5 46.5t-43.5 74.5t-16 101q0 58 15 103t42 75.5t64 46t81 15.5q101 0 141.5 -53.5t40.5 -160.5h-302zM356 311
q-2 30 -12 47.5t-26 27t-36.5 12t-42.5 2.5q-16 0 -36 -5t-24 -9q-2 -2 -8 -7.5t-12.5 -15t-13.5 -22.5t-11 -30h222zM220 581q0 -23 -15.5 -39t-38.5 -16t-38 16t-15 39t15 40.5t38 17.5t38.5 -17t15.5 -41zM388 581q0 -23 -15.5 -39t-38.5 -16t-38 16t-15 39t15 40.5
t38 17.5t38.5 -17t15.5 -41z" />
    <glyph glyph-name="igrave" unicode="&#xec;" horiz-adv-x="251" 
d="M87 0v453h77v-453h-77zM97 521l-133 202h82l109 -202h-58z" />
    <glyph glyph-name="iacute" unicode="&#xed;" horiz-adv-x="251" 
d="M87 0v453h77v-453h-77zM136 521h-57l109 202h81z" />
    <glyph glyph-name="icircumflex" unicode="&#xee;" horiz-adv-x="251" 
d="M87 0v453h77v-453h-77zM209 524l-84 116l-88 -116h-59l118 192h54l122 -192h-63z" />
    <glyph glyph-name="idieresis" unicode="&#xef;" horiz-adv-x="251" 
d="M87 0v453h77v-453h-77zM104 581q0 -23 -15.5 -39t-38.5 -16t-38 16t-15 39t15 40.5t38 17.5t38.5 -17t15.5 -41zM258 581q0 -23 -15.5 -39t-38.5 -16t-38 16t-15 39t15 40.5t38 17.5t38.5 -17t15.5 -41z" />
    <glyph glyph-name="eth" unicode="&#xf0;" horiz-adv-x="485" 
d="M436 255q0 -74 -16 -125t-44.5 -83t-66.5 -46.5t-82 -14.5q-48 0 -83 21.5t-58 56.5t-34.5 79t-11.5 89q0 41 13.5 83.5t37 76.5t56 55.5t71.5 21.5q40 0 68.5 -10.5t60.5 -31.5q-13 49 -30.5 84t-40.5 65l-66 -58l-37 43l67 56q-23 23 -45.5 40.5t-52.5 32.5l36 55
q22 -12 37 -21.5t27 -20t23 -21.5t25 -26l88 72l36 -44l-85 -68q17 -19 36 -49.5t34.5 -74.5t26 -103t10.5 -134zM355 247q0 8 0.5 21t0.5 30q0 30 -3 66q-26 14 -48.5 22t-57.5 8q-29 0 -52 -13t-39 -35.5t-24 -53t-8 -64.5q0 -26 4 -56t14.5 -55.5t28.5 -43t46 -17.5
q40 0 66.5 14t42.5 39t22.5 60.5t6.5 77.5z" />
    <glyph glyph-name="ntilde" unicode="&#xf1;" horiz-adv-x="551" 
d="M469 162q0 -22 -0.5 -45t-1 -50.5t-1.5 -66.5h-76q1 38 1.5 64t0.5 47v153q0 14 -1 28q-2 26 -4.5 45.5t-10.5 32.5t-22.5 19.5t-39.5 6.5q-10 0 -20.5 -1.5t-20.5 -3t-17 -4t-10 -3.5q-4 -2 -13 -10.5t-20 -20.5t-22.5 -25t-19.5 -24v-304h-77v327q0 39 -2.5 69t-5.5 57
h71l12 -67q29 34 64.5 56.5t87.5 22.5q30 0 55.5 -5.5t44 -19t30 -36.5t14.5 -58q3 -34 3.5 -67.5t0.5 -67.5v-49zM461 585q-27 -26 -57.5 -43.5t-68.5 -17.5q-29 0 -46 8t-30 18t-27 18t-38 8q-8 0 -18.5 -4.5t-21.5 -11t-21 -13.5l-17 -11l-30 41q28 26 60 46t71 20
q23 0 39 -9t30 -19.5t29.5 -19t38.5 -8.5q20 0 41 15t37 26z" />
    <glyph glyph-name="ograve" unicode="&#xf2;" horiz-adv-x="516" 
d="M474 226q0 -53 -15.5 -96.5t-44 -75.5t-70 -49.5t-92.5 -17.5q-47 0 -86 17t-66.5 48t-42.5 75t-15 99q0 50 14.5 93.5t42 76t69 51t95.5 18.5q48 0 86.5 -16.5t66.5 -47.5t43 -75.5t15 -99.5zM390 240q-4 47 -16 77.5t-30.5 48.5t-41.5 25.5t-49 7.5q-27 0 -48.5 -9
t-28.5 -16q-4 -4 -12.5 -15.5t-17 -30.5t-15 -43.5t-6.5 -53.5q0 -54 13 -88.5t33 -54t44 -27t47 -7.5q12 0 24 2.5t23 6t19 8t12 8.5t12.5 15.5t17 29.5t15 42t6.5 53v10q0 6 -1 11zM253 521l-133 202h82l109 -202h-58z" />
    <glyph glyph-name="oacute" unicode="&#xf3;" horiz-adv-x="516" 
d="M474 226q0 -53 -15.5 -96.5t-44 -75.5t-70 -49.5t-92.5 -17.5q-47 0 -86 17t-66.5 48t-42.5 75t-15 99q0 50 14.5 93.5t42 76t69 51t95.5 18.5q48 0 86.5 -16.5t66.5 -47.5t43 -75.5t15 -99.5zM390 240q-4 47 -16 77.5t-30.5 48.5t-41.5 25.5t-49 7.5q-27 0 -48.5 -9
t-28.5 -16q-4 -4 -12.5 -15.5t-17 -30.5t-15 -43.5t-6.5 -53.5q0 -54 13 -88.5t33 -54t44 -27t47 -7.5q12 0 24 2.5t23 6t19 8t12 8.5t12.5 15.5t17 29.5t15 42t6.5 53v10q0 6 -1 11zM283 521h-57l109 202h81z" />
    <glyph glyph-name="ocircumflex" unicode="&#xf4;" horiz-adv-x="516" 
d="M474 226q0 -53 -15.5 -96.5t-44 -75.5t-70 -49.5t-92.5 -17.5q-47 0 -86 17t-66.5 48t-42.5 75t-15 99q0 50 14.5 93.5t42 76t69 51t95.5 18.5q48 0 86.5 -16.5t66.5 -47.5t43 -75.5t15 -99.5zM390 240q-4 47 -16 77.5t-30.5 48.5t-41.5 25.5t-49 7.5q-27 0 -48.5 -9
t-28.5 -16q-4 -4 -12.5 -15.5t-17 -30.5t-15 -43.5t-6.5 -53.5q0 -54 13 -88.5t33 -54t44 -27t47 -7.5q12 0 24 2.5t23 6t19 8t12 8.5t12.5 15.5t17 29.5t15 42t6.5 53v10q0 6 -1 11zM353 524l-84 116l-88 -116h-59l118 192h54l122 -192h-63z" />
    <glyph glyph-name="otilde" unicode="&#xf5;" horiz-adv-x="516" 
d="M474 226q0 -53 -15.5 -96.5t-44 -75.5t-70 -49.5t-92.5 -17.5q-47 0 -86 17t-66.5 48t-42.5 75t-15 99q0 50 14.5 93.5t42 76t69 51t95.5 18.5q48 0 86.5 -16.5t66.5 -47.5t43 -75.5t15 -99.5zM390 240q-4 47 -16 77.5t-30.5 48.5t-41.5 25.5t-49 7.5q-27 0 -48.5 -9
t-28.5 -16q-4 -4 -12.5 -15.5t-17 -30.5t-15 -43.5t-6.5 -53.5q0 -54 13 -88.5t33 -54t44 -27t47 -7.5q12 0 24 2.5t23 6t19 8t12 8.5t12.5 15.5t17 29.5t15 42t6.5 53v10q0 6 -1 11zM461 585q-27 -26 -57.5 -43.5t-68.5 -17.5q-29 0 -46 8t-30 18t-27 18t-38 8
q-8 0 -18.5 -4.5t-21.5 -11t-21 -13.5l-17 -11l-30 41q28 26 60 46t71 20q23 0 39 -9t30 -19.5t29.5 -19t38.5 -8.5q20 0 41 15t37 26z" />
    <glyph glyph-name="odieresis" unicode="&#xf6;" horiz-adv-x="516" 
d="M474 226q0 -53 -15.5 -96.5t-44 -75.5t-70 -49.5t-92.5 -17.5q-47 0 -86 17t-66.5 48t-42.5 75t-15 99q0 50 14.5 93.5t42 76t69 51t95.5 18.5q48 0 86.5 -16.5t66.5 -47.5t43 -75.5t15 -99.5zM390 240q-4 47 -16 77.5t-30.5 48.5t-41.5 25.5t-49 7.5q-27 0 -48.5 -9
t-28.5 -16q-4 -4 -12.5 -15.5t-17 -30.5t-15 -43.5t-6.5 -53.5q0 -54 13 -88.5t33 -54t44 -27t47 -7.5q12 0 24 2.5t23 6t19 8t12 8.5t12.5 15.5t17 29.5t15 42t6.5 53v10q0 6 -1 11zM240 581q0 -23 -15.5 -39t-38.5 -16t-38 16t-15 39t15 40.5t38 17.5t38.5 -17t15.5 -41z
M408 581q0 -23 -15.5 -39t-38.5 -16t-38 16t-15 39t15 40.5t38 17.5t38.5 -17t15.5 -41z" />
    <glyph glyph-name="divide" unicode="&#xf7;" 
d="M316 399q0 -27 -20 -47t-46 -20t-46 19.5t-20 47.5q0 26 20 45t46 19t46 -19t20 -45zM22 192v69h456v-69h-456zM316 54q0 -27 -20 -47t-46 -20t-46 19.5t-20 47.5q0 26 20 45t46 19t46 -19t20 -45z" />
    <glyph glyph-name="oslash" unicode="&#xf8;" horiz-adv-x="516" 
d="M420 393q25 -32 39.5 -73.5t14.5 -93.5q0 -53 -15.5 -96.5t-44 -75.5t-70 -49.5t-92.5 -17.5q-37 0 -67 10.5t-56 30.5l-96 -116l-34 32l97 116q-54 62 -54 166q0 50 14.5 93.5t42 76t69 51t95.5 18.5q38 0 67.5 -10t55.5 -30l91 110l35 -31zM339 367q-17 18 -37.5 25.5
t-45.5 7.5q-29 -1 -50 -9.5t-30 -16.5q-4 -4 -12.5 -15.5t-17 -29.5t-15 -42.5t-6.5 -52.5q0 -35 7 -63t17 -47zM390 239q-4 54 -23 91l-191 -245q36 -32 81 -32q30 0 51.5 9t29.5 17q3 3 12 14.5t18 30t16 43.5t7 55v8q0 4 -1 9z" />
    <glyph glyph-name="ugrave" unicode="&#xf9;" horiz-adv-x="544" 
d="M392 0l-12 66q-16 -22 -31.5 -37t-33.5 -24.5t-39.5 -13.5t-48.5 -4q-30 0 -56.5 6t-46 19.5t-31 36.5t-11.5 57v347h77v-293q0 -21 2 -40t9.5 -34t22.5 -23.5t41 -8.5q42 0 80 18q10 8 20 19t18.5 22t15 21.5t9.5 17.5v301h77v-328q0 -31 1.5 -62.5t6.5 -62.5h-70z
M253 521l-133 202h82l109 -202h-58z" />
    <glyph glyph-name="uacute" unicode="&#xfa;" horiz-adv-x="544" 
d="M392 0l-12 66q-16 -22 -31.5 -37t-33.5 -24.5t-39.5 -13.5t-48.5 -4q-30 0 -56.5 6t-46 19.5t-31 36.5t-11.5 57v347h77v-293q0 -21 2 -40t9.5 -34t22.5 -23.5t41 -8.5q42 0 80 18q10 8 20 19t18.5 22t15 21.5t9.5 17.5v301h77v-328q0 -31 1.5 -62.5t6.5 -62.5h-70z
M289 521h-57l109 202h81z" />
    <glyph glyph-name="ucircumflex" unicode="&#xfb;" horiz-adv-x="544" 
d="M392 0l-12 66q-16 -22 -31.5 -37t-33.5 -24.5t-39.5 -13.5t-48.5 -4q-30 0 -56.5 6t-46 19.5t-31 36.5t-11.5 57v347h77v-293q0 -21 2 -40t9.5 -34t22.5 -23.5t41 -8.5q42 0 80 18q10 8 20 19t18.5 22t15 21.5t9.5 17.5v301h77v-328q0 -31 1.5 -62.5t6.5 -62.5h-70z
M356 524l-84 116l-88 -116h-59l118 192h54l122 -192h-63z" />
    <glyph glyph-name="udieresis" unicode="&#xfc;" horiz-adv-x="544" 
d="M392 0l-12 66q-16 -22 -31.5 -37t-33.5 -24.5t-39.5 -13.5t-48.5 -4q-30 0 -56.5 6t-46 19.5t-31 36.5t-11.5 57v347h77v-293q0 -21 2 -40t9.5 -34t22.5 -23.5t41 -8.5q42 0 80 18q10 8 20 19t18.5 22t15 21.5t9.5 17.5v301h77v-328q0 -31 1.5 -62.5t6.5 -62.5h-70z
M219 581q0 -23 -15.5 -39t-38.5 -16t-38 16t-15 39t15 40.5t38 17.5t38.5 -17t15.5 -41zM435 581q0 -23 -15.5 -39t-38.5 -16t-38 16t-15 39t15 40.5t38 17.5t38.5 -17t15.5 -41z" />
    <glyph glyph-name="yacute" unicode="&#xfd;" horiz-adv-x="418" 
d="M245 -21q-20 -57 -42.5 -114.5t-45.5 -113.5h-84q30 65 59 126.5t49 117.5l-176 458h82l132 -348l118 348h76zM241 521h-57l109 202h81z" />
    <glyph glyph-name="thorn" unicode="&#xfe;" horiz-adv-x="526" 
d="M484 245q0 -50 -13.5 -96.5t-40.5 -82.5t-67.5 -57.5t-95.5 -21.5t-100 23v-259h-76v979h76v-341q32 37 67 56.5t86 19.5q48 0 79.5 -19t50.5 -50t26.5 -70.5t7.5 -80.5zM400 236q0 25 -3.5 53t-14 52t-29.5 39.5t-51 15.5q-5 0 -13.5 -1t-17.5 -2.5t-17 -3.5t-12 -5
q-6 -3 -16.5 -14t-22.5 -24t-22 -25t-14 -18v-223q18 -11 43 -18.5t46 -7.5q41 0 68.5 15t44.5 40.5t24 58t7 68.5z" />
    <glyph glyph-name="ydieresis" unicode="&#xff;" horiz-adv-x="418" 
d="M245 -21q-20 -57 -42.5 -114.5t-45.5 -113.5h-84q30 65 59 126.5t49 117.5l-176 458h82l132 -348l118 348h76zM165 581q0 -23 -15.5 -39t-38.5 -16t-38 16t-15 39t15 40.5t38 17.5t38.5 -17t15.5 -41zM381 581q0 -23 -15.5 -39t-38.5 -16t-38 16t-15 39t15 40.5t38 17.5
t38.5 -17t15.5 -41z" />
    <glyph glyph-name="Amacron" unicode="&#x100;" horiz-adv-x="549" 
d="M458 0l-66 189h-239l-70 -189h-76l255 681h38l242 -681h-84zM276 523l-100 -268h192zM105 705v65h352v-65h-352z" />
    <glyph glyph-name="amacron" unicode="&#x101;" horiz-adv-x="448" 
d="M320 0q-5 18 -10 31.5t-9 33.5q-11 -16 -24.5 -30.5t-30.5 -25t-38.5 -16.5t-48.5 -6q-52 0 -82 29.5t-30 72.5q0 32 5 52.5t13 30.5q10 14 40.5 27.5t67 24.5t71 19t51.5 11v63q0 25 -4 41t-13.5 25t-26 12.5t-40.5 3.5q-32 0 -52.5 -6.5t-20.5 -32.5l-72 -6q0 39 9 68
q1 3 10.5 10t27.5 14.5t45.5 13t63.5 5.5q75 0 112.5 -32.5t37.5 -87.5v-210q0 -35 6 -72.5t14 -62.5h-72zM295 194q-18 -3 -40 -9t-44 -13.5t-43.5 -16t-37.5 -16.5q-4 -14 -4.5 -22t-0.5 -15q0 -21 10 -34.5t45 -13.5q22 0 43 10.5t37 23.5t25.5 25t9.5 15v66zM49 526v65
h352v-65h-352z" />
    <glyph glyph-name="Abreve" unicode="&#x102;" horiz-adv-x="549" 
d="M458 0l-66 189h-239l-70 -189h-76l255 681h38l242 -681h-84zM276 523l-100 -268h192zM453 882q-5 -27 -19.5 -54t-36.5 -48t-50.5 -34t-62.5 -13q-32 0 -60.5 10.5t-50.5 30t-35.5 47t-16.5 61.5h61q3 -17 12.5 -30.5t23.5 -23t31 -14.5t35 -5q45 0 73 21t34 52h62z" />
    <glyph glyph-name="abreve" unicode="&#x103;" horiz-adv-x="448" 
d="M320 0q-5 18 -10 31.5t-9 33.5q-11 -16 -24.5 -30.5t-30.5 -25t-38.5 -16.5t-48.5 -6q-52 0 -82 29.5t-30 72.5q0 32 5 52.5t13 30.5q10 14 40.5 27.5t67 24.5t71 19t51.5 11v63q0 25 -4 41t-13.5 25t-26 12.5t-40.5 3.5q-32 0 -52.5 -6.5t-20.5 -32.5l-72 -6q0 39 9 68
q1 3 10.5 10t27.5 14.5t45.5 13t63.5 5.5q75 0 112.5 -32.5t37.5 -87.5v-210q0 -35 6 -72.5t14 -62.5h-72zM295 194q-18 -3 -40 -9t-44 -13.5t-43.5 -16t-37.5 -16.5q-4 -14 -4.5 -22t-0.5 -15q0 -21 10 -34.5t45 -13.5q22 0 43 10.5t37 23.5t25.5 25t9.5 15v66zM391 704
q-5 -27 -19.5 -54t-36.5 -48t-50.5 -34t-62.5 -13q-32 0 -60.5 10.5t-50.5 30t-35.5 47t-16.5 61.5h61q3 -17 12.5 -30.5t23.5 -23t31 -14.5t35 -5q45 0 73 21t34 52h62z" />
    <glyph glyph-name="Aogonek" unicode="&#x104;" horiz-adv-x="549" 
d="M545 -201q-13 -7 -21 -12.5t-15 -9t-15.5 -5.5t-22.5 -2q-31 0 -53 23.5t-22 63.5q0 48 15.5 79.5t46.5 63.5l-66 189h-239l-70 -189h-76l255 681h38l242 -681h-29q-15 -21 -25 -36t-16 -28t-8.5 -25.5t-2.5 -26.5q0 -29 10.5 -41.5t25.5 -12.5q10 0 22 3.5t31 11.5z
M276 523l-100 -268h192z" />
    <glyph glyph-name="aogonek" unicode="&#x105;" horiz-adv-x="448" 
d="M407 -201q-11 -6 -19 -11.5t-15.5 -9.5t-16.5 -6t-23 -2q-36 0 -55.5 27t-19.5 60q0 46 15 78.5t47 64.5q-5 17 -10.5 32.5t-8.5 32.5q-27 -38 -60.5 -58t-81.5 -20q-46 0 -79 27t-33 75q0 19 3.5 43t14.5 40q10 14 40.5 27t66.5 24.5t70.5 19.5t52.5 11v63q0 25 -4 41
t-13.5 25t-26 12.5t-40.5 3.5h-4q-11 0 -23 -1t-22.5 -4.5t-17 -11.5t-6.5 -22l-72 -6q0 17 2 34t7 34q1 3 5 6t6 5q27 18 65.5 25t70.5 7q29 0 56 -6.5t48 -20.5t33.5 -37t12.5 -56v-210q0 -69 20 -135h-17l-7 -10q-12 -17 -21 -30.5t-14 -25.5t-7.5 -24t-2.5 -26
q0 -9 1.5 -18.5t5.5 -17.5t11 -13t18 -5q14 0 27.5 5t25.5 10zM295 194q-43 -8 -85 -22.5t-80 -32.5q-5 -20 -5 -37q0 -29 14 -38.5t41 -9.5q29 0 58 18.5t47 40.5q2 2 6 7.5t4 7.5v66z" />
    <glyph glyph-name="Cacute" unicode="&#x106;" horiz-adv-x="623" 
d="M589 26q-41 -20 -91.5 -29t-112.5 -9q-61 0 -121.5 22t-108.5 65t-78 106.5t-30 145.5q0 72 26 134.5t71.5 109t108 73t135.5 26.5q38 0 66.5 -2.5t51.5 -7t42.5 -11.5t40.5 -17l-6 -75q-45 25 -94 35.5t-111 10.5q-49 0 -92.5 -18.5t-76.5 -53.5t-52.5 -85t-19.5 -113
q0 -59 20 -110t54.5 -88t81 -58t99.5 -21q49 0 97 10.5t94 35.5zM405 696h-56l105 185h78z" />
    <glyph glyph-name="cacute" unicode="&#x107;" horiz-adv-x="416" 
d="M403 30q-35 -23 -75 -33t-80 -10q-45 0 -83 15.5t-65 46.5t-42.5 76t-15.5 105q0 62 19 106.5t49 73t66.5 42t71.5 13.5q63 0 104.5 -18t46.5 -63q1 -7 1 -16v-17h-72q0 29 -17.5 38.5t-58.5 9.5q-23 0 -36.5 -2.5t-18.5 -5.5q-3 -2 -14.5 -9.5t-24 -25.5t-22.5 -48
t-10 -75q0 -48 13 -81.5t33.5 -55.5t46 -32t50.5 -10q14 0 31.5 3.5t35 10t33.5 15t28 17.5zM268 521h-57l109 202h81z" />
    <glyph glyph-name="Ccircumflex" unicode="&#x108;" horiz-adv-x="623" 
d="M589 26q-41 -20 -91.5 -29t-112.5 -9q-61 0 -121.5 22t-108.5 65t-78 106.5t-30 145.5q0 72 26 134.5t71.5 109t108 73t135.5 26.5q38 0 66.5 -2.5t51.5 -7t42.5 -11.5t40.5 -17l-6 -75q-45 25 -94 35.5t-111 10.5q-49 0 -92.5 -18.5t-76.5 -53.5t-52.5 -85t-19.5 -113
q0 -59 20 -110t54.5 -88t81 -58t99.5 -21q49 0 97 10.5t94 35.5zM468 693l-80 107l-84 -107h-57l113 178h52l117 -178h-61z" />
    <glyph glyph-name="ccircumflex" unicode="&#x109;" horiz-adv-x="416" 
d="M403 30q-35 -23 -75 -33t-80 -10q-45 0 -83 15.5t-65 46.5t-42.5 76t-15.5 105q0 62 19 106.5t49 73t66.5 42t71.5 13.5q63 0 104.5 -18t46.5 -63q1 -7 1 -16v-17h-72q0 29 -17.5 38.5t-58.5 9.5q-23 0 -36.5 -2.5t-18.5 -5.5q-3 -2 -14.5 -9.5t-24 -25.5t-22.5 -48
t-10 -75q0 -48 13 -81.5t33.5 -55.5t46 -32t50.5 -10q14 0 31.5 3.5t35 10t33.5 15t28 17.5zM331 524l-84 116l-88 -116h-59l118 192h54l122 -192h-63z" />
    <glyph glyph-name="Cdotaccent" unicode="&#x10a;" horiz-adv-x="623" 
d="M589 26q-41 -20 -91.5 -29t-112.5 -9q-61 0 -121.5 22t-108.5 65t-78 106.5t-30 145.5q0 72 26 134.5t71.5 109t108 73t135.5 26.5q38 0 66.5 -2.5t51.5 -7t42.5 -11.5t40.5 -17l-6 -75q-45 25 -94 35.5t-111 10.5q-49 0 -92.5 -18.5t-76.5 -53.5t-52.5 -85t-19.5 -113
q0 -59 20 -110t54.5 -88t81 -58t99.5 -21q49 0 97 10.5t94 35.5zM449 772q0 -12 -5 -24t-14 -21.5t-20 -15.5t-23 -6t-22.5 6t-19 15.5t-13.5 21.5t-5 24t5 23.5t13.5 20.5t19 15t22.5 6q24 0 43 -20t19 -45z" />
    <glyph glyph-name="cdotaccent" unicode="&#x10b;" horiz-adv-x="416" 
d="M403 30q-35 -23 -75 -33t-80 -10q-45 0 -83 15.5t-65 46.5t-42.5 76t-15.5 105q0 62 19 106.5t49 73t66.5 42t71.5 13.5q63 0 104.5 -18t46.5 -63q1 -7 1 -16v-17h-72q0 29 -17.5 38.5t-58.5 9.5q-23 0 -36.5 -2.5t-18.5 -5.5q-3 -2 -14.5 -9.5t-24 -25.5t-22.5 -48
t-10 -75q0 -48 13 -81.5t33.5 -55.5t46 -32t50.5 -10q14 0 31.5 3.5t35 10t33.5 15t28 17.5zM309 608q0 -12 -5 -24t-14 -21.5t-20 -15.5t-23 -6t-22.5 6t-19 15.5t-13.5 21.5t-5 24t5 23.5t13.5 20.5t19 15t22.5 6q24 0 43 -20t19 -45z" />
    <glyph glyph-name="Ccaron" unicode="&#x10c;" horiz-adv-x="623" 
d="M589 26q-41 -20 -91.5 -29t-112.5 -9q-61 0 -121.5 22t-108.5 65t-78 106.5t-30 145.5q0 72 26 134.5t71.5 109t108 73t135.5 26.5q38 0 66.5 -2.5t51.5 -7t42.5 -11.5t40.5 -17l-6 -75q-45 25 -94 35.5t-111 10.5q-49 0 -92.5 -18.5t-76.5 -53.5t-52.5 -85t-19.5 -113
q0 -59 20 -110t54.5 -88t81 -58t99.5 -21q49 0 97 10.5t94 35.5zM415 705h-51l-118 177h61l81 -107l84 107h56z" />
    <glyph glyph-name="ccaron" unicode="&#x10d;" horiz-adv-x="416" 
d="M403 30q-35 -23 -75 -33t-80 -10q-45 0 -83 15.5t-65 46.5t-42.5 76t-15.5 105q0 62 19 106.5t49 73t66.5 42t71.5 13.5q63 0 104.5 -18t46.5 -63q1 -7 1 -16v-17h-72q0 29 -17.5 38.5t-58.5 9.5q-23 0 -36.5 -2.5t-18.5 -5.5q-3 -2 -14.5 -9.5t-24 -25.5t-22.5 -48
t-10 -75q0 -48 13 -81.5t33.5 -55.5t46 -32t50.5 -10q14 0 31.5 3.5t35 10t33.5 15t28 17.5zM277 511h-54l-123 193h64l84 -117l88 117h58z" />
    <glyph glyph-name="Dcaron" unicode="&#x10e;" horiz-adv-x="700" 
d="M653 333q0 -54 -16.5 -113t-55 -107.5t-100.5 -80.5t-152 -32h-227v657l45 3q46 3 85 3q24 0 49.5 -0.5t57.5 -0.5q88 0 148 -30t97 -77.5t53 -106t16 -115.5zM563 333q0 43 -11.5 90t-39.5 86t-73.5 64t-113.5 25h-5l-139 -2v-534h133q64 0 110.5 19t77.5 54t46 85
t15 113zM332 705h-51l-118 177h61l81 -107l84 107h56z" />
    <glyph glyph-name="dcaron" unicode="&#x10f;" horiz-adv-x="536" 
d="M385 0q-3 13 -5 27t-4 27q-34 -36 -65 -51.5t-76 -15.5q-41 0 -76 17t-61 48t-41 74.5t-15 97.5q0 115 62 178t168 63q31 0 51.5 -4t47.5 -11v280h77v-605q0 -34 2 -62.5t6 -62.5h-71zM371 315q0 28 -5 44.5t-17 25.5t-32.5 11.5t-51.5 2.5q-11 0 -24 -1t-24.5 -3
t-21 -4.5t-13.5 -6.5q-5 -4 -14 -16t-18.5 -31.5t-16.5 -46t-7 -59.5q0 -45 12 -78.5t30 -55.5t39 -32.5t40 -10.5q20 0 38 7t34 18t29 25t23 29v182zM596 634q0 -30 -26 -72t-68 -87l-24 19q23 35 35 67.5t12 51.5q0 14 -11.5 25.5t-34.5 17.5l51 74q18 -3 30.5 -12.5
t20.5 -23t11.5 -29.5t3.5 -31z" />
    <glyph glyph-name="Dcroat" unicode="&#x110;" horiz-adv-x="700" 
d="M653 333q0 -73 -23 -134t-65 -105.5t-102 -69t-134 -24.5h-227v312h-111v49h111v296q32 2 65 4t65 2q27 0 53.5 -0.5t53.5 -0.5q75 0 133 -24.5t98.5 -68t61.5 -104t21 -132.5zM563 333q0 55 -15 103.5t-45 84.5t-74.5 56.5t-103.5 20.5q-36 0 -72 -0.5t-72 -1.5v-235
h143v-49h-143v-250h133q64 0 111 19.5t78 54.5t45.5 85t14.5 112z" />
    <glyph glyph-name="dcroat" unicode="&#x111;" horiz-adv-x="536" 
d="M385 0q-2 8 -4.5 22.5t-4.5 31.5q-34 -36 -65 -51.5t-76 -15.5q-41 0 -76 17t-61 48t-41 74.5t-15 97.5q0 115 62 178t168 63q31 0 51.5 -4t47.5 -11v109h-130v60h130v111h77v-111h55v-60h-55v-434q0 -14 0.5 -27.5t1 -27.5t2 -31t4.5 -39h-71zM371 315q0 28 -5 44.5
t-17 25.5t-32.5 11.5t-51.5 2.5q-11 0 -24 -1t-24.5 -3t-21 -4.5t-13.5 -6.5q-5 -4 -14 -16t-18.5 -31.5t-16.5 -46t-7 -59.5q0 -45 12 -78.5t30 -55.5t39 -32.5t40 -10.5q20 0 38 7t34 18t29 25t23 29v182z" />
    <glyph glyph-name="Emacron" unicode="&#x112;" horiz-adv-x="547" 
d="M102 0v659h376v-68h-297v-222h259v-68h-259v-233h319v-68h-398zM119 705v65h352v-65h-352z" />
    <glyph glyph-name="emacron" unicode="&#x113;" horiz-adv-x="460" 
d="M124 251q-2 -8 -2 -12v-13q0 -83 38.5 -127.5t109.5 -44.5q20 0 41 4t40 10.5t35 15t26 17.5l6 -70q-30 -19 -69 -31.5t-103 -12.5q-43 0 -80 16t-64.5 46.5t-43.5 74.5t-16 101q0 58 15 103t42 75.5t64 46t81 15.5q101 0 141.5 -53.5t40.5 -160.5h-302zM356 311
q-2 30 -12 47.5t-26 27t-36.5 12t-42.5 2.5q-16 0 -36 -5t-24 -9q-2 -2 -8 -7.5t-12.5 -15t-13.5 -22.5t-11 -30h222zM74 526v65h352v-65h-352z" />
    <glyph glyph-name="Ebreve" unicode="&#x114;" horiz-adv-x="547" 
d="M102 0v659h376v-68h-297v-222h259v-68h-259v-233h319v-68h-398zM460 882q-5 -27 -19.5 -54t-36.5 -48t-50.5 -34t-62.5 -13q-32 0 -60.5 10.5t-50.5 30t-35.5 47t-16.5 61.5h61q3 -17 12.5 -30.5t23.5 -23t31 -14.5t35 -5q45 0 73 21t34 52h62z" />
    <glyph glyph-name="ebreve" unicode="&#x115;" horiz-adv-x="460" 
d="M124 251q-2 -8 -2 -12v-13q0 -83 38.5 -127.5t109.5 -44.5q20 0 41 4t40 10.5t35 15t26 17.5l6 -70q-30 -19 -69 -31.5t-103 -12.5q-43 0 -80 16t-64.5 46.5t-43.5 74.5t-16 101q0 58 15 103t42 75.5t64 46t81 15.5q101 0 141.5 -53.5t40.5 -160.5h-302zM356 311
q-2 30 -12 47.5t-26 27t-36.5 12t-42.5 2.5q-16 0 -36 -5t-24 -9q-2 -2 -8 -7.5t-12.5 -15t-13.5 -22.5t-11 -30h222zM416 704q-5 -27 -19.5 -54t-36.5 -48t-50.5 -34t-62.5 -13q-32 0 -60.5 10.5t-50.5 30t-35.5 47t-16.5 61.5h61q3 -17 12.5 -30.5t23.5 -23t31 -14.5
t35 -5q45 0 73 21t34 52h62z" />
    <glyph glyph-name="Edotaccent" unicode="&#x116;" horiz-adv-x="547" 
d="M102 0v659h376v-68h-297v-222h259v-68h-259v-233h319v-68h-398zM356 772q0 -12 -5 -24t-14 -21.5t-20 -15.5t-23 -6t-22.5 6t-19 15.5t-13.5 21.5t-5 24t5 23.5t13.5 20.5t19 15t22.5 6q24 0 43 -20t19 -45z" />
    <glyph glyph-name="edotaccent" unicode="&#x117;" horiz-adv-x="460" 
d="M124 251q-2 -8 -2 -12v-13q0 -83 38.5 -127.5t109.5 -44.5q20 0 41 4t40 10.5t35 15t26 17.5l6 -70q-30 -19 -69 -31.5t-103 -12.5q-43 0 -80 16t-64.5 46.5t-43.5 74.5t-16 101q0 58 15 103t42 75.5t64 46t81 15.5q101 0 141.5 -53.5t40.5 -160.5h-302zM356 311
q-2 30 -12 47.5t-26 27t-36.5 12t-42.5 2.5q-16 0 -36 -5t-24 -9q-2 -2 -8 -7.5t-12.5 -15t-13.5 -22.5t-11 -30h222zM311 608q0 -12 -5 -24t-14 -21.5t-20 -15.5t-23 -6t-22.5 6t-19 15.5t-13.5 21.5t-5 24t5 23.5t13.5 20.5t19 15t22.5 6q24 0 43 -20t19 -45z" />
    <glyph glyph-name="Eogonek" unicode="&#x118;" horiz-adv-x="547" 
d="M495 -201q-13 -7 -21 -12.5t-15 -9t-15.5 -5.5t-22.5 -2q-31 0 -53 23.5t-22 63.5q0 48 15.5 79.5t46.5 63.5h-306v659h376v-68h-297v-222h259v-68h-259v-233h319v-68h-37q-15 -21 -25 -36t-16 -28t-8.5 -25.5t-2.5 -26.5q0 -29 10.5 -41.5t25.5 -12.5q10 0 22 3.5
t31 11.5z" />
    <glyph glyph-name="eogonek" unicode="&#x119;" horiz-adv-x="460" 
d="M392 -201q-13 -7 -21 -12.5t-15 -9t-15.5 -5.5t-22.5 -2q-31 0 -53 23.5t-22 63.5q0 44 13 73.5t39 58.5q-11 -1 -23 -1.5t-26 -0.5q-43 0 -80 16t-64.5 46.5t-43.5 74.5t-16 101q0 58 15 103t42 75.5t64 46t81 15.5q101 0 141.5 -53.5t40.5 -160.5h-302q-2 -8 -2 -12
v-13q0 -83 38.5 -127.5t109.5 -44.5q20 0 41 4t40 10.5t35 15t26 17.5l6 -70q-19 -12 -41 -22q-18 -10 -25 -20q-21 -29 -32.5 -55t-11.5 -50q0 -29 10.5 -41.5t25.5 -12.5q10 0 22 3.5t31 11.5zM356 311q-2 30 -12 47.5t-26 27t-36.5 12t-42.5 2.5q-16 0 -36 -5t-24 -9
q-2 -2 -8 -7.5t-12.5 -15t-13.5 -22.5t-11 -30h222z" />
    <glyph glyph-name="Ecaron" unicode="&#x11a;" horiz-adv-x="547" 
d="M102 0v659h376v-68h-297v-222h259v-68h-259v-233h319v-68h-398zM323 705h-51l-118 177h61l81 -107l84 107h56z" />
    <glyph glyph-name="ecaron" unicode="&#x11b;" horiz-adv-x="460" 
d="M124 251q-2 -8 -2 -12v-13q0 -83 38.5 -127.5t109.5 -44.5q20 0 41 4t40 10.5t35 15t26 17.5l6 -70q-30 -19 -69 -31.5t-103 -12.5q-43 0 -80 16t-64.5 46.5t-43.5 74.5t-16 101q0 58 15 103t42 75.5t64 46t81 15.5q101 0 141.5 -53.5t40.5 -160.5h-302zM356 311
q-2 30 -12 47.5t-26 27t-36.5 12t-42.5 2.5q-16 0 -36 -5t-24 -9q-2 -2 -8 -7.5t-12.5 -15t-13.5 -22.5t-11 -30h222zM280 511h-54l-123 193h64l84 -117l88 117h58z" />
    <glyph glyph-name="Gcircumflex" unicode="&#x11c;" horiz-adv-x="692" 
d="M606 21q-20 -5 -38 -10.5t-41 -10.5t-53.5 -8.5t-74.5 -3.5q-83 0 -148.5 26.5t-110.5 72.5t-69 109t-24 136q0 66 24.5 127t69 108t106.5 75t137 28q38 0 66.5 -2t51.5 -6.5t43.5 -12t43.5 -17.5l-6 -75q-43 24 -91.5 35t-105.5 11q-54 0 -99.5 -20t-78.5 -55.5
t-52 -85.5t-19 -110q0 -65 21 -116t57 -86.5t84.5 -54.5t104.5 -19q36 0 65.5 6.5t58.5 17.5v194h-134v68h212v-321zM466 693l-80 107l-84 -107h-57l113 178h52l117 -178h-61z" />
    <glyph glyph-name="gcircumflex" unicode="&#x11d;" horiz-adv-x="534" 
d="M428 371q19 -31 19 -78q0 -86 -51 -131.5t-141 -45.5q-19 0 -28.5 1.5t-26.5 6.5q-17 -11 -33 -27.5t-16 -36.5q0 -9 7 -17.5t30 -8.5q39 0 74 4.5t73 4.5q40 0 69.5 -4.5t48.5 -16.5t28.5 -33.5t9.5 -55.5q0 -47 -21.5 -83t-57 -60t-81.5 -36.5t-96 -12.5
q-38 0 -70.5 4.5t-56 17t-37 33.5t-13.5 54q0 42 17.5 69.5t51.5 49.5q-9 2 -19 5.5t-18.5 11t-14 19.5t-5.5 32q0 13 7 28t18.5 29t25 26.5t27.5 21.5q-17 11 -32 23t-26 29t-17.5 40.5t-6.5 57.5q0 37 12 69t36 55t59.5 36t82.5 13q48 0 77.5 -10.5t45.5 -23.5h20
q11 0 26.5 0.5t31.5 1t31 2t26 4.5v-68h-86zM363 291q0 61 -24 85.5t-81 24.5q-26 0 -47.5 -7.5t-30.5 -17.5q-8 -8 -19 -30.5t-11 -54.5q0 -36 8 -58t22 -34t34 -15.5t44 -3.5q23 0 45 8.5t30 16.5q7 8 18.5 28t11.5 58zM413 -84q0 18 -2 30t-11 18.5t-27 9t-50 2.5
q-19 0 -33 -1t-26.5 -2.5t-26.5 -2.5t-34 -1q-30 -22 -48 -46t-18 -59q0 -19 6.5 -30.5t20 -17.5t34.5 -8t50 -2q36 0 66.5 8.5t52.5 23.5t34 35t12 43zM339 524l-84 116l-88 -116h-59l118 192h54l122 -192h-63z" />
    <glyph glyph-name="Gbreve" unicode="&#x11e;" horiz-adv-x="692" 
d="M606 21q-20 -5 -38 -10.5t-41 -10.5t-53.5 -8.5t-74.5 -3.5q-83 0 -148.5 26.5t-110.5 72.5t-69 109t-24 136q0 66 24.5 127t69 108t106.5 75t137 28q38 0 66.5 -2t51.5 -6.5t43.5 -12t43.5 -17.5l-6 -75q-43 24 -91.5 35t-105.5 11q-54 0 -99.5 -20t-78.5 -55.5
t-52 -85.5t-19 -110q0 -65 21 -116t57 -86.5t84.5 -54.5t104.5 -19q36 0 65.5 6.5t58.5 17.5v194h-134v68h212v-321zM552 882q-5 -27 -19.5 -54t-36.5 -48t-50.5 -34t-62.5 -13q-32 0 -60.5 10.5t-50.5 30t-35.5 47t-16.5 61.5h61q3 -17 12.5 -30.5t23.5 -23t31 -14.5t35 -5
q45 0 73 21t34 52h62z" />
    <glyph glyph-name="gbreve" unicode="&#x11f;" horiz-adv-x="534" 
d="M428 371q19 -31 19 -78q0 -86 -51 -131.5t-141 -45.5q-19 0 -28.5 1.5t-26.5 6.5q-17 -11 -33 -27.5t-16 -36.5q0 -9 7 -17.5t30 -8.5q39 0 74 4.5t73 4.5q40 0 69.5 -4.5t48.5 -16.5t28.5 -33.5t9.5 -55.5q0 -47 -21.5 -83t-57 -60t-81.5 -36.5t-96 -12.5
q-38 0 -70.5 4.5t-56 17t-37 33.5t-13.5 54q0 42 17.5 69.5t51.5 49.5q-9 2 -19 5.5t-18.5 11t-14 19.5t-5.5 32q0 13 7 28t18.5 29t25 26.5t27.5 21.5q-17 11 -32 23t-26 29t-17.5 40.5t-6.5 57.5q0 37 12 69t36 55t59.5 36t82.5 13q48 0 77.5 -10.5t45.5 -23.5h20
q11 0 26.5 0.5t31.5 1t31 2t26 4.5v-68h-86zM363 291q0 61 -24 85.5t-81 24.5q-26 0 -47.5 -7.5t-30.5 -17.5q-8 -8 -19 -30.5t-11 -54.5q0 -36 8 -58t22 -34t34 -15.5t44 -3.5q23 0 45 8.5t30 16.5q7 8 18.5 28t11.5 58zM413 -84q0 18 -2 30t-11 18.5t-27 9t-50 2.5
q-19 0 -33 -1t-26.5 -2.5t-26.5 -2.5t-34 -1q-30 -22 -48 -46t-18 -59q0 -19 6.5 -30.5t20 -17.5t34.5 -8t50 -2q36 0 66.5 8.5t52.5 23.5t34 35t12 43zM421 704q-5 -27 -19.5 -54t-36.5 -48t-50.5 -34t-62.5 -13q-32 0 -60.5 10.5t-50.5 30t-35.5 47t-16.5 61.5h61
q3 -17 12.5 -30.5t23.5 -23t31 -14.5t35 -5q45 0 73 21t34 52h62z" />
    <glyph glyph-name="Gdotaccent" unicode="&#x120;" horiz-adv-x="692" 
d="M606 21q-20 -5 -38 -10.5t-41 -10.5t-53.5 -8.5t-74.5 -3.5q-83 0 -148.5 26.5t-110.5 72.5t-69 109t-24 136q0 66 24.5 127t69 108t106.5 75t137 28q38 0 66.5 -2t51.5 -6.5t43.5 -12t43.5 -17.5l-6 -75q-43 24 -91.5 35t-105.5 11q-54 0 -99.5 -20t-78.5 -55.5
t-52 -85.5t-19 -110q0 -65 21 -116t57 -86.5t84.5 -54.5t104.5 -19q36 0 65.5 6.5t58.5 17.5v194h-134v68h212v-321zM450 772q0 -12 -5 -24t-14 -21.5t-20 -15.5t-23 -6t-22.5 6t-19 15.5t-13.5 21.5t-5 24t5 23.5t13.5 20.5t19 15t22.5 6q24 0 43 -20t19 -45z" />
    <glyph glyph-name="gdotaccent" unicode="&#x121;" horiz-adv-x="534" 
d="M428 371q19 -31 19 -78q0 -86 -51 -131.5t-141 -45.5q-19 0 -28.5 1.5t-26.5 6.5q-17 -11 -33 -27.5t-16 -36.5q0 -9 7 -17.5t30 -8.5q39 0 74 4.5t73 4.5q40 0 69.5 -4.5t48.5 -16.5t28.5 -33.5t9.5 -55.5q0 -47 -21.5 -83t-57 -60t-81.5 -36.5t-96 -12.5
q-38 0 -70.5 4.5t-56 17t-37 33.5t-13.5 54q0 42 17.5 69.5t51.5 49.5q-9 2 -19 5.5t-18.5 11t-14 19.5t-5.5 32q0 13 7 28t18.5 29t25 26.5t27.5 21.5q-17 11 -32 23t-26 29t-17.5 40.5t-6.5 57.5q0 37 12 69t36 55t59.5 36t82.5 13q48 0 77.5 -10.5t45.5 -23.5h20
q11 0 26.5 0.5t31.5 1t31 2t26 4.5v-68h-86zM363 291q0 61 -24 85.5t-81 24.5q-26 0 -47.5 -7.5t-30.5 -17.5q-8 -8 -19 -30.5t-11 -54.5q0 -36 8 -58t22 -34t34 -15.5t44 -3.5q23 0 45 8.5t30 16.5q7 8 18.5 28t11.5 58zM413 -84q0 18 -2 30t-11 18.5t-27 9t-50 2.5
q-19 0 -33 -1t-26.5 -2.5t-26.5 -2.5t-34 -1q-30 -22 -48 -46t-18 -59q0 -19 6.5 -30.5t20 -17.5t34.5 -8t50 -2q36 0 66.5 8.5t52.5 23.5t34 35t12 43zM317 608q0 -12 -5 -24t-14 -21.5t-20 -15.5t-23 -6t-22.5 6t-19 15.5t-13.5 21.5t-5 24t5 23.5t13.5 20.5t19 15t22.5 6
q24 0 43 -20t19 -45z" />
    <glyph glyph-name="Gcommaaccent" unicode="&#x122;" horiz-adv-x="692" 
d="M606 21q-20 -5 -38 -10.5t-41 -10.5t-53.5 -8.5t-74.5 -3.5q-83 0 -148.5 26.5t-110.5 72.5t-69 109t-24 136q0 66 24.5 127t69 108t106.5 75t137 28q38 0 66.5 -2t51.5 -6.5t43.5 -12t43.5 -17.5l-6 -75q-43 24 -91.5 35t-105.5 11q-54 0 -99.5 -20t-78.5 -55.5
t-52 -85.5t-19 -110q0 -65 21 -116t57 -86.5t84.5 -54.5t104.5 -19q36 0 65.5 6.5t58.5 17.5v194h-134v68h212v-321zM464 -154q0 -30 -26 -72t-68 -87l-24 19q23 35 35 67.5t12 51.5q0 14 -11.5 25.5t-34.5 17.5l51 74q18 -3 30.5 -12.5t20.5 -23t11.5 -29.5t3.5 -31z" />
    <glyph glyph-name="gcommaaccent" unicode="&#x123;" horiz-adv-x="534" 
d="M428 371q19 -31 19 -78q0 -86 -51 -131.5t-141 -45.5q-19 0 -28.5 1.5t-26.5 6.5q-17 -11 -33 -27.5t-16 -36.5q0 -9 7 -17.5t30 -8.5q39 0 74 4.5t73 4.5q40 0 69.5 -4.5t48.5 -16.5t28.5 -33.5t9.5 -55.5q0 -47 -21.5 -83t-57 -60t-81.5 -36.5t-96 -12.5
q-38 0 -70.5 4.5t-56 17t-37 33.5t-13.5 54q0 42 17.5 69.5t51.5 49.5q-9 2 -19 5.5t-18.5 11t-14 19.5t-5.5 32q0 13 7 28t18.5 29t25 26.5t27.5 21.5q-17 11 -32 23t-26 29t-17.5 40.5t-6.5 57.5q0 37 12 69t36 55t59.5 36t82.5 13q48 0 77.5 -10.5t45.5 -23.5h20
q11 0 26.5 0.5t31.5 1t31 2t26 4.5v-68h-86zM363 291q0 61 -24 85.5t-81 24.5q-26 0 -47.5 -7.5t-30.5 -17.5q-8 -8 -19 -30.5t-11 -54.5q0 -36 8 -58t22 -34t34 -15.5t44 -3.5q23 0 45 8.5t30 16.5q7 8 18.5 28t11.5 58zM413 -84q0 18 -2 30t-11 18.5t-27 9t-50 2.5
q-19 0 -33 -1t-26.5 -2.5t-26.5 -2.5t-34 -1q-30 -22 -48 -46t-18 -59q0 -19 6.5 -30.5t20 -17.5t34.5 -8t50 -2q36 0 66.5 8.5t52.5 23.5t34 35t12 43zM195 622q0 30 26 72t68 87l24 -19q-23 -35 -35 -67.5t-12 -51.5q0 -14 11.5 -25.5t34.5 -17.5l-51 -74
q-18 3 -30.5 12.5t-20.5 23t-11.5 29.5t-3.5 31z" />
    <glyph glyph-name="Hcircumflex" unicode="&#x124;" horiz-adv-x="767" 
d="M586 0v297h-406v-297h-78v659h78v-292h406v292h78v-659h-78zM463 693l-80 107l-84 -107h-57l113 178h52l117 -178h-61z" />
    <glyph glyph-name="hcircumflex" unicode="&#x125;" horiz-adv-x="538" 
d="M456 117q0 -23 -0.5 -50.5t-1.5 -66.5h-77q1 38 1.5 64t1 47t0.5 40v87q0 27 -2 54q-2 26 -4.5 45.5t-10 32.5t-22 19.5t-39.5 6.5q-20 0 -42 -4.5t-27 -7.5q-4 -2 -13 -10.5t-20 -20.5t-22 -25t-19 -24v-304h-77v730h77v-341q29 34 63 55t87 21q30 0 55.5 -5.5t44 -19
t30 -36.5t14.5 -58q2 -34 2.5 -67.5t0.5 -67.5v-94zM349 746l-80 107l-84 -107h-57l113 178h52l117 -178h-61z" />
    <glyph glyph-name="Hbar" unicode="&#x126;" horiz-adv-x="767" 
d="M586 0v297h-406v-297h-78v461h-92v60h92v138h78v-138h406v138h78v-138h93v-60h-93v-461h-78zM586 367v94h-406v-94h406z" />
    <glyph glyph-name="hbar" unicode="&#x127;" horiz-adv-x="538" 
d="M456 117q0 -23 -0.5 -50.5t-1.5 -66.5h-77q1 38 1.5 64t1 47t0.5 40v87q0 27 -2 54q-2 26 -4.5 45.5t-10 32.5t-22 19.5t-39.5 6.5q-20 0 -42 -4.5t-27 -7.5q-4 -2 -13 -10.5t-20 -20.5t-22 -25t-19 -24v-304h-77v533h-72v60h72v137h77v-137h163v-60h-163v-144
q29 34 63 55t87 21q30 0 55.5 -5.5t44 -19t30 -36.5t14.5 -58q2 -34 2.5 -67.5t0.5 -67.5v-94z" />
    <glyph glyph-name="Itilde" unicode="&#x128;" horiz-adv-x="283" 
d="M102 0v659h78v-659h-78zM326 768q-27 -24 -55.5 -40t-65.5 -16q-27 0 -44 7.5t-30 16.5t-25.5 16.5t-29.5 7.5q-11 0 -22.5 -4t-22.5 -10t-20 -12.5t-15 -10.5l-29 38q32 27 61 43.5t71 16.5q17 0 31 -8t27.5 -17.5t29 -17.5t36.5 -8q17 0 36 12t39 25z" />
    <glyph glyph-name="itilde" unicode="&#x129;" horiz-adv-x="251" 
d="M87 0v453h77v-453h-77zM313 585q-27 -26 -57.5 -43.5t-68.5 -17.5q-29 0 -46 8t-30 18t-27 18t-38 8q-8 0 -18.5 -4.5t-21.5 -11t-21 -13.5l-17 -11l-30 41q28 26 60 46t71 20q23 0 39 -9t30 -19.5t29.5 -19t38.5 -8.5q20 0 41 15t37 26z" />
    <glyph glyph-name="Imacron" unicode="&#x12a;" horiz-adv-x="283" 
d="M102 0v659h78v-659h-78zM-35 705v65h352v-65h-352z" />
    <glyph glyph-name="imacron" unicode="&#x12b;" horiz-adv-x="251" 
d="M87 0v453h77v-453h-77zM-51 526v65h352v-65h-352z" />
    <glyph glyph-name="Ibreve" unicode="&#x12c;" horiz-adv-x="283" 
d="M102 0v659h78v-659h-78zM310 882q-5 -27 -19.5 -54t-36.5 -48t-50.5 -34t-62.5 -13q-32 0 -60.5 10.5t-50.5 30t-35.5 47t-16.5 61.5h61q3 -17 12.5 -30.5t23.5 -23t31 -14.5t35 -5q45 0 73 21t34 52h62z" />
    <glyph glyph-name="ibreve" unicode="&#x12d;" horiz-adv-x="251" 
d="M87 0v453h77v-453h-77zM294 704q-5 -27 -19.5 -54t-36.5 -48t-50.5 -34t-62.5 -13q-32 0 -60.5 10.5t-50.5 30t-35.5 47t-16.5 61.5h61q3 -17 12.5 -30.5t23.5 -23t31 -14.5t35 -5q45 0 73 21t34 52h62z" />
    <glyph glyph-name="Iogonek" unicode="&#x12e;" horiz-adv-x="283" 
d="M189 -201q-13 -7 -21 -12.5t-15 -9t-15.5 -5.5t-22.5 -2q-31 0 -53 23.5t-22 63.5q0 48 15.5 79.5t46.5 63.5v659h78v-659h-23q-15 -21 -25 -36t-16 -28t-8.5 -25.5t-2.5 -26.5q0 -29 10.5 -41.5t25.5 -12.5q10 0 22 3.5t31 11.5z" />
    <glyph glyph-name="iogonek" unicode="&#x12f;" horiz-adv-x="251" 
d="M174 -201q-13 -7 -21 -12.5t-15 -9t-15.5 -5.5t-22.5 -2q-31 0 -53 23.5t-22 63.5q0 48 15.5 79.5t46.5 63.5v453h77v-453h-22q-15 -21 -25 -36t-16 -28t-8.5 -25.5t-2.5 -26.5q0 -29 10.5 -41.5t25.5 -12.5q10 0 22 3.5t31 11.5zM176 619q0 -21 -15.5 -39t-36.5 -18
q-20 0 -34.5 17.5t-14.5 39.5q0 21 14.5 37.5t34.5 16.5q21 0 36.5 -16.5t15.5 -37.5z" />
    <glyph glyph-name="Idotaccent" unicode="&#x130;" horiz-adv-x="283" 
d="M102 0v659h78v-659h-78zM203 772q0 -12 -5 -24t-14 -21.5t-20 -15.5t-23 -6t-22.5 6t-19 15.5t-13.5 21.5t-5 24t5 23.5t13.5 20.5t19 15t22.5 6q24 0 43 -20t19 -45z" />
    <glyph glyph-name="dotlessi" unicode="&#x131;" horiz-adv-x="251" 
d="M87 0v453h77v-453h-77z" />
    <glyph glyph-name="IJ" unicode="&#x132;" horiz-adv-x="577" 
d="M102 0v659h78v-659h-78zM475 49q0 -67 -18.5 -120t-52.5 -90t-82.5 -56.5t-107.5 -20.5v68q57 1 93 23.5t56 57.5t27 78.5t7 86.5v583h78v-610z" />
    <glyph glyph-name="ij" unicode="&#x133;" horiz-adv-x="491" 
d="M176 619q0 -21 -15.5 -39t-36.5 -18q-20 0 -34.5 17.5t-14.5 39.5q0 21 14.5 37.5t34.5 16.5q21 0 36.5 -16.5t15.5 -37.5zM87 0v453h77v-453h-77zM416 619q0 -21 -15.5 -39t-36.5 -18q-20 0 -34.5 17.5t-14.5 39.5q0 21 14.5 37.5t34.5 16.5q21 0 36.5 -16.5t15.5 -37.5
zM404 40q0 -103 -17.5 -162.5t-49 -90.5t-74 -40t-91.5 -10v69q46 1 76 12t47.5 39t24.5 76.5t7 125.5v394h77v-413z" />
    <glyph glyph-name="Jcircumflex" unicode="&#x134;" horiz-adv-x="294" 
d="M192 49q0 -67 -18.5 -120t-52.5 -90t-82.5 -56.5t-107.5 -20.5v68q57 1 93 23.5t56 57.5t27 78.5t7 86.5v583h78v-610zM233 693l-80 107l-84 -107h-57l113 178h52l117 -178h-61z" />
    <glyph glyph-name="jcircumflex" unicode="&#x135;" horiz-adv-x="240" 
d="M153 40q0 -103 -17.5 -162.5t-49 -90.5t-74 -40t-91.5 -10v69q46 1 76 12t47.5 39t24.5 76.5t7 125.5v394h77v-413zM198 524l-84 116l-88 -116h-59l118 192h54l122 -192h-63z" />
    <glyph glyph-name="Kcommaaccent" unicode="&#x136;" horiz-adv-x="561" 
d="M460 0l-158 221q-29 40 -60.5 70.5t-60.5 50.5v-342h-79v659h79v-313q12 10 28 25.5t31.5 32t30 33t25.5 30.5l150 192h91l-146 -190q-10 -13 -23.5 -29t-27.5 -32t-28.5 -30.5t-25.5 -24.5q32 -31 62.5 -67t56.5 -72l153 -214h-98zM365 -154q0 -30 -26 -72t-68 -87
l-24 19q23 35 35 67.5t12 51.5q0 14 -11.5 25.5t-34.5 17.5l51 74q18 -3 30.5 -12.5t20.5 -23t11.5 -29.5t3.5 -31z" />
    <glyph glyph-name="kcommaaccent" unicode="&#x137;" horiz-adv-x="457" 
d="M357 0l-167 205h-31v-205h-77v730h77v-469l180 192h103l-194 -202l204 -251h-95zM313 -154q0 -30 -26 -72t-68 -87l-24 19q23 35 35 67.5t12 51.5q0 14 -11.5 25.5t-34.5 17.5l51 74q18 -3 30.5 -12.5t20.5 -23t11.5 -29.5t3.5 -31z" />
    <glyph glyph-name="kgreenlandic" unicode="&#x138;" horiz-adv-x="457" 
d="M159 453v-192l180 192h103l-194 -202l204 -251h-95l-167 205h-31v-205h-77v453h77z" />
    <glyph glyph-name="Lacute" unicode="&#x139;" horiz-adv-x="494" 
d="M102 0v659h79v-591h307v-68h-386zM164 696h-56l105 185h78z" />
    <glyph glyph-name="lacute" unicode="&#x13a;" horiz-adv-x="241" 
d="M82 0v730h77v-730h-77zM127 752h-56l105 185h78z" />
    <glyph glyph-name="Lcommaaccent" unicode="&#x13b;" horiz-adv-x="494" 
d="M102 0v659h79v-591h307v-68h-386zM353 -154q0 -30 -26 -72t-68 -87l-24 19q23 35 35 67.5t12 51.5q0 14 -11.5 25.5t-34.5 17.5l51 74q18 -3 30.5 -12.5t20.5 -23t11.5 -29.5t3.5 -31z" />
    <glyph glyph-name="lcommaaccent" unicode="&#x13c;" horiz-adv-x="241" 
d="M82 0v730h77v-730h-77zM180 -154q0 -30 -26 -72t-68 -87l-24 19q23 35 35 67.5t12 51.5q0 14 -11.5 25.5t-34.5 17.5l51 74q18 -3 30.5 -12.5t20.5 -23t11.5 -29.5t3.5 -31z" />
    <glyph glyph-name="Lcaron" unicode="&#x13d;" horiz-adv-x="494" 
d="M102 0v659h79v-591h307v-68h-386zM368 563q0 -30 -26 -72t-68 -87l-24 19q23 35 35 67.5t12 51.5q0 14 -11.5 25.5t-34.5 17.5l51 74q18 -3 30.5 -12.5t20.5 -23t11.5 -29.5t3.5 -31z" />
    <glyph glyph-name="lcaron" unicode="&#x13e;" horiz-adv-x="241" 
d="M82 0v730h77v-730h-77zM300 634q0 -30 -26 -72t-68 -87l-24 19q23 35 35 67.5t12 51.5q0 14 -11.5 25.5t-34.5 17.5l51 74q18 -3 30.5 -12.5t20.5 -23t11.5 -29.5t3.5 -31z" />
    <glyph glyph-name="Ldot" unicode="&#x13f;" horiz-adv-x="494" 
d="M102 0v659h79v-591h307v-68h-386zM438 359q0 -12 -5 -24t-14 -21.5t-20 -15.5t-23 -6t-22.5 6t-19 15.5t-13.5 21.5t-5 24t5 23.5t13.5 20.5t19 15t22.5 6q24 0 43 -20t19 -45z" />
    <glyph glyph-name="ldot" unicode="&#x140;" horiz-adv-x="321" 
d="M82 0v730h77v-730h-77zM342 388q0 -12 -5 -24t-14 -21.5t-20 -15.5t-23 -6t-22.5 6t-19 15.5t-13.5 21.5t-5 24t5 23.5t13.5 20.5t19 15t22.5 6q24 0 43 -20t19 -45z" />
    <glyph glyph-name="Lslash" unicode="&#x141;" horiz-adv-x="494" 
d="M102 0v275l-78 -50l-29 44l107 67v323h79v-275l102 64l27 -43l-129 -82v-255h307v-68h-386z" />
    <glyph glyph-name="lslash" unicode="&#x142;" horiz-adv-x="241" 
d="M158 440v-440h-76v390l-88 -58l-30 48l118 76v274h76v-224l106 69l29 -47z" />
    <glyph glyph-name="Nacute" unicode="&#x143;" horiz-adv-x="751" 
d="M558 0l-382 551v-551h-74v659h89l384 -553v554h74v-660h-91zM391 696h-56l105 185h78z" />
    <glyph glyph-name="nacute" unicode="&#x144;" horiz-adv-x="551" 
d="M469 162q0 -22 -0.5 -45t-1 -50.5t-1.5 -66.5h-76q1 38 1.5 64t0.5 47v153q0 14 -1 28q-2 26 -4.5 45.5t-10.5 32.5t-22.5 19.5t-39.5 6.5q-10 0 -20.5 -1.5t-20.5 -3t-17 -4t-10 -3.5q-4 -2 -13 -10.5t-20 -20.5t-22.5 -25t-19.5 -24v-304h-77v327q0 39 -2.5 69t-5.5 57
h71l12 -67q29 34 64.5 56.5t87.5 22.5q30 0 55.5 -5.5t44 -19t30 -36.5t14.5 -58q3 -34 3.5 -67.5t0.5 -67.5v-49zM307 521h-57l109 202h81z" />
    <glyph glyph-name="Ncommaaccent" unicode="&#x145;" horiz-adv-x="751" 
d="M558 0l-382 551v-551h-74v659h89l384 -553v554h74v-660h-91zM435 -154q0 -30 -26 -72t-68 -87l-24 19q23 35 35 67.5t12 51.5q0 14 -11.5 25.5t-34.5 17.5l51 74q18 -3 30.5 -12.5t20.5 -23t11.5 -29.5t3.5 -31z" />
    <glyph glyph-name="ncommaaccent" unicode="&#x146;" horiz-adv-x="551" 
d="M469 162q0 -22 -0.5 -45t-1 -50.5t-1.5 -66.5h-76q1 38 1.5 64t0.5 47v153q0 14 -1 28q-2 26 -4.5 45.5t-10.5 32.5t-22.5 19.5t-39.5 6.5q-10 0 -20.5 -1.5t-20.5 -3t-17 -4t-10 -3.5q-4 -2 -13 -10.5t-20 -20.5t-22.5 -25t-19.5 -24v-304h-77v327q0 39 -2.5 69t-5.5 57
h71l12 -67q29 34 64.5 56.5t87.5 22.5q30 0 55.5 -5.5t44 -19t30 -36.5t14.5 -58q3 -34 3.5 -67.5t0.5 -67.5v-49zM345 -154q0 -30 -26 -72t-68 -87l-24 19q23 35 35 67.5t12 51.5q0 14 -11.5 25.5t-34.5 17.5l51 74q18 -3 30.5 -12.5t20.5 -23t11.5 -29.5t3.5 -31z" />
    <glyph glyph-name="Ncaron" unicode="&#x147;" horiz-adv-x="751" 
d="M558 0l-382 551v-551h-74v659h89l384 -553v554h74v-660h-91zM404 705h-51l-118 177h61l81 -107l84 107h56z" />
    <glyph glyph-name="ncaron" unicode="&#x148;" horiz-adv-x="551" 
d="M469 162q0 -22 -0.5 -45t-1 -50.5t-1.5 -66.5h-76q1 38 1.5 64t0.5 47v153q0 14 -1 28q-2 26 -4.5 45.5t-10.5 32.5t-22.5 19.5t-39.5 6.5q-10 0 -20.5 -1.5t-20.5 -3t-17 -4t-10 -3.5q-4 -2 -13 -10.5t-20 -20.5t-22.5 -25t-19.5 -24v-304h-77v327q0 39 -2.5 69t-5.5 57
h71l12 -67q29 34 64.5 56.5t87.5 22.5q30 0 55.5 -5.5t44 -19t30 -36.5t14.5 -58q3 -34 3.5 -67.5t0.5 -67.5v-49zM312 511h-54l-123 193h64l84 -117l88 117h58z" />
    <glyph glyph-name="napostrophe" unicode="&#x149;" horiz-adv-x="601" 
d="M519 162q0 -22 -0.5 -45t-1 -50.5t-1.5 -66.5h-76q1 38 1.5 64t0.5 47v153q0 14 -1 28q-2 26 -4.5 45.5t-10.5 32.5t-22.5 19.5t-39.5 6.5q-10 0 -20.5 -1.5t-20.5 -3t-17 -4t-10 -3.5q-4 -2 -13 -10.5t-20 -20.5t-22.5 -25t-19.5 -24v-304h-77v327q0 39 -2.5 69t-5.5 57
h71l12 -67q29 34 64.5 56.5t87.5 22.5q30 0 55.5 -5.5t44 -19t30 -36.5t14.5 -58q3 -34 3.5 -67.5t0.5 -67.5v-49zM110 585q0 -30 -26 -72t-68 -87l-24 19q23 35 35 67.5t12 51.5q0 14 -11.5 25.5t-34.5 17.5l51 74q18 -3 30.5 -12.5t20.5 -23t11.5 -29.5t3.5 -31z" />
    <glyph glyph-name="Eng" unicode="&#x14a;" horiz-adv-x="751" 
d="M387 -162q43 1 74 15t52 36t32.5 50.5t17.5 60.5l-387 551v-551h-74v659h89l384 -553v554h74v-603q0 -67 -18.5 -120t-53 -90t-83 -56.5t-107.5 -20.5v68z" />
    <glyph glyph-name="eng" unicode="&#x14b;" horiz-adv-x="551" 
d="M237 -161q44 1 73 11t46.5 30t25 50.5t8.5 73.5q2 48 2 96v168q0 12 -1 24q-1 22 -3 41t-9.5 33t-22.5 22t-42 8q-6 0 -15 -1t-19 -2.5t-19.5 -3.5t-14.5 -5q-6 -3 -17 -13.5t-22 -23.5t-21.5 -25t-14.5 -18v-304h-77v327q0 32 -1.5 63.5t-6.5 62.5h71l12 -67
q31 36 67 57.5t85 21.5q64 0 100.5 -25.5t43.5 -93.5q3 -34 3.5 -67.5t0.5 -67.5q0 -53 -0.5 -105.5t-2.5 -105.5q-3 -63 -16 -106.5t-40 -70t-69.5 -39t-103.5 -14.5v69z" />
    <glyph glyph-name="Omacron" unicode="&#x14c;" horiz-adv-x="742" 
d="M695 330q0 -68 -23.5 -130t-66 -109.5t-102 -76t-130.5 -28.5q-72 0 -132 27.5t-103 75t-67 109.5t-24 131t24 131t67 109.5t103 75.5t132 28q71 0 130.5 -27.5t102 -74.5t66 -109.5t23.5 -131.5zM605 330q0 55 -16.5 104.5t-46.5 87.5t-73 60.5t-96 22.5t-96.5 -21.5
t-74.5 -58.5t-48 -87.5t-17 -107.5t17 -107.5t48 -88t74.5 -59t96.5 -21.5t96 22.5t73 60t46.5 87.5t16.5 106zM197 705v65h352v-65h-352z" />
    <glyph glyph-name="omacron" unicode="&#x14d;" horiz-adv-x="516" 
d="M474 226q0 -53 -15.5 -96.5t-44 -75.5t-70 -49.5t-92.5 -17.5q-47 0 -86 17t-66.5 48t-42.5 75t-15 99q0 50 14.5 93.5t42 76t69 51t95.5 18.5q48 0 86.5 -16.5t66.5 -47.5t43 -75.5t15 -99.5zM390 240q-4 47 -16 77.5t-30.5 48.5t-41.5 25.5t-49 7.5q-27 0 -48.5 -9
t-28.5 -16q-4 -4 -12.5 -15.5t-17 -30.5t-15 -43.5t-6.5 -53.5q0 -54 13 -88.5t33 -54t44 -27t47 -7.5q12 0 24 2.5t23 6t19 8t12 8.5t12.5 15.5t17 29.5t15 42t6.5 53v10q0 6 -1 11zM82 526v65h352v-65h-352z" />
    <glyph glyph-name="Obreve" unicode="&#x14e;" horiz-adv-x="742" 
d="M695 330q0 -68 -23.5 -130t-66 -109.5t-102 -76t-130.5 -28.5q-72 0 -132 27.5t-103 75t-67 109.5t-24 131t24 131t67 109.5t103 75.5t132 28q71 0 130.5 -27.5t102 -74.5t66 -109.5t23.5 -131.5zM605 330q0 55 -16.5 104.5t-46.5 87.5t-73 60.5t-96 22.5t-96.5 -21.5
t-74.5 -58.5t-48 -87.5t-17 -107.5t17 -107.5t48 -88t74.5 -59t96.5 -21.5t96 22.5t73 60t46.5 87.5t16.5 106zM542 882q-5 -27 -19.5 -54t-36.5 -48t-50.5 -34t-62.5 -13q-32 0 -60.5 10.5t-50.5 30t-35.5 47t-16.5 61.5h61q3 -17 12.5 -30.5t23.5 -23t31 -14.5t35 -5
q45 0 73 21t34 52h62z" />
    <glyph glyph-name="obreve" unicode="&#x14f;" horiz-adv-x="516" 
d="M474 226q0 -53 -15.5 -96.5t-44 -75.5t-70 -49.5t-92.5 -17.5q-47 0 -86 17t-66.5 48t-42.5 75t-15 99q0 50 14.5 93.5t42 76t69 51t95.5 18.5q48 0 86.5 -16.5t66.5 -47.5t43 -75.5t15 -99.5zM390 240q-4 47 -16 77.5t-30.5 48.5t-41.5 25.5t-49 7.5q-27 0 -48.5 -9
t-28.5 -16q-4 -4 -12.5 -15.5t-17 -30.5t-15 -43.5t-6.5 -53.5q0 -54 13 -88.5t33 -54t44 -27t47 -7.5q12 0 24 2.5t23 6t19 8t12 8.5t12.5 15.5t17 29.5t15 42t6.5 53v10q0 6 -1 11zM435 704q-5 -27 -19.5 -54t-36.5 -48t-50.5 -34t-62.5 -13q-32 0 -60.5 10.5t-50.5 30
t-35.5 47t-16.5 61.5h61q3 -17 12.5 -30.5t23.5 -23t31 -14.5t35 -5q45 0 73 21t34 52h62z" />
    <glyph glyph-name="Ohungarumlaut" unicode="&#x150;" horiz-adv-x="742" 
d="M695 330q0 -68 -23.5 -130t-66 -109.5t-102 -76t-130.5 -28.5q-72 0 -132 27.5t-103 75t-67 109.5t-24 131t24 131t67 109.5t103 75.5t132 28q71 0 130.5 -27.5t102 -74.5t66 -109.5t23.5 -131.5zM605 330q0 55 -16.5 104.5t-46.5 87.5t-73 60.5t-96 22.5t-96.5 -21.5
t-74.5 -58.5t-48 -87.5t-17 -107.5t17 -107.5t48 -88t74.5 -59t96.5 -21.5t96 22.5t73 60t46.5 87.5t16.5 106zM435 696h-58l109 202h82zM292 696h-58l110 202h81z" />
    <glyph glyph-name="ohungarumlaut" unicode="&#x151;" horiz-adv-x="516" 
d="M474 226q0 -53 -15.5 -96.5t-44 -75.5t-70 -49.5t-92.5 -17.5q-47 0 -86 17t-66.5 48t-42.5 75t-15 99q0 50 14.5 93.5t42 76t69 51t95.5 18.5q48 0 86.5 -16.5t66.5 -47.5t43 -75.5t15 -99.5zM390 240q-4 47 -16 77.5t-30.5 48.5t-41.5 25.5t-49 7.5q-27 0 -48.5 -9
t-28.5 -16q-4 -4 -12.5 -15.5t-17 -30.5t-15 -43.5t-6.5 -53.5q0 -54 13 -88.5t33 -54t44 -27t47 -7.5q12 0 24 2.5t23 6t19 8t12 8.5t12.5 15.5t17 29.5t15 42t6.5 53v10q0 6 -1 11zM328 521h-58l109 202h82zM185 521h-58l110 202h81z" />
    <glyph glyph-name="OE" unicode="&#x152;" horiz-adv-x="981" 
d="M559 0q-17 0 -39.5 -2t-47.5 -5t-50.5 -5t-48.5 -2q-72 0 -132 27.5t-103 75t-67 109.5t-24 131t24 131t67 109.5t103 75.5t132 28q23 0 48 -2t49.5 -5t47 -5t41.5 -2h353v-68h-298v-222h260v-68h-260v-233h320v-68h-375zM536 593q-24 4 -43.5 6t-37.5 3.5t-37.5 2
t-44.5 0.5q-53 0 -96.5 -21.5t-74.5 -58.5t-48 -87.5t-17 -107.5t17 -107.5t48 -88t74.5 -59t96.5 -21.5q25 0 44 0.5t37 2t37.5 3.5t44.5 6v527z" />
    <glyph glyph-name="oe" unicode="&#x153;" horiz-adv-x="812" 
d="M440 251q-1 -6 -1 -12v-13q0 -36 8.5 -67.5t26.5 -54.5t46 -36.5t67 -13.5q16 0 35.5 3.5t39 9.5t37 14.5t29.5 19.5l6 -70q-41 -26 -82 -35t-89 -9q-53 0 -91.5 20.5t-64.5 55.5q-27 -35 -68 -55.5t-97 -20.5q-53 0 -90.5 19t-62 51.5t-36 76t-11.5 92.5q0 51 13 94.5
t39 75.5t66 50.5t93 18.5q54 0 92 -19.5t63 -53.5q25 34 62.5 53.5t89.5 19.5q54 0 89.5 -15t56 -42.5t29 -67.5t8.5 -89h-303zM371 220q0 34 -5.5 66.5t-19.5 57.5t-39 40t-64 15q-18 0 -35.5 -6t-31.5 -19q-12 -12 -21.5 -29.5t-16 -37.5t-10 -39.5t-3.5 -35.5
q0 -34 5.5 -66t19.5 -57t39 -40t63 -15q16 0 35.5 6.5t32.5 18.5q12 12 21.5 29t16 36.5t10 39.5t3.5 36zM673 311q-2 28 -11 45.5t-24.5 27.5t-36.5 13t-46 3q-5 0 -13.5 -1t-17.5 -3t-17 -4.5t-12 -5.5q-16 -12 -27.5 -34t-16.5 -41h222z" />
    <glyph glyph-name="Racute" unicode="&#x154;" horiz-adv-x="574" 
d="M468 0q-19 22 -36 45l-34 46q-35 48 -70 95.5t-67 97.5h-80v-284h-79v657q45 2 89.5 5t89.5 3q46 0 88.5 -10t74 -32t50.5 -58.5t19 -88.5q0 -35 -11.5 -66t-32.5 -55.5t-50 -40.5t-63 -21l120 -171q23 -32 47 -62.5t51 -59.5h-106zM424 480q0 34 -13.5 56.5t-35.5 35.5
t-50 18t-57 5q-22 0 -43.5 -0.5t-43.5 -1.5v-243h85q34 0 63 6t50 21t33 40t12 63zM310 696h-56l105 185h78z" />
    <glyph glyph-name="racute" unicode="&#x155;" horiz-adv-x="347" 
d="M294 363q0 2 -1 7.5t-4 11t-9.5 9.5t-17.5 4q-16 0 -30 -11.5t-25.5 -28t-20.5 -35t-15 -32.5v-288h-77v329q0 36 -2 63t-6 61h71l13 -72q6 15 15.5 29.5t23 26.5t30 19.5t34.5 7.5q63 0 71 -66q1 -7 2 -13.5t1 -13.5zM193 521h-57l109 202h81z" />
    <glyph glyph-name="Rcommaaccent" unicode="&#x156;" horiz-adv-x="574" 
d="M468 0q-19 22 -36 45l-34 46q-35 48 -70 95.5t-67 97.5h-80v-284h-79v657q45 2 89.5 5t89.5 3q46 0 88.5 -10t74 -32t50.5 -58.5t19 -88.5q0 -35 -11.5 -66t-32.5 -55.5t-50 -40.5t-63 -21l120 -171q23 -32 47 -62.5t51 -59.5h-106zM424 480q0 34 -13.5 56.5t-35.5 35.5
t-50 18t-57 5q-22 0 -43.5 -0.5t-43.5 -1.5v-243h85q34 0 63 6t50 21t33 40t12 63zM371 -154q0 -30 -26 -72t-68 -87l-24 19q23 35 35 67.5t12 51.5q0 14 -11.5 25.5t-34.5 17.5l51 74q18 -3 30.5 -12.5t20.5 -23t11.5 -29.5t3.5 -31z" />
    <glyph glyph-name="rcommaaccent" unicode="&#x157;" horiz-adv-x="347" 
d="M294 363q0 2 -1 7.5t-4 11t-9.5 9.5t-17.5 4q-16 0 -30 -11.5t-25.5 -28t-20.5 -35t-15 -32.5v-288h-77v329q0 36 -2 63t-6 61h71l13 -72q6 15 15.5 29.5t23 26.5t30 19.5t34.5 7.5q63 0 71 -66q1 -7 2 -13.5t1 -13.5zM191 -154q0 -30 -26 -72t-68 -87l-24 19
q23 35 35 67.5t12 51.5q0 14 -11.5 25.5t-34.5 17.5l51 74q18 -3 30.5 -12.5t20.5 -23t11.5 -29.5t3.5 -31z" />
    <glyph glyph-name="Rcaron" unicode="&#x158;" horiz-adv-x="574" 
d="M468 0q-19 22 -36 45l-34 46q-35 48 -70 95.5t-67 97.5h-80v-284h-79v657q45 2 89.5 5t89.5 3q46 0 88.5 -10t74 -32t50.5 -58.5t19 -88.5q0 -35 -11.5 -66t-32.5 -55.5t-50 -40.5t-63 -21l120 -171q23 -32 47 -62.5t51 -59.5h-106zM424 480q0 34 -13.5 56.5t-35.5 35.5
t-50 18t-57 5q-22 0 -43.5 -0.5t-43.5 -1.5v-243h85q34 0 63 6t50 21t33 40t12 63zM300 705h-51l-118 177h61l81 -107l84 107h56z" />
    <glyph glyph-name="rcaron" unicode="&#x159;" horiz-adv-x="347" 
d="M294 363q0 2 -1 7.5t-4 11t-9.5 9.5t-17.5 4q-16 0 -30 -11.5t-25.5 -28t-20.5 -35t-15 -32.5v-288h-77v329q0 36 -2 63t-6 61h71l13 -72q6 15 15.5 29.5t23 26.5t30 19.5t34.5 7.5q63 0 71 -66q1 -7 2 -13.5t1 -13.5zM228 511h-54l-123 193h64l84 -117l88 117h58z" />
    <glyph glyph-name="Sacute" unicode="&#x15a;" horiz-adv-x="507" 
d="M457 174q0 -47 -18.5 -82t-48 -58.5t-67 -35.5t-75.5 -12q-55 0 -97 8.5t-81 26.5l12 79q38 -23 75 -34.5t87 -11.5q25 0 48 8t40 23t27 35t10 44q0 25 -11 43t-28.5 32t-40 26.5t-45.5 26.5l-22 13q-28 17 -55 34.5t-48 39t-34 48t-13 61.5q0 38 13.5 71.5t39 58
t62.5 38.5t83 14q32 0 56.5 -2t44.5 -6t38 -10t38 -14l-5 -79q-43 26 -80.5 35t-86.5 9q-28 0 -49 -9.5t-35.5 -25.5t-21.5 -35.5t-7 -38.5q0 -26 11.5 -45t30 -34t41.5 -28t47 -27l15 -9q28 -17 55 -34t48 -38t34 -46.5t13 -58.5zM296 696h-56l105 185h78z" />
    <glyph glyph-name="sacute" unicode="&#x15b;" horiz-adv-x="400" 
d="M359 122q0 -26 -10.5 -50.5t-31.5 -43t-53.5 -30t-76.5 -11.5q-42 0 -80 9.5t-64 27.5l9 72q18 -11 32 -19.5t29 -14.5t32 -9t40 -3q45 0 71 19t26 48q0 21 -18 36.5t-44.5 29t-58 27t-58 31t-44.5 41t-18 57.5q0 53 41.5 89.5t126.5 36.5q48 0 83.5 -10.5t60.5 -23.5
l-8 -72q-33 27 -70 35.5t-72 8.5q-15 0 -30.5 -3t-27.5 -10t-19.5 -18.5t-7.5 -27.5q0 -21 18 -36t44.5 -28t58 -26.5t58 -31t44.5 -42t18 -58.5zM229 521h-57l109 202h81z" />
    <glyph glyph-name="Scircumflex" unicode="&#x15c;" horiz-adv-x="507" 
d="M457 174q0 -47 -18.5 -82t-48 -58.5t-67 -35.5t-75.5 -12q-55 0 -97 8.5t-81 26.5l12 79q38 -23 75 -34.5t87 -11.5q25 0 48 8t40 23t27 35t10 44q0 25 -11 43t-28.5 32t-40 26.5t-45.5 26.5l-22 13q-28 17 -55 34.5t-48 39t-34 48t-13 61.5q0 38 13.5 71.5t39 58
t62.5 38.5t83 14q32 0 56.5 -2t44.5 -6t38 -10t38 -14l-5 -79q-43 26 -80.5 35t-86.5 9q-28 0 -49 -9.5t-35.5 -25.5t-21.5 -35.5t-7 -38.5q0 -26 11.5 -45t30 -34t41.5 -28t47 -27l15 -9q28 -17 55 -34t48 -38t34 -46.5t13 -58.5zM351 693l-80 107l-84 -107h-57l113 178h52
l117 -178h-61z" />
    <glyph glyph-name="scircumflex" unicode="&#x15d;" horiz-adv-x="400" 
d="M359 122q0 -26 -10.5 -50.5t-31.5 -43t-53.5 -30t-76.5 -11.5q-42 0 -80 9.5t-64 27.5l9 72q18 -11 32 -19.5t29 -14.5t32 -9t40 -3q45 0 71 19t26 48q0 21 -18 36.5t-44.5 29t-58 27t-58 31t-44.5 41t-18 57.5q0 53 41.5 89.5t126.5 36.5q48 0 83.5 -10.5t60.5 -23.5
l-8 -72q-33 27 -70 35.5t-72 8.5q-15 0 -30.5 -3t-27.5 -10t-19.5 -18.5t-7.5 -27.5q0 -21 18 -36t44.5 -28t58 -26.5t58 -31t44.5 -42t18 -58.5zM282 524l-84 116l-88 -116h-59l118 192h54l122 -192h-63z" />
    <glyph glyph-name="Scedilla" unicode="&#x15e;" horiz-adv-x="507" 
d="M337 -134q0 -23 -10 -39t-26 -27t-36 -16t-40 -5q-15 0 -25.5 0.5t-19.5 2t-18.5 5t-22.5 8.5l26 49q10 -6 23 -9t27 -3q22 0 37.5 7.5t15.5 24.5q0 14 -9.5 22.5t-24.5 12.5t-32.5 5t-32.5 1l45 82q-42 2 -77 10.5t-67 23.5l12 79q38 -23 75 -34.5t87 -11.5q25 0 48 8
t40 23t27 35t10 44q0 25 -11 43t-28.5 32t-40 26.5t-45.5 26.5l-22 13q-28 17 -55 34.5t-48 39t-34 48t-13 61.5q0 38 13.5 71.5t39 58t62.5 38.5t83 14q32 0 56.5 -2t44.5 -6t38 -10t38 -14l-5 -79q-43 26 -80.5 35t-86.5 9q-28 0 -49 -9.5t-35.5 -25.5t-21.5 -35.5
t-7 -38.5q0 -26 11.5 -45t30 -34t41.5 -28t47 -27l15 -9q28 -17 55 -34t48 -38t34 -46.5t13 -58.5q0 -44 -16 -77.5t-42.5 -56.5t-60 -36.5t-69.5 -16.5l-26 -48q41 0 67.5 -20t26.5 -53z" />
    <glyph glyph-name="scedilla" unicode="&#x15f;" horiz-adv-x="400" 
d="M280 -134q0 -23 -10 -39t-26 -27t-36 -16t-40 -5q-15 0 -25.5 0.5t-19.5 2t-18.5 5t-22.5 8.5l26 49q10 -6 23 -9t27 -3q22 0 37.5 7.5t15.5 24.5q0 14 -9.5 22.5t-24.5 12.5t-32.5 5t-32.5 1l46 83q-33 3 -63 12t-52 24l9 72q18 -11 32 -19.5t29 -14.5t32 -9t40 -3
q45 0 71 19t26 48q0 21 -18 36.5t-44.5 29t-58 27t-58 31t-44.5 41t-18 57.5q0 53 41.5 89.5t126.5 36.5q48 0 83.5 -10.5t60.5 -23.5l-8 -72q-33 27 -70 35.5t-72 8.5q-15 0 -30.5 -3t-27.5 -10t-19.5 -18.5t-7.5 -27.5q0 -21 18 -36t44.5 -28t58 -26.5t58 -31t44.5 -42
t18 -58.5q0 -24 -9 -46.5t-27 -41t-45.5 -31t-64.5 -15.5l-27 -49q41 0 67.5 -20t26.5 -53z" />
    <glyph glyph-name="Scaron" unicode="&#x160;" horiz-adv-x="507" 
d="M457 174q0 -47 -18.5 -82t-48 -58.5t-67 -35.5t-75.5 -12q-55 0 -97 8.5t-81 26.5l12 79q38 -23 75 -34.5t87 -11.5q25 0 48 8t40 23t27 35t10 44q0 25 -11 43t-28.5 32t-40 26.5t-45.5 26.5l-22 13q-28 17 -55 34.5t-48 39t-34 48t-13 61.5q0 38 13.5 71.5t39 58
t62.5 38.5t83 14q32 0 56.5 -2t44.5 -6t38 -10t38 -14l-5 -79q-43 26 -80.5 35t-86.5 9q-28 0 -49 -9.5t-35.5 -25.5t-21.5 -35.5t-7 -38.5q0 -26 11.5 -45t30 -34t41.5 -28t47 -27l15 -9q28 -17 55 -34t48 -38t34 -46.5t13 -58.5zM298 705h-51l-118 177h61l81 -107l84 107
h56z" />
    <glyph glyph-name="scaron" unicode="&#x161;" horiz-adv-x="400" 
d="M359 122q0 -26 -10.5 -50.5t-31.5 -43t-53.5 -30t-76.5 -11.5q-42 0 -80 9.5t-64 27.5l9 72q18 -11 32 -19.5t29 -14.5t32 -9t40 -3q45 0 71 19t26 48q0 21 -18 36.5t-44.5 29t-58 27t-58 31t-44.5 41t-18 57.5q0 53 41.5 89.5t126.5 36.5q48 0 83.5 -10.5t60.5 -23.5
l-8 -72q-33 27 -70 35.5t-72 8.5q-15 0 -30.5 -3t-27.5 -10t-19.5 -18.5t-7.5 -27.5q0 -21 18 -36t44.5 -28t58 -26.5t58 -31t44.5 -42t18 -58.5zM227 511h-54l-123 193h64l84 -117l88 117h58z" />
    <glyph glyph-name="Tcommaaccent" unicode="&#x162;" horiz-adv-x="522" 
d="M353 -134q0 -23 -10 -39t-26 -27t-36 -16t-40 -5q-15 0 -25.5 0.5t-19.5 2t-18.5 5t-22.5 8.5l26 49q10 -6 23 -9t27 -3q22 0 37.5 7.5t15.5 24.5q0 14 -9.5 22.5t-24.5 12.5t-32.5 5t-32.5 1l53 95h-16v592h-215v68h508v-68h-215v-592h-7l-34 -61q41 0 67.5 -20
t26.5 -53z" />
    <glyph glyph-name="tcommaaccent" unicode="&#x163;" horiz-adv-x="309" 
d="M276 -134q0 -23 -10 -39t-26 -27t-36 -16t-40 -5q-15 0 -25.5 0.5t-19.5 2t-18.5 5t-22.5 8.5l26 49q10 -6 23 -9t27 -3q22 0 37.5 7.5t15.5 24.5q0 14 -9.5 22.5t-24.5 12.5t-32.5 5t-32.5 1l48 87q-28 9 -46 35t-18 73v292h-82v60h82v154h75v-153h119v-60h-119v-268
q0 -37 10.5 -54t36.5 -17q17 0 33.5 9t33.5 17l6 -64q-15 -9 -35.5 -17t-42.5 -11l-27 -49q41 0 67.5 -20t26.5 -53z" />
    <glyph glyph-name="Tcaron" unicode="&#x164;" horiz-adv-x="522" 
d="M300 592v-592h-78v592h-215v68h508v-68h-215zM291 705h-51l-118 177h61l81 -107l84 107h56z" />
    <glyph glyph-name="tcaron" unicode="&#x165;" horiz-adv-x="309" 
d="M287 16q-18 -11 -44.5 -20t-52.5 -9q-41 0 -69.5 27t-28.5 86v292h-82v60h82v154h75v-153h119v-60h-119v-268q0 -37 10.5 -54t36.5 -17q17 0 33.5 9t33.5 17zM376 646q0 -30 -26 -72t-68 -87l-24 19q23 35 35 67.5t12 51.5q0 14 -11.5 25.5t-34.5 17.5l51 74
q18 -3 30.5 -12.5t20.5 -23t11.5 -29.5t3.5 -31z" />
    <glyph glyph-name="Tbar" unicode="&#x166;" horiz-adv-x="522" 
d="M300 592v-198h140v-60h-140v-334h-78v334h-140v60h140v198h-215v68h508v-68h-215z" />
    <glyph glyph-name="tbar" unicode="&#x167;" horiz-adv-x="309" 
d="M287 16q-18 -11 -44.5 -20t-52.5 -9q-41 0 -69.5 27t-28.5 86v122h-82v45h82v125h-82v60h82v154h75v-153h119v-60h-119v-126h119v-45h-119v-97q0 -37 10.5 -54t36.5 -17q17 0 33.5 9t33.5 17z" />
    <glyph glyph-name="Utilde" unicode="&#x168;" horiz-adv-x="682" 
d="M596 229q0 -63 -19 -109t-54 -75t-83.5 -43t-107.5 -14q-49 0 -93.5 14.5t-78.5 42t-54 67.5t-20 92v455h78v-427q0 -53 16.5 -87t42 -53.5t56 -27.5t58.5 -8q32 0 64.5 8t58 28.5t41.5 54.5t16 86v426h79v-430zM526 768q-27 -24 -55.5 -40t-65.5 -16q-27 0 -44 7.5
t-30 16.5t-25.5 16.5t-29.5 7.5q-11 0 -22.5 -4t-22.5 -10t-20 -12.5t-15 -10.5l-29 38q32 27 61 43.5t71 16.5q17 0 31 -8t27.5 -17.5t29 -17.5t36.5 -8q17 0 36 12t39 25z" />
    <glyph glyph-name="utilde" unicode="&#x169;" horiz-adv-x="544" 
d="M392 0l-12 66q-16 -22 -31.5 -37t-33.5 -24.5t-39.5 -13.5t-48.5 -4q-30 0 -56.5 6t-46 19.5t-31 36.5t-11.5 57v347h77v-293q0 -21 2 -40t9.5 -34t22.5 -23.5t41 -8.5q42 0 80 18q10 8 20 19t18.5 22t15 21.5t9.5 17.5v301h77v-328q0 -31 1.5 -62.5t6.5 -62.5h-70z
M466 585q-27 -26 -57.5 -43.5t-68.5 -17.5q-29 0 -46 8t-30 18t-27 18t-38 8q-8 0 -18.5 -4.5t-21.5 -11t-21 -13.5l-17 -11l-30 41q28 26 60 46t71 20q23 0 39 -9t30 -19.5t29.5 -19t38.5 -8.5q20 0 41 15t37 26z" />
    <glyph glyph-name="Umacron" unicode="&#x16a;" horiz-adv-x="682" 
d="M596 229q0 -63 -19 -109t-54 -75t-83.5 -43t-107.5 -14q-49 0 -93.5 14.5t-78.5 42t-54 67.5t-20 92v455h78v-427q0 -53 16.5 -87t42 -53.5t56 -27.5t58.5 -8q32 0 64.5 8t58 28.5t41.5 54.5t16 86v426h79v-430zM165 705v65h352v-65h-352z" />
    <glyph glyph-name="umacron" unicode="&#x16b;" horiz-adv-x="544" 
d="M392 0l-12 66q-16 -22 -31.5 -37t-33.5 -24.5t-39.5 -13.5t-48.5 -4q-30 0 -56.5 6t-46 19.5t-31 36.5t-11.5 57v347h77v-293q0 -21 2 -40t9.5 -34t22.5 -23.5t41 -8.5q42 0 80 18q10 8 20 19t18.5 22t15 21.5t9.5 17.5v301h77v-328q0 -31 1.5 -62.5t6.5 -62.5h-70z
M92 526v65h352v-65h-352z" />
    <glyph glyph-name="Ubreve" unicode="&#x16c;" horiz-adv-x="682" 
d="M596 229q0 -63 -19 -109t-54 -75t-83.5 -43t-107.5 -14q-49 0 -93.5 14.5t-78.5 42t-54 67.5t-20 92v455h78v-427q0 -53 16.5 -87t42 -53.5t56 -27.5t58.5 -8q32 0 64.5 8t58 28.5t41.5 54.5t16 86v426h79v-430zM506 882q-5 -27 -19.5 -54t-36.5 -48t-50.5 -34t-62.5 -13
q-32 0 -60.5 10.5t-50.5 30t-35.5 47t-16.5 61.5h61q3 -17 12.5 -30.5t23.5 -23t31 -14.5t35 -5q45 0 73 21t34 52h62z" />
    <glyph glyph-name="ubreve" unicode="&#x16d;" horiz-adv-x="544" 
d="M392 0l-12 66q-16 -22 -31.5 -37t-33.5 -24.5t-39.5 -13.5t-48.5 -4q-30 0 -56.5 6t-46 19.5t-31 36.5t-11.5 57v347h77v-293q0 -21 2 -40t9.5 -34t22.5 -23.5t41 -8.5q42 0 80 18q10 8 20 19t18.5 22t15 21.5t9.5 17.5v301h77v-328q0 -31 1.5 -62.5t6.5 -62.5h-70z
M438 704q-5 -27 -19.5 -54t-36.5 -48t-50.5 -34t-62.5 -13q-32 0 -60.5 10.5t-50.5 30t-35.5 47t-16.5 61.5h61q3 -17 12.5 -30.5t23.5 -23t31 -14.5t35 -5q45 0 73 21t34 52h62z" />
    <glyph glyph-name="Uring" unicode="&#x16e;" horiz-adv-x="682" 
d="M596 229q0 -63 -19 -109t-54 -75t-83.5 -43t-107.5 -14q-49 0 -93.5 14.5t-78.5 42t-54 67.5t-20 92v455h78v-427q0 -53 16.5 -87t42 -53.5t56 -27.5t58.5 -8q32 0 64.5 8t58 28.5t41.5 54.5t16 86v426h79v-430zM445 779q0 -22 -8 -41t-22.5 -33t-33.5 -22t-40 -8t-39 8
t-31.5 22t-21 33t-7.5 41t7.5 41t21 33.5t31.5 22.5t39 8t40 -8t33.5 -22.5t22.5 -33.5t8 -41zM401 779q0 26 -17.5 43t-42.5 17q-23 0 -40 -17t-17 -43q0 -24 17 -42t40 -18q25 0 42.5 17.5t17.5 42.5z" />
    <glyph glyph-name="uring" unicode="&#x16f;" horiz-adv-x="544" 
d="M392 0l-12 66q-16 -22 -31.5 -37t-33.5 -24.5t-39.5 -13.5t-48.5 -4q-30 0 -56.5 6t-46 19.5t-31 36.5t-11.5 57v347h77v-293q0 -21 2 -40t9.5 -34t22.5 -23.5t41 -8.5q42 0 80 18q10 8 20 19t18.5 22t15 21.5t9.5 17.5v301h77v-328q0 -31 1.5 -62.5t6.5 -62.5h-70z
M374 615q0 -22 -8 -41t-22.5 -33t-33 -22t-39.5 -8q-43 0 -71.5 29.5t-28.5 74.5q0 22 7.5 41t21 33.5t32 22.5t39.5 8t39.5 -8t33 -22.5t22.5 -33.5t8 -41zM331 615q0 26 -18 43t-42 17q-23 0 -40.5 -17t-17.5 -43q0 -24 17.5 -42t40.5 -18q24 0 42 17.5t18 42.5z" />
    <glyph glyph-name="Uhungarumlaut" unicode="&#x170;" horiz-adv-x="682" 
d="M596 229q0 -63 -19 -109t-54 -75t-83.5 -43t-107.5 -14q-49 0 -93.5 14.5t-78.5 42t-54 67.5t-20 92v455h78v-427q0 -53 16.5 -87t42 -53.5t56 -27.5t58.5 -8q32 0 64.5 8t58 28.5t41.5 54.5t16 86v426h79v-430zM406 696h-58l109 202h82zM263 696h-58l110 202h81z" />
    <glyph glyph-name="uhungarumlaut" unicode="&#x171;" horiz-adv-x="544" 
d="M392 0l-12 66q-16 -22 -31.5 -37t-33.5 -24.5t-39.5 -13.5t-48.5 -4q-30 0 -56.5 6t-46 19.5t-31 36.5t-11.5 57v347h77v-293q0 -21 2 -40t9.5 -34t22.5 -23.5t41 -8.5q42 0 80 18q10 8 20 19t18.5 22t15 21.5t9.5 17.5v301h77v-328q0 -31 1.5 -62.5t6.5 -62.5h-70z
M341 521h-58l109 202h82zM198 521h-58l110 202h81z" />
    <glyph glyph-name="Uogonek" unicode="&#x172;" horiz-adv-x="682" 
d="M439 -201q-13 -7 -21 -12.5t-15 -9t-15.5 -5.5t-22.5 -2q-31 0 -53 23.5t-22 63.5q0 43 12.5 73t38.5 58h-9q-49 0 -93.5 14.5t-78.5 42t-54 67.5t-20 92v455h78v-427q0 -53 16.5 -87t42 -53.5t56 -27.5t58.5 -8q32 0 64.5 8t58 28.5t41.5 54.5t16 86v426h79v-430
q0 -98 -44.5 -153.5t-120.5 -75.5q-13 -3 -22 -6.5t-11 -5.5q-12 -17 -20.5 -30.5t-13.5 -25.5t-7 -23.5t-2 -24.5q0 -29 10.5 -41.5t25.5 -12.5q10 0 22 3.5t31 11.5z" />
    <glyph glyph-name="uogonek" unicode="&#x173;" horiz-adv-x="544" 
d="M479 -201q-11 -6 -19 -11.5t-15.5 -9t-17 -6t-22.5 -2.5q-36 0 -55.5 27t-19.5 60q0 46 15 78.5t47 64.5l-12 66q-17 -22 -32.5 -37t-33 -24.5t-39 -13.5t-48.5 -4q-30 0 -56.5 6t-46 19.5t-31 36.5t-11.5 57v347h77v-293q0 -21 2 -40t9.5 -34t22.5 -23.5t41 -8.5
q42 0 80 18q9 7 19 18t19 22.5t16 22.5t9 17v301h77v-328q0 -31 1.5 -62.5t6.5 -62.5h-15l-7 -10q-17 -24 -31 -49t-14 -57q0 -9 1.5 -18.5t5.5 -17.5t11 -13t18 -5q14 0 27.5 5t25.5 10z" />
    <glyph glyph-name="Wcircumflex" unicode="&#x174;" horiz-adv-x="875" 
d="M612 -16h-42l-128 323l-123 -323h-42l-270 675h83l210 -533l103 276l-103 257h83l60 -150l55 150h77l-94 -247l112 -286l198 533h77zM517 693l-80 107l-84 -107h-57l113 178h52l117 -178h-61z" />
    <glyph glyph-name="wcircumflex" unicode="&#x175;" horiz-adv-x="658" 
d="M497 -13h-60l-106 297l-97 -297h-60l-169 466h82l120 -351l124 371l140 -371l106 351h76zM421 524l-84 116l-88 -116h-59l118 192h54l122 -192h-63z" />
    <glyph glyph-name="Ycircumflex" unicode="&#x176;" horiz-adv-x="542" 
d="M312 276v-276h-79v276l-226 383h87l183 -307l178 307h80zM356 693l-80 107l-84 -107h-57l113 178h52l117 -178h-61z" />
    <glyph glyph-name="ycircumflex" unicode="&#x177;" horiz-adv-x="418" 
d="M245 -21q-20 -57 -42.5 -114.5t-45.5 -113.5h-84q30 65 59 126.5t49 117.5l-176 458h82l132 -348l118 348h76zM299 524l-84 116l-88 -116h-59l118 192h54l122 -192h-63z" />
    <glyph glyph-name="Ydieresis" unicode="&#x178;" horiz-adv-x="542" 
d="M312 276v-276h-79v276l-226 383h87l183 -307l178 307h80zM222 756q0 -21 -15 -36t-37 -15t-36 15t-14 36t14 36.5t36 15.5t37 -15.5t15 -36.5zM429 756q0 -21 -15 -36t-37 -15t-36 15t-14 36t14 36.5t36 15.5t37 -15.5t15 -36.5z" />
    <glyph glyph-name="Zacute" unicode="&#x179;" horiz-adv-x="598" 
d="M39 0v43l395 549h-382v68h490v-44l-383 -548h401v-68h-521zM300 696h-56l105 185h78z" />
    <glyph glyph-name="zacute" unicode="&#x17a;" horiz-adv-x="407" 
d="M32 0v49l242 340h-238v64h332v-47l-242 -343h249v-63h-343zM222 521h-57l109 202h81z" />
    <glyph glyph-name="Zdotaccent" unicode="&#x17b;" horiz-adv-x="598" 
d="M39 0v43l395 549h-382v68h490v-44l-383 -548h401v-68h-521zM343 772q0 -12 -5 -24t-14 -21.5t-20 -15.5t-23 -6t-22.5 6t-19 15.5t-13.5 21.5t-5 24t5 23.5t13.5 20.5t19 15t22.5 6q24 0 43 -20t19 -45z" />
    <glyph glyph-name="zdotaccent" unicode="&#x17c;" horiz-adv-x="407" 
d="M32 0v49l242 340h-238v64h332v-47l-242 -343h249v-63h-343zM264 608q0 -12 -5 -24t-14 -21.5t-20 -15.5t-23 -6t-22.5 6t-19 15.5t-13.5 21.5t-5 24t5 23.5t13.5 20.5t19 15t22.5 6q24 0 43 -20t19 -45z" />
    <glyph glyph-name="Zcaron" unicode="&#x17d;" horiz-adv-x="598" 
d="M39 0v43l395 549h-382v68h490v-44l-383 -548h401v-68h-521zM310 705h-51l-118 177h61l81 -107l84 107h56z" />
    <glyph glyph-name="zcaron" unicode="&#x17e;" horiz-adv-x="407" 
d="M32 0v49l242 340h-238v64h332v-47l-242 -343h249v-63h-343zM235 511h-54l-123 193h64l84 -117l88 117h58z" />
    <glyph glyph-name="longs" unicode="&#x17f;" horiz-adv-x="293" 
d="M398 647q-21 14 -41 21.5t-55 7.5q-25 0 -47 -6.5t-26 -9.5q-3 -2 -10.5 -10t-15.5 -29.5t-14.5 -61t-6.5 -103.5v-456h-76v392h-104v60h104v40q0 70 12.5 118t38 77.5t64 42.5t91.5 13q29 0 52.5 -5.5t42.5 -13.5z" />
    <glyph glyph-name="uni018F" unicode="&#x18f;" horiz-adv-x="700" 
d="M105 632q41 20 91.5 29t112.5 9q61 0 121.5 -22t108.5 -65t78 -106.5t30 -145.5q0 -72 -24.5 -134.5t-67 -109t-101 -73t-125.5 -26.5q-77 0 -131.5 28.5t-89 77t-50 112.5t-13.5 136h511q-3 56 -23.5 103.5t-54.5 82.5t-79.5 54.5t-96.5 19.5q-49 0 -97 -10.5t-94 -35.5
zM334 55q41 0 77.5 15t66 43t49 69t26.5 92h-419q10 -103 58.5 -161t141.5 -58z" />
    <glyph glyph-name="florin" unicode="&#x192;" horiz-adv-x="366" 
d="M342 575q-3 19 -8.5 29.5t-14.5 15t-20.5 5.5t-26.5 1q-27 0 -35.5 -2.5t-13.5 -7.5q-5 -4 -10.5 -15t-10 -30.5t-8 -49.5t-3.5 -72v-76h102v-60h-102v-263q0 -53 -4.5 -102.5t-20.5 -87.5t-47.5 -61t-86.5 -23q-39 0 -64 7t-40 18t-21.5 24.5t-8.5 26.5t-2 22v16h68
q3 -19 8.5 -29.5t14 -15t20 -5.5t25.5 -1h13q10 0 20 1t15 6q6 6 12 19.5t11 37.5t8 60t3 87v262h-94v60h94v82q0 54 8 97t26 74t48.5 47.5t75.5 16.5q39 0 64.5 -7t40.5 -18t21.5 -24.5t8.5 -26.5t2 -21.5t1 -16.5h-68z" />
    <glyph glyph-name="uni01C4" unicode="&#x1c4;" horiz-adv-x="1298" 
d="M653 333q0 -54 -16.5 -113t-55 -107.5t-100.5 -80.5t-152 -32h-227v657l45 3q46 3 85 3q24 0 49.5 -0.5t57.5 -0.5q88 0 148 -30t97 -77.5t53 -106t16 -115.5zM563 333q0 43 -11.5 90t-39.5 86t-73.5 64t-113.5 25h-5l-139 -2v-534h133q64 0 110.5 19t77.5 54t46 85
t15 113zM739 0v43l395 549h-382v68h490v-44l-383 -548h401v-68h-521zM1010 705h-51l-118 177h61l81 -107l84 107h56z" />
    <glyph glyph-name="uni01C5" unicode="&#x1c5;" horiz-adv-x="1107" 
d="M653 333q0 -54 -16.5 -113t-55 -107.5t-100.5 -80.5t-152 -32h-227v657l45 3q46 3 85 3q24 0 49.5 -0.5t57.5 -0.5q88 0 148 -30t97 -77.5t53 -106t16 -115.5zM563 333q0 43 -11.5 90t-39.5 86t-73.5 64t-113.5 25h-5l-139 -2v-534h133q64 0 110.5 19t77.5 54t46 85
t15 113zM732 0v49l242 340h-238v64h332v-47l-242 -343h249v-63h-343zM935 511h-54l-123 193h64l84 -117l88 117h58z" />
    <glyph glyph-name="uni01C6" unicode="&#x1c6;" horiz-adv-x="943" 
d="M385 0q-3 13 -5 27t-4 27q-34 -36 -65 -51.5t-76 -15.5q-41 0 -76 17t-61 48t-41 74.5t-15 97.5q0 115 62 178t168 63q31 0 51.5 -4t47.5 -11v280h77v-605q0 -34 2 -62.5t6 -62.5h-71zM371 315q0 28 -5 44.5t-17 25.5t-32.5 11.5t-51.5 2.5q-11 0 -24 -1t-24.5 -3
t-21 -4.5t-13.5 -6.5q-5 -4 -14 -16t-18.5 -31.5t-16.5 -46t-7 -59.5q0 -45 12 -78.5t30 -55.5t39 -32.5t40 -10.5q20 0 38 7t34 18t29 25t23 29v182zM568 0v49l242 340h-238v64h332v-47l-242 -343h249v-63h-343zM771 511h-54l-123 193h64l84 -117l88 117h58z" />
    <glyph glyph-name="uni01C7" unicode="&#x1c7;" horiz-adv-x="788" 
d="M102 0v659h79v-591h307v-68h-386zM686 49q0 -67 -18.5 -120t-52.5 -90t-82.5 -56.5t-107.5 -20.5v68q57 1 93 23.5t56 57.5t27 78.5t7 86.5v583h78v-610z" />
    <glyph glyph-name="uni01C8" unicode="&#x1c8;" horiz-adv-x="734" 
d="M102 0v659h79v-591h307v-68h-386zM659 619q0 -21 -15.5 -39t-36.5 -18q-20 0 -34.5 17.5t-14.5 39.5q0 21 14.5 37.5t34.5 16.5q21 0 36.5 -16.5t15.5 -37.5zM647 40q0 -103 -17.5 -162.5t-49 -90.5t-74 -40t-91.5 -10v69q46 1 76 12t47.5 39t24.5 76.5t7 125.5v394h77
v-413z" />
    <glyph glyph-name="uni01C9" unicode="&#x1c9;" horiz-adv-x="481" 
d="M82 0v730h77v-730h-77zM406 619q0 -21 -15.5 -39t-36.5 -18q-20 0 -34.5 17.5t-14.5 39.5q0 21 14.5 37.5t34.5 16.5q21 0 36.5 -16.5t15.5 -37.5zM394 40q0 -103 -17.5 -162.5t-49 -90.5t-74 -40t-91.5 -10v69q46 1 76 12t47.5 39t24.5 76.5t7 125.5v394h77v-413z" />
    <glyph glyph-name="uni01CA" unicode="&#x1ca;" horiz-adv-x="1045" 
d="M558 0l-382 551v-551h-74v659h89l384 -553v554h74v-660h-91zM943 49q0 -67 -18.5 -120t-52.5 -90t-82.5 -56.5t-107.5 -20.5v68q57 1 93 23.5t56 57.5t27 78.5t7 86.5v583h78v-610z" />
    <glyph glyph-name="uni01CB" unicode="&#x1cb;" horiz-adv-x="991" 
d="M558 0l-382 551v-551h-74v659h89l384 -553v554h74v-660h-91zM916 619q0 -21 -15.5 -39t-36.5 -18q-20 0 -34.5 17.5t-14.5 39.5q0 21 14.5 37.5t34.5 16.5q21 0 36.5 -16.5t15.5 -37.5zM904 40q0 -103 -17.5 -162.5t-49 -90.5t-74 -40t-91.5 -10v69q46 1 76 12t47.5 39
t24.5 76.5t7 125.5v394h77v-413z" />
    <glyph glyph-name="uni01CC" unicode="&#x1cc;" horiz-adv-x="791" 
d="M469 162q0 -22 -0.5 -45t-1 -50.5t-1.5 -66.5h-76q1 38 1.5 64t0.5 47v153q0 14 -1 28q-2 26 -4.5 45.5t-10.5 32.5t-22.5 19.5t-39.5 6.5q-10 0 -20.5 -1.5t-20.5 -3t-17 -4t-10 -3.5q-4 -2 -13 -10.5t-20 -20.5t-22.5 -25t-19.5 -24v-304h-77v327q0 39 -2.5 69t-5.5 57
h71l12 -67q29 34 64.5 56.5t87.5 22.5q30 0 55.5 -5.5t44 -19t30 -36.5t14.5 -58q3 -34 3.5 -67.5t0.5 -67.5v-49zM716 619q0 -21 -15.5 -39t-36.5 -18q-20 0 -34.5 17.5t-14.5 39.5q0 21 14.5 37.5t34.5 16.5q21 0 36.5 -16.5t15.5 -37.5zM704 40q0 -103 -17.5 -162.5
t-49 -90.5t-74 -40t-91.5 -10v69q46 1 76 12t47.5 39t24.5 76.5t7 125.5v394h77v-413z" />
    <glyph glyph-name="uni01F1" unicode="&#x1f1;" horiz-adv-x="1298" 
d="M653 333q0 -54 -16.5 -113t-55 -107.5t-100.5 -80.5t-152 -32h-227v657l45 3q46 3 85 3q24 0 49.5 -0.5t57.5 -0.5q88 0 148 -30t97 -77.5t53 -106t16 -115.5zM563 333q0 43 -11.5 90t-39.5 86t-73.5 64t-113.5 25h-5l-139 -2v-534h133q64 0 110.5 19t77.5 54t46 85
t15 113zM739 0v43l395 549h-382v68h490v-44l-383 -548h401v-68h-521z" />
    <glyph glyph-name="uni01F2" unicode="&#x1f2;" horiz-adv-x="1107" 
d="M653 333q0 -54 -16.5 -113t-55 -107.5t-100.5 -80.5t-152 -32h-227v657l45 3q46 3 85 3q24 0 49.5 -0.5t57.5 -0.5q88 0 148 -30t97 -77.5t53 -106t16 -115.5zM563 333q0 43 -11.5 90t-39.5 86t-73.5 64t-113.5 25h-5l-139 -2v-534h133q64 0 110.5 19t77.5 54t46 85
t15 113zM732 0v49l242 340h-238v64h332v-47l-242 -343h249v-63h-343z" />
    <glyph glyph-name="uni01F3" unicode="&#x1f3;" horiz-adv-x="943" 
d="M385 0q-3 13 -5 27t-4 27q-34 -36 -65 -51.5t-76 -15.5q-41 0 -76 17t-61 48t-41 74.5t-15 97.5q0 115 62 178t168 63q31 0 51.5 -4t47.5 -11v280h77v-605q0 -34 2 -62.5t6 -62.5h-71zM371 315q0 28 -5 44.5t-17 25.5t-32.5 11.5t-51.5 2.5q-11 0 -24 -1t-24.5 -3
t-21 -4.5t-13.5 -6.5q-5 -4 -14 -16t-18.5 -31.5t-16.5 -46t-7 -59.5q0 -45 12 -78.5t30 -55.5t39 -32.5t40 -10.5q20 0 38 7t34 18t29 25t23 29v182zM568 0v49l242 340h-238v64h332v-47l-242 -343h249v-63h-343z" />
    <glyph glyph-name="Aringacute" unicode="&#x1fa;" horiz-adv-x="549" 
d="M376 788q0 -20 -8 -37.5t-21.5 -30.5t-31 -20.5t-37.5 -7.5q-41 0 -68.5 27.5t-27.5 68.5t27.5 68.5t67.5 27.5q41 0 70 -27.5t29 -68.5zM333 788q0 24 -16 39.5t-39 15.5t-39.5 -16t-16.5 -39t16 -39t39 -16q24 0 40 16t16 39zM458 0l-66 189h-239l-70 -189h-76l255 681
h38l242 -681h-84zM276 523l-100 -268h192zM309 894h-56l105 185h78z" />
    <glyph glyph-name="aringacute" unicode="&#x1fb;" horiz-adv-x="448" 
d="M320 0q-5 18 -10 31.5t-9 33.5q-11 -16 -24.5 -30.5t-30.5 -25t-38.5 -16.5t-48.5 -6q-52 0 -82 29.5t-30 72.5q0 32 5 52.5t13 30.5q10 14 40.5 27.5t67 24.5t71 19t51.5 11v63q0 25 -4 41t-13.5 25t-26 12.5t-40.5 3.5q-32 0 -52.5 -6.5t-20.5 -32.5l-72 -6q0 39 9 68
q1 3 10.5 10t27.5 14.5t45.5 13t63.5 5.5q75 0 112.5 -32.5t37.5 -87.5v-210q0 -35 6 -72.5t14 -62.5h-72zM295 194q-18 -3 -40 -9t-44 -13.5t-43.5 -16t-37.5 -16.5q-4 -14 -4.5 -22t-0.5 -15q0 -21 10 -34.5t45 -13.5q22 0 43 10.5t37 23.5t25.5 25t9.5 15v66zM318 615
q0 -22 -8 -41t-22.5 -33t-33 -22t-39.5 -8q-43 0 -71.5 29.5t-28.5 74.5q0 22 7.5 41t21 33.5t32 22.5t39.5 8t39.5 -8t33 -22.5t22.5 -33.5t8 -41zM275 615q0 26 -18 43t-42 17q-23 0 -40.5 -17t-17.5 -43q0 -24 17.5 -42t40.5 -18q24 0 42 17.5t18 42.5zM241 730h-57
l109 202h81z" />
    <glyph glyph-name="AEacute" unicode="&#x1fc;" horiz-adv-x="854" 
d="M409 0v189h-216l-104 -189h-82l359 659h419v-68h-297v-222h259v-68h-259v-233h319v-68h-398zM409 589l-182 -334h182v334zM492 696h-56l105 185h78z" />
    <glyph glyph-name="aeacute" unicode="&#x1fd;" horiz-adv-x="662" 
d="M355 208q0 -17 2.5 -43t15.5 -50.5t40.5 -42.5t77.5 -18q16 0 33.5 4t34 10.5t30.5 15t24 17.5l6 -71q-27 -18 -66.5 -30.5t-95.5 -12.5q-48 0 -84 25t-62 67q-26 -38 -66 -65t-93 -27q-51 0 -81 28.5t-30 71.5q0 32 5 53.5t13 31.5q8 12 39 25.5t67.5 25t71.5 20
t52 11.5v63q0 25 -4 41t-13.5 25t-26 12.5t-40.5 3.5h-13q-10 0 -20.5 -1t-19.5 -5t-15 -12t-6 -21l-71 -6q0 25 2 39.5t6 28.5q1 3 10.5 10t28 14.5t46 13t63.5 5.5q90 0 127 -49q16 19 45 34t65 15q54 0 88 -14t53.5 -40t26.5 -62.5t7 -80.5zM557 310q0 43 -25 67t-92 24
q-15 0 -30 -5.5t-19 -9.5q-2 -2 -8 -10.5t-12 -23.5t-10.5 -37t-4.5 -50zM289 194q-17 -3 -39 -9t-44.5 -13.5t-44.5 -16.5t-38 -16q-3 -14 -3.5 -22.5t-0.5 -15.5q0 -21 10 -34t45 -13q18 0 38.5 10t37.5 22.5t28 25t11 18.5v64zM343 521h-57l109 202h81z" />
    <glyph glyph-name="Oslashacute" unicode="&#x1fe;" horiz-adv-x="742" 
d="M615 559q38 -46 59 -105t21 -124q0 -68 -23.5 -130t-66 -109.5t-102 -76t-130.5 -28.5q-60 0 -111.5 19.5t-92.5 53.5l-80 -90l-45 39l82 93q-38 47 -58.5 105.5t-20.5 122.5q0 69 24 131t67 109.5t103 75.5t132 28q59 0 109.5 -19t90.5 -53l80 90l45 -39zM522 544
q-29 29 -66.5 45t-82.5 16q-53 0 -96.5 -21.5t-74.5 -58.5t-48 -87.5t-17 -107.5q0 -96 45 -167zM605 330q0 46 -11.5 89t-33.5 78l-340 -381q29 -29 68 -45.5t85 -16.5q53 0 96 22.5t73 60t46.5 87.5t16.5 106zM396 696h-56l105 185h78z" />
    <glyph glyph-name="oslashacute" unicode="&#x1ff;" horiz-adv-x="516" 
d="M420 393q25 -32 39.5 -73.5t14.5 -93.5q0 -53 -15.5 -96.5t-44 -75.5t-70 -49.5t-92.5 -17.5q-37 0 -67 10.5t-56 30.5l-96 -116l-34 32l97 116q-54 62 -54 166q0 50 14.5 93.5t42 76t69 51t95.5 18.5q38 0 67.5 -10t55.5 -30l91 110l35 -31zM339 367q-17 18 -37.5 25.5
t-45.5 7.5q-29 -1 -50 -9.5t-30 -16.5q-4 -4 -12.5 -15.5t-17 -29.5t-15 -42.5t-6.5 -52.5q0 -35 7 -63t17 -47zM390 239q-4 54 -23 91l-191 -245q36 -32 81 -32q30 0 51.5 9t29.5 17q3 3 12 14.5t18 30t16 43.5t7 55v8q0 4 -1 9zM283 521h-57l109 202h81z" />
    <glyph glyph-name="Scommaaccent" unicode="&#x218;" horiz-adv-x="507" 
d="M457 174q0 -47 -18.5 -82t-48 -58.5t-67 -35.5t-75.5 -12q-55 0 -97 8.5t-81 26.5l12 79q38 -23 75 -34.5t87 -11.5q25 0 48 8t40 23t27 35t10 44q0 25 -11 43t-28.5 32t-40 26.5t-45.5 26.5l-22 13q-28 17 -55 34.5t-48 39t-34 48t-13 61.5q0 38 13.5 71.5t39 58
t62.5 38.5t83 14q32 0 56.5 -2t44.5 -6t38 -10t38 -14l-5 -79q-43 26 -80.5 35t-86.5 9q-28 0 -49 -9.5t-35.5 -25.5t-21.5 -35.5t-7 -38.5q0 -26 11.5 -45t30 -34t41.5 -28t47 -27l15 -9q28 -17 55 -34t48 -38t34 -46.5t13 -58.5zM313 -154q0 -30 -26 -72t-68 -87l-24 19
q23 35 35 67.5t12 51.5q0 14 -11.5 25.5t-34.5 17.5l51 74q18 -3 30.5 -12.5t20.5 -23t11.5 -29.5t3.5 -31z" />
    <glyph glyph-name="scommaaccent" unicode="&#x219;" horiz-adv-x="400" 
d="M359 122q0 -26 -10.5 -50.5t-31.5 -43t-53.5 -30t-76.5 -11.5q-42 0 -80 9.5t-64 27.5l9 72q18 -11 32 -19.5t29 -14.5t32 -9t40 -3q45 0 71 19t26 48q0 21 -18 36.5t-44.5 29t-58 27t-58 31t-44.5 41t-18 57.5q0 53 41.5 89.5t126.5 36.5q48 0 83.5 -10.5t60.5 -23.5
l-8 -72q-33 27 -70 35.5t-72 8.5q-15 0 -30.5 -3t-27.5 -10t-19.5 -18.5t-7.5 -27.5q0 -21 18 -36t44.5 -28t58 -26.5t58 -31t44.5 -42t18 -58.5zM259 -154q0 -30 -26 -72t-68 -87l-24 19q23 35 35 67.5t12 51.5q0 14 -11.5 25.5t-34.5 17.5l51 74q18 -3 30.5 -12.5
t20.5 -23t11.5 -29.5t3.5 -31z" />
    <glyph glyph-name="uni021A" unicode="&#x21a;" horiz-adv-x="522" 
d="M300 592v-592h-78v592h-215v68h508v-68h-215zM320 -154q0 -30 -26 -72t-68 -87l-24 19q23 35 35 67.5t12 51.5q0 14 -11.5 25.5t-34.5 17.5l51 74q18 -3 30.5 -12.5t20.5 -23t11.5 -29.5t3.5 -31z" />
    <glyph glyph-name="uni021B" unicode="&#x21b;" horiz-adv-x="309" 
d="M287 16q-18 -11 -44.5 -20t-52.5 -9q-41 0 -69.5 27t-28.5 86v292h-82v60h82v154h75v-153h119v-60h-119v-268q0 -37 10.5 -54t36.5 -17q17 0 33.5 9t33.5 17zM249 -154q0 -30 -26 -72t-68 -87l-24 19q23 35 35 67.5t12 51.5q0 14 -11.5 25.5t-34.5 17.5l51 74
q18 -3 30.5 -12.5t20.5 -23t11.5 -29.5t3.5 -31z" />
    <glyph glyph-name="uni0237" unicode="&#x237;" horiz-adv-x="240" 
d="M153 40q0 -103 -17.5 -162.5t-49 -90.5t-74 -40t-91.5 -10v69q46 1 76 12t47.5 39t24.5 76.5t7 125.5v394h77v-413z" />
    <glyph glyph-name="uni0259" unicode="&#x259;" horiz-adv-x="460" 
d="M348 201q2 8 2 12v13q0 83 -38.5 127.5t-109.5 44.5q-20 0 -41 -4t-40 -10.5t-35 -15t-26 -17.5l-6 70q15 9 31.5 17t37 14t46 9.5t57.5 3.5q43 0 80 -16t64.5 -46.5t43.5 -74.5t16 -101q0 -58 -15.5 -103t-42.5 -75.5t-64 -46t-80 -15.5q-101 0 -141.5 53.5t-40.5 160.5
h302zM116 141q1 -30 11.5 -47.5t26.5 -27t36.5 -12t42.5 -2.5q16 0 36 5t24 9q2 2 8 7.5t12.5 15t13.5 22.5t11 30h-222z" />
    <glyph glyph-name="uni02BB" unicode="&#x2bb;" horiz-adv-x="225" 
d="M121 460q-21 2 -36 12.5t-24 26t-13 33.5t-4 35q0 35 28 81.5t79 97.5l30 -21q-27 -41 -40 -77t-13 -57q0 -15 12.5 -27.5t40.5 -18.5z" />
    <glyph glyph-name="afii57929" unicode="&#x2bc;" horiz-adv-x="225" 
d="M183 626q0 -35 -28.5 -81.5t-79.5 -97.5l-30 22q27 40 40.5 76.5t13.5 56.5q0 15 -12.5 28t-41.5 19l60 85q22 -2 37 -12.5t24 -26t13 -33.5t4 -36z" />
    <glyph glyph-name="circumflex" unicode="&#x2c6;" horiz-adv-x="440" 
d="M297 524l-84 116l-88 -116h-59l118 192h54l122 -192h-63z" />
    <glyph glyph-name="caron" unicode="&#x2c7;" horiz-adv-x="440" 
d="M243 523h-54l-123 193h64l84 -117l88 117h58z" />
    <glyph glyph-name="breve" unicode="&#x2d8;" horiz-adv-x="391" 
d="M362 688q-5 -27 -19.5 -54t-36.5 -48t-50.5 -34t-62.5 -13q-32 0 -60.5 10.5t-50.5 30t-35.5 47t-16.5 61.5h61q3 -17 12.5 -30.5t23.5 -23t31 -14.5t35 -5q45 0 73 21t34 52h62z" />
    <glyph glyph-name="dotaccent" unicode="&#x2d9;" horiz-adv-x="293" 
d="M206 656q0 -12 -5 -24t-14 -21.5t-20 -15.5t-23 -6t-22.5 6t-19 15.5t-13.5 21.5t-5 24t5 23.5t13.5 20.5t19 15t22.5 6q24 0 43 -20t19 -45z" />
    <glyph glyph-name="ring" unicode="&#x2da;" horiz-adv-x="440" 
d="M310 615q0 -22 -8 -41t-22.5 -33t-33 -22t-39.5 -8q-43 0 -71.5 29.5t-28.5 74.5q0 22 7.5 41t21 33.5t32 22.5t39.5 8t39.5 -8t33 -22.5t22.5 -33.5t8 -41zM267 615q0 26 -18 43t-42 17q-23 0 -40.5 -17t-17.5 -43q0 -24 17.5 -42t40.5 -18q24 0 42 17.5t18 42.5z" />
    <glyph glyph-name="ogonek" unicode="&#x2db;" horiz-adv-x="571" 
d="M426 -201q-13 -7 -21 -12.5t-15 -9t-15.5 -5.5t-22.5 -2q-31 0 -53 23.5t-22 63.5q0 49 17 81.5t49 65.5h54q-16 -22 -26.5 -38t-17 -29.5t-9 -25.5t-2.5 -27q0 -29 10.5 -41.5t25.5 -12.5q10 0 22 3.5t31 11.5z" />
    <glyph glyph-name="tilde" unicode="&#x2dc;" horiz-adv-x="440" 
d="M397 585q-27 -26 -57.5 -43.5t-68.5 -17.5q-29 0 -46 8t-30 18t-27 18t-38 8q-8 0 -18.5 -4.5t-21.5 -11t-21 -13.5l-17 -11l-30 41q28 26 60 46t71 20q23 0 39 -9t30 -19.5t29.5 -19t38.5 -8.5q20 0 41 15t37 26z" />
    <glyph glyph-name="hungarumlaut" unicode="&#x2dd;" horiz-adv-x="440" 
d="M245 521h-58l109 202h82zM102 521h-58l110 202h81z" />
    <glyph glyph-name="gravecomb" unicode="&#x300;" horiz-adv-x="1" 
d="M-263 521l-133 202h82l109 -202h-58z" />
    <glyph glyph-name="acutecomb" unicode="&#x301;" horiz-adv-x="1" 
d="M-233 521h-57l109 202h81z" />
    <glyph glyph-name="uni0302" unicode="&#x302;" horiz-adv-x="1" 
d="M-163 524l-84 116l-88 -116h-59l118 192h54l122 -192h-63z" />
    <glyph glyph-name="tildecomb" unicode="&#x303;" horiz-adv-x="1" 
d="M-55 585q-27 -26 -57.5 -43.5t-68.5 -17.5q-29 0 -46 8t-30 18t-27 18t-38 8q-8 0 -18.5 -4.5t-21.5 -11t-21 -13.5l-17 -11l-30 41q28 26 60 46t71 20q23 0 39 -9t30 -19.5t29.5 -19t38.5 -8.5q20 0 41 15t37 26z" />
    <glyph glyph-name="uni0304" unicode="&#x304;" horiz-adv-x="1" 
d="M-396 526v65h352v-65h-352z" />
    <glyph glyph-name="uni0306" unicode="&#x306;" horiz-adv-x="1" 
d="M-29 704q-5 -27 -19.5 -54t-36.5 -48t-50.5 -34t-62.5 -13q-32 0 -60.5 10.5t-50.5 30t-35.5 47t-16.5 61.5h61q3 -17 12.5 -30.5t23.5 -23t31 -14.5t35 -5q45 0 73 21t34 52h62z" />
    <glyph glyph-name="uni0307" unicode="&#x307;" horiz-adv-x="1" 
d="M-87 608q0 -12 -5 -24t-14 -21.5t-20 -15.5t-23 -6t-22.5 6t-19 15.5t-13.5 21.5t-5 24t5 23.5t13.5 20.5t19 15t22.5 6q24 0 43 -20t19 -45z" />
    <glyph glyph-name="uni0308" unicode="&#x308;" horiz-adv-x="1" 
d="M-108 581q0 -23 -15 -39t-38 -16t-38.5 16t-15.5 39t15.5 40.5t38.5 17.5t38 -17t15 -41zM-276 581q0 -23 -15.5 -39t-38.5 -16t-38 16t-15 39t15 40.5t38 17.5t38.5 -17t15.5 -41z" />
    <glyph glyph-name="uni030A" unicode="&#x30a;" horiz-adv-x="1" 
d="M-130 615q0 -22 -8 -41t-22.5 -33t-33 -22t-39.5 -8q-43 0 -71.5 29.5t-28.5 74.5q0 22 7.5 41t21 33.5t32 22.5t39.5 8t39.5 -8t33 -22.5t22.5 -33.5t8 -41zM-173 615q0 26 -18 43t-42 17q-23 0 -40.5 -17t-17.5 -43q0 -24 17.5 -42t40.5 -18q24 0 42 17.5t18 42.5z" />
    <glyph glyph-name="uni030B" unicode="&#x30b;" horiz-adv-x="1" 
d="M-195 521h-58l109 202h82zM-338 521h-58l110 202h81z" />
    <glyph glyph-name="uni030C" unicode="&#x30c;" horiz-adv-x="1" 
d="M-134 511h-54l-123 193h64l84 -117l88 117h58z" />
    <glyph glyph-name="uni0312" unicode="&#x312;" horiz-adv-x="1" 
d="M-181 622q0 30 26 72t68 87l24 -19q-23 -35 -35 -67.5t-12 -51.5q0 -14 11.5 -25.5t34.5 -17.5l-51 -74q-18 3 -30.5 12.5t-20.5 23t-11.5 29.5t-3.5 31z" />
    <glyph glyph-name="uni0326" unicode="&#x326;" horiz-adv-x="1" 
d="M-63 -154q0 -30 -26 -72t-68 -87l-24 19q23 35 35 67.5t12 51.5q0 14 -11.5 25.5t-34.5 17.5l51 74q18 -3 30.5 -12.5t20.5 -23t11.5 -29.5t3.5 -31z" />
    <glyph glyph-name="uni0327" unicode="&#x327;" horiz-adv-x="1" 
d="M-105 -134q0 -23 -10 -39t-26 -27t-36 -16t-40 -5q-15 0 -25.5 0.5t-19.5 2t-18.5 5t-22.5 8.5l26 49q10 -6 23 -9t27 -3q22 0 37.5 7.5t15.5 24.5q0 14 -9.5 22.5t-24.5 12.5t-32.5 5t-32.5 1l53 95h55l-34 -61q41 0 67.5 -20t26.5 -53z" />
    <glyph glyph-name="uni0328" unicode="&#x328;" horiz-adv-x="1" 
d="M-145 -201q-13 -7 -21 -12.5t-15 -9t-15.5 -5.5t-22.5 -2q-31 0 -53 23.5t-22 63.5q0 49 17 81.5t49 65.5h54q-16 -22 -26.5 -38t-17 -29.5t-9 -25.5t-2.5 -27q0 -29 10.5 -41.5t25.5 -12.5q10 0 22 3.5t31 11.5z" />
    <glyph glyph-name="uni0394" unicode="&#x394;" horiz-adv-x="736" 
d="M-8 0l370 685l371 -685h-741zM359 514l-230 -436h453z" />
    <glyph glyph-name="Pi" unicode="&#x3a0;" horiz-adv-x="767" 
d="M630 600v-600h-78v589h-337v-589h-78v600h-126v59h745v-59h-126z" />
    <glyph glyph-name="Sigma" unicode="&#x3a3;" horiz-adv-x="595" 
d="M160 591l169 -249l-196 -274h419v-68h-524v43l209 290l-197 290v36h514v-68h-394z" />
    <glyph glyph-name="uni03A9" unicode="&#x3a9;" horiz-adv-x="742" 
d="M430 0v63q38 18 70 46t55 63t36 75.5t13 82.5q0 55 -16.5 104.5t-47 87.5t-73.5 60.5t-96 22.5t-96.5 -21.5t-74 -58.5t-47.5 -87.5t-17 -107.5q0 -43 12.5 -84t35 -76t55 -62.5t71.5 -44.5v-63h-294v68h176q-33 20 -59.5 49t-46 63.5t-30 72.5t-10.5 76q0 69 24 131
t66.5 109.5t102.5 75.5t132 28q71 0 130.5 -27.5t102 -74.5t66 -109.5t23.5 -131.5q0 -76 -37.5 -145t-109.5 -117h180v-68h-296z" />
    <glyph glyph-name="uni03BC" unicode="&#x3bc;" horiz-adv-x="523" 
d="M392 0l-13 64l-35 -35q-14 -14 -29.5 -23.5t-35.5 -14t-52 -4.5q-20 0 -41.5 2.5t-40.5 11.5l7 -251h-76l5 183q1 27 1.5 46t0.5 46q0 108 -0.5 214t-0.5 214h76v-295q0 -21 2.5 -39.5t10.5 -33t23 -23t40 -8.5t42 5t40 16q6 3 15 13t18 22.5t17 24t11 17.5v301h77v-332
q0 -30 2 -60.5t6 -60.5h-70z" />
    <glyph glyph-name="pi" unicode="&#x3c0;" horiz-adv-x="457" 
d="M457 423q-12 -9 -29.5 -14.5t-32.5 -8.5q0 -3 1 -11.5t2 -19.5t1.5 -22t0.5 -19v-42q0 -72 -2 -143t-3 -143h-71q1 66 3.5 130.5t2.5 130.5q0 68 -6 133h-179q-1 -99 -2 -197t-3 -197h-70q2 87 3 173t1 173v48q-17 0 -34 -1.5t-34 -3.5l-1 51q27 2 53 7.5t54 5.5
q46 0 91 -0.5t91 -0.5q36 0 73.5 2.5t71.5 16.5z" />
    <glyph glyph-name="uni1D62" unicode="&#x1d62;" horiz-adv-x="203" 
d="M142 192q0 -17 -12.5 -31.5t-29.5 -14.5q-16 0 -27.5 14.5t-11.5 31.5t11.5 30t27.5 13q17 0 29.5 -13t12.5 -30zM69 -250v329h64v-329h-64z" />
    <glyph glyph-name="uni1D63" unicode="&#x1d63;" horiz-adv-x="280" 
d="M223 4q0 6 -3 14t-17 8q-11 0 -21 -7.5t-18.5 -18t-15 -23t-11.5 -22.5v-205h-68v235q0 17 -1 39.5t-6 51.5h63l8 -41q11 19 31.5 34t46.5 15q35 0 48.5 -21t13.5 -53z" />
    <glyph glyph-name="uni1D64" unicode="&#x1d64;" horiz-adv-x="440" 
d="M312 -250l-9 41q-26 -29 -52 -39.5t-64 -10.5q-24 0 -45.5 4t-38 14t-26 27t-9.5 43v247h70v-210q0 -15 1.5 -27.5t6.5 -21.5t16 -14.5t30 -5.5q33 0 60 13q3 2 19.5 17t27.5 36v213h70v-234q0 -28 2 -49.5t5 -42.5h-64z" />
    <glyph glyph-name="uni1D65" unicode="&#x1d65;" horiz-adv-x="338" 
d="M200 -259h-53l-146 335h75l100 -236l90 236h70z" />
    <glyph glyph-name="Wgrave" unicode="&#x1e80;" horiz-adv-x="875" 
d="M612 -16h-42l-128 323l-123 -323h-42l-270 675h83l210 -533l103 276l-103 257h83l60 -150l55 150h77l-94 -247l112 -286l198 533h77zM411 696l-127 185h78l104 -185h-55z" />
    <glyph glyph-name="wgrave" unicode="&#x1e81;" horiz-adv-x="658" 
d="M497 -13h-60l-106 297l-97 -297h-60l-169 466h82l120 -351l124 371l140 -371l106 351h76zM321 521l-133 202h82l109 -202h-58z" />
    <glyph glyph-name="Wacute" unicode="&#x1e82;" horiz-adv-x="875" 
d="M612 -16h-42l-128 323l-123 -323h-42l-270 675h83l210 -533l103 276l-103 257h83l60 -150l55 150h77l-94 -247l112 -286l198 533h77zM460 696h-56l105 185h78z" />
    <glyph glyph-name="wacute" unicode="&#x1e83;" horiz-adv-x="658" 
d="M497 -13h-60l-106 297l-97 -297h-60l-169 466h82l120 -351l124 371l140 -371l106 351h76zM351 521h-57l109 202h81z" />
    <glyph glyph-name="Wdieresis" unicode="&#x1e84;" horiz-adv-x="875" 
d="M612 -16h-42l-128 323l-123 -323h-42l-270 675h83l210 -533l103 276l-103 257h83l60 -150l55 150h77l-94 -247l112 -286l198 533h77zM616 756q0 -21 -14.5 -36t-36.5 -15q-21 0 -36 15t-15 36t15 36.5t36 15.5q22 0 36.5 -15.5t14.5 -36.5zM386 756q0 -21 -15 -36
t-37 -15t-36 15t-14 36t14 36.5t36 15.5t37 -15.5t15 -36.5z" />
    <glyph glyph-name="wdieresis" unicode="&#x1e85;" horiz-adv-x="658" 
d="M497 -13h-60l-106 297l-97 -297h-60l-169 466h82l120 -351l124 371l140 -371l106 351h76zM476 581q0 -23 -15 -39t-38 -16t-38.5 16t-15.5 39t15.5 40.5t38.5 17.5t38 -17t15 -41zM308 581q0 -23 -15.5 -39t-38.5 -16t-38 16t-15 39t15 40.5t38 17.5t38.5 -17t15.5 -41z
" />
    <glyph glyph-name="Ygrave" unicode="&#x1ef2;" horiz-adv-x="542" 
d="M312 276v-276h-79v276l-226 383h87l183 -307l178 307h80zM245 696l-127 185h78l104 -185h-55z" />
    <glyph glyph-name="ygrave" unicode="&#x1ef3;" horiz-adv-x="418" 
d="M245 -21q-20 -57 -42.5 -114.5t-45.5 -113.5h-84q30 65 59 126.5t49 117.5l-176 458h82l132 -348l118 348h76zM199 521l-133 202h82l109 -202h-58z" />
    <glyph glyph-name="uni2007" unicode="&#x2007;" 
 />
    <glyph glyph-name="uni2008" unicode="&#x2008;" horiz-adv-x="250" 
 />
    <glyph glyph-name="uni200B" unicode="&#x200b;" horiz-adv-x="0" 
 />
    <glyph glyph-name="endash" unicode="&#x2013;" 
d="M-3 194v69h503v-69h-503z" />
    <glyph glyph-name="emdash" unicode="&#x2014;" horiz-adv-x="1000" 
d="M-3 194v69h1003v-69h-1003z" />
    <glyph glyph-name="quoteleft" unicode="&#x2018;" horiz-adv-x="225" 
d="M121 460q-21 2 -36 12.5t-24 26t-13 33.5t-4 35q0 35 28 81.5t79 97.5l30 -21q-27 -41 -40 -77t-13 -57q0 -15 12.5 -27.5t40.5 -18.5z" />
    <glyph glyph-name="quoteright" unicode="&#x2019;" horiz-adv-x="225" 
d="M183 626q0 -35 -28.5 -81.5t-79.5 -97.5l-30 22q27 40 40.5 76.5t13.5 56.5q0 15 -12.5 28t-41.5 19l60 85q22 -2 37 -12.5t24 -26t13 -33.5t4 -36z" />
    <glyph glyph-name="quotesinglbase" unicode="&#x201a;" horiz-adv-x="225" 
d="M181 11q0 -35 -28 -81.5t-79 -97.5l-30 22q27 40 40.5 76.5t13.5 56.5q0 15 -13 28t-41 19l60 85q21 -2 36 -12.5t24 -26t13 -33.5t4 -36z" />
    <glyph glyph-name="quotedblleft" unicode="&#x201c;" horiz-adv-x="413" 
d="M308 460q-22 2 -37 12.5t-24 26t-13 33.5t-4 35q0 35 28.5 81.5t79.5 97.5l30 -21q-28 -41 -41 -77t-13 -57q0 -15 12.5 -27.5t41.5 -18.5zM121 460q-21 2 -36 12.5t-24 26t-13 33.5t-4 35q0 35 28 81.5t79 97.5l30 -21q-27 -41 -40 -77t-13 -57q0 -15 12.5 -27.5
t40.5 -18.5z" />
    <glyph glyph-name="quotedblright" unicode="&#x201d;" horiz-adv-x="413" 
d="M370 626q0 -35 -28 -81.5t-79 -97.5l-30 22q27 40 40 76.5t13 56.5q0 15 -12.5 28t-40.5 19l60 85q21 -2 36 -12.5t24 -26t13 -33.5t4 -36zM184 626q0 -35 -28.5 -81.5t-79.5 -97.5l-30 22q27 40 40.5 76.5t13.5 56.5q0 15 -12.5 28t-41.5 19l60 85q22 -2 37 -12.5
t24 -26t13 -33.5t4 -36z" />
    <glyph glyph-name="quotedblbase" unicode="&#x201e;" horiz-adv-x="413" 
d="M366 11q0 -35 -28 -81.5t-79 -97.5l-30 22q27 40 40.5 76.5t13.5 56.5q0 15 -13 28t-41 19l60 85q21 -2 36 -12.5t24 -26t13 -33.5t4 -36zM180 11q0 -35 -28 -81.5t-79 -97.5l-31 22q28 40 41 76.5t13 56.5q0 15 -12.5 28t-41.5 19l61 85q21 -2 36 -12.5t24 -26t13 -33.5
t4 -36z" />
    <glyph glyph-name="dagger" unicode="&#x2020;" 
d="M285 474l10 -231l-7 -494h-75l-9 493l10 232h-178v72h179l-2 192h75l-2 -192h178v-72h-179z" />
    <glyph glyph-name="daggerdbl" unicode="&#x2021;" 
d="M285 -60l3 -191h-75l1 191h-178v72h175l-7 230l10 232h-178v72h179l-2 192h75l-2 -192h178v-72h-179l10 -231l-7 -230h176v-73h-179z" />
    <glyph glyph-name="bullet" unicode="&#x2022;" horiz-adv-x="313" 
d="M281 226q0 -26 -10 -48.5t-27 -39t-39 -26.5t-47 -10t-47.5 9.5t-39.5 26.5t-27 39.5t-10 48.5q0 25 10 47t27 38.5t39.5 26.5t47.5 10t47 -9.5t39 -26t27 -39t10 -47.5z" />
    <glyph glyph-name="ellipsis" unicode="&#x2026;" horiz-adv-x="938" 
d="M835 54q0 -27 -20 -47t-46 -20t-46 19.5t-20 47.5q0 26 20 45t46 19t46 -19t20 -45zM535 54q0 -27 -20 -47t-46 -20t-46 19.5t-20 47.5q0 26 20 45t46 19t46 -19t20 -45zM235 54q0 -27 -20 -47t-46 -20t-46 19.5t-20 47.5q0 26 20 45t46 19t46 -19t20 -45z" />
    <glyph glyph-name="perthousand" unicode="&#x2030;" horiz-adv-x="1244" 
d="M1211 160q0 -36 -13.5 -67.5t-37 -55t-55 -37t-67.5 -13.5t-68 13.5t-55 37t-36.5 55t-13.5 67.5t13.5 67.5t36.5 55.5t55 37.5t68 13.5t67.5 -13.5t55 -37.5t37 -55.5t13.5 -67.5zM808 160q0 -36 -14 -67.5t-37.5 -55t-55 -37t-67.5 -13.5t-67.5 13.5t-55 37t-37 55
t-13.5 67.5t13.5 67.5t37 55.5t55 37.5t67.5 13.5t67.5 -13.5t55 -37.5t37.5 -55.5t14 -67.5zM179 -49l-50 35l537 698l50 -35zM380 490q0 -36 -13.5 -67.5t-37 -55.5t-55.5 -37.5t-68 -13.5t-67 13.5t-54.5 37.5t-37 55.5t-13.5 67.5t13.5 67.5t37 55.5t54.5 37.5t67 13.5
t68 -13.5t55.5 -37.5t37 -55.5t13.5 -67.5zM1145 160q0 23 -8.5 43t-22.5 34.5t-34 23t-42 8.5q-23 0 -43 -8.5t-34.5 -23t-23 -34.5t-8.5 -43t8.5 -42.5t23 -34t34.5 -23t43 -8.5q22 0 42 8.5t34 23t22.5 34t8.5 42.5zM741 160q0 23 -8.5 43t-22.5 34.5t-34 23t-42 8.5
q-23 0 -43 -8.5t-34.5 -23t-23 -34.5t-8.5 -43t8.5 -42.5t23 -34t34.5 -23t43 -8.5q22 0 42 8.5t34 23t22.5 34t8.5 42.5zM315 490q0 22 -8.5 42t-23 35t-34.5 23.5t-43 8.5t-42.5 -8.5t-33.5 -23.5t-22.5 -35t-8.5 -42q0 -23 8.5 -43t22.5 -34.5t33.5 -23t42.5 -8.5t43 8.5
t34.5 23t23 34.5t8.5 43z" />
    <glyph glyph-name="guilsinglleft" unicode="&#x2039;" horiz-adv-x="326" 
d="M42 220l228 203v-89l-109 -114l109 -114v-88z" />
    <glyph glyph-name="guilsinglright" unicode="&#x203a;" horiz-adv-x="326" 
d="M56 17v89l109 114l-109 114v89l228 -203z" />
    <glyph glyph-name="fraction" unicode="&#x2044;" horiz-adv-x="200" 
d="M-79 -48l-48 29l396 779l49 -30z" />
    <glyph glyph-name="uni2070" unicode="&#x2070;" horiz-adv-x="360" 
d="M180 248q-38 0 -65.5 20t-46.5 53.5t-28 78t-9 93.5t9 94t28 78.5t46.5 53.5t65.5 20q37 0 65 -20t46.5 -53.5t27.5 -78t9 -93.5q0 -50 -9 -94.5t-27.5 -78t-46.5 -53.5t-65 -20zM180 676q-27 0 -49.5 -48t-22.5 -135q0 -43 6 -77t16.5 -57.5t23 -36t26.5 -12.5
q13 0 26 12.5t23.5 36t16.5 57.5t6 77q0 87 -22.5 135t-49.5 48z" />
    <glyph glyph-name="uni2071" unicode="&#x2071;" horiz-adv-x="203" 
d="M142 698q0 -17 -12.5 -31.5t-29.5 -14.5q-16 0 -27.5 14.5t-11.5 31.5t11.5 30t27.5 13q17 0 29.5 -13t12.5 -30zM69 256v329h64v-329h-64z" />
    <glyph glyph-name="uni2074" unicode="&#x2074;" horiz-adv-x="360" 
d="M272 256h-71v136h-177v50q40 81 91 155t108 143h49v-288h65v-60h-65v-136zM201 613q-26 -39 -51 -79t-46 -82h97v161z" />
    <glyph glyph-name="uni2075" unicode="&#x2075;" horiz-adv-x="360" 
d="M120 249q-17 1 -33.5 3.5t-39.5 8.5l6 62q43 -12 72 -12q43 0 72.5 21t29.5 68q0 31 -12.5 49t-35 28t-54 13t-68.5 3l39 237h200v-59h-136l-21 -120q29 -2 59 -10t54.5 -26t40 -46t15.5 -68q0 -38 -16.5 -66.5t-43.5 -47.5t-60.5 -28.5t-67.5 -9.5z" />
    <glyph glyph-name="uni2076" unicode="&#x2076;" horiz-adv-x="360" 
d="M184 248q-35 0 -63.5 9t-48 30.5t-30 57t-10.5 87.5q0 93 54.5 175t156.5 140l42 -55q-25 -12 -50 -29.5t-46 -38t-37.5 -43t-25.5 -44.5q20 8 37 10.5t40 2.5q32 0 56 -13t39.5 -34t23 -47.5t7.5 -53.5q0 -30 -8.5 -58t-26.5 -49t-45.5 -34t-64.5 -13zM183 483
q-22 0 -39 -4t-33 -12q-1 -7 -1 -16v-16q0 -68 17.5 -95.5t59.5 -27.5q22 0 34.5 7.5t19 19.5t8.5 27.5t2 32.5q0 38 -16.5 61t-51.5 23z" />
    <glyph glyph-name="uni2077" unicode="&#x2077;" horiz-adv-x="360" 
d="M253 494q-23 -64 -51 -126t-54 -112h-85q7 11 22 39t33.5 66.5t38 83t34.5 88.5l48 138h-131l-8 -44h-58v103h296z" />
    <glyph glyph-name="uni2078" unicode="&#x2078;" horiz-adv-x="360" 
d="M177 248q-34 0 -61 9.5t-46.5 26t-30 38.5t-10.5 46q0 10 2.5 24t9 29t17 29.5t25.5 26.5l39 29q-32 25 -53 51.5t-21 69.5q0 22 11 42.5t29.5 36t43 24.5t51.5 9q24 0 47 -7t40 -20.5t27.5 -33.5t10.5 -47q0 -24 -8 -51t-36 -49l-25 -21q17 -13 33.5 -26.5t29.5 -30
t21 -36t8 -43.5q0 -26 -11 -49t-31 -40t-48.5 -27t-63.5 -10zM183 680q-31 0 -47 -15t-16 -39q0 -15 6 -26t15 -20.5t20 -17.5t21 -15q27 21 40.5 37.5t13.5 44.5q0 23 -15 37t-38 14zM178 469q-12 -9 -25 -19t-24.5 -21t-18.5 -24.5t-7 -31.5q0 -31 20.5 -48.5t53.5 -17.5
q41 0 60 21.5t19 45.5q0 15 -13 35t-35 37z" />
    <glyph glyph-name="uni2079" unicode="&#x2079;" horiz-adv-x="360" 
d="M77 294q25 12 49.5 30t46 38.5t38 42.5t25.5 44q-20 -8 -37 -10.5t-40 -2.5q-32 0 -56 13t-40 34t-23.5 47.5t-7.5 53.5q0 30 8.5 58t26.5 49.5t45.5 34.5t65.5 13q35 0 63 -9.5t47.5 -31t30 -56.5t10.5 -87q0 -94 -54 -175.5t-156 -139.5zM175 675q-22 0 -35 -7.5
t-19.5 -20t-8.5 -28.5t-2 -32q0 -38 17 -61t52 -23q22 0 38.5 4t33.5 12q1 8 1 17v16q0 68 -18 95.5t-59 27.5z" />
    <glyph glyph-name="uni207F" unicode="&#x207f;" horiz-adv-x="445" 
d="M372 409q0 -38 -0.5 -76.5t-1.5 -76.5h-70q1 34 1.5 67.5t0.5 67.5v55q0 10 -1 19q-1 16 -2.5 28.5t-7 21.5t-16 13.5t-29.5 4.5q-4 0 -11.5 -0.5t-15 -1.5t-14.5 -2.5t-11 -3.5t-12 -9t-17 -16t-16.5 -17t-10.5 -12v-215h-69v234q0 23 -1.5 46t-5.5 46h64l9 -42
q25 25 53 38t63 13q24 0 44.5 -4t36 -14t25.5 -27t12 -43q2 -23 2.5 -47t0.5 -47z" />
    <glyph glyph-name="uni2080" unicode="&#x2080;" horiz-adv-x="360" 
d="M180 -258q-38 0 -65.5 20t-46.5 53.5t-28 78t-9 93.5t9 94t28 78.5t46.5 53.5t65.5 20q37 0 65 -20t46.5 -53.5t27.5 -78t9 -93.5q0 -50 -9 -94.5t-27.5 -78t-46.5 -53.5t-65 -20zM180 170q-27 0 -49.5 -48t-22.5 -135q0 -43 6 -77t16.5 -57.5t23 -36t26.5 -12.5
q13 0 26 12.5t23.5 36t16.5 57.5t6 77q0 87 -22.5 135t-49.5 48z" />
    <glyph glyph-name="uni2081" unicode="&#x2081;" horiz-adv-x="360" 
d="M73 -250v61h78v350h-78v61h150v-411h77v-61h-227z" />
    <glyph glyph-name="uni2082" unicode="&#x2082;" horiz-adv-x="360" 
d="M21 -216q38 45 75 85t67 78t48.5 75t18.5 77t-19 56t-53 16q-22 0 -50.5 -8.5t-61.5 -27.5l-6 68q29 14 58 22t69 8q19 0 43 -4.5t45 -18t35.5 -37.5t14.5 -64q0 -36 -8.5 -66.5t-23.5 -57.5t-34 -52t-40 -50q-14 -17 -29.5 -35t-32.5 -38h186v-60h-302v34z" />
    <glyph glyph-name="uni2083" unicode="&#x2083;" horiz-adv-x="360" 
d="M120 -256q-17 0 -34.5 2.5t-38.5 9.5l6 62q20 -7 35.5 -9.5t29.5 -2.5q22 0 42.5 4t36.5 13.5t25 24.5t9 36q0 39 -30.5 59.5t-69.5 20.5h-40v57q57 0 91 26.5t34 73.5q0 21 -21 36t-50 15q-34 0 -92 -37l-6 68q17 8 29.5 14t24.5 9.5t26 5.5t33 2q25 0 48.5 -7
t41.5 -20.5t29 -33t11 -45.5q0 -45 -18 -76.5t-48 -48.5q34 -11 60.5 -39.5t26.5 -76.5q0 -37 -17.5 -64t-45.5 -44.5t-61.5 -26t-66.5 -8.5z" />
    <glyph glyph-name="uni2084" unicode="&#x2084;" horiz-adv-x="360" 
d="M272 -250h-71v136h-177v50q40 81 91 155t108 143h49v-288h65v-60h-65v-136zM201 107q-26 -39 -51 -79t-46 -82h97v161z" />
    <glyph glyph-name="uni2085" unicode="&#x2085;" horiz-adv-x="360" 
d="M120 -257q-17 1 -33.5 3.5t-39.5 8.5l6 62q43 -12 72 -12q43 0 72.5 21t29.5 68q0 31 -12.5 49t-35 28t-54 13t-68.5 3l39 237h200v-59h-136l-21 -120q29 -2 59 -10t54.5 -26t40 -46t15.5 -68q0 -38 -16.5 -66.5t-43.5 -47.5t-60.5 -28.5t-67.5 -9.5z" />
    <glyph glyph-name="uni2086" unicode="&#x2086;" horiz-adv-x="360" 
d="M184 -258q-35 0 -63.5 9t-48 30.5t-30 57t-10.5 87.5q0 93 54.5 175t156.5 140l42 -55q-25 -12 -50 -29.5t-46 -38t-37.5 -43t-25.5 -44.5q20 8 37 10.5t40 2.5q32 0 56 -13t39.5 -34t23 -47.5t7.5 -53.5q0 -30 -8.5 -58t-26.5 -49t-45.5 -34t-64.5 -13zM183 -23
q-22 0 -39 -4t-33 -12q-1 -7 -1 -16v-16q0 -68 17.5 -95.5t59.5 -27.5q22 0 34.5 7.5t19 19.5t8.5 27.5t2 32.5q0 38 -16.5 61t-51.5 23z" />
    <glyph glyph-name="uni2087" unicode="&#x2087;" horiz-adv-x="360" 
d="M253 -12q-23 -64 -51 -126t-54 -112h-85q7 11 22 39t33.5 66.5t38 83t34.5 88.5l48 138h-131l-8 -44h-58v103h296z" />
    <glyph glyph-name="uni2088" unicode="&#x2088;" horiz-adv-x="360" 
d="M177 -258q-34 0 -61 9.5t-46.5 26t-30 38.5t-10.5 46q0 10 2.5 24t9 29t17 29.5t25.5 26.5l39 29q-32 25 -53 51.5t-21 69.5q0 22 11 42.5t29.5 36t43 24.5t51.5 9q24 0 47 -7t40 -20.5t27.5 -33.5t10.5 -47q0 -24 -8 -51t-36 -49l-25 -21q17 -13 33.5 -26.5t29.5 -30
t21 -36t8 -43.5q0 -26 -11 -49t-31 -40t-48.5 -27t-63.5 -10zM183 174q-31 0 -47 -15t-16 -39q0 -15 6 -26t15 -20.5t20 -17.5t21 -15q27 21 40.5 37.5t13.5 44.5q0 23 -15 37t-38 14zM178 -37q-12 -9 -25 -19t-24.5 -21t-18.5 -24.5t-7 -31.5q0 -31 20.5 -48.5t53.5 -17.5
q41 0 60 21.5t19 45.5q0 15 -13 35t-35 37z" />
    <glyph glyph-name="uni2089" unicode="&#x2089;" horiz-adv-x="360" 
d="M77 -212q25 12 49.5 30t46 38.5t38 42.5t25.5 44q-20 -8 -37 -10.5t-40 -2.5q-32 0 -56 13t-40 34t-23.5 47.5t-7.5 53.5q0 30 8.5 58t26.5 49.5t45.5 34.5t65.5 13q35 0 63 -9.5t47.5 -31t30 -56.5t10.5 -87q0 -94 -54 -175.5t-156 -139.5zM175 169q-22 0 -35 -7.5
t-19.5 -20t-8.5 -28.5t-2 -32q0 -38 17 -61t52 -23q22 0 38.5 4t33.5 12q1 8 1 17v16q0 68 -18 95.5t-59 27.5z" />
    <glyph glyph-name="uni2090" unicode="&#x2090;" horiz-adv-x="362" 
d="M249 -250q-2 11 -6 20.5t-7 19.5q-42 -49 -109 -49q-17 0 -33.5 4.5t-29.5 14t-21 24t-8 33.5q0 14 2.5 31.5t12.5 29.5q9 10 32.5 20t51.5 17.5t54.5 13t40.5 7.5v41q0 34 -14.5 43t-46.5 9h-11q-23 0 -32.5 -6t-9.5 -21l-65 -5q0 15 1 28t6 27q1 3 5 5.5t6 4.5
q22 13 52 18t56 5q22 0 43.5 -4.5t39 -14.5t28.5 -27.5t11 -42.5v-147q0 -27 5.5 -54.5t11.5 -44.5h-66zM229 -115q-31 -5 -61.5 -15.5t-59.5 -21.5q-3 -11 -3 -22q0 -14 7.5 -21.5t31.5 -7.5t47 15t38 32v41z" />
    <glyph glyph-name="uni2091" unicode="&#x2091;" horiz-adv-x="371" 
d="M102 -74q-1 -5 -1 -13q0 -56 28.5 -86t82.5 -30q32 0 63.5 11t51.5 27l6 -61q-26 -15 -57 -24t-83 -9q-34 0 -64 11.5t-52 33t-35 53.5t-13 73q0 42 12.5 74t34 54t51 33.5t64.5 11.5q82 0 115 -39t33 -120h-237zM275 -23q-5 35 -29 44t-58 9q-12 0 -27 -3.5t-17 -5.5
q-3 -2 -14 -13t-18 -31h163z" />
    <glyph glyph-name="uni2092" unicode="&#x2092;" horiz-adv-x="417" 
d="M383 -87q0 -38 -12.5 -69.5t-36 -54.5t-56.5 -35.5t-74 -12.5q-77 0 -123.5 46.5t-46.5 125.5q0 36 11.5 67t34 54.5t55.5 37t77 13.5q38 0 69.5 -12t54 -34.5t35 -54.5t12.5 -71zM307 -78q-3 32 -12 52.5t-22.5 32.5t-31 17t-36.5 5q-22 0 -37.5 -6t-20.5 -11
q-3 -2 -9 -10t-12.5 -20.5t-11.5 -29t-5 -36.5q0 -36 9.5 -59.5t24.5 -36.5t33 -18t35 -5q18 0 35.5 5.5t22.5 10.5q3 3 9.5 11t13 20t11.5 28t5 36q0 9 -1 14z" />
    <glyph glyph-name="colonmonetary" unicode="&#x20a1;" horiz-adv-x="623" 
d="M221 -101l18 121q-39 18 -74 46t-61.5 66.5t-41.5 87t-15 107.5q0 61 20.5 118t58 103t91 77.5t119.5 40.5l14 95h47l-14 -91h5q16 0 30 -0.5t27 -1.5l14 93h47l-15 -98q29 -5 51.5 -12.5t46.5 -18.5l-6 -75q-25 14 -50 22.5t-52 14.5l-81 -538q24 1 48.5 5t48.5 10.5
t46 14.5t40 16l6 -76q-32 -13 -80.5 -25t-118.5 -13l-13 -89h-47l13 92q-30 4 -60 12l-15 -104h-47zM137 333q0 -71 30 -133t84 -100l74 497q-44 -9 -78.5 -33t-59 -59t-37.5 -79t-13 -93zM294 76q14 -6 28.5 -10.5t30.5 -6.5l82 541q-27 3 -57 3h-5z" />
    <glyph glyph-name="Euro" unicode="&#x20ac;" 
d="M479 15q-23 -8 -39 -13t-31.5 -8t-33 -4.5t-42.5 -1.5q-47 0 -91 16.5t-80.5 49t-63 80.5t-37.5 111h-79v55h74q-1 7 -1 13v34q0 10 1 21h-74v55h83q11 54 34 99.5t57.5 78t79.5 51t99 18.5q25 0 42 -1.5t32 -4.5t31 -8t39 -12l-6 -76q-23 9 -40 15.5t-33.5 11t-34 6.5
t-40.5 2q-60 0 -106.5 -47.5t-63.5 -132.5h255v-55h-262q-2 -9 -2 -18v-34q0 -8 1 -16h263v-55h-255q17 -85 65 -137t120 -52q21 0 38 2t32 6.5t29.5 11t32.5 15.5z" />
    <glyph glyph-name="afii61289" unicode="&#x2113;" horiz-adv-x="372" 
d="M355 92q-26 -50 -62.5 -76t-85.5 -26q-30 0 -53 7t-38 26.5t-23 53.5t-8 87v82l-54 -42l-12 21l65 54v122q0 59 2 99.5t7.5 69t14.5 48.5t24 38q17 22 35.5 33t41.5 11q20 0 35.5 -10t25.5 -27t15 -39.5t5 -48.5q0 -43 -10.5 -81t-28.5 -73t-42.5 -66.5t-52.5 -60.5v-93
q0 -47 5.5 -78t16 -49.5t25.5 -26t35 -7.5q32 0 56 19t43 48zM156 336q39 48 64 112t25 127q0 43 -10.5 70t-32.5 27q-13 0 -21.5 -11t-14 -36.5t-8 -66.5t-2.5 -101v-121z" />
    <glyph glyph-name="uni2117" unicode="&#x2117;" horiz-adv-x="1000" 
d="M948 229q0 -93 -35 -174t-96 -142t-142 -96t-174 -35t-174.5 35t-142.5 96t-96.5 142t-35.5 174t35.5 174t96.5 142t142.5 96t174.5 35t174 -35t142 -96t96 -142t35 -174zM874 227q0 77 -29 146.5t-80 121.5t-119 82.5t-146 30.5t-146 -30.5t-118.5 -82.5t-80 -121
t-29.5 -146t29.5 -145.5t80 -120t118.5 -81.5t146 -30q77 0 145 30t119 81t80.5 119.5t29.5 145.5zM697 318q0 -35 -16 -62.5t-41 -47t-57 -29.5t-63 -10q-9 0 -17.5 -0.5t-17.5 -0.5q-5 0 -15.5 0.5t-19.5 1.5v-170h-74v455q40 3 80 4t80 1q31 0 60.5 -9.5t51.5 -27.5
t35.5 -44.5t13.5 -60.5zM614 318q0 23 -8.5 38t-22 23.5t-32 12t-37.5 3.5h-64v-164h46q22 0 43.5 3.5t38 13.5t26.5 27t10 43z" />
    <glyph glyph-name="trademark" unicode="&#x2122;" horiz-adv-x="953" 
d="M778 262l-19 288l-144 -300l-127 296l-22 -284h-66l31 396h78q29 -68 58 -134.5t54 -134.5q29 68 59 134t61 135h75l32 -395zM246 598v-336h-68v335h-129v61h326v-60h-129z" />
    <glyph glyph-name="Omega" unicode="&#x2126;" horiz-adv-x="742" 
d="M430 0v63q38 18 70 46t55 63t36 75.5t13 82.5q0 55 -16.5 104.5t-47 87.5t-73.5 60.5t-96 22.5t-96.5 -21.5t-74 -58.5t-47.5 -87.5t-17 -107.5q0 -43 12.5 -84t35 -76t55 -62.5t71.5 -44.5v-63h-294v68h176q-33 20 -59.5 49t-46 63.5t-30 72.5t-10.5 76q0 69 24 131
t66.5 109.5t102.5 75.5t132 28q71 0 130.5 -27.5t102 -74.5t66 -109.5t23.5 -131.5q0 -76 -37.5 -145t-109.5 -117h180v-68h-296z" />
    <glyph glyph-name="estimated" unicode="&#x212e;" horiz-adv-x="821" 
d="M176 319q-5 0 -5 -4v-185q0 -12 8 -22q45 -46 104 -73t128 -27q73 0 135.5 30.5t107.5 81.5h55q-51 -60 -129.5 -95.5t-169.5 -35.5q-78 0 -147 26.5t-120.5 72.5t-81 108t-29.5 132t29.5 132t81 108.5t120.5 73t147 26.5q81 0 150 -27.5t120 -75t79.5 -111t28.5 -135.5
h-612zM649 529q0 14 -9 23q-45 44 -103.5 70t-125.5 26q-68 0 -127 -27t-104 -72q-9 -9 -9 -24v-182q0 -2 1.5 -4t3.5 -2h469q2 0 3 2t1 4v186z" />
    <glyph glyph-name="uni2150" unicode="&#x2150;" horiz-adv-x="920" 
d="M73 256v61h78v350h-78v61h150v-411h77v-61h-227zM281 -48l-48 29l396 779l49 -30zM813 238q-23 -64 -51 -126t-54 -112h-85q7 11 22 39t33.5 66.5t38 83t34.5 88.5l48 138h-131l-8 -44h-58v103h296z" />
    <glyph glyph-name="uni2151" unicode="&#x2151;" horiz-adv-x="920" 
d="M73 256v61h78v350h-78v61h150v-411h77v-61h-227zM281 -48l-48 29l396 779l49 -30zM637 38q25 12 49.5 30t46 38.5t38 42.5t25.5 44q-20 -8 -37 -10.5t-40 -2.5q-32 0 -56 13t-40 34t-23.5 47.5t-7.5 53.5q0 30 8.5 58t26.5 49.5t45.5 34.5t65.5 13q35 0 63 -9.5t47.5 -31
t30 -56.5t10.5 -87q0 -94 -54 -175.5t-156 -139.5zM735 419q-22 0 -35 -7.5t-19.5 -20t-8.5 -28.5t-2 -32q0 -38 17 -61t52 -23q22 0 38.5 4t33.5 12q1 8 1 17v16q0 68 -18 95.5t-59 27.5z" />
    <glyph glyph-name="uni2152" unicode="&#x2152;" horiz-adv-x="1280" 
d="M73 256v61h78v350h-78v61h150v-411h77v-61h-227zM281 -48l-48 29l396 779l49 -30zM633 0v61h78v350h-78v61h150v-411h77v-61h-227zM1100 -8q-38 0 -65.5 20t-46.5 53.5t-28 78t-9 93.5t9 94t28 78.5t46.5 53.5t65.5 20q37 0 65 -20t46.5 -53.5t27.5 -78t9 -93.5
q0 -50 -9 -94.5t-27.5 -78t-46.5 -53.5t-65 -20zM1100 420q-27 0 -49.5 -48t-22.5 -135q0 -43 6 -77t16.5 -57.5t23 -36t26.5 -12.5q13 0 26 12.5t23.5 36t16.5 57.5t6 77q0 87 -22.5 135t-49.5 48z" />
    <glyph glyph-name="onethird" unicode="&#x2153;" horiz-adv-x="920" 
d="M73 256v61h78v350h-78v61h150v-411h77v-61h-227zM281 -48l-48 29l396 779l49 -30zM680 -6q-17 0 -34.5 2.5t-38.5 9.5l6 62q20 -7 35.5 -9.5t29.5 -2.5q22 0 42.5 4t36.5 13.5t25 24.5t9 36q0 39 -30.5 59.5t-69.5 20.5h-40v57q57 0 91 26.5t34 73.5q0 21 -21 36t-50 15
q-34 0 -92 -37l-6 68q17 8 29.5 14t24.5 9.5t26 5.5t33 2q25 0 48.5 -7t41.5 -20.5t29 -33t11 -45.5q0 -45 -18 -76.5t-48 -48.5q34 -11 60.5 -39.5t26.5 -76.5q0 -37 -17.5 -64t-45.5 -44.5t-61.5 -26t-66.5 -8.5z" />
    <glyph glyph-name="twothirds" unicode="&#x2154;" horiz-adv-x="920" 
d="M21 290q38 45 75 85t67 78t48.5 75t18.5 77t-19 56t-53 16q-22 0 -50.5 -8.5t-61.5 -27.5l-6 68q29 14 58 22t69 8q19 0 43 -4.5t45 -18t35.5 -37.5t14.5 -64q0 -36 -8.5 -66.5t-23.5 -57.5t-34 -52t-40 -50q-14 -17 -29.5 -35t-32.5 -38h186v-60h-302v34zM281 -48
l-48 29l396 779l49 -30zM680 -6q-17 0 -34.5 2.5t-38.5 9.5l6 62q20 -7 35.5 -9.5t29.5 -2.5q22 0 42.5 4t36.5 13.5t25 24.5t9 36q0 39 -30.5 59.5t-69.5 20.5h-40v57q57 0 91 26.5t34 73.5q0 21 -21 36t-50 15q-34 0 -92 -37l-6 68q17 8 29.5 14t24.5 9.5t26 5.5t33 2
q25 0 48.5 -7t41.5 -20.5t29 -33t11 -45.5q0 -45 -18 -76.5t-48 -48.5q34 -11 60.5 -39.5t26.5 -76.5q0 -37 -17.5 -64t-45.5 -44.5t-61.5 -26t-66.5 -8.5z" />
    <glyph glyph-name="uni2155" unicode="&#x2155;" horiz-adv-x="920" 
d="M73 256v61h78v350h-78v61h150v-411h77v-61h-227zM281 -48l-48 29l396 779l49 -30zM680 -7q-17 1 -33.5 3.5t-39.5 8.5l6 62q43 -12 72 -12q43 0 72.5 21t29.5 68q0 31 -12.5 49t-35 28t-54 13t-68.5 3l39 237h200v-59h-136l-21 -120q29 -2 59 -10t54.5 -26t40 -46
t15.5 -68q0 -38 -16.5 -66.5t-43.5 -47.5t-60.5 -28.5t-67.5 -9.5z" />
    <glyph glyph-name="uni2156" unicode="&#x2156;" horiz-adv-x="920" 
d="M21 290q38 45 75 85t67 78t48.5 75t18.5 77t-19 56t-53 16q-22 0 -50.5 -8.5t-61.5 -27.5l-6 68q29 14 58 22t69 8q19 0 43 -4.5t45 -18t35.5 -37.5t14.5 -64q0 -36 -8.5 -66.5t-23.5 -57.5t-34 -52t-40 -50q-14 -17 -29.5 -35t-32.5 -38h186v-60h-302v34zM281 -48
l-48 29l396 779l49 -30zM680 -7q-17 1 -33.5 3.5t-39.5 8.5l6 62q43 -12 72 -12q43 0 72.5 21t29.5 68q0 31 -12.5 49t-35 28t-54 13t-68.5 3l39 237h200v-59h-136l-21 -120q29 -2 59 -10t54.5 -26t40 -46t15.5 -68q0 -38 -16.5 -66.5t-43.5 -47.5t-60.5 -28.5t-67.5 -9.5z
" />
    <glyph glyph-name="uni2157" unicode="&#x2157;" horiz-adv-x="920" 
d="M120 250q-17 0 -34.5 2.5t-38.5 9.5l6 62q20 -7 35.5 -9.5t29.5 -2.5q22 0 42.5 4t36.5 13.5t25 24.5t9 36q0 39 -30.5 59.5t-69.5 20.5h-40v57q57 0 91 26.5t34 73.5q0 21 -21 36t-50 15q-34 0 -92 -37l-6 68q17 8 29.5 14t24.5 9.5t26 5.5t33 2q25 0 48.5 -7
t41.5 -20.5t29 -33t11 -45.5q0 -45 -18 -76.5t-48 -48.5q34 -11 60.5 -39.5t26.5 -76.5q0 -37 -17.5 -64t-45.5 -44.5t-61.5 -26t-66.5 -8.5zM281 -48l-48 29l396 779l49 -30zM680 -7q-17 1 -33.5 3.5t-39.5 8.5l6 62q43 -12 72 -12q43 0 72.5 21t29.5 68q0 31 -12.5 49
t-35 28t-54 13t-68.5 3l39 237h200v-59h-136l-21 -120q29 -2 59 -10t54.5 -26t40 -46t15.5 -68q0 -38 -16.5 -66.5t-43.5 -47.5t-60.5 -28.5t-67.5 -9.5z" />
    <glyph glyph-name="uni2158" unicode="&#x2158;" horiz-adv-x="920" 
d="M272 256h-71v136h-177v50q40 81 91 155t108 143h49v-288h65v-60h-65v-136zM201 613q-26 -39 -51 -79t-46 -82h97v161zM281 -48l-48 29l396 779l49 -30zM680 -7q-17 1 -33.5 3.5t-39.5 8.5l6 62q43 -12 72 -12q43 0 72.5 21t29.5 68q0 31 -12.5 49t-35 28t-54 13t-68.5 3
l39 237h200v-59h-136l-21 -120q29 -2 59 -10t54.5 -26t40 -46t15.5 -68q0 -38 -16.5 -66.5t-43.5 -47.5t-60.5 -28.5t-67.5 -9.5z" />
    <glyph glyph-name="uni2159" unicode="&#x2159;" horiz-adv-x="920" 
d="M73 256v61h78v350h-78v61h150v-411h77v-61h-227zM281 -48l-48 29l396 779l49 -30zM744 -8q-35 0 -63.5 9t-48 30.5t-30 57t-10.5 87.5q0 93 54.5 175t156.5 140l42 -55q-25 -12 -50 -29.5t-46 -38t-37.5 -43t-25.5 -44.5q20 8 37 10.5t40 2.5q32 0 56 -13t39.5 -34
t23 -47.5t7.5 -53.5q0 -30 -8.5 -58t-26.5 -49t-45.5 -34t-64.5 -13zM743 227q-22 0 -39 -4t-33 -12q-1 -7 -1 -16v-16q0 -68 17.5 -95.5t59.5 -27.5q22 0 34.5 7.5t19 19.5t8.5 27.5t2 32.5q0 38 -16.5 61t-51.5 23z" />
    <glyph glyph-name="uni215A" unicode="&#x215a;" horiz-adv-x="920" 
d="M120 249q-17 1 -33.5 3.5t-39.5 8.5l6 62q43 -12 72 -12q43 0 72.5 21t29.5 68q0 31 -12.5 49t-35 28t-54 13t-68.5 3l39 237h200v-59h-136l-21 -120q29 -2 59 -10t54.5 -26t40 -46t15.5 -68q0 -38 -16.5 -66.5t-43.5 -47.5t-60.5 -28.5t-67.5 -9.5zM281 -48l-48 29
l396 779l49 -30zM744 -8q-35 0 -63.5 9t-48 30.5t-30 57t-10.5 87.5q0 93 54.5 175t156.5 140l42 -55q-25 -12 -50 -29.5t-46 -38t-37.5 -43t-25.5 -44.5q20 8 37 10.5t40 2.5q32 0 56 -13t39.5 -34t23 -47.5t7.5 -53.5q0 -30 -8.5 -58t-26.5 -49t-45.5 -34t-64.5 -13z
M743 227q-22 0 -39 -4t-33 -12q-1 -7 -1 -16v-16q0 -68 17.5 -95.5t59.5 -27.5q22 0 34.5 7.5t19 19.5t8.5 27.5t2 32.5q0 38 -16.5 61t-51.5 23z" />
    <glyph glyph-name="oneeighth" unicode="&#x215b;" horiz-adv-x="920" 
d="M73 256v61h78v350h-78v61h150v-411h77v-61h-227zM281 -48l-48 29l396 779l49 -30zM737 -8q-34 0 -61 9.5t-46.5 26t-30 38.5t-10.5 46q0 10 2.5 24t9 29t17 29.5t25.5 26.5l39 29q-32 25 -53 51.5t-21 69.5q0 22 11 42.5t29.5 36t43 24.5t51.5 9q24 0 47 -7t40 -20.5
t27.5 -33.5t10.5 -47q0 -24 -8 -51t-36 -49l-25 -21q17 -13 33.5 -26.5t29.5 -30t21 -36t8 -43.5q0 -26 -11 -49t-31 -40t-48.5 -27t-63.5 -10zM743 424q-31 0 -47 -15t-16 -39q0 -15 6 -26t15 -20.5t20 -17.5t21 -15q27 21 40.5 37.5t13.5 44.5q0 23 -15 37t-38 14z
M738 213q-12 -9 -25 -19t-24.5 -21t-18.5 -24.5t-7 -31.5q0 -31 20.5 -48.5t53.5 -17.5q41 0 60 21.5t19 45.5q0 15 -13 35t-35 37z" />
    <glyph glyph-name="threeeighths" unicode="&#x215c;" horiz-adv-x="920" 
d="M120 250q-17 0 -34.5 2.5t-38.5 9.5l6 62q20 -7 35.5 -9.5t29.5 -2.5q22 0 42.5 4t36.5 13.5t25 24.5t9 36q0 39 -30.5 59.5t-69.5 20.5h-40v57q57 0 91 26.5t34 73.5q0 21 -21 36t-50 15q-34 0 -92 -37l-6 68q17 8 29.5 14t24.5 9.5t26 5.5t33 2q25 0 48.5 -7
t41.5 -20.5t29 -33t11 -45.5q0 -45 -18 -76.5t-48 -48.5q34 -11 60.5 -39.5t26.5 -76.5q0 -37 -17.5 -64t-45.5 -44.5t-61.5 -26t-66.5 -8.5zM281 -48l-48 29l396 779l49 -30zM737 -8q-34 0 -61 9.5t-46.5 26t-30 38.5t-10.5 46q0 10 2.5 24t9 29t17 29.5t25.5 26.5l39 29
q-32 25 -53 51.5t-21 69.5q0 22 11 42.5t29.5 36t43 24.5t51.5 9q24 0 47 -7t40 -20.5t27.5 -33.5t10.5 -47q0 -24 -8 -51t-36 -49l-25 -21q17 -13 33.5 -26.5t29.5 -30t21 -36t8 -43.5q0 -26 -11 -49t-31 -40t-48.5 -27t-63.5 -10zM743 424q-31 0 -47 -15t-16 -39
q0 -15 6 -26t15 -20.5t20 -17.5t21 -15q27 21 40.5 37.5t13.5 44.5q0 23 -15 37t-38 14zM738 213q-12 -9 -25 -19t-24.5 -21t-18.5 -24.5t-7 -31.5q0 -31 20.5 -48.5t53.5 -17.5q41 0 60 21.5t19 45.5q0 15 -13 35t-35 37z" />
    <glyph glyph-name="fiveeighths" unicode="&#x215d;" horiz-adv-x="920" 
d="M120 249q-17 1 -33.5 3.5t-39.5 8.5l6 62q43 -12 72 -12q43 0 72.5 21t29.5 68q0 31 -12.5 49t-35 28t-54 13t-68.5 3l39 237h200v-59h-136l-21 -120q29 -2 59 -10t54.5 -26t40 -46t15.5 -68q0 -38 -16.5 -66.5t-43.5 -47.5t-60.5 -28.5t-67.5 -9.5zM281 -48l-48 29
l396 779l49 -30zM737 -8q-34 0 -61 9.5t-46.5 26t-30 38.5t-10.5 46q0 10 2.5 24t9 29t17 29.5t25.5 26.5l39 29q-32 25 -53 51.5t-21 69.5q0 22 11 42.5t29.5 36t43 24.5t51.5 9q24 0 47 -7t40 -20.5t27.5 -33.5t10.5 -47q0 -24 -8 -51t-36 -49l-25 -21q17 -13 33.5 -26.5
t29.5 -30t21 -36t8 -43.5q0 -26 -11 -49t-31 -40t-48.5 -27t-63.5 -10zM743 424q-31 0 -47 -15t-16 -39q0 -15 6 -26t15 -20.5t20 -17.5t21 -15q27 21 40.5 37.5t13.5 44.5q0 23 -15 37t-38 14zM738 213q-12 -9 -25 -19t-24.5 -21t-18.5 -24.5t-7 -31.5q0 -31 20.5 -48.5
t53.5 -17.5q41 0 60 21.5t19 45.5q0 15 -13 35t-35 37z" />
    <glyph glyph-name="seveneighths" unicode="&#x215e;" horiz-adv-x="920" 
d="M253 494q-23 -64 -51 -126t-54 -112h-85q7 11 22 39t33.5 66.5t38 83t34.5 88.5l48 138h-131l-8 -44h-58v103h296zM281 -48l-48 29l396 779l49 -30zM737 -8q-34 0 -61 9.5t-46.5 26t-30 38.5t-10.5 46q0 10 2.5 24t9 29t17 29.5t25.5 26.5l39 29q-32 25 -53 51.5
t-21 69.5q0 22 11 42.5t29.5 36t43 24.5t51.5 9q24 0 47 -7t40 -20.5t27.5 -33.5t10.5 -47q0 -24 -8 -51t-36 -49l-25 -21q17 -13 33.5 -26.5t29.5 -30t21 -36t8 -43.5q0 -26 -11 -49t-31 -40t-48.5 -27t-63.5 -10zM743 424q-31 0 -47 -15t-16 -39q0 -15 6 -26t15 -20.5
t20 -17.5t21 -15q27 21 40.5 37.5t13.5 44.5q0 23 -15 37t-38 14zM738 213q-12 -9 -25 -19t-24.5 -21t-18.5 -24.5t-7 -31.5q0 -31 20.5 -48.5t53.5 -17.5q41 0 60 21.5t19 45.5q0 15 -13 35t-35 37z" />
    <glyph glyph-name="uni215F" unicode="&#x215f;" horiz-adv-x="560" 
d="M73 256v61h78v350h-78v61h150v-411h77v-61h-227zM281 -48l-48 29l396 779l49 -30z" />
    <glyph glyph-name="uni2189" unicode="&#x2189;" horiz-adv-x="920" 
d="M180 248q-38 0 -65.5 20t-46.5 53.5t-28 78t-9 93.5t9 94t28 78.5t46.5 53.5t65.5 20q37 0 65 -20t46.5 -53.5t27.5 -78t9 -93.5q0 -50 -9 -94.5t-27.5 -78t-46.5 -53.5t-65 -20zM180 676q-27 0 -49.5 -48t-22.5 -135q0 -43 6 -77t16.5 -57.5t23 -36t26.5 -12.5
q13 0 26 12.5t23.5 36t16.5 57.5t6 77q0 87 -22.5 135t-49.5 48zM281 -48l-48 29l396 779l49 -30zM680 -6q-17 0 -34.5 2.5t-38.5 9.5l6 62q20 -7 35.5 -9.5t29.5 -2.5q22 0 42.5 4t36.5 13.5t25 24.5t9 36q0 39 -30.5 59.5t-69.5 20.5h-40v57q57 0 91 26.5t34 73.5
q0 21 -21 36t-50 15q-34 0 -92 -37l-6 68q17 8 29.5 14t24.5 9.5t26 5.5t33 2q25 0 48.5 -7t41.5 -20.5t29 -33t11 -45.5q0 -45 -18 -76.5t-48 -48.5q34 -11 60.5 -39.5t26.5 -76.5q0 -37 -17.5 -64t-45.5 -44.5t-61.5 -26t-66.5 -8.5z" />
    <glyph glyph-name="arrowleft" unicode="&#x2190;" horiz-adv-x="596" 
d="M139 193l156 -157l-47 -47l-239 238l237 238l48 -47l-155 -155h432v-70h-432z" />
    <glyph glyph-name="arrowup" unicode="&#x2191;" horiz-adv-x="596" 
d="M496 222l-153 156v-433h-70v433l-157 -157l-49 48l239 240l239 -238z" />
    <glyph glyph-name="arrowright" unicode="&#x2192;" horiz-adv-x="596" 
d="M350 -11l-48 47l156 155h-433v70h433l-157 156l48 48l239 -239z" />
    <glyph glyph-name="arrowdown" unicode="&#x2193;" horiz-adv-x="596" 
d="M306 -55l-239 237l49 49l154 -155v433h70v-433l156 157l49 -48z" />
    <glyph glyph-name="uni2196" unicode="&#x2196;" horiz-adv-x="596" 
d="M465 29l-306 305v-220h-68v337h337v-67h-219l305 -305z" />
    <glyph glyph-name="uni2197" unicode="&#x2197;" horiz-adv-x="596" 
d="M438 115v219l-305 -307l-51 50l307 305h-222v68h338v-335h-67z" />
    <glyph glyph-name="uni2198" unicode="&#x2198;" horiz-adv-x="596" 
d="M169 0v67h219l-306 305l49 51l306 -306v221h68v-338h-336z" />
    <glyph glyph-name="uni2199" unicode="&#x2199;" horiz-adv-x="596" 
d="M207 68h222v-68h-338v336h68v-219l305 306l50 -50z" />
    <glyph glyph-name="partialdiff" unicode="&#x2202;" horiz-adv-x="488" 
d="M454 290q0 -83 -14.5 -140.5t-42.5 -93t-67.5 -51.5t-89.5 -16q-52 0 -90.5 21.5t-63.5 57t-37.5 81t-12.5 92.5q0 43 13 82.5t37 69.5t59 48t79 18q25 0 41.5 -1.5t28 -4t20 -5.5t19.5 -7q0 19 -20.5 38t-45.5 38.5t-45.5 40t-20.5 41.5q0 38 21 62.5t52.5 39t68 20.5
t66.5 6l5 -63h-11q-18 0 -38 -2.5t-37 -9t-28 -18.5t-11 -31q0 -10 12 -20t30.5 -24t40 -34.5t40 -52t30.5 -76t12 -106.5zM367 282q0 7 -1 18.5t-2 24t-2 23.5t-1 17q-12 2 -21.5 4.5t-20.5 4.5t-26 3.5t-39 1.5q-62 0 -95.5 -38t-33.5 -105q0 -27 3 -57.5t14 -56.5t33 -43
t61 -17q73 0 102 53t29 167z" />
    <glyph glyph-name="Delta" unicode="&#x2206;" horiz-adv-x="736" 
d="M-8 0l370 685l371 -685h-741zM359 514l-230 -436h453z" />
    <glyph glyph-name="product" unicode="&#x220f;" horiz-adv-x="767" 
d="M630 600v-774h-78v763h-337v-763h-78v774h-126v59h745v-59h-126z" />
    <glyph glyph-name="summation" unicode="&#x2211;" horiz-adv-x="595" 
d="M160 591l169 -335l-196 -362h419v-68h-524v43l209 378l-197 376v36h514v-68h-394z" />
    <glyph glyph-name="minus" unicode="&#x2212;" 
d="M22 192v69h456v-69h-456z" />
    <glyph glyph-name="uni2219" unicode="&#x2219;" 
d="M373 226q0 -26 -10 -48.5t-27 -39t-39 -26.5t-47 -10t-47.5 9.5t-39.5 26.5t-27 39.5t-10 48.5q0 25 10 47t27 38.5t39.5 26.5t47.5 10t47 -9.5t39 -26t27 -39t10 -47.5z" />
    <glyph glyph-name="radical" unicode="&#x221a;" horiz-adv-x="570" 
d="M287 -20h-22l-174 431l-91 -14v39q41 5 79 15t76 27l139 -362l227 616h38z" />
    <glyph glyph-name="infinity" unicode="&#x221e;" horiz-adv-x="856" 
d="M812 219q0 -45 -13.5 -81t-37.5 -61t-56.5 -38.5t-70.5 -13.5q-39 0 -69 12t-54 31t-44.5 43t-41.5 47l-60 -65q-36 -40 -79 -54.5t-75 -14.5q-36 0 -66.5 12.5t-53 36.5t-35.5 58.5t-13 77.5q0 45 13.5 81t37.5 61t57 38.5t71 13.5q39 0 69 -12t54 -31.5t44.5 -43
t41.5 -46.5l60 66q35 39 78 53.5t75 14.5q36 0 66.5 -12.5t53 -36.5t35.5 -58.5t13 -77.5zM746 217q0 49 -25.5 80.5t-84.5 31.5q-39 0 -62 -14.5t-44 -35.5l-58 -61l44 -49q27 -29 58 -49t61 -20q47 0 79 29t32 88zM340 259q-28 30 -59 49.5t-60 19.5q-48 0 -80 -29
t-32 -89q0 -49 26 -80t85 -31q38 0 61.5 14t43.5 36l59 61z" />
    <glyph glyph-name="integral" unicode="&#x222b;" horiz-adv-x="261" 
d="M389 647q-11 7 -21.5 12t-22 9t-25 6t-31.5 2q-13 0 -26 -2t-23.5 -4.5t-18 -5.5t-9.5 -4q-3 -2 -11 -11.5t-16.5 -33t-15 -64.5t-6.5 -105t0.5 -111t0.5 -91t0.5 -93t0.5 -116q0 -87 -13 -143t-39.5 -88.5t-67 -45.5t-95.5 -13q-30 0 -54.5 5.5t-44.5 13.5l9 76
q22 -13 43 -21t57 -8q26 0 49 7t27 9q3 2 10.5 12t15.5 33.5t14.5 64t6.5 104.5v411q0 87 13 143.5t39.5 89t67 45.5t95.5 13q30 0 54.5 -5.5t44.5 -13.5z" />
    <glyph glyph-name="approxequal" unicode="&#x2248;" 
d="M345 141q13 0 28.5 5t30.5 12.5t28.5 16.5t23.5 18l36 -61q-13 -11 -32 -22t-40.5 -20t-43 -14.5t-39.5 -5.5q-25 0 -48.5 9t-45.5 20t-43.5 20t-43.5 9q-14 0 -29.5 -5t-30.5 -12.5t-28.5 -17t-23.5 -18.5l-37 61q15 12 34 23.5t39.5 20.5t41.5 14.5t41 5.5q25 0 48 -9
t45.5 -20.5t44 -20.5t44.5 -9zM493 311q-16 -11 -34.5 -22t-39 -20t-41.5 -14.5t-42 -5.5q-25 0 -48 9t-45 19.5t-43.5 19.5t-42.5 9q-14 0 -29.5 -5t-30.5 -12.5t-29 -16.5t-24 -18l-37 60q15 11 34 22.5t39.5 20.5t41.5 14.5t41 5.5q25 0 48 -9t45 -20t43.5 -20t43.5 -9
q14 0 29.5 4.5t30.5 12t28.5 17t24.5 18.5z" />
    <glyph glyph-name="notequal" unicode="&#x2260;" 
d="M216 103l-77 -134l-54 31l59 102h-122v69h162l61 108h-223v68h263l77 134l54 -31l-59 -102h121v-69h-160l-63 -108h223v-68h-262z" />
    <glyph glyph-name="lessequal" unicode="&#x2264;" 
d="M22 265v64l456 175v-75l-368 -133l368 -132v-74zM22 0v69h456v-69h-456z" />
    <glyph glyph-name="greaterequal" unicode="&#x2265;" 
d="M22 90v74l368 132l-368 133v75l456 -175v-64zM22 0v69h456v-69h-456z" />
    <glyph glyph-name="dotmath" unicode="&#x22c5;" 
d="M316 229q0 -27 -20 -47t-46 -20t-46 19.5t-20 47.5q0 26 20 45t46 19t46 -19t20 -45z" />
    <glyph glyph-name="uni2460" unicode="&#x2460;" horiz-adv-x="1000" 
d="M948 229q0 -92 -35 -173.5t-95.5 -142.5t-142 -96t-174.5 -35t-174.5 35t-142.5 96t-96.5 142t-35.5 174t35.5 174t96.5 142t142.5 96t174.5 35t174.5 -35t142 -96t95.5 -142t35 -174zM885 227q0 80 -30 151.5t-82.5 125t-122.5 85t-150 31.5t-150 -31.5t-122 -85
t-82.5 -124.5t-30.5 -151t30 -150.5t82.5 -123.5t122.5 -84t150 -31q79 0 149.5 31t122.5 83.5t82.5 123t30.5 150.5zM491 -8q-38 0 -65.5 20t-46.5 53.5t-28 78t-9 93.5t9 94t28 78.5t46.5 53.5t65.5 20q37 0 65 -20t46.5 -53.5t27.5 -78t9 -93.5q0 -50 -9 -94.5t-27.5 -78
t-46.5 -53.5t-65 -20zM491 420q-27 0 -49.5 -48t-22.5 -135q0 -43 6 -77t16.5 -57.5t23 -36t26.5 -12.5q13 0 26 12.5t23.5 36t16.5 57.5t6 77q0 87 -22.5 135t-49.5 48z" />
    <glyph glyph-name="uni2461" unicode="&#x2461;" horiz-adv-x="1000" 
d="M948 229q0 -92 -35 -173.5t-95.5 -142.5t-142 -96t-174.5 -35t-174.5 35t-142.5 96t-96.5 142t-35.5 174t35.5 174t96.5 142t142.5 96t174.5 35t174.5 -35t142 -96t95.5 -142t35 -174zM885 227q0 80 -30 151.5t-82.5 125t-122.5 85t-150 31.5t-150 -31.5t-122 -85
t-82.5 -124.5t-30.5 -151t30 -150.5t82.5 -123.5t122.5 -84t150 -31q79 0 149.5 31t122.5 83.5t82.5 123t30.5 150.5zM384 0v61h78v350h-78v61h150v-411h77v-61h-227z" />
    <glyph glyph-name="uni2462" unicode="&#x2462;" horiz-adv-x="1000" 
d="M948 229q0 -92 -35 -173.5t-95.5 -142.5t-142 -96t-174.5 -35t-174.5 35t-142.5 96t-96.5 142t-35.5 174t35.5 174t96.5 142t142.5 96t174.5 35t174.5 -35t142 -96t95.5 -142t35 -174zM885 227q0 80 -30 151.5t-82.5 125t-122.5 85t-150 31.5t-150 -31.5t-122 -85
t-82.5 -124.5t-30.5 -151t30 -150.5t82.5 -123.5t122.5 -84t150 -31q79 0 149.5 31t122.5 83.5t82.5 123t30.5 150.5zM332 34q38 45 75 85t67 78t48.5 75t18.5 77t-19 56t-53 16q-22 0 -50.5 -8.5t-61.5 -27.5l-6 68q29 14 58 22t69 8q19 0 43 -4.5t45 -18t35.5 -37.5
t14.5 -64q0 -36 -8.5 -66.5t-23.5 -57.5t-34 -52t-40 -50q-14 -17 -29.5 -35t-32.5 -38h186v-60h-302v34z" />
    <glyph glyph-name="uni2463" unicode="&#x2463;" horiz-adv-x="1000" 
d="M948 229q0 -92 -35 -173.5t-95.5 -142.5t-142 -96t-174.5 -35t-174.5 35t-142.5 96t-96.5 142t-35.5 174t35.5 174t96.5 142t142.5 96t174.5 35t174.5 -35t142 -96t95.5 -142t35 -174zM885 227q0 80 -30 151.5t-82.5 125t-122.5 85t-150 31.5t-150 -31.5t-122 -85
t-82.5 -124.5t-30.5 -151t30 -150.5t82.5 -123.5t122.5 -84t150 -31q79 0 149.5 31t122.5 83.5t82.5 123t30.5 150.5zM431 -6q-17 0 -34.5 2.5t-38.5 9.5l6 62q20 -7 35.5 -9.5t29.5 -2.5q22 0 42.5 4t36.5 13.5t25 24.5t9 36q0 39 -30.5 59.5t-69.5 20.5h-40v57
q57 0 91 26.5t34 73.5q0 21 -21 36t-50 15q-34 0 -92 -37l-6 68q17 8 29.5 14t24.5 9.5t26 5.5t33 2q25 0 48.5 -7t41.5 -20.5t29 -33t11 -45.5q0 -45 -18 -76.5t-48 -48.5q34 -11 60.5 -39.5t26.5 -76.5q0 -37 -17.5 -64t-45.5 -44.5t-61.5 -26t-66.5 -8.5z" />
    <glyph glyph-name="uni2464" unicode="&#x2464;" horiz-adv-x="1000" 
d="M948 229q0 -92 -35 -173.5t-95.5 -142.5t-142 -96t-174.5 -35t-174.5 35t-142.5 96t-96.5 142t-35.5 174t35.5 174t96.5 142t142.5 96t174.5 35t174.5 -35t142 -96t95.5 -142t35 -174zM885 227q0 80 -30 151.5t-82.5 125t-122.5 85t-150 31.5t-150 -31.5t-122 -85
t-82.5 -124.5t-30.5 -151t30 -150.5t82.5 -123.5t122.5 -84t150 -31q79 0 149.5 31t122.5 83.5t82.5 123t30.5 150.5zM583 0h-71v136h-177v50q40 81 91 155t108 143h49v-288h65v-60h-65v-136zM512 357q-26 -39 -51 -79t-46 -82h97v161z" />
    <glyph glyph-name="uni2465" unicode="&#x2465;" horiz-adv-x="1000" 
d="M948 229q0 -92 -35 -173.5t-95.5 -142.5t-142 -96t-174.5 -35t-174.5 35t-142.5 96t-96.5 142t-35.5 174t35.5 174t96.5 142t142.5 96t174.5 35t174.5 -35t142 -96t95.5 -142t35 -174zM885 227q0 80 -30 151.5t-82.5 125t-122.5 85t-150 31.5t-150 -31.5t-122 -85
t-82.5 -124.5t-30.5 -151t30 -150.5t82.5 -123.5t122.5 -84t150 -31q79 0 149.5 31t122.5 83.5t82.5 123t30.5 150.5zM431 -7q-17 1 -33.5 3.5t-39.5 8.5l6 62q43 -12 72 -12q43 0 72.5 21t29.5 68q0 31 -12.5 49t-35 28t-54 13t-68.5 3l39 237h200v-59h-136l-21 -120
q29 -2 59 -10t54.5 -26t40 -46t15.5 -68q0 -38 -16.5 -66.5t-43.5 -47.5t-60.5 -28.5t-67.5 -9.5z" />
    <glyph glyph-name="uni2466" unicode="&#x2466;" horiz-adv-x="1000" 
d="M948 229q0 -92 -35 -173.5t-95.5 -142.5t-142 -96t-174.5 -35t-174.5 35t-142.5 96t-96.5 142t-35.5 174t35.5 174t96.5 142t142.5 96t174.5 35t174.5 -35t142 -96t95.5 -142t35 -174zM885 227q0 80 -30 151.5t-82.5 125t-122.5 85t-150 31.5t-150 -31.5t-122 -85
t-82.5 -124.5t-30.5 -151t30 -150.5t82.5 -123.5t122.5 -84t150 -31q79 0 149.5 31t122.5 83.5t82.5 123t30.5 150.5zM495 -8q-35 0 -63.5 9t-48 30.5t-30 57t-10.5 87.5q0 93 54.5 175t156.5 140l42 -55q-25 -12 -50 -29.5t-46 -38t-37.5 -43t-25.5 -44.5q20 8 37 10.5
t40 2.5q32 0 56 -13t39.5 -34t23 -47.5t7.5 -53.5q0 -30 -8.5 -58t-26.5 -49t-45.5 -34t-64.5 -13zM494 227q-22 0 -39 -4t-33 -12q-1 -7 -1 -16v-16q0 -68 17.5 -95.5t59.5 -27.5q22 0 34.5 7.5t19 19.5t8.5 27.5t2 32.5q0 38 -16.5 61t-51.5 23z" />
    <glyph glyph-name="uni2467" unicode="&#x2467;" horiz-adv-x="1000" 
d="M948 229q0 -92 -35 -173.5t-95.5 -142.5t-142 -96t-174.5 -35t-174.5 35t-142.5 96t-96.5 142t-35.5 174t35.5 174t96.5 142t142.5 96t174.5 35t174.5 -35t142 -96t95.5 -142t35 -174zM885 227q0 80 -30 151.5t-82.5 125t-122.5 85t-150 31.5t-150 -31.5t-122 -85
t-82.5 -124.5t-30.5 -151t30 -150.5t82.5 -123.5t122.5 -84t150 -31q79 0 149.5 31t122.5 83.5t82.5 123t30.5 150.5zM564 238q-23 -64 -51 -126t-54 -112h-85q7 11 22 39t33.5 66.5t38 83t34.5 88.5l48 138h-131l-8 -44h-58v103h296z" />
    <glyph glyph-name="uni2468" unicode="&#x2468;" horiz-adv-x="1000" 
d="M948 229q0 -92 -35 -173.5t-95.5 -142.5t-142 -96t-174.5 -35t-174.5 35t-142.5 96t-96.5 142t-35.5 174t35.5 174t96.5 142t142.5 96t174.5 35t174.5 -35t142 -96t95.5 -142t35 -174zM885 227q0 80 -30 151.5t-82.5 125t-122.5 85t-150 31.5t-150 -31.5t-122 -85
t-82.5 -124.5t-30.5 -151t30 -150.5t82.5 -123.5t122.5 -84t150 -31q79 0 149.5 31t122.5 83.5t82.5 123t30.5 150.5zM488 -8q-34 0 -61 9.5t-46.5 26t-30 38.5t-10.5 46q0 10 2.5 24t9 29t17 29.5t25.5 26.5l39 29q-32 25 -53 51.5t-21 69.5q0 22 11 42.5t29.5 36t43 24.5
t51.5 9q24 0 47 -7t40 -20.5t27.5 -33.5t10.5 -47q0 -24 -8 -51t-36 -49l-25 -21q17 -13 33.5 -26.5t29.5 -30t21 -36t8 -43.5q0 -26 -11 -49t-31 -40t-48.5 -27t-63.5 -10zM494 424q-31 0 -47 -15t-16 -39q0 -15 6 -26t15 -20.5t20 -17.5t21 -15q27 21 40.5 37.5t13.5 44.5
q0 23 -15 37t-38 14zM489 213q-12 -9 -25 -19t-24.5 -21t-18.5 -24.5t-7 -31.5q0 -31 20.5 -48.5t53.5 -17.5q41 0 60 21.5t19 45.5q0 15 -13 35t-35 37z" />
    <glyph glyph-name="uni2469" unicode="&#x2469;" horiz-adv-x="1000" 
d="M948 229q0 -92 -35 -173.5t-95.5 -142.5t-142 -96t-174.5 -35t-174.5 35t-142.5 96t-96.5 142t-35.5 174t35.5 174t96.5 142t142.5 96t174.5 35t174.5 -35t142 -96t95.5 -142t35 -174zM885 227q0 80 -30 151.5t-82.5 125t-122.5 85t-150 31.5t-150 -31.5t-122 -85
t-82.5 -124.5t-30.5 -151t30 -150.5t82.5 -123.5t122.5 -84t150 -31q79 0 149.5 31t122.5 83.5t82.5 123t30.5 150.5zM388 38q25 12 49.5 30t46 38.5t38 42.5t25.5 44q-20 -8 -37 -10.5t-40 -2.5q-32 0 -56 13t-40 34t-23.5 47.5t-7.5 53.5q0 30 8.5 58t26.5 49.5t45.5 34.5
t65.5 13q35 0 63 -9.5t47.5 -31t30 -56.5t10.5 -87q0 -94 -54 -175.5t-156 -139.5zM486 419q-22 0 -35 -7.5t-19.5 -20t-8.5 -28.5t-2 -32q0 -38 17 -61t52 -23q22 0 38.5 4t33.5 12q1 8 1 17v16q0 68 -18 95.5t-59 27.5z" />
    <glyph glyph-name="uni246A" unicode="&#x246a;" horiz-adv-x="1200" 
d="M1148 229q0 -90 -33.5 -170t-91.5 -140t-136.5 -96.5t-168.5 -39.5q-10 0 -28.5 -1t-38 -1.5t-35.5 -1t-22 -0.5q-22 0 -47 1t-66 3q-89 4 -167.5 40.5t-136.5 96.5t-91.5 139.5t-33.5 169.5t33.5 169.5t91.5 140t136.5 97t167.5 40.5q49 2 74.5 3.5t46.5 1.5l121 -5
q89 -5 166.5 -41.5t135 -96.5t90.5 -139.5t33 -169.5zM1085 227q0 78 -28.5 147.5t-78.5 123t-117 86t-143 36.5q-36 2 -61 2.5t-48 0.5q-27 0 -55.5 -1t-72.5 -3q-77 -4 -143.5 -36.5t-116 -85.5t-78 -122t-28.5 -147t28.5 -147t78.5 -121.5t116.5 -84.5t143.5 -36
q48 -2 73 -3.5t45 -1.5t45 1.5t73 3.5q76 4 143 36t117 84.5t78.5 121.5t28.5 146zM304 0v61h78v350h-78v61h150v-411h77v-61h-227zM771 -8q-38 0 -65.5 20t-46.5 53.5t-28 78t-9 93.5t9 94t28 78.5t46.5 53.5t65.5 20q37 0 65 -20t46.5 -53.5t27.5 -78t9 -93.5
q0 -50 -9 -94.5t-27.5 -78t-46.5 -53.5t-65 -20zM771 420q-27 0 -49.5 -48t-22.5 -135q0 -43 6 -77t16.5 -57.5t23 -36t26.5 -12.5q13 0 26 12.5t23.5 36t16.5 57.5t6 77q0 87 -22.5 135t-49.5 48z" />
    <glyph glyph-name="uni246B" unicode="&#x246b;" horiz-adv-x="1200" 
d="M1148 229q0 -90 -33.5 -170t-91.5 -140t-136.5 -96.5t-168.5 -39.5q-10 0 -28.5 -1t-38 -1.5t-35.5 -1t-22 -0.5q-22 0 -47 1t-66 3q-89 4 -167.5 40.5t-136.5 96.5t-91.5 139.5t-33.5 169.5t33.5 169.5t91.5 140t136.5 97t167.5 40.5q49 2 74.5 3.5t46.5 1.5l121 -5
q89 -5 166.5 -41.5t135 -96.5t90.5 -139.5t33 -169.5zM1085 227q0 78 -28.5 147.5t-78.5 123t-117 86t-143 36.5q-36 2 -61 2.5t-48 0.5q-27 0 -55.5 -1t-72.5 -3q-77 -4 -143.5 -36.5t-116 -85.5t-78 -122t-28.5 -147t28.5 -147t78.5 -121.5t116.5 -84.5t143.5 -36
q48 -2 73 -3.5t45 -1.5t45 1.5t73 3.5q76 4 143 36t117 84.5t78.5 121.5t28.5 146zM304 0v61h78v350h-78v61h150v-411h77v-61h-227zM664 0v61h78v350h-78v61h150v-411h77v-61h-227z" />
    <glyph glyph-name="uni246C" unicode="&#x246c;" horiz-adv-x="1200" 
d="M1148 229q0 -90 -33.5 -170t-91.5 -140t-136.5 -96.5t-168.5 -39.5q-10 0 -28.5 -1t-38 -1.5t-35.5 -1t-22 -0.5q-22 0 -47 1t-66 3q-89 4 -167.5 40.5t-136.5 96.5t-91.5 139.5t-33.5 169.5t33.5 169.5t91.5 140t136.5 97t167.5 40.5q49 2 74.5 3.5t46.5 1.5l121 -5
q89 -5 166.5 -41.5t135 -96.5t90.5 -139.5t33 -169.5zM1085 227q0 78 -28.5 147.5t-78.5 123t-117 86t-143 36.5q-36 2 -61 2.5t-48 0.5q-27 0 -55.5 -1t-72.5 -3q-77 -4 -143.5 -36.5t-116 -85.5t-78 -122t-28.5 -147t28.5 -147t78.5 -121.5t116.5 -84.5t143.5 -36
q48 -2 73 -3.5t45 -1.5t45 1.5t73 3.5q76 4 143 36t117 84.5t78.5 121.5t28.5 146zM304 0v61h78v350h-78v61h150v-411h77v-61h-227zM612 34q38 45 75 85t67 78t48.5 75t18.5 77t-19 56t-53 16q-22 0 -50.5 -8.5t-61.5 -27.5l-6 68q29 14 58 22t69 8q19 0 43 -4.5t45 -18
t35.5 -37.5t14.5 -64q0 -36 -8.5 -66.5t-23.5 -57.5t-34 -52t-40 -50q-14 -17 -29.5 -35t-32.5 -38h186v-60h-302v34z" />
    <glyph glyph-name="uni246D" unicode="&#x246d;" horiz-adv-x="1200" 
d="M1148 229q0 -90 -33.5 -170t-91.5 -140t-136.5 -96.5t-168.5 -39.5q-10 0 -28.5 -1t-38 -1.5t-35.5 -1t-22 -0.5q-22 0 -47 1t-66 3q-89 4 -167.5 40.5t-136.5 96.5t-91.5 139.5t-33.5 169.5t33.5 169.5t91.5 140t136.5 97t167.5 40.5q49 2 74.5 3.5t46.5 1.5l121 -5
q89 -5 166.5 -41.5t135 -96.5t90.5 -139.5t33 -169.5zM1085 227q0 78 -28.5 147.5t-78.5 123t-117 86t-143 36.5q-36 2 -61 2.5t-48 0.5q-27 0 -55.5 -1t-72.5 -3q-77 -4 -143.5 -36.5t-116 -85.5t-78 -122t-28.5 -147t28.5 -147t78.5 -121.5t116.5 -84.5t143.5 -36
q48 -2 73 -3.5t45 -1.5t45 1.5t73 3.5q76 4 143 36t117 84.5t78.5 121.5t28.5 146zM304 0v61h78v350h-78v61h150v-411h77v-61h-227zM711 -6q-17 0 -34.5 2.5t-38.5 9.5l6 62q20 -7 35.5 -9.5t29.5 -2.5q22 0 42.5 4t36.5 13.5t25 24.5t9 36q0 39 -30.5 59.5t-69.5 20.5h-40
v57q57 0 91 26.5t34 73.5q0 21 -21 36t-50 15q-34 0 -92 -37l-6 68q17 8 29.5 14t24.5 9.5t26 5.5t33 2q25 0 48.5 -7t41.5 -20.5t29 -33t11 -45.5q0 -45 -18 -76.5t-48 -48.5q34 -11 60.5 -39.5t26.5 -76.5q0 -37 -17.5 -64t-45.5 -44.5t-61.5 -26t-66.5 -8.5z" />
    <glyph glyph-name="uni246E" unicode="&#x246e;" horiz-adv-x="1200" 
d="M1148 229q0 -90 -33.5 -170t-91.5 -140t-136.5 -96.5t-168.5 -39.5q-10 0 -28.5 -1t-38 -1.5t-35.5 -1t-22 -0.5q-22 0 -47 1t-66 3q-89 4 -167.5 40.5t-136.5 96.5t-91.5 139.5t-33.5 169.5t33.5 169.5t91.5 140t136.5 97t167.5 40.5q49 2 74.5 3.5t46.5 1.5l121 -5
q89 -5 166.5 -41.5t135 -96.5t90.5 -139.5t33 -169.5zM1085 227q0 78 -28.5 147.5t-78.5 123t-117 86t-143 36.5q-36 2 -61 2.5t-48 0.5q-27 0 -55.5 -1t-72.5 -3q-77 -4 -143.5 -36.5t-116 -85.5t-78 -122t-28.5 -147t28.5 -147t78.5 -121.5t116.5 -84.5t143.5 -36
q48 -2 73 -3.5t45 -1.5t45 1.5t73 3.5q76 4 143 36t117 84.5t78.5 121.5t28.5 146zM304 0v61h78v350h-78v61h150v-411h77v-61h-227zM863 0h-71v136h-177v50q40 81 91 155t108 143h49v-288h65v-60h-65v-136zM792 357q-26 -39 -51 -79t-46 -82h97v161z" />
    <glyph glyph-name="uni246F" unicode="&#x246f;" horiz-adv-x="1200" 
d="M1148 229q0 -90 -33.5 -170t-91.5 -140t-136.5 -96.5t-168.5 -39.5q-10 0 -28.5 -1t-38 -1.5t-35.5 -1t-22 -0.5q-22 0 -47 1t-66 3q-89 4 -167.5 40.5t-136.5 96.5t-91.5 139.5t-33.5 169.5t33.5 169.5t91.5 140t136.5 97t167.5 40.5q49 2 74.5 3.5t46.5 1.5l121 -5
q89 -5 166.5 -41.5t135 -96.5t90.5 -139.5t33 -169.5zM1085 227q0 78 -28.5 147.5t-78.5 123t-117 86t-143 36.5q-36 2 -61 2.5t-48 0.5q-27 0 -55.5 -1t-72.5 -3q-77 -4 -143.5 -36.5t-116 -85.5t-78 -122t-28.5 -147t28.5 -147t78.5 -121.5t116.5 -84.5t143.5 -36
q48 -2 73 -3.5t45 -1.5t45 1.5t73 3.5q76 4 143 36t117 84.5t78.5 121.5t28.5 146zM304 0v61h78v350h-78v61h150v-411h77v-61h-227zM711 -7q-17 1 -33.5 3.5t-39.5 8.5l6 62q43 -12 72 -12q43 0 72.5 21t29.5 68q0 31 -12.5 49t-35 28t-54 13t-68.5 3l39 237h200v-59h-136
l-21 -120q29 -2 59 -10t54.5 -26t40 -46t15.5 -68q0 -38 -16.5 -66.5t-43.5 -47.5t-60.5 -28.5t-67.5 -9.5z" />
    <glyph glyph-name="uni2470" unicode="&#x2470;" horiz-adv-x="1200" 
d="M1148 229q0 -90 -33.5 -170t-91.5 -140t-136.5 -96.5t-168.5 -39.5q-10 0 -28.5 -1t-38 -1.5t-35.5 -1t-22 -0.5q-22 0 -47 1t-66 3q-89 4 -167.5 40.5t-136.5 96.5t-91.5 139.5t-33.5 169.5t33.5 169.5t91.5 140t136.5 97t167.5 40.5q49 2 74.5 3.5t46.5 1.5l121 -5
q89 -5 166.5 -41.5t135 -96.5t90.5 -139.5t33 -169.5zM1085 227q0 78 -28.5 147.5t-78.5 123t-117 86t-143 36.5q-36 2 -61 2.5t-48 0.5q-27 0 -55.5 -1t-72.5 -3q-77 -4 -143.5 -36.5t-116 -85.5t-78 -122t-28.5 -147t28.5 -147t78.5 -121.5t116.5 -84.5t143.5 -36
q48 -2 73 -3.5t45 -1.5t45 1.5t73 3.5q76 4 143 36t117 84.5t78.5 121.5t28.5 146zM304 0v61h78v350h-78v61h150v-411h77v-61h-227zM775 -8q-35 0 -63.5 9t-48 30.5t-30 57t-10.5 87.5q0 93 54.5 175t156.5 140l42 -55q-25 -12 -50 -29.5t-46 -38t-37.5 -43t-25.5 -44.5
q20 8 37 10.5t40 2.5q32 0 56 -13t39.5 -34t23 -47.5t7.5 -53.5q0 -30 -8.5 -58t-26.5 -49t-45.5 -34t-64.5 -13zM774 227q-22 0 -39 -4t-33 -12q-1 -7 -1 -16v-16q0 -68 17.5 -95.5t59.5 -27.5q22 0 34.5 7.5t19 19.5t8.5 27.5t2 32.5q0 38 -16.5 61t-51.5 23z" />
    <glyph glyph-name="uni2471" unicode="&#x2471;" horiz-adv-x="1200" 
d="M1148 229q0 -90 -33.5 -170t-91.5 -140t-136.5 -96.5t-168.5 -39.5q-10 0 -28.5 -1t-38 -1.5t-35.5 -1t-22 -0.5q-22 0 -47 1t-66 3q-89 4 -167.5 40.5t-136.5 96.5t-91.5 139.5t-33.5 169.5t33.5 169.5t91.5 140t136.5 97t167.5 40.5q49 2 74.5 3.5t46.5 1.5l121 -5
q89 -5 166.5 -41.5t135 -96.5t90.5 -139.5t33 -169.5zM1085 227q0 78 -28.5 147.5t-78.5 123t-117 86t-143 36.5q-36 2 -61 2.5t-48 0.5q-27 0 -55.5 -1t-72.5 -3q-77 -4 -143.5 -36.5t-116 -85.5t-78 -122t-28.5 -147t28.5 -147t78.5 -121.5t116.5 -84.5t143.5 -36
q48 -2 73 -3.5t45 -1.5t45 1.5t73 3.5q76 4 143 36t117 84.5t78.5 121.5t28.5 146zM304 0v61h78v350h-78v61h150v-411h77v-61h-227zM844 238q-23 -64 -51 -126t-54 -112h-85q7 11 22 39t33.5 66.5t38 83t34.5 88.5l48 138h-131l-8 -44h-58v103h296z" />
    <glyph glyph-name="uni2472" unicode="&#x2472;" horiz-adv-x="1200" 
d="M1148 229q0 -90 -33.5 -170t-91.5 -140t-136.5 -96.5t-168.5 -39.5q-10 0 -28.5 -1t-38 -1.5t-35.5 -1t-22 -0.5q-22 0 -47 1t-66 3q-89 4 -167.5 40.5t-136.5 96.5t-91.5 139.5t-33.5 169.5t33.5 169.5t91.5 140t136.5 97t167.5 40.5q49 2 74.5 3.5t46.5 1.5l121 -5
q89 -5 166.5 -41.5t135 -96.5t90.5 -139.5t33 -169.5zM1085 227q0 78 -28.5 147.5t-78.5 123t-117 86t-143 36.5q-36 2 -61 2.5t-48 0.5q-27 0 -55.5 -1t-72.5 -3q-77 -4 -143.5 -36.5t-116 -85.5t-78 -122t-28.5 -147t28.5 -147t78.5 -121.5t116.5 -84.5t143.5 -36
q48 -2 73 -3.5t45 -1.5t45 1.5t73 3.5q76 4 143 36t117 84.5t78.5 121.5t28.5 146zM304 0v61h78v350h-78v61h150v-411h77v-61h-227zM768 -8q-34 0 -61 9.5t-46.5 26t-30 38.5t-10.5 46q0 10 2.5 24t9 29t17 29.5t25.5 26.5l39 29q-32 25 -53 51.5t-21 69.5q0 22 11 42.5
t29.5 36t43 24.5t51.5 9q24 0 47 -7t40 -20.5t27.5 -33.5t10.5 -47q0 -24 -8 -51t-36 -49l-25 -21q17 -13 33.5 -26.5t29.5 -30t21 -36t8 -43.5q0 -26 -11 -49t-31 -40t-48.5 -27t-63.5 -10zM774 424q-31 0 -47 -15t-16 -39q0 -15 6 -26t15 -20.5t20 -17.5t21 -15
q27 21 40.5 37.5t13.5 44.5q0 23 -15 37t-38 14zM769 213q-12 -9 -25 -19t-24.5 -21t-18.5 -24.5t-7 -31.5q0 -31 20.5 -48.5t53.5 -17.5q41 0 60 21.5t19 45.5q0 15 -13 35t-35 37z" />
    <glyph glyph-name="uni2473" unicode="&#x2473;" horiz-adv-x="1200" 
d="M1148 229q0 -90 -33.5 -170t-91.5 -140t-136.5 -96.5t-168.5 -39.5q-10 0 -28.5 -1t-38 -1.5t-35.5 -1t-22 -0.5q-22 0 -47 1t-66 3q-89 4 -167.5 40.5t-136.5 96.5t-91.5 139.5t-33.5 169.5t33.5 169.5t91.5 140t136.5 97t167.5 40.5q49 2 74.5 3.5t46.5 1.5l121 -5
q89 -5 166.5 -41.5t135 -96.5t90.5 -139.5t33 -169.5zM1085 227q0 78 -28.5 147.5t-78.5 123t-117 86t-143 36.5q-36 2 -61 2.5t-48 0.5q-27 0 -55.5 -1t-72.5 -3q-77 -4 -143.5 -36.5t-116 -85.5t-78 -122t-28.5 -147t28.5 -147t78.5 -121.5t116.5 -84.5t143.5 -36
q48 -2 73 -3.5t45 -1.5t45 1.5t73 3.5q76 4 143 36t117 84.5t78.5 121.5t28.5 146zM304 0v61h78v350h-78v61h150v-411h77v-61h-227zM668 38q25 12 49.5 30t46 38.5t38 42.5t25.5 44q-20 -8 -37 -10.5t-40 -2.5q-32 0 -56 13t-40 34t-23.5 47.5t-7.5 53.5q0 30 8.5 58
t26.5 49.5t45.5 34.5t65.5 13q35 0 63 -9.5t47.5 -31t30 -56.5t10.5 -87q0 -94 -54 -175.5t-156 -139.5zM766 419q-22 0 -35 -7.5t-19.5 -20t-8.5 -28.5t-2 -32q0 -38 17 -61t52 -23q22 0 38.5 4t33.5 12q1 8 1 17v16q0 68 -18 95.5t-59 27.5z" />
    <glyph glyph-name="uni24EA" unicode="&#x24ea;" horiz-adv-x="1200" 
d="M1148 229q0 -90 -33.5 -170t-91.5 -140t-136.5 -96.5t-168.5 -39.5q-10 0 -28.5 -1t-38 -1.5t-35.5 -1t-22 -0.5q-22 0 -47 1t-66 3q-89 4 -167.5 40.5t-136.5 96.5t-91.5 139.5t-33.5 169.5t33.5 169.5t91.5 140t136.5 97t167.5 40.5q49 2 74.5 3.5t46.5 1.5l121 -5
q89 -5 166.5 -41.5t135 -96.5t90.5 -139.5t33 -169.5zM1085 227q0 78 -28.5 147.5t-78.5 123t-117 86t-143 36.5q-36 2 -61 2.5t-48 0.5q-27 0 -55.5 -1t-72.5 -3q-77 -4 -143.5 -36.5t-116 -85.5t-78 -122t-28.5 -147t28.5 -147t78.5 -121.5t116.5 -84.5t143.5 -36
q48 -2 73 -3.5t45 -1.5t45 1.5t73 3.5q76 4 143 36t117 84.5t78.5 121.5t28.5 146zM252 34q38 45 75 85t67 78t48.5 75t18.5 77t-19 56t-53 16q-22 0 -50.5 -8.5t-61.5 -27.5l-6 68q29 14 58 22t69 8q19 0 43 -4.5t45 -18t35.5 -37.5t14.5 -64q0 -36 -8.5 -66.5t-23.5 -57.5
t-34 -52t-40 -50q-14 -17 -29.5 -35t-32.5 -38h186v-60h-302v34zM771 -8q-38 0 -65.5 20t-46.5 53.5t-28 78t-9 93.5t9 94t28 78.5t46.5 53.5t65.5 20q37 0 65 -20t46.5 -53.5t27.5 -78t9 -93.5q0 -50 -9 -94.5t-27.5 -78t-46.5 -53.5t-65 -20zM771 420q-27 0 -49.5 -48
t-22.5 -135q0 -43 6 -77t16.5 -57.5t23 -36t26.5 -12.5q13 0 26 12.5t23.5 36t16.5 57.5t6 77q0 87 -22.5 135t-49.5 48z" />
    <glyph glyph-name="H18543" unicode="&#x25aa;" horiz-adv-x="596" 
d="M42 0v453h453v-453h-453z" />
    <glyph glyph-name="H18551" unicode="&#x25ab;" horiz-adv-x="596" 
d="M42 0v453h453v-453h-453zM426 384h-315v-315h315v315z" />
    <glyph glyph-name="triagrt" unicode="&#x25ba;" horiz-adv-x="541" 
d="M34 -25v503l480 -252z" />
    <glyph glyph-name="uni25BB" unicode="&#x25bb;" horiz-adv-x="541" 
d="M34 -25v503l480 -250zM105 358v-264l253 134z" />
    <glyph glyph-name="triaglf" unicode="&#x25c4;" horiz-adv-x="541" 
d="M34 226l480 252v-503z" />
    <glyph glyph-name="uni25C5" unicode="&#x25c5;" horiz-adv-x="541" 
d="M34 226l480 252v-503zM443 359l-253 -133l253 -131v264z" />
    <glyph glyph-name="uni25C6" unicode="&#x25c6;" horiz-adv-x="644" 
d="M322 -94l-294 295l294 294l294 -294z" />
    <glyph glyph-name="uni25C7" unicode="&#x25c7;" horiz-adv-x="644" 
d="M322 -94l-294 295l294 294l294 -294zM322 399l-198 -198l198 -198l198 198z" />
    <glyph glyph-name="lozenge" unicode="&#x25ca;" horiz-adv-x="480" 
d="M240 -18l-230 388l230 376l230 -376zM240 644l-168 -274l168 -284l168 284z" />
    <glyph glyph-name="circle" unicode="&#x25cb;" horiz-adv-x="596" 
d="M514 223q0 -51 -19.5 -96t-52.5 -78.5t-78 -53t-96 -19.5t-96 19.5t-78.5 52.5t-53 78t-19.5 96t19.5 96t52.5 78.5t78 53t96 19.5t96 -19.5t78.5 -52.5t53 -78t19.5 -96zM444 223q0 36 -14 68t-38 56t-56 38t-68 14q-37 0 -69 -14t-56 -38t-38 -56t-14 -68q0 -37 14 -69
t38 -56t56 -38t68 -14q37 0 69 14t56 38t38 56t14 69z" />
    <glyph glyph-name="H18533" unicode="&#x25cf;" horiz-adv-x="596" 
d="M514 223q0 -51 -19.5 -96t-52.5 -78.5t-78 -53t-96 -19.5t-96 19.5t-78.5 52.5t-53 78t-19.5 96t19.5 96t52.5 78.5t78 53t96 19.5t96 -19.5t78.5 -52.5t53 -78t19.5 -96z" />
    <glyph glyph-name="uni2605" unicode="&#x2605;" horiz-adv-x="653" 
d="M449 183l76 -234l-199 144l-199 -144l77 233l-199 144h245l76 234l76 -234h246z" />
    <glyph glyph-name="uni2606" unicode="&#x2606;" horiz-adv-x="653" 
d="M449 183l76 -234l-199 144l-199 -144l77 233l-199 144h245l76 234l76 -234h246zM360 271l-34 133l-33 -133l-138 8l116 -73l-50 -127l105 87l105 -87l-50 127l117 73z" />
    <glyph glyph-name="uni2706" unicode="&#x2706;" horiz-adv-x="1000" 
d="M948 239q0 -28 -5 -64.5t-16 -75t-27 -75.5t-39 -66t-52 -46.5t-65 -17.5q-28 0 -55 17.5t-34 46.5q-37 7 -78 30.5t-82.5 56.5t-80.5 74t-72.5 83t-59 83t-39.5 75q-4 9 -4 23q0 13 7.5 33.5t19 40.5t26.5 34.5t30 14.5q12 0 30 -11.5t34.5 -27.5t28.5 -34t12 -30
q0 -11 -5.5 -21t-12 -19t-12 -18.5t-5.5 -20.5q0 -9 3.5 -17t8.5 -16q9 -14 31 -39.5t47.5 -52t50.5 -48t39 -27.5q3 -2 9.5 -3t10.5 -1q13 0 25 5.5t22.5 12.5t19 12.5t15.5 5.5q8 0 23.5 -13t30.5 -30.5t26 -34.5t11 -25q0 -12 -8.5 -22.5t-19 -20t-20.5 -17.5t-13 -14
q5 -11 17 -21.5t25 -10.5q9 0 20 9t16 15q24 25 40.5 57t27 67.5t15.5 71.5t5 69q0 77 -29 144.5t-79 117.5t-117.5 79t-144.5 29q-80 0 -148 -30t-118 -81.5t-78.5 -121t-28.5 -148.5q0 -77 29 -145t79.5 -119t118.5 -81t145 -30q39 0 70.5 6t66.5 22l25 -67
q-42 -14 -79.5 -22t-82.5 -8q-90 0 -171.5 35.5t-143 96.5t-97.5 142t-36 171q0 93 35 175t96 143t143 96t175 35q91 0 172 -33.5t142.5 -92.5t97.5 -138.5t36 -171.5z" />
    <glyph glyph-name="uni2709" unicode="&#x2709;" horiz-adv-x="1000" 
d="M65 -44v541h870v-541h-870zM650 236l232 -182v349zM150 446l350 -249l350 249h-700zM604 204l-104 -75l-103 74l-250 -195h706zM118 403v-349l232 182z" />
    <glyph glyph-name="uniFB06" unicode="&#xfb06;" horiz-adv-x="709" 
d="M685 16q-18 -11 -44.5 -20t-52.5 -9q-41 0 -69 27t-28 86v292h-69v60h69q5 13 8.5 22t6 18.5t4 22t1.5 32.5q0 30 -10.5 52.5t-29.5 38.5t-44 24t-53 8t-53 -8t-43.5 -23.5t-29 -38.5t-10.5 -52q0 -39 27.5 -66t78.5 -51l-8 -72q-33 27 -65 35.5t-67 8.5q-8 0 -22.5 -1.5
t-28.5 -7t-24 -16t-10 -29.5q0 -33 30 -51t80 -40q35 -15 60 -29t40.5 -30t23 -35t7.5 -45t-10.5 -50t-31.5 -42t-53.5 -29t-76.5 -11q-42 0 -80 9.5t-64 27.5l9 72q18 -11 32 -19.5t29 -14.5t32 -9t40 -3q45 0 71 15t26 44q0 28 -30.5 50t-89.5 46q-34 14 -57 28t-37.5 30
t-20.5 35.5t-6 45.5q0 25 9 47.5t28 39t47 26t66 9.5h11q7 0 26 -2q-27 25 -36 42.5t-9 40.5q0 41 15 74t40.5 56.5t60.5 36t74 12.5q40 0 74.5 -12.5t60.5 -35.5t41 -56t15 -74v-95h119v-60h-119v-268q0 -37 10.5 -54t36.5 -17q17 0 33.5 9t33.5 17z" />
    <glyph glyph-name="uniFEFF" unicode="&#xfeff;" horiz-adv-x="0" 
 />
    <glyph glyph-name="u1F310" unicode="&#x1f310;" horiz-adv-x="1000" 
d="M948 229q0 -92 -35 -173.5t-95.5 -142.5t-142 -96t-174.5 -35t-174.5 35t-142.5 96t-96.5 142t-35.5 174t35.5 174t96.5 142t142.5 96t174.5 35t174.5 -35t142 -96t95.5 -142t35 -174zM766 510q-37 36 -81.5 61.5t-95.5 37.5q47 -47 87 -125q25 5 47.5 11.5t42.5 14.5z
M884 257q-5 60 -25.5 113.5t-55.5 98.5q-47 -24 -102 -39q15 -39 25 -83t12 -90h146zM617 474q-22 45 -46.5 80.5t-45.5 57.5l5 -145q23 1 44.5 2.5t42.5 4.5zM476 613q-22 -22 -46.5 -57.5t-46.5 -82.5q42 -4 89 -6zM676 257q-3 42 -12 82.5t-23 76.5q-53 -9 -111 -12v-147
h146zM738 201q-3 -45 -13.5 -89t-27.5 -82q30 -8 56.5 -18.5t50.5 -22.5q35 45 55.5 98.5t24.5 113.5h-146zM410 609q-103 -26 -177 -100q20 -8 42.5 -14.5t47.5 -11.5q20 38 42 70t45 56zM472 404q-30 1 -58.5 3.5t-55.5 6.5q-13 -35 -22 -75.5t-12 -81.5h148v147zM530 201
v-147q29 -1 57 -3.5t54 -7.5q14 36 23 76t12 82h-146zM767 -52q-22 8 -46 15.5t-50 12.5q-22 -41 -47 -73.5t-49 -56.5q55 11 103.5 37.5t88.5 64.5zM298 426q-29 8 -55.5 17t-49.5 20q-33 -45 -52.5 -97t-24.5 -109h145q3 45 13 88t24 81zM472 201h-148q6 -83 34 -157
q27 5 55.5 7t58.5 4v146zM616 -15q-21 3 -42 4.5t-44 2.5l-5 -143q21 22 45 56.5t46 79.5zM472 -8q-45 -1 -89 -6q23 -46 47.5 -81.5t45.5 -57.5zM301 33q-16 38 -26.5 80.5t-13.5 87.5h-145q4 -57 24 -109t52 -97q24 12 51.5 21t57.5 17zM425 -154q-24 24 -49 57t-48 74
q-26 -5 -50.5 -12t-45.5 -15q39 -39 88 -66t105 -38z" />
    <glyph glyph-name="u1F4E0" unicode="&#x1f4e0;" horiz-adv-x="1000" 
d="M941 305q2 -17 4.5 -33t2.5 -33q0 -28 -5 -64.5t-16 -75t-27 -75.5t-39 -66t-52 -46.5t-65 -17.5q-28 0 -55 17.5t-34 46.5q-37 7 -78.5 30.5t-82.5 56.5t-80 74t-72.5 83t-59 83t-39.5 75q-4 9 -4 23q0 13 7.5 33.5t19 40.5t26.5 34.5t30 14.5q13 0 29.5 -11t25.5 -19
l131 132h-32q-73 0 -136.5 -34t-111 -88.5t-74.5 -123t-27 -137.5q0 -79 29 -147t79.5 -118.5t118.5 -79.5t147 -29q38 0 68.5 5t65.5 20l26 -65q-42 -14 -80 -22t-82 -8q-90 0 -171.5 35.5t-143 96.5t-97.5 142t-36 171q0 93 35 175t96 143t143 96t175 35q17 0 35 -2t35 -4
l156 156l260 -260v-215zM857 459l87 87l-219 218l-319 -319q7 -8 14 -20t7 -23t-5.5 -20.5t-12 -18.5t-12 -18.5t-5.5 -20.5q0 -9 3.5 -17t8.5 -16q8 -13 30.5 -39t49 -53t51 -49t37.5 -26q5 -2 10 -3t10 -1q13 0 25 5.5t22.5 12.5t19 12.5t15.5 5.5q8 0 17 -10l15 -14
l239 239zM736 101q6 -7 17.5 -22t11.5 -25q0 -15 -14.5 -31t-25.5 -25q-1 -1 -4.5 -4t-7.5 -6t-7 -6l-2 -3q4 -11 17 -21.5t25 -10.5q13 0 27 13.5t26 31.5t21.5 36.5t13.5 28.5q8 18 14 36.5t11 37.5q15 54 15 109zM789 309l-217 217l30 32l218 -218zM665 185l-216 217
l30 32l217 -218zM728 247l-218 217l31 31l218 -218z" />
    <glyph glyph-name="u1F4E7" unicode="&#x1f4e7;" horiz-adv-x="1000" 
d="M948 255q0 -81 -36.5 -133t-93.5 -82t-127 -42t-137 -12q-51 0 -97 13t-80.5 41.5t-54.5 74t-20 110.5q0 58 16 103t44 75.5t66.5 46t83.5 15.5q53 0 89.5 -13.5t59 -40t32.5 -66.5t10 -94h-315q-2 -8 -2 -12v-13q0 -83 40 -127.5t114 -44.5q53 0 112 4.5t108 24t81 60
t32 111.5q0 90 -33 156.5t-86 110.5t-120 65.5t-135 21.5q-75 0 -142.5 -28.5t-118.5 -79.5t-81 -122t-30 -155q0 -80 27 -148.5t76.5 -118t118 -77.5t151.5 -28q64 0 109 15t76 32l33 -60q-38 -21 -95.5 -38.5t-121.5 -17.5q-100 0 -182.5 34.5t-142 94.5t-92 140
t-32.5 170q0 97 35.5 180.5t96.5 144.5t142.5 95.5t173.5 34.5q91 0 172.5 -29t143 -84t97 -133t35.5 -175zM630 311q-2 30 -12.5 47.5t-27.5 27t-38 12t-44 2.5q-17 0 -38 -5t-25 -9q-2 -2 -8 -7.5t-13 -15t-14 -22.5t-11 -30h231z" />
    <glyph glyph-name="u1F4F1" unicode="&#x1f4f1;" horiz-adv-x="1000" 
d="M615 189q0 -32 -1.5 -73.5t-7.5 -79t-18 -63.5t-33 -26h-122q-21 0 -33.5 27.5t-18.5 67t-7.5 82t-1.5 72.5v30q0 50 1 94.5t3 74.5q2 23 17.5 39.5t38.5 16.5h77v89q0 11 7 18t18 7h18q11 0 18 -7t7 -18v-94q15 -6 24.5 -20t9.5 -31q3 -18 4 -39.5t1 -44.5
q0 -20 -0.5 -41t-0.5 -44v-37zM858 330q-10 43 -31.5 83.5t-53.5 75t-75.5 61.5t-97.5 44l25 66q50 -14 98.5 -43t90 -69.5t72 -90.5t44.5 -106zM376 -199q-50 14 -98.5 43t-89.5 69.5t-72 90.5t-45 106l70 23q10 -43 30.5 -83t52.5 -75t76.5 -63t101.5 -46zM930 106
q-14 -50 -42.5 -99t-68.5 -90.5t-90.5 -72t-107.5 -43.5l-22 63q41 10 81.5 32.5t75.5 56t63 78.5t45 99zM406 594q-42 -10 -82.5 -31t-75.5 -53.5t-63 -76t-44 -97.5l-70 19q14 50 43 98.5t69.5 90t90.5 72t106 44.5zM568 370q0 11 -7.5 18t-17.5 7h-92q-10 0 -17.5 -7
t-7.5 -18l4 -95q1 -11 5.5 -18t15.5 -7h91q11 0 16 7t6 18z" />
    <glyph glyph-name="nine.osf" horiz-adv-x="475" 
d="M436 203q0 -71 -19 -129.5t-55.5 -109t-89.5 -95.5t-120 -87l-42 60q40 25 78.5 51t70 56t54.5 66t34 83q-32 -21 -66.5 -31.5t-74.5 -10.5q-42 0 -73 15.5t-51.5 42.5t-31 63.5t-10.5 77.5q0 45 14 83.5t39.5 66t61 43.5t78.5 16q94 0 148.5 -64t54.5 -197zM355 210
q0 36 -7 69.5t-22 59t-39 40.5t-58 15q-30 0 -50.5 -11.5t-32.5 -30t-17 -43t-5 -49.5q0 -63 26 -96t85 -33q35 0 63.5 8t54.5 22q1 11 1.5 23t0.5 26z" />
    <glyph glyph-name="eight.osf" horiz-adv-x="482" 
d="M443 149q0 -74 -55 -118t-152 -44q-92 0 -144 41.5t-52 110.5q0 31 15.5 71.5t56.5 74.5l69 57l-32 28q-49 41 -65.5 77.5t-16.5 77.5q0 31 14 59.5t38 51t56.5 36t70.5 13.5q33 0 63 -10t52.5 -29.5t35.5 -48.5t13 -66q0 -35 -10.5 -70t-46.5 -67l-51 -45
q24 -20 49.5 -40t45.5 -43t33 -51.5t13 -65.5zM364 147q0 29 -21.5 58.5t-53.5 55.5l-51 43l-65 -56q-23 -20 -38.5 -42.5t-15.5 -59.5q0 -56 33.5 -76t85.5 -20q63 0 94.5 26.5t31.5 70.5zM335 528q-1 42 -26.5 68.5t-62.5 26.5q-48 0 -75.5 -27t-27.5 -73q0 -18 4 -31
t12.5 -25t22.5 -25t34 -29l29 -24l44 40q30 27 38 53t8 46z" />
    <glyph glyph-name="five.osf" horiz-adv-x="397" 
d="M374 23q0 -66 -22.5 -110t-60 -70.5t-86.5 -37.5t-102 -11q-9 0 -25 0.5t-30 2.5l6 67q15 -2 35.5 -2.5t30.5 -0.5q166 0 166 146q0 55 -18.5 85.5t-50.5 45.5t-74 18t-88 3l64 294h239v-64h-176l-36 -169q42 0 83 -8t73.5 -29.5t52 -60t19.5 -99.5z" />
    <glyph glyph-name="four.osf" horiz-adv-x="463" 
d="M348 0v-194h-73v194h-251v60q28 51 61.5 103.5t68.5 105t72 103t73 96.5h49v-404h92v-64h-92zM275 331q-23 -33 -45 -67l-44 -68q-21 -33 -42.5 -66t-41.5 -66h173v267z" />
    <glyph glyph-name="three.osf" horiz-adv-x="418" 
d="M374 9q0 -54 -20 -94t-55.5 -67t-84 -40.5t-104.5 -13.5q-26 0 -62 3l6 67q15 -2 26.5 -2.5t22.5 -0.5q38 0 71.5 5.5t58.5 21t39.5 43t14.5 71.5q0 36 -10 59t-27.5 36.5t-42 19t-53.5 5.5h-44v59q28 7 56 17t50 25.5t36 38t14 54.5q0 44 -24 63.5t-68 19.5
q-28 0 -60 -14t-60 -34l-6 73q22 12 39.5 20t34 12.5t34 6.5t40.5 2q70 0 110 -32.5t40 -104.5q0 -60 -29.5 -101.5t-83.5 -58.5q29 -3 55 -12.5t45 -28t30 -47.5t11 -71z" />
    <glyph glyph-name="two.osf" horiz-adv-x="452" 
d="M37 0v32l149 130q62 55 85.5 93.5t23.5 74.5q0 41 -23 60t-66 19q-32 0 -66.5 -13t-68.5 -35l-6 73q16 9 30 16.5t30 13t35.5 8.5t47.5 3q38 0 69 -7.5t52.5 -24.5t33 -44t11.5 -66q0 -48 -22 -90.5t-75 -87.5l-105 -91h244v-64h-379z" />
    <glyph glyph-name="one.osf" horiz-adv-x="390" 
d="M47 0v64h121v325h-121v64h198v-389h121v-64h-319z" />
    <glyph glyph-name="zero.osf" horiz-adv-x="552" 
d="M506 228q0 -50 -18 -94.5t-49.5 -77.5t-73 -52t-89.5 -19t-89.5 19t-73 52t-49.5 77t-18 94t18 94.5t49.5 77.5t73 52t89.5 19t89.5 -19t73 -52t49.5 -77t18 -94zM276 49q31 0 59 15.5t49 40.5t33.5 57t12.5 65t-12 65.5t-33 57.5t-49 40.5t-60 15.5t-60 -15.5t-49 -40.5
t-33 -57t-12 -65t12 -65.5t33 -57.5t49 -40.5t60 -15.5z" />
    <glyph glyph-name="six.osf" horiz-adv-x="475" 
d="M439 195q0 -45 -14 -83.5t-39.5 -66t-61 -43.5t-78.5 -16q-95 0 -149 64t-54 197q0 70 19 130.5t55 113t88.5 99t120.5 88.5l42 -60q-41 -26 -79 -53t-69.5 -59t-54.5 -70t-33 -84q64 42 140 42q42 0 73.5 -15.5t52 -42.5t31 -63.5t10.5 -77.5zM355 190q0 63 -26 96
t-85 33q-35 0 -63.5 -8t-54.5 -22q-1 -11 -1.5 -23t-0.5 -26q0 -36 6.5 -69.5t21.5 -59t39 -40.5t59 -15q30 0 50.5 11.5t32.5 30t17 42.5t5 50z" />
    <glyph glyph-name="seven.osf" horiz-adv-x="401" 
d="M284 171q-32 -98 -67.5 -186.5t-77.5 -178.5h-89q18 32 41.5 81t47 105.5t45.5 116t38 113.5l50 167h-193l-12 -69h-57v133h364z" />
    <glyph glyph-name="gravecomb.case" horiz-adv-x="1" 
d="M-395 696l-127 185h78l104 -185h-55z" />
    <glyph glyph-name="acutecomb.case" horiz-adv-x="1" 
d="M-346 696h-56l105 185h78z" />
    <glyph glyph-name="uni0302.case" horiz-adv-x="1" 
d="M-289 693l-80 107l-84 -107h-57l113 178h52l117 -178h-61z" />
    <glyph glyph-name="tildecomb.case" horiz-adv-x="1" 
d="M-184 768q-27 -24 -55.5 -40t-65.5 -16q-27 0 -44 7.5t-30 16.5t-25.5 16.5t-29.5 7.5q-11 0 -22.5 -4t-22.5 -10t-20 -12.5t-15 -10.5l-29 38q32 27 61 43.5t71 16.5q17 0 31 -8t27.5 -17.5t29 -17.5t36.5 -8q17 0 36 12t39 25z" />
    <glyph glyph-name="uni0304.case" horiz-adv-x="1" 
d="M-396 705v65h352v-65h-352z" />
    </font>
</defs>
</svg>
